M48
; DRILL file KiCad 10.0.6 date 2026-09-21T21:01:24
; FORMAT={-:-/ absolute / metric / decimal}
; #@! TF.CreationDate,2026-09-21T21:01:24+03:00
; #@! TF.GenerationSoftware,Kicad,Pcbnew,10.0.6
; #@! TF.FileFunction,MixedPlating,1,4
FMAT,2
METRIC
; #@! TA.AperFunction,Plated,PTH,ViaDrill
T1C0.150
; #@! TA.AperFunction,NonPlated,NPTH,ComponentDrill
T2C2.400
%
G90
G05
T1
X56.88Y-96.52
X57.52Y-97.48
X58.48Y-96.52
X59.12Y-97.48
X60.08Y-96.52
X60.72Y-97.48
X61.68Y-96.52
X62.32Y-97.48
X63.28Y-96.52
X63.92Y-97.48
X64.88Y-96.52
X65.52Y-97.48
X66.48Y-96.52
X67.12Y-97.48
X68.08Y-96.52
X68.72Y-97.48
X69.68Y-96.52
X70.32Y-97.48
X71.28Y-96.52
X71.92Y-97.48
X72.88Y-96.52
X73.52Y-97.48
X74.48Y-96.52
X75.12Y-97.48
X76.08Y-96.52
X76.72Y-97.48
X77.68Y-96.52
X78.32Y-97.48
X79.28Y-96.52
X79.92Y-97.48
X80.88Y-96.52
X81.52Y-97.48
X82.48Y-96.52
X83.12Y-97.48
X84.08Y-96.52
X84.72Y-97.48
X85.68Y-96.52
X86.32Y-97.48
X96.52Y-112.72
X96.52Y-114.32
X96.52Y-115.92
X96.52Y-117.52
X96.52Y-119.12
X96.52Y-120.72
X96.52Y-122.32
X96.52Y-123.92
X96.52Y-125.52
X96.52Y-127.12
X96.52Y-128.72
X96.52Y-130.32
X96.52Y-131.92
X96.52Y-133.52
X96.52Y-135.12
X96.52Y-136.72
X96.52Y-138.32
X96.52Y-139.92
X96.52Y-141.52
X97.48Y-115.28
X97.48Y-116.88
X97.48Y-118.48
X97.48Y-120.08
X97.48Y-121.68
X97.48Y-123.28
X97.48Y-124.88
X97.48Y-126.48
X97.48Y-128.08
X97.48Y-129.68
X97.48Y-131.28
X97.48Y-132.88
X97.48Y-134.48
X97.48Y-136.08
X97.48Y-137.68
X97.48Y-139.28
X97.48Y-140.88
X97.48Y-142.48
X97.48Y-144.08
X102.52Y-55.92
X102.52Y-57.52
X102.52Y-59.12
X102.52Y-60.72
X102.52Y-62.32
X102.52Y-63.92
X102.52Y-65.52
X102.52Y-67.12
X102.52Y-68.72
X102.52Y-70.32
X102.52Y-71.92
X102.52Y-73.52
X102.52Y-75.12
X102.52Y-76.72
X102.52Y-78.32
X102.52Y-79.92
X102.52Y-81.52
X102.52Y-83.12
X102.52Y-84.72
X103.48Y-58.48
X103.48Y-60.08
X103.48Y-61.68
X103.48Y-63.28
X103.48Y-64.88
X103.48Y-66.48
X103.48Y-68.08
X103.48Y-69.68
X103.48Y-71.28
X103.48Y-72.88
X103.48Y-74.48
X103.48Y-76.08
X103.48Y-77.68
X103.48Y-79.28
X103.48Y-80.88
X103.48Y-82.48
X103.48Y-84.08
X103.48Y-85.68
X103.48Y-87.28
X113.68Y-102.52
X114.32Y-103.48
X115.28Y-102.52
X115.92Y-103.48
X116.88Y-102.52
X117.52Y-103.48
X118.48Y-102.52
X119.12Y-103.48
X120.08Y-102.52
X120.72Y-103.48
X121.68Y-102.52
X122.32Y-103.48
X123.28Y-102.52
X123.92Y-103.48
X124.88Y-102.52
X125.52Y-103.48
X126.48Y-102.52
X127.12Y-103.48
X128.08Y-102.52
X128.72Y-103.48
X129.68Y-102.52
X130.32Y-103.48
X131.28Y-102.52
X131.92Y-103.48
X132.88Y-102.52
X133.52Y-103.48
X134.48Y-102.52
X135.12Y-103.48
X136.08Y-102.52
X136.72Y-103.48
X137.68Y-102.52
X138.32Y-103.48
X139.28Y-102.52
X139.92Y-103.48
X140.88Y-102.52
X141.52Y-103.48
X142.48Y-102.52
X143.12Y-103.48
T2
X87.979Y-87.979
X87.979Y-112.021
X112.021Y-87.979
X112.021Y-112.021
M30
