%TF.GenerationSoftware,KiCad,Pcbnew,10.0.6*%
%TF.CreationDate,2026-09-21T21:01:25+03:00*%
%TF.ProjectId,smartspinner_tip_v0_4,736d6172-7473-4706-996e-6e65725f7469,rev?*%
%TF.SameCoordinates,Original*%
%TF.FileFunction,Copper,L1,Top*%
%TF.FilePolarity,Positive*%
%FSLAX46Y46*%
G04 Gerber Fmt 4.6, Leading zero omitted, Abs format (unit mm)*
G04 Created by KiCad (PCBNEW 10.0.6) date 2026-09-21 21:01:25*
%MOMM*%
%LPD*%
G01*
G04 APERTURE LIST*
%TA.AperFunction,SMDPad,CuDef*%
%ADD10R,0.280000X0.280000*%
%TD*%
%TA.AperFunction,ViaPad*%
%ADD11C,0.220000*%
%TD*%
%TA.AperFunction,Conductor*%
%ADD12C,0.140000*%
%TD*%
%TA.AperFunction,Conductor*%
%ADD13C,0.160000*%
%TD*%
G04 APERTURE END LIST*
D10*
%TO.P,TD1,1*%
%TO.N,+5V_LED*%
X99690000Y-93640000D03*
%TO.P,TD1,2*%
%TO.N,PIX_01*%
X100310000Y-93640000D03*
%TO.P,TD1,3*%
%TO.N,GND*%
X100310000Y-94260000D03*
%TO.P,TD1,4*%
%TO.N,DIN*%
X99690000Y-94260000D03*
%TD*%
%TO.P,TD2,1*%
%TO.N,+5V_LED*%
X99690000Y-94740000D03*
%TO.P,TD2,2*%
%TO.N,PIX_02*%
X100310000Y-94740000D03*
%TO.P,TD2,3*%
%TO.N,GND*%
X100310000Y-95360000D03*
%TO.P,TD2,4*%
%TO.N,PIX_01*%
X99690000Y-95360000D03*
%TD*%
%TO.P,TD3,1*%
%TO.N,+5V_LED*%
X99690000Y-95840000D03*
%TO.P,TD3,2*%
%TO.N,PIX_03*%
X100310000Y-95840000D03*
%TO.P,TD3,3*%
%TO.N,GND*%
X100310000Y-96460000D03*
%TO.P,TD3,4*%
%TO.N,PIX_02*%
X99690000Y-96460000D03*
%TD*%
%TO.P,TD4,1*%
%TO.N,+5V_LED*%
X99690000Y-96940000D03*
%TO.P,TD4,2*%
%TO.N,PIX_04*%
X100310000Y-96940000D03*
%TO.P,TD4,3*%
%TO.N,GND*%
X100310000Y-97560000D03*
%TO.P,TD4,4*%
%TO.N,PIX_03*%
X99690000Y-97560000D03*
%TD*%
%TO.P,TD5,1*%
%TO.N,+5V_LED*%
X99690000Y-98040000D03*
%TO.P,TD5,2*%
%TO.N,PIX_05*%
X100310000Y-98040000D03*
%TO.P,TD5,3*%
%TO.N,GND*%
X100310000Y-98660000D03*
%TO.P,TD5,4*%
%TO.N,PIX_04*%
X99690000Y-98660000D03*
%TD*%
%TO.P,TD6,1*%
%TO.N,+5V_LED*%
X99690000Y-99140000D03*
%TO.P,TD6,2*%
%TO.N,PIX_06*%
X100310000Y-99140000D03*
%TO.P,TD6,3*%
%TO.N,GND*%
X100310000Y-99760000D03*
%TO.P,TD6,4*%
%TO.N,PIX_05*%
X99690000Y-99760000D03*
%TD*%
%TO.P,TD7,1*%
%TO.N,+5V_LED*%
X99690000Y-100240000D03*
%TO.P,TD7,2*%
%TO.N,PIX_07*%
X100310000Y-100240000D03*
%TO.P,TD7,3*%
%TO.N,GND*%
X100310000Y-100860000D03*
%TO.P,TD7,4*%
%TO.N,PIX_06*%
X99690000Y-100860000D03*
%TD*%
%TO.P,TD8,1*%
%TO.N,+5V_LED*%
X99690000Y-101340000D03*
%TO.P,TD8,2*%
%TO.N,PIX_08*%
X100310000Y-101340000D03*
%TO.P,TD8,3*%
%TO.N,GND*%
X100310000Y-101960000D03*
%TO.P,TD8,4*%
%TO.N,PIX_07*%
X99690000Y-101960000D03*
%TD*%
%TO.P,TD9,1*%
%TO.N,+5V_LED*%
X99690000Y-102440000D03*
%TO.P,TD9,2*%
%TO.N,PIX_09*%
X100310000Y-102440000D03*
%TO.P,TD9,3*%
%TO.N,GND*%
X100310000Y-103060000D03*
%TO.P,TD9,4*%
%TO.N,PIX_08*%
X99690000Y-103060000D03*
%TD*%
%TO.P,TD10,1*%
%TO.N,+5V_LED*%
X99690000Y-103540000D03*
%TO.P,TD10,2*%
%TO.N,PIX_10*%
X100310000Y-103540000D03*
%TO.P,TD10,3*%
%TO.N,GND*%
X100310000Y-104160000D03*
%TO.P,TD10,4*%
%TO.N,PIX_09*%
X99690000Y-104160000D03*
%TD*%
%TO.P,TD11,1*%
%TO.N,+5V_LED*%
X99690000Y-104640000D03*
%TO.P,TD11,2*%
%TO.N,PIX_11*%
X100310000Y-104640000D03*
%TO.P,TD11,3*%
%TO.N,GND*%
X100310000Y-105260000D03*
%TO.P,TD11,4*%
%TO.N,PIX_10*%
X99690000Y-105260000D03*
%TD*%
%TO.P,TD12,1*%
%TO.N,+5V_LED*%
X99690000Y-105740000D03*
%TO.P,TD12,2*%
%TO.N,DOUT*%
X100310000Y-105740000D03*
%TO.P,TD12,3*%
%TO.N,GND*%
X100310000Y-106360000D03*
%TO.P,TD12,4*%
%TO.N,PIX_11*%
X99690000Y-106360000D03*
%TD*%
D11*
%TO.N,PIX_01*%
X100310000Y-93640000D03*
X99690000Y-95360000D03*
%TO.N,PIX_02*%
X100310000Y-94740000D03*
X99690000Y-96460000D03*
%TO.N,PIX_03*%
X100310000Y-95840000D03*
X99690000Y-97560000D03*
%TO.N,PIX_04*%
X100310000Y-96940000D03*
X99690000Y-98660000D03*
%TO.N,PIX_05*%
X100310000Y-98040000D03*
X99690000Y-99760000D03*
%TO.N,PIX_06*%
X100310000Y-99140000D03*
X99690000Y-100860000D03*
%TO.N,PIX_07*%
X100310000Y-100240000D03*
X99690000Y-101960000D03*
%TO.N,PIX_08*%
X100310000Y-101340000D03*
X99690000Y-103060000D03*
%TO.N,PIX_09*%
X100310000Y-102440000D03*
X99690000Y-104160000D03*
%TO.N,PIX_10*%
X100310000Y-103540000D03*
X99690000Y-105260000D03*
%TO.N,PIX_11*%
X100310000Y-104640000D03*
X99690000Y-106360000D03*
%TD*%
%TO.N,+5V_LED*%
D12*
X99690000Y-93640000D02*
X99180000Y-93640000D01*
%TO.N,GND*%
X100310000Y-94260000D02*
X100820000Y-94260000D01*
%TO.N,+5V_LED*%
D13*
X99180000Y-93640000D02*
X99180000Y-94740000D01*
%TO.N,GND*%
X100820000Y-94260000D02*
X100820000Y-95360000D01*
%TO.N,+5V_LED*%
D12*
X99690000Y-94740000D02*
X99180000Y-94740000D01*
%TO.N,GND*%
X100310000Y-95360000D02*
X100820000Y-95360000D01*
%TO.N,+5V_LED*%
D13*
X99180000Y-94740000D02*
X99180000Y-95840000D01*
%TO.N,GND*%
X100820000Y-95360000D02*
X100820000Y-96460000D01*
%TO.N,+5V_LED*%
D12*
X99690000Y-95840000D02*
X99180000Y-95840000D01*
%TO.N,GND*%
X100310000Y-96460000D02*
X100820000Y-96460000D01*
%TO.N,+5V_LED*%
D13*
X99180000Y-95840000D02*
X99180000Y-96940000D01*
%TO.N,GND*%
X100820000Y-96460000D02*
X100820000Y-97560000D01*
%TO.N,+5V_LED*%
D12*
X99690000Y-96940000D02*
X99180000Y-96940000D01*
%TO.N,GND*%
X100310000Y-97560000D02*
X100820000Y-97560000D01*
%TO.N,+5V_LED*%
D13*
X99180000Y-96940000D02*
X99180000Y-98040000D01*
%TO.N,GND*%
X100820000Y-97560000D02*
X100820000Y-98660000D01*
%TO.N,+5V_LED*%
D12*
X99690000Y-98040000D02*
X99180000Y-98040000D01*
%TO.N,GND*%
X100310000Y-98660000D02*
X100820000Y-98660000D01*
%TO.N,+5V_LED*%
D13*
X99180000Y-98040000D02*
X99180000Y-99140000D01*
%TO.N,GND*%
X100820000Y-98660000D02*
X100820000Y-99760000D01*
%TO.N,+5V_LED*%
D12*
X99690000Y-99140000D02*
X99180000Y-99140000D01*
%TO.N,GND*%
X100310000Y-99760000D02*
X100820000Y-99760000D01*
%TO.N,+5V_LED*%
D13*
X99180000Y-99140000D02*
X99180000Y-100240000D01*
%TO.N,GND*%
X100820000Y-99760000D02*
X100820000Y-100860000D01*
%TO.N,+5V_LED*%
D12*
X99690000Y-100240000D02*
X99180000Y-100240000D01*
%TO.N,GND*%
X100310000Y-100860000D02*
X100820000Y-100860000D01*
%TO.N,+5V_LED*%
D13*
X99180000Y-100240000D02*
X99180000Y-101340000D01*
%TO.N,GND*%
X100820000Y-100860000D02*
X100820000Y-101960000D01*
%TO.N,+5V_LED*%
D12*
X99690000Y-101340000D02*
X99180000Y-101340000D01*
%TO.N,GND*%
X100310000Y-101960000D02*
X100820000Y-101960000D01*
%TO.N,+5V_LED*%
D13*
X99180000Y-101340000D02*
X99180000Y-102440000D01*
%TO.N,GND*%
X100820000Y-101960000D02*
X100820000Y-103060000D01*
%TO.N,+5V_LED*%
D12*
X99690000Y-102440000D02*
X99180000Y-102440000D01*
%TO.N,GND*%
X100310000Y-103060000D02*
X100820000Y-103060000D01*
%TO.N,+5V_LED*%
D13*
X99180000Y-102440000D02*
X99180000Y-103540000D01*
%TO.N,GND*%
X100820000Y-103060000D02*
X100820000Y-104160000D01*
%TO.N,+5V_LED*%
D12*
X99690000Y-103540000D02*
X99180000Y-103540000D01*
%TO.N,GND*%
X100310000Y-104160000D02*
X100820000Y-104160000D01*
%TO.N,+5V_LED*%
D13*
X99180000Y-103540000D02*
X99180000Y-104640000D01*
%TO.N,GND*%
X100820000Y-104160000D02*
X100820000Y-105260000D01*
%TO.N,+5V_LED*%
D12*
X99690000Y-104640000D02*
X99180000Y-104640000D01*
%TO.N,GND*%
X100310000Y-105260000D02*
X100820000Y-105260000D01*
%TO.N,+5V_LED*%
D13*
X99180000Y-104640000D02*
X99180000Y-105740000D01*
%TO.N,GND*%
X100820000Y-105260000D02*
X100820000Y-106360000D01*
%TO.N,+5V_LED*%
D12*
X99690000Y-105740000D02*
X99180000Y-105740000D01*
%TO.N,GND*%
X100310000Y-106360000D02*
X100820000Y-106360000D01*
%TD*%
M02*
