%TF.GenerationSoftware,KiCad,Pcbnew,10.0.6*%
%TF.CreationDate,2026-09-21T21:01:24+03:00*%
%TF.ProjectId,smartspinner_main_v0_4,736d6172-7473-4706-996e-6e65725f6d61,rev?*%
%TF.SameCoordinates,Original*%
%TF.FileFunction,Other,User*%
%FSLAX46Y46*%
G04 Gerber Fmt 4.6, Leading zero omitted, Abs format (unit mm)*
G04 Created by KiCad (PCBNEW 10.0.6) date 2026-09-21 21:01:24*
%MOMM*%
%LPD*%
G01*
G04 APERTURE LIST*
%ADD10C,0.050000*%
G04 APERTURE END LIST*
%TO.C,H45*%
D10*
X110821000Y-86779000D02*
X113221000Y-86779000D01*
X113221000Y-89179000D01*
X110821000Y-89179000D01*
X110821000Y-86779000D01*
%TO.C,H135*%
X86779000Y-86779000D02*
X89179000Y-86779000D01*
X89179000Y-89179000D01*
X86779000Y-89179000D01*
X86779000Y-86779000D01*
%TO.C,H225*%
X86779000Y-110821000D02*
X89179000Y-110821000D01*
X89179000Y-113221000D01*
X86779000Y-113221000D01*
X86779000Y-110821000D01*
%TO.C,H315*%
X110821000Y-110821000D02*
X113221000Y-110821000D01*
X113221000Y-113221000D01*
X110821000Y-113221000D01*
X110821000Y-110821000D01*
%TO.C,D1*%
X112450000Y-102250000D02*
X113950000Y-102250000D01*
X113950000Y-103750000D01*
X112450000Y-103750000D01*
X112450000Y-102250000D01*
%TO.C,D2*%
X114050000Y-102250000D02*
X115550000Y-102250000D01*
X115550000Y-103750000D01*
X114050000Y-103750000D01*
X114050000Y-102250000D01*
%TO.C,D3*%
X115650000Y-102250000D02*
X117150000Y-102250000D01*
X117150000Y-103750000D01*
X115650000Y-103750000D01*
X115650000Y-102250000D01*
%TO.C,D4*%
X117250000Y-102250000D02*
X118750000Y-102250000D01*
X118750000Y-103750000D01*
X117250000Y-103750000D01*
X117250000Y-102250000D01*
%TO.C,D5*%
X118850000Y-102250000D02*
X120350000Y-102250000D01*
X120350000Y-103750000D01*
X118850000Y-103750000D01*
X118850000Y-102250000D01*
%TO.C,D6*%
X120450000Y-102250000D02*
X121950000Y-102250000D01*
X121950000Y-103750000D01*
X120450000Y-103750000D01*
X120450000Y-102250000D01*
%TO.C,D7*%
X122050000Y-102250000D02*
X123550000Y-102250000D01*
X123550000Y-103750000D01*
X122050000Y-103750000D01*
X122050000Y-102250000D01*
%TO.C,D8*%
X123650000Y-102250000D02*
X125150000Y-102250000D01*
X125150000Y-103750000D01*
X123650000Y-103750000D01*
X123650000Y-102250000D01*
%TO.C,D9*%
X125250000Y-102250000D02*
X126750000Y-102250000D01*
X126750000Y-103750000D01*
X125250000Y-103750000D01*
X125250000Y-102250000D01*
%TO.C,D10*%
X126850000Y-102250000D02*
X128350000Y-102250000D01*
X128350000Y-103750000D01*
X126850000Y-103750000D01*
X126850000Y-102250000D01*
%TO.C,D11*%
X128450000Y-102250000D02*
X129950000Y-102250000D01*
X129950000Y-103750000D01*
X128450000Y-103750000D01*
X128450000Y-102250000D01*
%TO.C,D12*%
X130050000Y-102250000D02*
X131550000Y-102250000D01*
X131550000Y-103750000D01*
X130050000Y-103750000D01*
X130050000Y-102250000D01*
%TO.C,D13*%
X131650000Y-102250000D02*
X133150000Y-102250000D01*
X133150000Y-103750000D01*
X131650000Y-103750000D01*
X131650000Y-102250000D01*
%TO.C,D14*%
X133250000Y-102250000D02*
X134750000Y-102250000D01*
X134750000Y-103750000D01*
X133250000Y-103750000D01*
X133250000Y-102250000D01*
%TO.C,D15*%
X134850000Y-102250000D02*
X136350000Y-102250000D01*
X136350000Y-103750000D01*
X134850000Y-103750000D01*
X134850000Y-102250000D01*
%TO.C,D16*%
X136450000Y-102250000D02*
X137950000Y-102250000D01*
X137950000Y-103750000D01*
X136450000Y-103750000D01*
X136450000Y-102250000D01*
%TO.C,D17*%
X138050000Y-102250000D02*
X139550000Y-102250000D01*
X139550000Y-103750000D01*
X138050000Y-103750000D01*
X138050000Y-102250000D01*
%TO.C,D18*%
X139650000Y-102250000D02*
X141150000Y-102250000D01*
X141150000Y-103750000D01*
X139650000Y-103750000D01*
X139650000Y-102250000D01*
%TO.C,D19*%
X141250000Y-102250000D02*
X142750000Y-102250000D01*
X142750000Y-103750000D01*
X141250000Y-103750000D01*
X141250000Y-102250000D01*
%TO.C,D20*%
X142850000Y-102250000D02*
X144350000Y-102250000D01*
X144350000Y-103750000D01*
X142850000Y-103750000D01*
X142850000Y-102250000D01*
%TO.C,JTIPA*%
X144700000Y-97200000D02*
X146300000Y-97200000D01*
X146300000Y-102800000D01*
X144700000Y-102800000D01*
X144700000Y-97200000D01*
%TO.C,D21*%
X102250000Y-86050000D02*
X103750000Y-86050000D01*
X103750000Y-87550000D01*
X102250000Y-87550000D01*
X102250000Y-86050000D01*
%TO.C,D22*%
X102250000Y-84450000D02*
X103750000Y-84450000D01*
X103750000Y-85950000D01*
X102250000Y-85950000D01*
X102250000Y-84450000D01*
%TO.C,D23*%
X102250000Y-82850000D02*
X103750000Y-82850000D01*
X103750000Y-84350000D01*
X102250000Y-84350000D01*
X102250000Y-82850000D01*
%TO.C,D24*%
X102250000Y-81250000D02*
X103750000Y-81250000D01*
X103750000Y-82750000D01*
X102250000Y-82750000D01*
X102250000Y-81250000D01*
%TO.C,D25*%
X102250000Y-79650000D02*
X103750000Y-79650000D01*
X103750000Y-81150000D01*
X102250000Y-81150000D01*
X102250000Y-79650000D01*
%TO.C,D26*%
X102250000Y-78050000D02*
X103750000Y-78050000D01*
X103750000Y-79550000D01*
X102250000Y-79550000D01*
X102250000Y-78050000D01*
%TO.C,D27*%
X102250000Y-76450000D02*
X103750000Y-76450000D01*
X103750000Y-77950000D01*
X102250000Y-77950000D01*
X102250000Y-76450000D01*
%TO.C,D28*%
X102250000Y-74850000D02*
X103750000Y-74850000D01*
X103750000Y-76350000D01*
X102250000Y-76350000D01*
X102250000Y-74850000D01*
%TO.C,D29*%
X102250000Y-73250000D02*
X103750000Y-73250000D01*
X103750000Y-74750000D01*
X102250000Y-74750000D01*
X102250000Y-73250000D01*
%TO.C,D30*%
X102250000Y-71650000D02*
X103750000Y-71650000D01*
X103750000Y-73150000D01*
X102250000Y-73150000D01*
X102250000Y-71650000D01*
%TO.C,D31*%
X102250000Y-70050000D02*
X103750000Y-70050000D01*
X103750000Y-71550000D01*
X102250000Y-71550000D01*
X102250000Y-70050000D01*
%TO.C,D32*%
X102250000Y-68450000D02*
X103750000Y-68450000D01*
X103750000Y-69950000D01*
X102250000Y-69950000D01*
X102250000Y-68450000D01*
%TO.C,D33*%
X102250000Y-66850000D02*
X103750000Y-66850000D01*
X103750000Y-68350000D01*
X102250000Y-68350000D01*
X102250000Y-66850000D01*
%TO.C,D34*%
X102250000Y-65250000D02*
X103750000Y-65250000D01*
X103750000Y-66750000D01*
X102250000Y-66750000D01*
X102250000Y-65250000D01*
%TO.C,D35*%
X102250000Y-63650000D02*
X103750000Y-63650000D01*
X103750000Y-65150000D01*
X102250000Y-65150000D01*
X102250000Y-63650000D01*
%TO.C,D36*%
X102250000Y-62050000D02*
X103750000Y-62050000D01*
X103750000Y-63550000D01*
X102250000Y-63550000D01*
X102250000Y-62050000D01*
%TO.C,D37*%
X102250000Y-60450000D02*
X103750000Y-60450000D01*
X103750000Y-61950000D01*
X102250000Y-61950000D01*
X102250000Y-60450000D01*
%TO.C,D38*%
X102250000Y-58850000D02*
X103750000Y-58850000D01*
X103750000Y-60350000D01*
X102250000Y-60350000D01*
X102250000Y-58850000D01*
%TO.C,D39*%
X102250000Y-57250000D02*
X103750000Y-57250000D01*
X103750000Y-58750000D01*
X102250000Y-58750000D01*
X102250000Y-57250000D01*
%TO.C,D40*%
X102250000Y-55650000D02*
X103750000Y-55650000D01*
X103750000Y-57150000D01*
X102250000Y-57150000D01*
X102250000Y-55650000D01*
%TO.C,JTIPB*%
X97200000Y-53700000D02*
X102800000Y-53700000D01*
X102800000Y-55300000D01*
X97200000Y-55300000D01*
X97200000Y-53700000D01*
%TO.C,D41*%
X86050000Y-96250000D02*
X87550000Y-96250000D01*
X87550000Y-97750000D01*
X86050000Y-97750000D01*
X86050000Y-96250000D01*
%TO.C,D42*%
X84450000Y-96250000D02*
X85950000Y-96250000D01*
X85950000Y-97750000D01*
X84450000Y-97750000D01*
X84450000Y-96250000D01*
%TO.C,D43*%
X82850000Y-96250000D02*
X84350000Y-96250000D01*
X84350000Y-97750000D01*
X82850000Y-97750000D01*
X82850000Y-96250000D01*
%TO.C,D44*%
X81250000Y-96250000D02*
X82750000Y-96250000D01*
X82750000Y-97750000D01*
X81250000Y-97750000D01*
X81250000Y-96250000D01*
%TO.C,D45*%
X79650000Y-96250000D02*
X81150000Y-96250000D01*
X81150000Y-97750000D01*
X79650000Y-97750000D01*
X79650000Y-96250000D01*
%TO.C,D46*%
X78050000Y-96250000D02*
X79550000Y-96250000D01*
X79550000Y-97750000D01*
X78050000Y-97750000D01*
X78050000Y-96250000D01*
%TO.C,D47*%
X76450000Y-96250000D02*
X77950000Y-96250000D01*
X77950000Y-97750000D01*
X76450000Y-97750000D01*
X76450000Y-96250000D01*
%TO.C,D48*%
X74850000Y-96250000D02*
X76350000Y-96250000D01*
X76350000Y-97750000D01*
X74850000Y-97750000D01*
X74850000Y-96250000D01*
%TO.C,D49*%
X73250000Y-96250000D02*
X74750000Y-96250000D01*
X74750000Y-97750000D01*
X73250000Y-97750000D01*
X73250000Y-96250000D01*
%TO.C,D50*%
X71650000Y-96250000D02*
X73150000Y-96250000D01*
X73150000Y-97750000D01*
X71650000Y-97750000D01*
X71650000Y-96250000D01*
%TO.C,D51*%
X70050000Y-96250000D02*
X71550000Y-96250000D01*
X71550000Y-97750000D01*
X70050000Y-97750000D01*
X70050000Y-96250000D01*
%TO.C,D52*%
X68450000Y-96250000D02*
X69950000Y-96250000D01*
X69950000Y-97750000D01*
X68450000Y-97750000D01*
X68450000Y-96250000D01*
%TO.C,D53*%
X66850000Y-96250000D02*
X68350000Y-96250000D01*
X68350000Y-97750000D01*
X66850000Y-97750000D01*
X66850000Y-96250000D01*
%TO.C,D54*%
X65250000Y-96250000D02*
X66750000Y-96250000D01*
X66750000Y-97750000D01*
X65250000Y-97750000D01*
X65250000Y-96250000D01*
%TO.C,D55*%
X63650000Y-96250000D02*
X65150000Y-96250000D01*
X65150000Y-97750000D01*
X63650000Y-97750000D01*
X63650000Y-96250000D01*
%TO.C,D56*%
X62050000Y-96250000D02*
X63550000Y-96250000D01*
X63550000Y-97750000D01*
X62050000Y-97750000D01*
X62050000Y-96250000D01*
%TO.C,D57*%
X60450000Y-96250000D02*
X61950000Y-96250000D01*
X61950000Y-97750000D01*
X60450000Y-97750000D01*
X60450000Y-96250000D01*
%TO.C,D58*%
X58850000Y-96250000D02*
X60350000Y-96250000D01*
X60350000Y-97750000D01*
X58850000Y-97750000D01*
X58850000Y-96250000D01*
%TO.C,D59*%
X57250000Y-96250000D02*
X58750000Y-96250000D01*
X58750000Y-97750000D01*
X57250000Y-97750000D01*
X57250000Y-96250000D01*
%TO.C,D60*%
X55650000Y-96250000D02*
X57150000Y-96250000D01*
X57150000Y-97750000D01*
X55650000Y-97750000D01*
X55650000Y-96250000D01*
%TO.C,JTIPC*%
X53700000Y-97200000D02*
X55300000Y-97200000D01*
X55300000Y-102800000D01*
X53700000Y-102800000D01*
X53700000Y-97200000D01*
%TO.C,D61*%
X96250000Y-112450000D02*
X97750000Y-112450000D01*
X97750000Y-113950000D01*
X96250000Y-113950000D01*
X96250000Y-112450000D01*
%TO.C,D62*%
X96250000Y-114050000D02*
X97750000Y-114050000D01*
X97750000Y-115550000D01*
X96250000Y-115550000D01*
X96250000Y-114050000D01*
%TO.C,D63*%
X96250000Y-115650000D02*
X97750000Y-115650000D01*
X97750000Y-117150000D01*
X96250000Y-117150000D01*
X96250000Y-115650000D01*
%TO.C,D64*%
X96250000Y-117250000D02*
X97750000Y-117250000D01*
X97750000Y-118750000D01*
X96250000Y-118750000D01*
X96250000Y-117250000D01*
%TO.C,D65*%
X96250000Y-118850000D02*
X97750000Y-118850000D01*
X97750000Y-120350000D01*
X96250000Y-120350000D01*
X96250000Y-118850000D01*
%TO.C,D66*%
X96250000Y-120450000D02*
X97750000Y-120450000D01*
X97750000Y-121950000D01*
X96250000Y-121950000D01*
X96250000Y-120450000D01*
%TO.C,D67*%
X96250000Y-122050000D02*
X97750000Y-122050000D01*
X97750000Y-123550000D01*
X96250000Y-123550000D01*
X96250000Y-122050000D01*
%TO.C,D68*%
X96250000Y-123650000D02*
X97750000Y-123650000D01*
X97750000Y-125150000D01*
X96250000Y-125150000D01*
X96250000Y-123650000D01*
%TO.C,D69*%
X96250000Y-125250000D02*
X97750000Y-125250000D01*
X97750000Y-126750000D01*
X96250000Y-126750000D01*
X96250000Y-125250000D01*
%TO.C,D70*%
X96250000Y-126850000D02*
X97750000Y-126850000D01*
X97750000Y-128350000D01*
X96250000Y-128350000D01*
X96250000Y-126850000D01*
%TO.C,D71*%
X96250000Y-128450000D02*
X97750000Y-128450000D01*
X97750000Y-129950000D01*
X96250000Y-129950000D01*
X96250000Y-128450000D01*
%TO.C,D72*%
X96250000Y-130050000D02*
X97750000Y-130050000D01*
X97750000Y-131550000D01*
X96250000Y-131550000D01*
X96250000Y-130050000D01*
%TO.C,D73*%
X96250000Y-131650000D02*
X97750000Y-131650000D01*
X97750000Y-133150000D01*
X96250000Y-133150000D01*
X96250000Y-131650000D01*
%TO.C,D74*%
X96250000Y-133250000D02*
X97750000Y-133250000D01*
X97750000Y-134750000D01*
X96250000Y-134750000D01*
X96250000Y-133250000D01*
%TO.C,D75*%
X96250000Y-134850000D02*
X97750000Y-134850000D01*
X97750000Y-136350000D01*
X96250000Y-136350000D01*
X96250000Y-134850000D01*
%TO.C,D76*%
X96250000Y-136450000D02*
X97750000Y-136450000D01*
X97750000Y-137950000D01*
X96250000Y-137950000D01*
X96250000Y-136450000D01*
%TO.C,D77*%
X96250000Y-138050000D02*
X97750000Y-138050000D01*
X97750000Y-139550000D01*
X96250000Y-139550000D01*
X96250000Y-138050000D01*
%TO.C,D78*%
X96250000Y-139650000D02*
X97750000Y-139650000D01*
X97750000Y-141150000D01*
X96250000Y-141150000D01*
X96250000Y-139650000D01*
%TO.C,D79*%
X96250000Y-141250000D02*
X97750000Y-141250000D01*
X97750000Y-142750000D01*
X96250000Y-142750000D01*
X96250000Y-141250000D01*
%TO.C,D80*%
X96250000Y-142850000D02*
X97750000Y-142850000D01*
X97750000Y-144350000D01*
X96250000Y-144350000D01*
X96250000Y-142850000D01*
%TO.C,JTIPD*%
X97200000Y-144700000D02*
X102800000Y-144700000D01*
X102800000Y-146300000D01*
X97200000Y-146300000D01*
X97200000Y-144700000D01*
%TD*%
M02*
