M48
; DRILL file KiCad 10.0.6 date 2026-09-21T21:01:25
; FORMAT={-:-/ absolute / metric / decimal}
; #@! TF.CreationDate,2026-09-21T21:01:25+03:00
; #@! TF.GenerationSoftware,Kicad,Pcbnew,10.0.6
; #@! TF.FileFunction,MixedPlating,1,2
FMAT,2
METRIC
; #@! TA.AperFunction,Plated,PTH,ViaDrill
T1C0.100
%
G90
G05
T1
X99.69Y-95.36
X99.69Y-96.46
X99.69Y-97.56
X99.69Y-98.66
X99.69Y-99.76
X99.69Y-100.86
X99.69Y-101.96
X99.69Y-103.06
X99.69Y-104.16
X99.69Y-105.26
X99.69Y-106.36
X100.31Y-93.64
X100.31Y-94.74
X100.31Y-95.84
X100.31Y-96.94
X100.31Y-98.04
X100.31Y-99.14
X100.31Y-100.24
X100.31Y-101.34
X100.31Y-102.44
X100.31Y-103.54
X100.31Y-104.64
M30
