%TF.GenerationSoftware,KiCad,Pcbnew,10.0.6*%
%TF.CreationDate,2026-09-21T21:01:24+03:00*%
%TF.ProjectId,smartspinner_main_v0_4,736d6172-7473-4706-996e-6e65725f6d61,rev?*%
%TF.SameCoordinates,Original*%
%TF.FileFunction,Copper,L1,Top*%
%TF.FilePolarity,Positive*%
%FSLAX46Y46*%
G04 Gerber Fmt 4.6, Leading zero omitted, Abs format (unit mm)*
G04 Created by KiCad (PCBNEW 10.0.6) date 2026-09-21 21:01:24*
%MOMM*%
%LPD*%
G01*
G04 APERTURE LIST*
%TA.AperFunction,SMDPad,CuDef*%
%ADD10R,0.400000X0.400000*%
%TD*%
%TA.AperFunction,SMDPad,CuDef*%
%ADD11R,0.650000X0.900000*%
%TD*%
%TA.AperFunction,ViaPad*%
%ADD12C,0.300000*%
%TD*%
%TA.AperFunction,Conductor*%
%ADD13C,0.240000*%
%TD*%
%TA.AperFunction,Conductor*%
%ADD14C,0.280000*%
%TD*%
G04 APERTURE END LIST*
D10*
%TO.P,D1,1*%
%TO.N,+5V_LED*%
X112720000Y-102520000D03*
%TO.P,D1,2*%
%TO.N,LED_A_01*%
X113680000Y-102520000D03*
%TO.P,D1,3*%
%TO.N,GND*%
X113680000Y-103480000D03*
%TO.P,D1,4*%
%TO.N,TOP_A_DIN*%
X112720000Y-103480000D03*
%TD*%
%TO.P,D2,1*%
%TO.N,+5V_LED*%
X114320000Y-102520000D03*
%TO.P,D2,2*%
%TO.N,LED_A_02*%
X115280000Y-102520000D03*
%TO.P,D2,3*%
%TO.N,GND*%
X115280000Y-103480000D03*
%TO.P,D2,4*%
%TO.N,LED_A_01*%
X114320000Y-103480000D03*
%TD*%
%TO.P,D3,1*%
%TO.N,+5V_LED*%
X115920000Y-102520000D03*
%TO.P,D3,2*%
%TO.N,LED_A_03*%
X116880000Y-102520000D03*
%TO.P,D3,3*%
%TO.N,GND*%
X116880000Y-103480000D03*
%TO.P,D3,4*%
%TO.N,LED_A_02*%
X115920000Y-103480000D03*
%TD*%
%TO.P,D4,1*%
%TO.N,+5V_LED*%
X117520000Y-102520000D03*
%TO.P,D4,2*%
%TO.N,LED_A_04*%
X118480000Y-102520000D03*
%TO.P,D4,3*%
%TO.N,GND*%
X118480000Y-103480000D03*
%TO.P,D4,4*%
%TO.N,LED_A_03*%
X117520000Y-103480000D03*
%TD*%
%TO.P,D5,1*%
%TO.N,+5V_LED*%
X119120000Y-102520000D03*
%TO.P,D5,2*%
%TO.N,LED_A_05*%
X120080000Y-102520000D03*
%TO.P,D5,3*%
%TO.N,GND*%
X120080000Y-103480000D03*
%TO.P,D5,4*%
%TO.N,LED_A_04*%
X119120000Y-103480000D03*
%TD*%
%TO.P,D6,1*%
%TO.N,+5V_LED*%
X120720000Y-102520000D03*
%TO.P,D6,2*%
%TO.N,LED_A_06*%
X121680000Y-102520000D03*
%TO.P,D6,3*%
%TO.N,GND*%
X121680000Y-103480000D03*
%TO.P,D6,4*%
%TO.N,LED_A_05*%
X120720000Y-103480000D03*
%TD*%
%TO.P,D7,1*%
%TO.N,+5V_LED*%
X122320000Y-102520000D03*
%TO.P,D7,2*%
%TO.N,LED_A_07*%
X123280000Y-102520000D03*
%TO.P,D7,3*%
%TO.N,GND*%
X123280000Y-103480000D03*
%TO.P,D7,4*%
%TO.N,LED_A_06*%
X122320000Y-103480000D03*
%TD*%
%TO.P,D8,1*%
%TO.N,+5V_LED*%
X123920000Y-102520000D03*
%TO.P,D8,2*%
%TO.N,LED_A_08*%
X124880000Y-102520000D03*
%TO.P,D8,3*%
%TO.N,GND*%
X124880000Y-103480000D03*
%TO.P,D8,4*%
%TO.N,LED_A_07*%
X123920000Y-103480000D03*
%TD*%
%TO.P,D9,1*%
%TO.N,+5V_LED*%
X125520000Y-102520000D03*
%TO.P,D9,2*%
%TO.N,LED_A_09*%
X126480000Y-102520000D03*
%TO.P,D9,3*%
%TO.N,GND*%
X126480000Y-103480000D03*
%TO.P,D9,4*%
%TO.N,LED_A_08*%
X125520000Y-103480000D03*
%TD*%
%TO.P,D10,1*%
%TO.N,+5V_LED*%
X127120000Y-102520000D03*
%TO.P,D10,2*%
%TO.N,LED_A_10*%
X128080000Y-102520000D03*
%TO.P,D10,3*%
%TO.N,GND*%
X128080000Y-103480000D03*
%TO.P,D10,4*%
%TO.N,LED_A_09*%
X127120000Y-103480000D03*
%TD*%
%TO.P,D11,1*%
%TO.N,+5V_LED*%
X128720000Y-102520000D03*
%TO.P,D11,2*%
%TO.N,LED_A_11*%
X129680000Y-102520000D03*
%TO.P,D11,3*%
%TO.N,GND*%
X129680000Y-103480000D03*
%TO.P,D11,4*%
%TO.N,LED_A_10*%
X128720000Y-103480000D03*
%TD*%
%TO.P,D12,1*%
%TO.N,+5V_LED*%
X130320000Y-102520000D03*
%TO.P,D12,2*%
%TO.N,LED_A_12*%
X131280000Y-102520000D03*
%TO.P,D12,3*%
%TO.N,GND*%
X131280000Y-103480000D03*
%TO.P,D12,4*%
%TO.N,LED_A_11*%
X130320000Y-103480000D03*
%TD*%
%TO.P,D13,1*%
%TO.N,+5V_LED*%
X131920000Y-102520000D03*
%TO.P,D13,2*%
%TO.N,LED_A_13*%
X132880000Y-102520000D03*
%TO.P,D13,3*%
%TO.N,GND*%
X132880000Y-103480000D03*
%TO.P,D13,4*%
%TO.N,LED_A_12*%
X131920000Y-103480000D03*
%TD*%
%TO.P,D14,1*%
%TO.N,+5V_LED*%
X133520000Y-102520000D03*
%TO.P,D14,2*%
%TO.N,LED_A_14*%
X134480000Y-102520000D03*
%TO.P,D14,3*%
%TO.N,GND*%
X134480000Y-103480000D03*
%TO.P,D14,4*%
%TO.N,LED_A_13*%
X133520000Y-103480000D03*
%TD*%
%TO.P,D15,1*%
%TO.N,+5V_LED*%
X135120000Y-102520000D03*
%TO.P,D15,2*%
%TO.N,LED_A_15*%
X136080000Y-102520000D03*
%TO.P,D15,3*%
%TO.N,GND*%
X136080000Y-103480000D03*
%TO.P,D15,4*%
%TO.N,LED_A_14*%
X135120000Y-103480000D03*
%TD*%
%TO.P,D16,1*%
%TO.N,+5V_LED*%
X136720000Y-102520000D03*
%TO.P,D16,2*%
%TO.N,LED_A_16*%
X137680000Y-102520000D03*
%TO.P,D16,3*%
%TO.N,GND*%
X137680000Y-103480000D03*
%TO.P,D16,4*%
%TO.N,LED_A_15*%
X136720000Y-103480000D03*
%TD*%
%TO.P,D17,1*%
%TO.N,+5V_LED*%
X138320000Y-102520000D03*
%TO.P,D17,2*%
%TO.N,LED_A_17*%
X139280000Y-102520000D03*
%TO.P,D17,3*%
%TO.N,GND*%
X139280000Y-103480000D03*
%TO.P,D17,4*%
%TO.N,LED_A_16*%
X138320000Y-103480000D03*
%TD*%
%TO.P,D18,1*%
%TO.N,+5V_LED*%
X139920000Y-102520000D03*
%TO.P,D18,2*%
%TO.N,LED_A_18*%
X140880000Y-102520000D03*
%TO.P,D18,3*%
%TO.N,GND*%
X140880000Y-103480000D03*
%TO.P,D18,4*%
%TO.N,LED_A_17*%
X139920000Y-103480000D03*
%TD*%
%TO.P,D19,1*%
%TO.N,+5V_LED*%
X141520000Y-102520000D03*
%TO.P,D19,2*%
%TO.N,LED_A_19*%
X142480000Y-102520000D03*
%TO.P,D19,3*%
%TO.N,GND*%
X142480000Y-103480000D03*
%TO.P,D19,4*%
%TO.N,LED_A_18*%
X141520000Y-103480000D03*
%TD*%
%TO.P,D20,1*%
%TO.N,+5V_LED*%
X143120000Y-102520000D03*
%TO.P,D20,2*%
%TO.N,LED_A_20*%
X144080000Y-102520000D03*
%TO.P,D20,3*%
%TO.N,GND*%
X144080000Y-103480000D03*
%TO.P,D20,4*%
%TO.N,LED_A_19*%
X143120000Y-103480000D03*
%TD*%
D11*
%TO.P,JTIPA,1*%
%TO.N,+5V_LED*%
X145500000Y-102100000D03*
%TO.P,JTIPA,2*%
%TO.N,GND*%
X145500000Y-100700000D03*
%TO.P,JTIPA,3*%
%TO.N,TIP_A_DIN*%
X145500000Y-99300000D03*
%TO.P,JTIPA,4*%
%TO.N,TIP_A_DOUT*%
X145500000Y-97900000D03*
%TD*%
D10*
%TO.P,D21,1*%
%TO.N,+5V_LED*%
X103480000Y-86320000D03*
%TO.P,D21,2*%
%TO.N,LED_B_01*%
X103480000Y-87280000D03*
%TO.P,D21,3*%
%TO.N,GND*%
X102520000Y-87280000D03*
%TO.P,D21,4*%
%TO.N,TOP_B_DIN*%
X102520000Y-86320000D03*
%TD*%
%TO.P,D22,1*%
%TO.N,+5V_LED*%
X103480000Y-84720000D03*
%TO.P,D22,2*%
%TO.N,LED_B_02*%
X103480000Y-85680000D03*
%TO.P,D22,3*%
%TO.N,GND*%
X102520000Y-85680000D03*
%TO.P,D22,4*%
%TO.N,LED_B_01*%
X102520000Y-84720000D03*
%TD*%
%TO.P,D23,1*%
%TO.N,+5V_LED*%
X103480000Y-83120000D03*
%TO.P,D23,2*%
%TO.N,LED_B_03*%
X103480000Y-84080000D03*
%TO.P,D23,3*%
%TO.N,GND*%
X102520000Y-84080000D03*
%TO.P,D23,4*%
%TO.N,LED_B_02*%
X102520000Y-83120000D03*
%TD*%
%TO.P,D24,1*%
%TO.N,+5V_LED*%
X103480000Y-81520000D03*
%TO.P,D24,2*%
%TO.N,LED_B_04*%
X103480000Y-82480000D03*
%TO.P,D24,3*%
%TO.N,GND*%
X102520000Y-82480000D03*
%TO.P,D24,4*%
%TO.N,LED_B_03*%
X102520000Y-81520000D03*
%TD*%
%TO.P,D25,1*%
%TO.N,+5V_LED*%
X103480000Y-79920000D03*
%TO.P,D25,2*%
%TO.N,LED_B_05*%
X103480000Y-80880000D03*
%TO.P,D25,3*%
%TO.N,GND*%
X102520000Y-80880000D03*
%TO.P,D25,4*%
%TO.N,LED_B_04*%
X102520000Y-79920000D03*
%TD*%
%TO.P,D26,1*%
%TO.N,+5V_LED*%
X103480000Y-78320000D03*
%TO.P,D26,2*%
%TO.N,LED_B_06*%
X103480000Y-79280000D03*
%TO.P,D26,3*%
%TO.N,GND*%
X102520000Y-79280000D03*
%TO.P,D26,4*%
%TO.N,LED_B_05*%
X102520000Y-78320000D03*
%TD*%
%TO.P,D27,1*%
%TO.N,+5V_LED*%
X103480000Y-76720000D03*
%TO.P,D27,2*%
%TO.N,LED_B_07*%
X103480000Y-77680000D03*
%TO.P,D27,3*%
%TO.N,GND*%
X102520000Y-77680000D03*
%TO.P,D27,4*%
%TO.N,LED_B_06*%
X102520000Y-76720000D03*
%TD*%
%TO.P,D28,1*%
%TO.N,+5V_LED*%
X103480000Y-75120000D03*
%TO.P,D28,2*%
%TO.N,LED_B_08*%
X103480000Y-76080000D03*
%TO.P,D28,3*%
%TO.N,GND*%
X102520000Y-76080000D03*
%TO.P,D28,4*%
%TO.N,LED_B_07*%
X102520000Y-75120000D03*
%TD*%
%TO.P,D29,1*%
%TO.N,+5V_LED*%
X103480000Y-73520000D03*
%TO.P,D29,2*%
%TO.N,LED_B_09*%
X103480000Y-74480000D03*
%TO.P,D29,3*%
%TO.N,GND*%
X102520000Y-74480000D03*
%TO.P,D29,4*%
%TO.N,LED_B_08*%
X102520000Y-73520000D03*
%TD*%
%TO.P,D30,1*%
%TO.N,+5V_LED*%
X103480000Y-71920000D03*
%TO.P,D30,2*%
%TO.N,LED_B_10*%
X103480000Y-72880000D03*
%TO.P,D30,3*%
%TO.N,GND*%
X102520000Y-72880000D03*
%TO.P,D30,4*%
%TO.N,LED_B_09*%
X102520000Y-71920000D03*
%TD*%
%TO.P,D31,1*%
%TO.N,+5V_LED*%
X103480000Y-70320000D03*
%TO.P,D31,2*%
%TO.N,LED_B_11*%
X103480000Y-71280000D03*
%TO.P,D31,3*%
%TO.N,GND*%
X102520000Y-71280000D03*
%TO.P,D31,4*%
%TO.N,LED_B_10*%
X102520000Y-70320000D03*
%TD*%
%TO.P,D32,1*%
%TO.N,+5V_LED*%
X103480000Y-68720000D03*
%TO.P,D32,2*%
%TO.N,LED_B_12*%
X103480000Y-69680000D03*
%TO.P,D32,3*%
%TO.N,GND*%
X102520000Y-69680000D03*
%TO.P,D32,4*%
%TO.N,LED_B_11*%
X102520000Y-68720000D03*
%TD*%
%TO.P,D33,1*%
%TO.N,+5V_LED*%
X103480000Y-67120000D03*
%TO.P,D33,2*%
%TO.N,LED_B_13*%
X103480000Y-68080000D03*
%TO.P,D33,3*%
%TO.N,GND*%
X102520000Y-68080000D03*
%TO.P,D33,4*%
%TO.N,LED_B_12*%
X102520000Y-67120000D03*
%TD*%
%TO.P,D34,1*%
%TO.N,+5V_LED*%
X103480000Y-65520000D03*
%TO.P,D34,2*%
%TO.N,LED_B_14*%
X103480000Y-66480000D03*
%TO.P,D34,3*%
%TO.N,GND*%
X102520000Y-66480000D03*
%TO.P,D34,4*%
%TO.N,LED_B_13*%
X102520000Y-65520000D03*
%TD*%
%TO.P,D35,1*%
%TO.N,+5V_LED*%
X103480000Y-63920000D03*
%TO.P,D35,2*%
%TO.N,LED_B_15*%
X103480000Y-64880000D03*
%TO.P,D35,3*%
%TO.N,GND*%
X102520000Y-64880000D03*
%TO.P,D35,4*%
%TO.N,LED_B_14*%
X102520000Y-63920000D03*
%TD*%
%TO.P,D36,1*%
%TO.N,+5V_LED*%
X103480000Y-62320000D03*
%TO.P,D36,2*%
%TO.N,LED_B_16*%
X103480000Y-63280000D03*
%TO.P,D36,3*%
%TO.N,GND*%
X102520000Y-63280000D03*
%TO.P,D36,4*%
%TO.N,LED_B_15*%
X102520000Y-62320000D03*
%TD*%
%TO.P,D37,1*%
%TO.N,+5V_LED*%
X103480000Y-60720000D03*
%TO.P,D37,2*%
%TO.N,LED_B_17*%
X103480000Y-61680000D03*
%TO.P,D37,3*%
%TO.N,GND*%
X102520000Y-61680000D03*
%TO.P,D37,4*%
%TO.N,LED_B_16*%
X102520000Y-60720000D03*
%TD*%
%TO.P,D38,1*%
%TO.N,+5V_LED*%
X103480000Y-59120000D03*
%TO.P,D38,2*%
%TO.N,LED_B_18*%
X103480000Y-60080000D03*
%TO.P,D38,3*%
%TO.N,GND*%
X102520000Y-60080000D03*
%TO.P,D38,4*%
%TO.N,LED_B_17*%
X102520000Y-59120000D03*
%TD*%
%TO.P,D39,1*%
%TO.N,+5V_LED*%
X103480000Y-57520000D03*
%TO.P,D39,2*%
%TO.N,LED_B_19*%
X103480000Y-58480000D03*
%TO.P,D39,3*%
%TO.N,GND*%
X102520000Y-58480000D03*
%TO.P,D39,4*%
%TO.N,LED_B_18*%
X102520000Y-57520000D03*
%TD*%
%TO.P,D40,1*%
%TO.N,+5V_LED*%
X103480000Y-55920000D03*
%TO.P,D40,2*%
%TO.N,LED_B_20*%
X103480000Y-56880000D03*
%TO.P,D40,3*%
%TO.N,GND*%
X102520000Y-56880000D03*
%TO.P,D40,4*%
%TO.N,LED_B_19*%
X102520000Y-55920000D03*
%TD*%
D11*
%TO.P,JTIPB,1*%
%TO.N,+5V_LED*%
X97900000Y-54500000D03*
%TO.P,JTIPB,2*%
%TO.N,GND*%
X99300000Y-54500000D03*
%TO.P,JTIPB,3*%
%TO.N,TIP_B_DIN*%
X100700000Y-54500000D03*
%TO.P,JTIPB,4*%
%TO.N,TIP_B_DOUT*%
X102100000Y-54500000D03*
%TD*%
D10*
%TO.P,D41,1*%
%TO.N,+5V_LED*%
X87280000Y-97480000D03*
%TO.P,D41,2*%
%TO.N,LED_C_01*%
X86320000Y-97480000D03*
%TO.P,D41,3*%
%TO.N,GND*%
X86320000Y-96520000D03*
%TO.P,D41,4*%
%TO.N,TOP_C_DIN*%
X87280000Y-96520000D03*
%TD*%
%TO.P,D42,1*%
%TO.N,+5V_LED*%
X85680000Y-97480000D03*
%TO.P,D42,2*%
%TO.N,LED_C_02*%
X84720000Y-97480000D03*
%TO.P,D42,3*%
%TO.N,GND*%
X84720000Y-96520000D03*
%TO.P,D42,4*%
%TO.N,LED_C_01*%
X85680000Y-96520000D03*
%TD*%
%TO.P,D43,1*%
%TO.N,+5V_LED*%
X84080000Y-97480000D03*
%TO.P,D43,2*%
%TO.N,LED_C_03*%
X83120000Y-97480000D03*
%TO.P,D43,3*%
%TO.N,GND*%
X83120000Y-96520000D03*
%TO.P,D43,4*%
%TO.N,LED_C_02*%
X84080000Y-96520000D03*
%TD*%
%TO.P,D44,1*%
%TO.N,+5V_LED*%
X82480000Y-97480000D03*
%TO.P,D44,2*%
%TO.N,LED_C_04*%
X81520000Y-97480000D03*
%TO.P,D44,3*%
%TO.N,GND*%
X81520000Y-96520000D03*
%TO.P,D44,4*%
%TO.N,LED_C_03*%
X82480000Y-96520000D03*
%TD*%
%TO.P,D45,1*%
%TO.N,+5V_LED*%
X80880000Y-97480000D03*
%TO.P,D45,2*%
%TO.N,LED_C_05*%
X79920000Y-97480000D03*
%TO.P,D45,3*%
%TO.N,GND*%
X79920000Y-96520000D03*
%TO.P,D45,4*%
%TO.N,LED_C_04*%
X80880000Y-96520000D03*
%TD*%
%TO.P,D46,1*%
%TO.N,+5V_LED*%
X79280000Y-97480000D03*
%TO.P,D46,2*%
%TO.N,LED_C_06*%
X78320000Y-97480000D03*
%TO.P,D46,3*%
%TO.N,GND*%
X78320000Y-96520000D03*
%TO.P,D46,4*%
%TO.N,LED_C_05*%
X79280000Y-96520000D03*
%TD*%
%TO.P,D47,1*%
%TO.N,+5V_LED*%
X77680000Y-97480000D03*
%TO.P,D47,2*%
%TO.N,LED_C_07*%
X76720000Y-97480000D03*
%TO.P,D47,3*%
%TO.N,GND*%
X76720000Y-96520000D03*
%TO.P,D47,4*%
%TO.N,LED_C_06*%
X77680000Y-96520000D03*
%TD*%
%TO.P,D48,1*%
%TO.N,+5V_LED*%
X76080000Y-97480000D03*
%TO.P,D48,2*%
%TO.N,LED_C_08*%
X75120000Y-97480000D03*
%TO.P,D48,3*%
%TO.N,GND*%
X75120000Y-96520000D03*
%TO.P,D48,4*%
%TO.N,LED_C_07*%
X76080000Y-96520000D03*
%TD*%
%TO.P,D49,1*%
%TO.N,+5V_LED*%
X74480000Y-97480000D03*
%TO.P,D49,2*%
%TO.N,LED_C_09*%
X73520000Y-97480000D03*
%TO.P,D49,3*%
%TO.N,GND*%
X73520000Y-96520000D03*
%TO.P,D49,4*%
%TO.N,LED_C_08*%
X74480000Y-96520000D03*
%TD*%
%TO.P,D50,1*%
%TO.N,+5V_LED*%
X72880000Y-97480000D03*
%TO.P,D50,2*%
%TO.N,LED_C_10*%
X71920000Y-97480000D03*
%TO.P,D50,3*%
%TO.N,GND*%
X71920000Y-96520000D03*
%TO.P,D50,4*%
%TO.N,LED_C_09*%
X72880000Y-96520000D03*
%TD*%
%TO.P,D51,1*%
%TO.N,+5V_LED*%
X71280000Y-97480000D03*
%TO.P,D51,2*%
%TO.N,LED_C_11*%
X70320000Y-97480000D03*
%TO.P,D51,3*%
%TO.N,GND*%
X70320000Y-96520000D03*
%TO.P,D51,4*%
%TO.N,LED_C_10*%
X71280000Y-96520000D03*
%TD*%
%TO.P,D52,1*%
%TO.N,+5V_LED*%
X69680000Y-97480000D03*
%TO.P,D52,2*%
%TO.N,LED_C_12*%
X68720000Y-97480000D03*
%TO.P,D52,3*%
%TO.N,GND*%
X68720000Y-96520000D03*
%TO.P,D52,4*%
%TO.N,LED_C_11*%
X69680000Y-96520000D03*
%TD*%
%TO.P,D53,1*%
%TO.N,+5V_LED*%
X68080000Y-97480000D03*
%TO.P,D53,2*%
%TO.N,LED_C_13*%
X67120000Y-97480000D03*
%TO.P,D53,3*%
%TO.N,GND*%
X67120000Y-96520000D03*
%TO.P,D53,4*%
%TO.N,LED_C_12*%
X68080000Y-96520000D03*
%TD*%
%TO.P,D54,1*%
%TO.N,+5V_LED*%
X66480000Y-97480000D03*
%TO.P,D54,2*%
%TO.N,LED_C_14*%
X65520000Y-97480000D03*
%TO.P,D54,3*%
%TO.N,GND*%
X65520000Y-96520000D03*
%TO.P,D54,4*%
%TO.N,LED_C_13*%
X66480000Y-96520000D03*
%TD*%
%TO.P,D55,1*%
%TO.N,+5V_LED*%
X64880000Y-97480000D03*
%TO.P,D55,2*%
%TO.N,LED_C_15*%
X63920000Y-97480000D03*
%TO.P,D55,3*%
%TO.N,GND*%
X63920000Y-96520000D03*
%TO.P,D55,4*%
%TO.N,LED_C_14*%
X64880000Y-96520000D03*
%TD*%
%TO.P,D56,1*%
%TO.N,+5V_LED*%
X63280000Y-97480000D03*
%TO.P,D56,2*%
%TO.N,LED_C_16*%
X62320000Y-97480000D03*
%TO.P,D56,3*%
%TO.N,GND*%
X62320000Y-96520000D03*
%TO.P,D56,4*%
%TO.N,LED_C_15*%
X63280000Y-96520000D03*
%TD*%
%TO.P,D57,1*%
%TO.N,+5V_LED*%
X61680000Y-97480000D03*
%TO.P,D57,2*%
%TO.N,LED_C_17*%
X60720000Y-97480000D03*
%TO.P,D57,3*%
%TO.N,GND*%
X60720000Y-96520000D03*
%TO.P,D57,4*%
%TO.N,LED_C_16*%
X61680000Y-96520000D03*
%TD*%
%TO.P,D58,1*%
%TO.N,+5V_LED*%
X60080000Y-97480000D03*
%TO.P,D58,2*%
%TO.N,LED_C_18*%
X59120000Y-97480000D03*
%TO.P,D58,3*%
%TO.N,GND*%
X59120000Y-96520000D03*
%TO.P,D58,4*%
%TO.N,LED_C_17*%
X60080000Y-96520000D03*
%TD*%
%TO.P,D59,1*%
%TO.N,+5V_LED*%
X58480000Y-97480000D03*
%TO.P,D59,2*%
%TO.N,LED_C_19*%
X57520000Y-97480000D03*
%TO.P,D59,3*%
%TO.N,GND*%
X57520000Y-96520000D03*
%TO.P,D59,4*%
%TO.N,LED_C_18*%
X58480000Y-96520000D03*
%TD*%
%TO.P,D60,1*%
%TO.N,+5V_LED*%
X56880000Y-97480000D03*
%TO.P,D60,2*%
%TO.N,LED_C_20*%
X55920000Y-97480000D03*
%TO.P,D60,3*%
%TO.N,GND*%
X55920000Y-96520000D03*
%TO.P,D60,4*%
%TO.N,LED_C_19*%
X56880000Y-96520000D03*
%TD*%
D11*
%TO.P,JTIPC,1*%
%TO.N,+5V_LED*%
X54500000Y-97900000D03*
%TO.P,JTIPC,2*%
%TO.N,GND*%
X54500000Y-99300000D03*
%TO.P,JTIPC,3*%
%TO.N,TIP_C_DIN*%
X54500000Y-100700000D03*
%TO.P,JTIPC,4*%
%TO.N,TIP_C_DOUT*%
X54500000Y-102100000D03*
%TD*%
D10*
%TO.P,D61,1*%
%TO.N,+5V_LED*%
X96520000Y-113680000D03*
%TO.P,D61,2*%
%TO.N,LED_D_01*%
X96520000Y-112720000D03*
%TO.P,D61,3*%
%TO.N,GND*%
X97480000Y-112720000D03*
%TO.P,D61,4*%
%TO.N,TOP_D_DIN*%
X97480000Y-113680000D03*
%TD*%
%TO.P,D62,1*%
%TO.N,+5V_LED*%
X96520000Y-115280000D03*
%TO.P,D62,2*%
%TO.N,LED_D_02*%
X96520000Y-114320000D03*
%TO.P,D62,3*%
%TO.N,GND*%
X97480000Y-114320000D03*
%TO.P,D62,4*%
%TO.N,LED_D_01*%
X97480000Y-115280000D03*
%TD*%
%TO.P,D63,1*%
%TO.N,+5V_LED*%
X96520000Y-116880000D03*
%TO.P,D63,2*%
%TO.N,LED_D_03*%
X96520000Y-115920000D03*
%TO.P,D63,3*%
%TO.N,GND*%
X97480000Y-115920000D03*
%TO.P,D63,4*%
%TO.N,LED_D_02*%
X97480000Y-116880000D03*
%TD*%
%TO.P,D64,1*%
%TO.N,+5V_LED*%
X96520000Y-118480000D03*
%TO.P,D64,2*%
%TO.N,LED_D_04*%
X96520000Y-117520000D03*
%TO.P,D64,3*%
%TO.N,GND*%
X97480000Y-117520000D03*
%TO.P,D64,4*%
%TO.N,LED_D_03*%
X97480000Y-118480000D03*
%TD*%
%TO.P,D65,1*%
%TO.N,+5V_LED*%
X96520000Y-120080000D03*
%TO.P,D65,2*%
%TO.N,LED_D_05*%
X96520000Y-119120000D03*
%TO.P,D65,3*%
%TO.N,GND*%
X97480000Y-119120000D03*
%TO.P,D65,4*%
%TO.N,LED_D_04*%
X97480000Y-120080000D03*
%TD*%
%TO.P,D66,1*%
%TO.N,+5V_LED*%
X96520000Y-121680000D03*
%TO.P,D66,2*%
%TO.N,LED_D_06*%
X96520000Y-120720000D03*
%TO.P,D66,3*%
%TO.N,GND*%
X97480000Y-120720000D03*
%TO.P,D66,4*%
%TO.N,LED_D_05*%
X97480000Y-121680000D03*
%TD*%
%TO.P,D67,1*%
%TO.N,+5V_LED*%
X96520000Y-123280000D03*
%TO.P,D67,2*%
%TO.N,LED_D_07*%
X96520000Y-122320000D03*
%TO.P,D67,3*%
%TO.N,GND*%
X97480000Y-122320000D03*
%TO.P,D67,4*%
%TO.N,LED_D_06*%
X97480000Y-123280000D03*
%TD*%
%TO.P,D68,1*%
%TO.N,+5V_LED*%
X96520000Y-124880000D03*
%TO.P,D68,2*%
%TO.N,LED_D_08*%
X96520000Y-123920000D03*
%TO.P,D68,3*%
%TO.N,GND*%
X97480000Y-123920000D03*
%TO.P,D68,4*%
%TO.N,LED_D_07*%
X97480000Y-124880000D03*
%TD*%
%TO.P,D69,1*%
%TO.N,+5V_LED*%
X96520000Y-126480000D03*
%TO.P,D69,2*%
%TO.N,LED_D_09*%
X96520000Y-125520000D03*
%TO.P,D69,3*%
%TO.N,GND*%
X97480000Y-125520000D03*
%TO.P,D69,4*%
%TO.N,LED_D_08*%
X97480000Y-126480000D03*
%TD*%
%TO.P,D70,1*%
%TO.N,+5V_LED*%
X96520000Y-128080000D03*
%TO.P,D70,2*%
%TO.N,LED_D_10*%
X96520000Y-127120000D03*
%TO.P,D70,3*%
%TO.N,GND*%
X97480000Y-127120000D03*
%TO.P,D70,4*%
%TO.N,LED_D_09*%
X97480000Y-128080000D03*
%TD*%
%TO.P,D71,1*%
%TO.N,+5V_LED*%
X96520000Y-129680000D03*
%TO.P,D71,2*%
%TO.N,LED_D_11*%
X96520000Y-128720000D03*
%TO.P,D71,3*%
%TO.N,GND*%
X97480000Y-128720000D03*
%TO.P,D71,4*%
%TO.N,LED_D_10*%
X97480000Y-129680000D03*
%TD*%
%TO.P,D72,1*%
%TO.N,+5V_LED*%
X96520000Y-131280000D03*
%TO.P,D72,2*%
%TO.N,LED_D_12*%
X96520000Y-130320000D03*
%TO.P,D72,3*%
%TO.N,GND*%
X97480000Y-130320000D03*
%TO.P,D72,4*%
%TO.N,LED_D_11*%
X97480000Y-131280000D03*
%TD*%
%TO.P,D73,1*%
%TO.N,+5V_LED*%
X96520000Y-132880000D03*
%TO.P,D73,2*%
%TO.N,LED_D_13*%
X96520000Y-131920000D03*
%TO.P,D73,3*%
%TO.N,GND*%
X97480000Y-131920000D03*
%TO.P,D73,4*%
%TO.N,LED_D_12*%
X97480000Y-132880000D03*
%TD*%
%TO.P,D74,1*%
%TO.N,+5V_LED*%
X96520000Y-134480000D03*
%TO.P,D74,2*%
%TO.N,LED_D_14*%
X96520000Y-133520000D03*
%TO.P,D74,3*%
%TO.N,GND*%
X97480000Y-133520000D03*
%TO.P,D74,4*%
%TO.N,LED_D_13*%
X97480000Y-134480000D03*
%TD*%
%TO.P,D75,1*%
%TO.N,+5V_LED*%
X96520000Y-136080000D03*
%TO.P,D75,2*%
%TO.N,LED_D_15*%
X96520000Y-135120000D03*
%TO.P,D75,3*%
%TO.N,GND*%
X97480000Y-135120000D03*
%TO.P,D75,4*%
%TO.N,LED_D_14*%
X97480000Y-136080000D03*
%TD*%
%TO.P,D76,1*%
%TO.N,+5V_LED*%
X96520000Y-137680000D03*
%TO.P,D76,2*%
%TO.N,LED_D_16*%
X96520000Y-136720000D03*
%TO.P,D76,3*%
%TO.N,GND*%
X97480000Y-136720000D03*
%TO.P,D76,4*%
%TO.N,LED_D_15*%
X97480000Y-137680000D03*
%TD*%
%TO.P,D77,1*%
%TO.N,+5V_LED*%
X96520000Y-139280000D03*
%TO.P,D77,2*%
%TO.N,LED_D_17*%
X96520000Y-138320000D03*
%TO.P,D77,3*%
%TO.N,GND*%
X97480000Y-138320000D03*
%TO.P,D77,4*%
%TO.N,LED_D_16*%
X97480000Y-139280000D03*
%TD*%
%TO.P,D78,1*%
%TO.N,+5V_LED*%
X96520000Y-140880000D03*
%TO.P,D78,2*%
%TO.N,LED_D_18*%
X96520000Y-139920000D03*
%TO.P,D78,3*%
%TO.N,GND*%
X97480000Y-139920000D03*
%TO.P,D78,4*%
%TO.N,LED_D_17*%
X97480000Y-140880000D03*
%TD*%
%TO.P,D79,1*%
%TO.N,+5V_LED*%
X96520000Y-142480000D03*
%TO.P,D79,2*%
%TO.N,LED_D_19*%
X96520000Y-141520000D03*
%TO.P,D79,3*%
%TO.N,GND*%
X97480000Y-141520000D03*
%TO.P,D79,4*%
%TO.N,LED_D_18*%
X97480000Y-142480000D03*
%TD*%
%TO.P,D80,1*%
%TO.N,+5V_LED*%
X96520000Y-144080000D03*
%TO.P,D80,2*%
%TO.N,LED_D_20*%
X96520000Y-143120000D03*
%TO.P,D80,3*%
%TO.N,GND*%
X97480000Y-143120000D03*
%TO.P,D80,4*%
%TO.N,LED_D_19*%
X97480000Y-144080000D03*
%TD*%
D11*
%TO.P,JTIPD,1*%
%TO.N,+5V_LED*%
X102100000Y-145500000D03*
%TO.P,JTIPD,2*%
%TO.N,GND*%
X100700000Y-145500000D03*
%TO.P,JTIPD,3*%
%TO.N,TIP_D_DIN*%
X99300000Y-145500000D03*
%TO.P,JTIPD,4*%
%TO.N,TIP_D_DOUT*%
X97900000Y-145500000D03*
%TD*%
D12*
%TO.N,LED_A_01*%
X113680000Y-102520000D03*
X114320000Y-103480000D03*
%TO.N,LED_A_02*%
X115280000Y-102520000D03*
X115920000Y-103480000D03*
%TO.N,LED_A_03*%
X116880000Y-102520000D03*
X117520000Y-103480000D03*
%TO.N,LED_A_04*%
X118480000Y-102520000D03*
X119120000Y-103480000D03*
%TO.N,LED_A_05*%
X120080000Y-102520000D03*
X120720000Y-103480000D03*
%TO.N,LED_A_06*%
X121680000Y-102520000D03*
X122320000Y-103480000D03*
%TO.N,LED_A_07*%
X123280000Y-102520000D03*
X123920000Y-103480000D03*
%TO.N,LED_A_08*%
X124880000Y-102520000D03*
X125520000Y-103480000D03*
%TO.N,LED_A_09*%
X126480000Y-102520000D03*
X127120000Y-103480000D03*
%TO.N,LED_A_10*%
X128080000Y-102520000D03*
X128720000Y-103480000D03*
%TO.N,LED_A_11*%
X129680000Y-102520000D03*
X130320000Y-103480000D03*
%TO.N,LED_A_12*%
X131280000Y-102520000D03*
X131920000Y-103480000D03*
%TO.N,LED_A_13*%
X132880000Y-102520000D03*
X133520000Y-103480000D03*
%TO.N,LED_A_14*%
X134480000Y-102520000D03*
X135120000Y-103480000D03*
%TO.N,LED_A_15*%
X136080000Y-102520000D03*
X136720000Y-103480000D03*
%TO.N,LED_A_16*%
X137680000Y-102520000D03*
X138320000Y-103480000D03*
%TO.N,LED_A_17*%
X139280000Y-102520000D03*
X139920000Y-103480000D03*
%TO.N,LED_A_18*%
X140880000Y-102520000D03*
X141520000Y-103480000D03*
%TO.N,LED_A_19*%
X142480000Y-102520000D03*
X143120000Y-103480000D03*
%TO.N,LED_B_01*%
X103480000Y-87280000D03*
X102520000Y-84720000D03*
%TO.N,LED_B_02*%
X103480000Y-85680000D03*
X102520000Y-83120000D03*
%TO.N,LED_B_03*%
X103480000Y-84080000D03*
X102520000Y-81520000D03*
%TO.N,LED_B_04*%
X103480000Y-82480000D03*
X102520000Y-79920000D03*
%TO.N,LED_B_05*%
X103480000Y-80880000D03*
X102520000Y-78320000D03*
%TO.N,LED_B_06*%
X103480000Y-79280000D03*
X102520000Y-76720000D03*
%TO.N,LED_B_07*%
X103480000Y-77680000D03*
X102520000Y-75120000D03*
%TO.N,LED_B_08*%
X103480000Y-76080000D03*
X102520000Y-73520000D03*
%TO.N,LED_B_09*%
X103480000Y-74480000D03*
X102520000Y-71920000D03*
%TO.N,LED_B_10*%
X103480000Y-72880000D03*
X102520000Y-70320000D03*
%TO.N,LED_B_11*%
X103480000Y-71280000D03*
X102520000Y-68720000D03*
%TO.N,LED_B_12*%
X103480000Y-69680000D03*
X102520000Y-67120000D03*
%TO.N,LED_B_13*%
X103480000Y-68080000D03*
X102520000Y-65520000D03*
%TO.N,LED_B_14*%
X103480000Y-66480000D03*
X102520000Y-63920000D03*
%TO.N,LED_B_15*%
X103480000Y-64880000D03*
X102520000Y-62320000D03*
%TO.N,LED_B_16*%
X103480000Y-63280000D03*
X102520000Y-60720000D03*
%TO.N,LED_B_17*%
X103480000Y-61680000D03*
X102520000Y-59120000D03*
%TO.N,LED_B_18*%
X103480000Y-60080000D03*
X102520000Y-57520000D03*
%TO.N,LED_B_19*%
X103480000Y-58480000D03*
X102520000Y-55920000D03*
%TO.N,LED_C_01*%
X86320000Y-97480000D03*
X85680000Y-96520000D03*
%TO.N,LED_C_02*%
X84720000Y-97480000D03*
X84080000Y-96520000D03*
%TO.N,LED_C_03*%
X83120000Y-97480000D03*
X82480000Y-96520000D03*
%TO.N,LED_C_04*%
X81520000Y-97480000D03*
X80880000Y-96520000D03*
%TO.N,LED_C_05*%
X79920000Y-97480000D03*
X79280000Y-96520000D03*
%TO.N,LED_C_06*%
X78320000Y-97480000D03*
X77680000Y-96520000D03*
%TO.N,LED_C_07*%
X76720000Y-97480000D03*
X76080000Y-96520000D03*
%TO.N,LED_C_08*%
X75120000Y-97480000D03*
X74480000Y-96520000D03*
%TO.N,LED_C_09*%
X73520000Y-97480000D03*
X72880000Y-96520000D03*
%TO.N,LED_C_10*%
X71920000Y-97480000D03*
X71280000Y-96520000D03*
%TO.N,LED_C_11*%
X70320000Y-97480000D03*
X69680000Y-96520000D03*
%TO.N,LED_C_12*%
X68720000Y-97480000D03*
X68080000Y-96520000D03*
%TO.N,LED_C_13*%
X67120000Y-97480000D03*
X66480000Y-96520000D03*
%TO.N,LED_C_14*%
X65520000Y-97480000D03*
X64880000Y-96520000D03*
%TO.N,LED_C_15*%
X63920000Y-97480000D03*
X63280000Y-96520000D03*
%TO.N,LED_C_16*%
X62320000Y-97480000D03*
X61680000Y-96520000D03*
%TO.N,LED_C_17*%
X60720000Y-97480000D03*
X60080000Y-96520000D03*
%TO.N,LED_C_18*%
X59120000Y-97480000D03*
X58480000Y-96520000D03*
%TO.N,LED_C_19*%
X57520000Y-97480000D03*
X56880000Y-96520000D03*
%TO.N,LED_D_01*%
X96520000Y-112720000D03*
X97480000Y-115280000D03*
%TO.N,LED_D_02*%
X96520000Y-114320000D03*
X97480000Y-116880000D03*
%TO.N,LED_D_03*%
X96520000Y-115920000D03*
X97480000Y-118480000D03*
%TO.N,LED_D_04*%
X96520000Y-117520000D03*
X97480000Y-120080000D03*
%TO.N,LED_D_05*%
X96520000Y-119120000D03*
X97480000Y-121680000D03*
%TO.N,LED_D_06*%
X96520000Y-120720000D03*
X97480000Y-123280000D03*
%TO.N,LED_D_07*%
X96520000Y-122320000D03*
X97480000Y-124880000D03*
%TO.N,LED_D_08*%
X96520000Y-123920000D03*
X97480000Y-126480000D03*
%TO.N,LED_D_09*%
X96520000Y-125520000D03*
X97480000Y-128080000D03*
%TO.N,LED_D_10*%
X96520000Y-127120000D03*
X97480000Y-129680000D03*
%TO.N,LED_D_11*%
X96520000Y-128720000D03*
X97480000Y-131280000D03*
%TO.N,LED_D_12*%
X96520000Y-130320000D03*
X97480000Y-132880000D03*
%TO.N,LED_D_13*%
X96520000Y-131920000D03*
X97480000Y-134480000D03*
%TO.N,LED_D_14*%
X96520000Y-133520000D03*
X97480000Y-136080000D03*
%TO.N,LED_D_15*%
X96520000Y-135120000D03*
X97480000Y-137680000D03*
%TO.N,LED_D_16*%
X96520000Y-136720000D03*
X97480000Y-139280000D03*
%TO.N,LED_D_17*%
X96520000Y-138320000D03*
X97480000Y-140880000D03*
%TO.N,LED_D_18*%
X96520000Y-139920000D03*
X97480000Y-142480000D03*
%TO.N,LED_D_19*%
X96520000Y-141520000D03*
X97480000Y-144080000D03*
%TD*%
%TO.N,+5V_LED*%
D13*
X112720000Y-102520000D02*
X112720000Y-101900000D01*
%TO.N,GND*%
X113680000Y-103480000D02*
X113680000Y-104100000D01*
%TO.N,+5V_LED*%
D14*
X112720000Y-101900000D02*
X114320000Y-101900000D01*
%TO.N,GND*%
X113680000Y-104100000D02*
X115280000Y-104100000D01*
%TO.N,+5V_LED*%
D13*
X114320000Y-102520000D02*
X114320000Y-101900000D01*
%TO.N,GND*%
X115280000Y-103480000D02*
X115280000Y-104100000D01*
%TO.N,+5V_LED*%
D14*
X114320000Y-101900000D02*
X115920000Y-101900000D01*
%TO.N,GND*%
X115280000Y-104100000D02*
X116880000Y-104100000D01*
%TO.N,+5V_LED*%
D13*
X115920000Y-102520000D02*
X115920000Y-101900000D01*
%TO.N,GND*%
X116880000Y-103480000D02*
X116880000Y-104100000D01*
%TO.N,+5V_LED*%
D14*
X115920000Y-101900000D02*
X117520000Y-101900000D01*
%TO.N,GND*%
X116880000Y-104100000D02*
X118480000Y-104100000D01*
%TO.N,+5V_LED*%
D13*
X117520000Y-102520000D02*
X117520000Y-101900000D01*
%TO.N,GND*%
X118480000Y-103480000D02*
X118480000Y-104100000D01*
%TO.N,+5V_LED*%
D14*
X117520000Y-101900000D02*
X119120000Y-101900000D01*
%TO.N,GND*%
X118480000Y-104100000D02*
X120080000Y-104100000D01*
%TO.N,+5V_LED*%
D13*
X119120000Y-102520000D02*
X119120000Y-101900000D01*
%TO.N,GND*%
X120080000Y-103480000D02*
X120080000Y-104100000D01*
%TO.N,+5V_LED*%
D14*
X119120000Y-101900000D02*
X120720000Y-101900000D01*
%TO.N,GND*%
X120080000Y-104100000D02*
X121680000Y-104100000D01*
%TO.N,+5V_LED*%
D13*
X120720000Y-102520000D02*
X120720000Y-101900000D01*
%TO.N,GND*%
X121680000Y-103480000D02*
X121680000Y-104100000D01*
%TO.N,+5V_LED*%
D14*
X120720000Y-101900000D02*
X122320000Y-101900000D01*
%TO.N,GND*%
X121680000Y-104100000D02*
X123280000Y-104100000D01*
%TO.N,+5V_LED*%
D13*
X122320000Y-102520000D02*
X122320000Y-101900000D01*
%TO.N,GND*%
X123280000Y-103480000D02*
X123280000Y-104100000D01*
%TO.N,+5V_LED*%
D14*
X122320000Y-101900000D02*
X123920000Y-101900000D01*
%TO.N,GND*%
X123280000Y-104100000D02*
X124880000Y-104100000D01*
%TO.N,+5V_LED*%
D13*
X123920000Y-102520000D02*
X123920000Y-101900000D01*
%TO.N,GND*%
X124880000Y-103480000D02*
X124880000Y-104100000D01*
%TO.N,+5V_LED*%
D14*
X123920000Y-101900000D02*
X125520000Y-101900000D01*
%TO.N,GND*%
X124880000Y-104100000D02*
X126480000Y-104100000D01*
%TO.N,+5V_LED*%
D13*
X125520000Y-102520000D02*
X125520000Y-101900000D01*
%TO.N,GND*%
X126480000Y-103480000D02*
X126480000Y-104100000D01*
%TO.N,+5V_LED*%
D14*
X125520000Y-101900000D02*
X127120000Y-101900000D01*
%TO.N,GND*%
X126480000Y-104100000D02*
X128080000Y-104100000D01*
%TO.N,+5V_LED*%
D13*
X127120000Y-102520000D02*
X127120000Y-101900000D01*
%TO.N,GND*%
X128080000Y-103480000D02*
X128080000Y-104100000D01*
%TO.N,+5V_LED*%
D14*
X127120000Y-101900000D02*
X128720000Y-101900000D01*
%TO.N,GND*%
X128080000Y-104100000D02*
X129680000Y-104100000D01*
%TO.N,+5V_LED*%
D13*
X128720000Y-102520000D02*
X128720000Y-101900000D01*
%TO.N,GND*%
X129680000Y-103480000D02*
X129680000Y-104100000D01*
%TO.N,+5V_LED*%
D14*
X128720000Y-101900000D02*
X130320000Y-101900000D01*
%TO.N,GND*%
X129680000Y-104100000D02*
X131280000Y-104100000D01*
%TO.N,+5V_LED*%
D13*
X130320000Y-102520000D02*
X130320000Y-101900000D01*
%TO.N,GND*%
X131280000Y-103480000D02*
X131280000Y-104100000D01*
%TO.N,+5V_LED*%
D14*
X130320000Y-101900000D02*
X131920000Y-101900000D01*
%TO.N,GND*%
X131280000Y-104100000D02*
X132880000Y-104100000D01*
%TO.N,+5V_LED*%
D13*
X131920000Y-102520000D02*
X131920000Y-101900000D01*
%TO.N,GND*%
X132880000Y-103480000D02*
X132880000Y-104100000D01*
%TO.N,+5V_LED*%
D14*
X131920000Y-101900000D02*
X133520000Y-101900000D01*
%TO.N,GND*%
X132880000Y-104100000D02*
X134480000Y-104100000D01*
%TO.N,+5V_LED*%
D13*
X133520000Y-102520000D02*
X133520000Y-101900000D01*
%TO.N,GND*%
X134480000Y-103480000D02*
X134480000Y-104100000D01*
%TO.N,+5V_LED*%
D14*
X133520000Y-101900000D02*
X135120000Y-101900000D01*
%TO.N,GND*%
X134480000Y-104100000D02*
X136080000Y-104100000D01*
%TO.N,+5V_LED*%
D13*
X135120000Y-102520000D02*
X135120000Y-101900000D01*
%TO.N,GND*%
X136080000Y-103480000D02*
X136080000Y-104100000D01*
%TO.N,+5V_LED*%
D14*
X135120000Y-101900000D02*
X136720000Y-101900000D01*
%TO.N,GND*%
X136080000Y-104100000D02*
X137680000Y-104100000D01*
%TO.N,+5V_LED*%
D13*
X136720000Y-102520000D02*
X136720000Y-101900000D01*
%TO.N,GND*%
X137680000Y-103480000D02*
X137680000Y-104100000D01*
%TO.N,+5V_LED*%
D14*
X136720000Y-101900000D02*
X138320000Y-101900000D01*
%TO.N,GND*%
X137680000Y-104100000D02*
X139280000Y-104100000D01*
%TO.N,+5V_LED*%
D13*
X138320000Y-102520000D02*
X138320000Y-101900000D01*
%TO.N,GND*%
X139280000Y-103480000D02*
X139280000Y-104100000D01*
%TO.N,+5V_LED*%
D14*
X138320000Y-101900000D02*
X139920000Y-101900000D01*
%TO.N,GND*%
X139280000Y-104100000D02*
X140880000Y-104100000D01*
%TO.N,+5V_LED*%
D13*
X139920000Y-102520000D02*
X139920000Y-101900000D01*
%TO.N,GND*%
X140880000Y-103480000D02*
X140880000Y-104100000D01*
%TO.N,+5V_LED*%
D14*
X139920000Y-101900000D02*
X141520000Y-101900000D01*
%TO.N,GND*%
X140880000Y-104100000D02*
X142480000Y-104100000D01*
%TO.N,+5V_LED*%
D13*
X141520000Y-102520000D02*
X141520000Y-101900000D01*
%TO.N,GND*%
X142480000Y-103480000D02*
X142480000Y-104100000D01*
%TO.N,+5V_LED*%
D14*
X141520000Y-101900000D02*
X143120000Y-101900000D01*
%TO.N,GND*%
X142480000Y-104100000D02*
X144080000Y-104100000D01*
%TO.N,+5V_LED*%
D13*
X143120000Y-102520000D02*
X143120000Y-101900000D01*
%TO.N,GND*%
X144080000Y-103480000D02*
X144080000Y-104100000D01*
%TO.N,+5V_LED*%
X103480000Y-86320000D02*
X104100000Y-86320000D01*
%TO.N,GND*%
X102520000Y-87280000D02*
X101900000Y-87280000D01*
%TO.N,+5V_LED*%
D14*
X104100000Y-86320000D02*
X104100000Y-84720000D01*
%TO.N,GND*%
X101900000Y-87280000D02*
X101900000Y-85680000D01*
%TO.N,+5V_LED*%
D13*
X103480000Y-84720000D02*
X104100000Y-84720000D01*
%TO.N,GND*%
X102520000Y-85680000D02*
X101900000Y-85680000D01*
%TO.N,+5V_LED*%
D14*
X104100000Y-84720000D02*
X104100000Y-83120000D01*
%TO.N,GND*%
X101900000Y-85680000D02*
X101900000Y-84080000D01*
%TO.N,+5V_LED*%
D13*
X103480000Y-83120000D02*
X104100000Y-83120000D01*
%TO.N,GND*%
X102520000Y-84080000D02*
X101900000Y-84080000D01*
%TO.N,+5V_LED*%
D14*
X104100000Y-83120000D02*
X104100000Y-81520000D01*
%TO.N,GND*%
X101900000Y-84080000D02*
X101900000Y-82480000D01*
%TO.N,+5V_LED*%
D13*
X103480000Y-81520000D02*
X104100000Y-81520000D01*
%TO.N,GND*%
X102520000Y-82480000D02*
X101900000Y-82480000D01*
%TO.N,+5V_LED*%
D14*
X104100000Y-81520000D02*
X104100000Y-79920000D01*
%TO.N,GND*%
X101900000Y-82480000D02*
X101900000Y-80880000D01*
%TO.N,+5V_LED*%
D13*
X103480000Y-79920000D02*
X104100000Y-79920000D01*
%TO.N,GND*%
X102520000Y-80880000D02*
X101900000Y-80880000D01*
%TO.N,+5V_LED*%
D14*
X104100000Y-79920000D02*
X104100000Y-78320000D01*
%TO.N,GND*%
X101900000Y-80880000D02*
X101900000Y-79280000D01*
%TO.N,+5V_LED*%
D13*
X103480000Y-78320000D02*
X104100000Y-78320000D01*
%TO.N,GND*%
X102520000Y-79280000D02*
X101900000Y-79280000D01*
%TO.N,+5V_LED*%
D14*
X104100000Y-78320000D02*
X104100000Y-76720000D01*
%TO.N,GND*%
X101900000Y-79280000D02*
X101900000Y-77680000D01*
%TO.N,+5V_LED*%
D13*
X103480000Y-76720000D02*
X104100000Y-76720000D01*
%TO.N,GND*%
X102520000Y-77680000D02*
X101900000Y-77680000D01*
%TO.N,+5V_LED*%
D14*
X104100000Y-76720000D02*
X104100000Y-75120000D01*
%TO.N,GND*%
X101900000Y-77680000D02*
X101900000Y-76080000D01*
%TO.N,+5V_LED*%
D13*
X103480000Y-75120000D02*
X104100000Y-75120000D01*
%TO.N,GND*%
X102520000Y-76080000D02*
X101900000Y-76080000D01*
%TO.N,+5V_LED*%
D14*
X104100000Y-75120000D02*
X104100000Y-73520000D01*
%TO.N,GND*%
X101900000Y-76080000D02*
X101900000Y-74480000D01*
%TO.N,+5V_LED*%
D13*
X103480000Y-73520000D02*
X104100000Y-73520000D01*
%TO.N,GND*%
X102520000Y-74480000D02*
X101900000Y-74480000D01*
%TO.N,+5V_LED*%
D14*
X104100000Y-73520000D02*
X104100000Y-71920000D01*
%TO.N,GND*%
X101900000Y-74480000D02*
X101900000Y-72880000D01*
%TO.N,+5V_LED*%
D13*
X103480000Y-71920000D02*
X104100000Y-71920000D01*
%TO.N,GND*%
X102520000Y-72880000D02*
X101900000Y-72880000D01*
%TO.N,+5V_LED*%
D14*
X104100000Y-71920000D02*
X104100000Y-70320000D01*
%TO.N,GND*%
X101900000Y-72880000D02*
X101900000Y-71280000D01*
%TO.N,+5V_LED*%
D13*
X103480000Y-70320000D02*
X104100000Y-70320000D01*
%TO.N,GND*%
X102520000Y-71280000D02*
X101900000Y-71280000D01*
%TO.N,+5V_LED*%
D14*
X104100000Y-70320000D02*
X104100000Y-68720000D01*
%TO.N,GND*%
X101900000Y-71280000D02*
X101900000Y-69680000D01*
%TO.N,+5V_LED*%
D13*
X103480000Y-68720000D02*
X104100000Y-68720000D01*
%TO.N,GND*%
X102520000Y-69680000D02*
X101900000Y-69680000D01*
%TO.N,+5V_LED*%
D14*
X104100000Y-68720000D02*
X104100000Y-67120000D01*
%TO.N,GND*%
X101900000Y-69680000D02*
X101900000Y-68080000D01*
%TO.N,+5V_LED*%
D13*
X103480000Y-67120000D02*
X104100000Y-67120000D01*
%TO.N,GND*%
X102520000Y-68080000D02*
X101900000Y-68080000D01*
%TO.N,+5V_LED*%
D14*
X104100000Y-67120000D02*
X104100000Y-65520000D01*
%TO.N,GND*%
X101900000Y-68080000D02*
X101900000Y-66480000D01*
%TO.N,+5V_LED*%
D13*
X103480000Y-65520000D02*
X104100000Y-65520000D01*
%TO.N,GND*%
X102520000Y-66480000D02*
X101900000Y-66480000D01*
%TO.N,+5V_LED*%
D14*
X104100000Y-65520000D02*
X104100000Y-63920000D01*
%TO.N,GND*%
X101900000Y-66480000D02*
X101900000Y-64880000D01*
%TO.N,+5V_LED*%
D13*
X103480000Y-63920000D02*
X104100000Y-63920000D01*
%TO.N,GND*%
X102520000Y-64880000D02*
X101900000Y-64880000D01*
%TO.N,+5V_LED*%
D14*
X104100000Y-63920000D02*
X104100000Y-62320000D01*
%TO.N,GND*%
X101900000Y-64880000D02*
X101900000Y-63280000D01*
%TO.N,+5V_LED*%
D13*
X103480000Y-62320000D02*
X104100000Y-62320000D01*
%TO.N,GND*%
X102520000Y-63280000D02*
X101900000Y-63280000D01*
%TO.N,+5V_LED*%
D14*
X104100000Y-62320000D02*
X104100000Y-60720000D01*
%TO.N,GND*%
X101900000Y-63280000D02*
X101900000Y-61680000D01*
%TO.N,+5V_LED*%
D13*
X103480000Y-60720000D02*
X104100000Y-60720000D01*
%TO.N,GND*%
X102520000Y-61680000D02*
X101900000Y-61680000D01*
%TO.N,+5V_LED*%
D14*
X104100000Y-60720000D02*
X104100000Y-59120000D01*
%TO.N,GND*%
X101900000Y-61680000D02*
X101900000Y-60080000D01*
%TO.N,+5V_LED*%
D13*
X103480000Y-59120000D02*
X104100000Y-59120000D01*
%TO.N,GND*%
X102520000Y-60080000D02*
X101900000Y-60080000D01*
%TO.N,+5V_LED*%
D14*
X104100000Y-59120000D02*
X104100000Y-57520000D01*
%TO.N,GND*%
X101900000Y-60080000D02*
X101900000Y-58480000D01*
%TO.N,+5V_LED*%
D13*
X103480000Y-57520000D02*
X104100000Y-57520000D01*
%TO.N,GND*%
X102520000Y-58480000D02*
X101900000Y-58480000D01*
%TO.N,+5V_LED*%
D14*
X104100000Y-57520000D02*
X104100000Y-55920000D01*
%TO.N,GND*%
X101900000Y-58480000D02*
X101900000Y-56880000D01*
%TO.N,+5V_LED*%
D13*
X103480000Y-55920000D02*
X104100000Y-55920000D01*
%TO.N,GND*%
X102520000Y-56880000D02*
X101900000Y-56880000D01*
%TO.N,+5V_LED*%
X87280000Y-97480000D02*
X87280000Y-98100000D01*
%TO.N,GND*%
X86320000Y-96520000D02*
X86320000Y-95900000D01*
%TO.N,+5V_LED*%
D14*
X87280000Y-98100000D02*
X85680000Y-98100000D01*
%TO.N,GND*%
X86320000Y-95900000D02*
X84720000Y-95900000D01*
%TO.N,+5V_LED*%
D13*
X85680000Y-97480000D02*
X85680000Y-98100000D01*
%TO.N,GND*%
X84720000Y-96520000D02*
X84720000Y-95900000D01*
%TO.N,+5V_LED*%
D14*
X85680000Y-98100000D02*
X84080000Y-98100000D01*
%TO.N,GND*%
X84720000Y-95900000D02*
X83120000Y-95900000D01*
%TO.N,+5V_LED*%
D13*
X84080000Y-97480000D02*
X84080000Y-98100000D01*
%TO.N,GND*%
X83120000Y-96520000D02*
X83120000Y-95900000D01*
%TO.N,+5V_LED*%
D14*
X84080000Y-98100000D02*
X82480000Y-98100000D01*
%TO.N,GND*%
X83120000Y-95900000D02*
X81520000Y-95900000D01*
%TO.N,+5V_LED*%
D13*
X82480000Y-97480000D02*
X82480000Y-98100000D01*
%TO.N,GND*%
X81520000Y-96520000D02*
X81520000Y-95900000D01*
%TO.N,+5V_LED*%
D14*
X82480000Y-98100000D02*
X80880000Y-98100000D01*
%TO.N,GND*%
X81520000Y-95900000D02*
X79920000Y-95900000D01*
%TO.N,+5V_LED*%
D13*
X80880000Y-97480000D02*
X80880000Y-98100000D01*
%TO.N,GND*%
X79920000Y-96520000D02*
X79920000Y-95900000D01*
%TO.N,+5V_LED*%
D14*
X80880000Y-98100000D02*
X79280000Y-98100000D01*
%TO.N,GND*%
X79920000Y-95900000D02*
X78320000Y-95900000D01*
%TO.N,+5V_LED*%
D13*
X79280000Y-97480000D02*
X79280000Y-98100000D01*
%TO.N,GND*%
X78320000Y-96520000D02*
X78320000Y-95900000D01*
%TO.N,+5V_LED*%
D14*
X79280000Y-98100000D02*
X77680000Y-98100000D01*
%TO.N,GND*%
X78320000Y-95900000D02*
X76720000Y-95900000D01*
%TO.N,+5V_LED*%
D13*
X77680000Y-97480000D02*
X77680000Y-98100000D01*
%TO.N,GND*%
X76720000Y-96520000D02*
X76720000Y-95900000D01*
%TO.N,+5V_LED*%
D14*
X77680000Y-98100000D02*
X76080000Y-98100000D01*
%TO.N,GND*%
X76720000Y-95900000D02*
X75120000Y-95900000D01*
%TO.N,+5V_LED*%
D13*
X76080000Y-97480000D02*
X76080000Y-98100000D01*
%TO.N,GND*%
X75120000Y-96520000D02*
X75120000Y-95900000D01*
%TO.N,+5V_LED*%
D14*
X76080000Y-98100000D02*
X74480000Y-98100000D01*
%TO.N,GND*%
X75120000Y-95900000D02*
X73520000Y-95900000D01*
%TO.N,+5V_LED*%
D13*
X74480000Y-97480000D02*
X74480000Y-98100000D01*
%TO.N,GND*%
X73520000Y-96520000D02*
X73520000Y-95900000D01*
%TO.N,+5V_LED*%
D14*
X74480000Y-98100000D02*
X72880000Y-98100000D01*
%TO.N,GND*%
X73520000Y-95900000D02*
X71920000Y-95900000D01*
%TO.N,+5V_LED*%
D13*
X72880000Y-97480000D02*
X72880000Y-98100000D01*
%TO.N,GND*%
X71920000Y-96520000D02*
X71920000Y-95900000D01*
%TO.N,+5V_LED*%
D14*
X72880000Y-98100000D02*
X71280000Y-98100000D01*
%TO.N,GND*%
X71920000Y-95900000D02*
X70320000Y-95900000D01*
%TO.N,+5V_LED*%
D13*
X71280000Y-97480000D02*
X71280000Y-98100000D01*
%TO.N,GND*%
X70320000Y-96520000D02*
X70320000Y-95900000D01*
%TO.N,+5V_LED*%
D14*
X71280000Y-98100000D02*
X69680000Y-98100000D01*
%TO.N,GND*%
X70320000Y-95900000D02*
X68720000Y-95900000D01*
%TO.N,+5V_LED*%
D13*
X69680000Y-97480000D02*
X69680000Y-98100000D01*
%TO.N,GND*%
X68720000Y-96520000D02*
X68720000Y-95900000D01*
%TO.N,+5V_LED*%
D14*
X69680000Y-98100000D02*
X68080000Y-98100000D01*
%TO.N,GND*%
X68720000Y-95900000D02*
X67120000Y-95900000D01*
%TO.N,+5V_LED*%
D13*
X68080000Y-97480000D02*
X68080000Y-98100000D01*
%TO.N,GND*%
X67120000Y-96520000D02*
X67120000Y-95900000D01*
%TO.N,+5V_LED*%
D14*
X68080000Y-98100000D02*
X66480000Y-98100000D01*
%TO.N,GND*%
X67120000Y-95900000D02*
X65520000Y-95900000D01*
%TO.N,+5V_LED*%
D13*
X66480000Y-97480000D02*
X66480000Y-98100000D01*
%TO.N,GND*%
X65520000Y-96520000D02*
X65520000Y-95900000D01*
%TO.N,+5V_LED*%
D14*
X66480000Y-98100000D02*
X64880000Y-98100000D01*
%TO.N,GND*%
X65520000Y-95900000D02*
X63920000Y-95900000D01*
%TO.N,+5V_LED*%
D13*
X64880000Y-97480000D02*
X64880000Y-98100000D01*
%TO.N,GND*%
X63920000Y-96520000D02*
X63920000Y-95900000D01*
%TO.N,+5V_LED*%
D14*
X64880000Y-98100000D02*
X63280000Y-98100000D01*
%TO.N,GND*%
X63920000Y-95900000D02*
X62320000Y-95900000D01*
%TO.N,+5V_LED*%
D13*
X63280000Y-97480000D02*
X63280000Y-98100000D01*
%TO.N,GND*%
X62320000Y-96520000D02*
X62320000Y-95900000D01*
%TO.N,+5V_LED*%
D14*
X63280000Y-98100000D02*
X61680000Y-98100000D01*
%TO.N,GND*%
X62320000Y-95900000D02*
X60720000Y-95900000D01*
%TO.N,+5V_LED*%
D13*
X61680000Y-97480000D02*
X61680000Y-98100000D01*
%TO.N,GND*%
X60720000Y-96520000D02*
X60720000Y-95900000D01*
%TO.N,+5V_LED*%
D14*
X61680000Y-98100000D02*
X60080000Y-98100000D01*
%TO.N,GND*%
X60720000Y-95900000D02*
X59120000Y-95900000D01*
%TO.N,+5V_LED*%
D13*
X60080000Y-97480000D02*
X60080000Y-98100000D01*
%TO.N,GND*%
X59120000Y-96520000D02*
X59120000Y-95900000D01*
%TO.N,+5V_LED*%
D14*
X60080000Y-98100000D02*
X58480000Y-98100000D01*
%TO.N,GND*%
X59120000Y-95900000D02*
X57520000Y-95900000D01*
%TO.N,+5V_LED*%
D13*
X58480000Y-97480000D02*
X58480000Y-98100000D01*
%TO.N,GND*%
X57520000Y-96520000D02*
X57520000Y-95900000D01*
%TO.N,+5V_LED*%
D14*
X58480000Y-98100000D02*
X56880000Y-98100000D01*
%TO.N,GND*%
X57520000Y-95900000D02*
X55920000Y-95900000D01*
%TO.N,+5V_LED*%
D13*
X56880000Y-97480000D02*
X56880000Y-98100000D01*
%TO.N,GND*%
X55920000Y-96520000D02*
X55920000Y-95900000D01*
%TO.N,+5V_LED*%
X96520000Y-113680000D02*
X95900000Y-113680000D01*
%TO.N,GND*%
X97480000Y-112720000D02*
X98100000Y-112720000D01*
%TO.N,+5V_LED*%
D14*
X95900000Y-113680000D02*
X95900000Y-115280000D01*
%TO.N,GND*%
X98100000Y-112720000D02*
X98100000Y-114320000D01*
%TO.N,+5V_LED*%
D13*
X96520000Y-115280000D02*
X95900000Y-115280000D01*
%TO.N,GND*%
X97480000Y-114320000D02*
X98100000Y-114320000D01*
%TO.N,+5V_LED*%
D14*
X95900000Y-115280000D02*
X95900000Y-116880000D01*
%TO.N,GND*%
X98100000Y-114320000D02*
X98100000Y-115920000D01*
%TO.N,+5V_LED*%
D13*
X96520000Y-116880000D02*
X95900000Y-116880000D01*
%TO.N,GND*%
X97480000Y-115920000D02*
X98100000Y-115920000D01*
%TO.N,+5V_LED*%
D14*
X95900000Y-116880000D02*
X95900000Y-118480000D01*
%TO.N,GND*%
X98100000Y-115920000D02*
X98100000Y-117520000D01*
%TO.N,+5V_LED*%
D13*
X96520000Y-118480000D02*
X95900000Y-118480000D01*
%TO.N,GND*%
X97480000Y-117520000D02*
X98100000Y-117520000D01*
%TO.N,+5V_LED*%
D14*
X95900000Y-118480000D02*
X95900000Y-120080000D01*
%TO.N,GND*%
X98100000Y-117520000D02*
X98100000Y-119120000D01*
%TO.N,+5V_LED*%
D13*
X96520000Y-120080000D02*
X95900000Y-120080000D01*
%TO.N,GND*%
X97480000Y-119120000D02*
X98100000Y-119120000D01*
%TO.N,+5V_LED*%
D14*
X95900000Y-120080000D02*
X95900000Y-121680000D01*
%TO.N,GND*%
X98100000Y-119120000D02*
X98100000Y-120720000D01*
%TO.N,+5V_LED*%
D13*
X96520000Y-121680000D02*
X95900000Y-121680000D01*
%TO.N,GND*%
X97480000Y-120720000D02*
X98100000Y-120720000D01*
%TO.N,+5V_LED*%
D14*
X95900000Y-121680000D02*
X95900000Y-123280000D01*
%TO.N,GND*%
X98100000Y-120720000D02*
X98100000Y-122320000D01*
%TO.N,+5V_LED*%
D13*
X96520000Y-123280000D02*
X95900000Y-123280000D01*
%TO.N,GND*%
X97480000Y-122320000D02*
X98100000Y-122320000D01*
%TO.N,+5V_LED*%
D14*
X95900000Y-123280000D02*
X95900000Y-124880000D01*
%TO.N,GND*%
X98100000Y-122320000D02*
X98100000Y-123920000D01*
%TO.N,+5V_LED*%
D13*
X96520000Y-124880000D02*
X95900000Y-124880000D01*
%TO.N,GND*%
X97480000Y-123920000D02*
X98100000Y-123920000D01*
%TO.N,+5V_LED*%
D14*
X95900000Y-124880000D02*
X95900000Y-126480000D01*
%TO.N,GND*%
X98100000Y-123920000D02*
X98100000Y-125520000D01*
%TO.N,+5V_LED*%
D13*
X96520000Y-126480000D02*
X95900000Y-126480000D01*
%TO.N,GND*%
X97480000Y-125520000D02*
X98100000Y-125520000D01*
%TO.N,+5V_LED*%
D14*
X95900000Y-126480000D02*
X95900000Y-128080000D01*
%TO.N,GND*%
X98100000Y-125520000D02*
X98100000Y-127120000D01*
%TO.N,+5V_LED*%
D13*
X96520000Y-128080000D02*
X95900000Y-128080000D01*
%TO.N,GND*%
X97480000Y-127120000D02*
X98100000Y-127120000D01*
%TO.N,+5V_LED*%
D14*
X95900000Y-128080000D02*
X95900000Y-129680000D01*
%TO.N,GND*%
X98100000Y-127120000D02*
X98100000Y-128720000D01*
%TO.N,+5V_LED*%
D13*
X96520000Y-129680000D02*
X95900000Y-129680000D01*
%TO.N,GND*%
X97480000Y-128720000D02*
X98100000Y-128720000D01*
%TO.N,+5V_LED*%
D14*
X95900000Y-129680000D02*
X95900000Y-131280000D01*
%TO.N,GND*%
X98100000Y-128720000D02*
X98100000Y-130320000D01*
%TO.N,+5V_LED*%
D13*
X96520000Y-131280000D02*
X95900000Y-131280000D01*
%TO.N,GND*%
X97480000Y-130320000D02*
X98100000Y-130320000D01*
%TO.N,+5V_LED*%
D14*
X95900000Y-131280000D02*
X95900000Y-132880000D01*
%TO.N,GND*%
X98100000Y-130320000D02*
X98100000Y-131920000D01*
%TO.N,+5V_LED*%
D13*
X96520000Y-132880000D02*
X95900000Y-132880000D01*
%TO.N,GND*%
X97480000Y-131920000D02*
X98100000Y-131920000D01*
%TO.N,+5V_LED*%
D14*
X95900000Y-132880000D02*
X95900000Y-134480000D01*
%TO.N,GND*%
X98100000Y-131920000D02*
X98100000Y-133520000D01*
%TO.N,+5V_LED*%
D13*
X96520000Y-134480000D02*
X95900000Y-134480000D01*
%TO.N,GND*%
X97480000Y-133520000D02*
X98100000Y-133520000D01*
%TO.N,+5V_LED*%
D14*
X95900000Y-134480000D02*
X95900000Y-136080000D01*
%TO.N,GND*%
X98100000Y-133520000D02*
X98100000Y-135120000D01*
%TO.N,+5V_LED*%
D13*
X96520000Y-136080000D02*
X95900000Y-136080000D01*
%TO.N,GND*%
X97480000Y-135120000D02*
X98100000Y-135120000D01*
%TO.N,+5V_LED*%
D14*
X95900000Y-136080000D02*
X95900000Y-137680000D01*
%TO.N,GND*%
X98100000Y-135120000D02*
X98100000Y-136720000D01*
%TO.N,+5V_LED*%
D13*
X96520000Y-137680000D02*
X95900000Y-137680000D01*
%TO.N,GND*%
X97480000Y-136720000D02*
X98100000Y-136720000D01*
%TO.N,+5V_LED*%
D14*
X95900000Y-137680000D02*
X95900000Y-139280000D01*
%TO.N,GND*%
X98100000Y-136720000D02*
X98100000Y-138320000D01*
%TO.N,+5V_LED*%
D13*
X96520000Y-139280000D02*
X95900000Y-139280000D01*
%TO.N,GND*%
X97480000Y-138320000D02*
X98100000Y-138320000D01*
%TO.N,+5V_LED*%
D14*
X95900000Y-139280000D02*
X95900000Y-140880000D01*
%TO.N,GND*%
X98100000Y-138320000D02*
X98100000Y-139920000D01*
%TO.N,+5V_LED*%
D13*
X96520000Y-140880000D02*
X95900000Y-140880000D01*
%TO.N,GND*%
X97480000Y-139920000D02*
X98100000Y-139920000D01*
%TO.N,+5V_LED*%
D14*
X95900000Y-140880000D02*
X95900000Y-142480000D01*
%TO.N,GND*%
X98100000Y-139920000D02*
X98100000Y-141520000D01*
%TO.N,+5V_LED*%
D13*
X96520000Y-142480000D02*
X95900000Y-142480000D01*
%TO.N,GND*%
X97480000Y-141520000D02*
X98100000Y-141520000D01*
%TO.N,+5V_LED*%
D14*
X95900000Y-142480000D02*
X95900000Y-144080000D01*
%TO.N,GND*%
X98100000Y-141520000D02*
X98100000Y-143120000D01*
%TO.N,+5V_LED*%
D13*
X96520000Y-144080000D02*
X95900000Y-144080000D01*
%TO.N,GND*%
X97480000Y-143120000D02*
X98100000Y-143120000D01*
%TD*%
M02*
