%TF.GenerationSoftware,KiCad,Pcbnew,10.0.6*%
%TF.CreationDate,2026-09-21T21:01:24+03:00*%
%TF.ProjectId,smartspinner_main_v0_4,736d6172-7473-4706-996e-6e65725f6d61,rev?*%
%TF.SameCoordinates,Original*%
%TF.FileFunction,Legend,Top*%
%TF.FilePolarity,Positive*%
%FSLAX46Y46*%
G04 Gerber Fmt 4.6, Leading zero omitted, Abs format (unit mm)*
G04 Created by KiCad (PCBNEW 10.0.6) date 2026-09-21 21:01:24*
%MOMM*%
%LPD*%
G01*
G04 APERTURE LIST*
%ADD10C,0.100000*%
%ADD11C,0.120000*%
G04 APERTURE END LIST*
D10*
X111030524Y-86243895D02*
X111030524Y-85443895D01*
X111030524Y-85824847D02*
X111487667Y-85824847D01*
X111487667Y-86243895D02*
X111487667Y-85443895D01*
X112211476Y-85710561D02*
X112211476Y-86243895D01*
X112021000Y-85405800D02*
X111830523Y-85977228D01*
X111830523Y-85977228D02*
X112325762Y-85977228D01*
X113011476Y-85443895D02*
X112630524Y-85443895D01*
X112630524Y-85443895D02*
X112592428Y-85824847D01*
X112592428Y-85824847D02*
X112630524Y-85786752D01*
X112630524Y-85786752D02*
X112706714Y-85748657D01*
X112706714Y-85748657D02*
X112897190Y-85748657D01*
X112897190Y-85748657D02*
X112973381Y-85786752D01*
X112973381Y-85786752D02*
X113011476Y-85824847D01*
X113011476Y-85824847D02*
X113049571Y-85901038D01*
X113049571Y-85901038D02*
X113049571Y-86091514D01*
X113049571Y-86091514D02*
X113011476Y-86167704D01*
X113011476Y-86167704D02*
X112973381Y-86205800D01*
X112973381Y-86205800D02*
X112897190Y-86243895D01*
X112897190Y-86243895D02*
X112706714Y-86243895D01*
X112706714Y-86243895D02*
X112630524Y-86205800D01*
X112630524Y-86205800D02*
X112592428Y-86167704D01*
X86607571Y-86243895D02*
X86607571Y-85443895D01*
X86607571Y-85824847D02*
X87064714Y-85824847D01*
X87064714Y-86243895D02*
X87064714Y-85443895D01*
X87864713Y-86243895D02*
X87407570Y-86243895D01*
X87636142Y-86243895D02*
X87636142Y-85443895D01*
X87636142Y-85443895D02*
X87559951Y-85558180D01*
X87559951Y-85558180D02*
X87483761Y-85634371D01*
X87483761Y-85634371D02*
X87407570Y-85672466D01*
X88131380Y-85443895D02*
X88626618Y-85443895D01*
X88626618Y-85443895D02*
X88359952Y-85748657D01*
X88359952Y-85748657D02*
X88474237Y-85748657D01*
X88474237Y-85748657D02*
X88550428Y-85786752D01*
X88550428Y-85786752D02*
X88588523Y-85824847D01*
X88588523Y-85824847D02*
X88626618Y-85901038D01*
X88626618Y-85901038D02*
X88626618Y-86091514D01*
X88626618Y-86091514D02*
X88588523Y-86167704D01*
X88588523Y-86167704D02*
X88550428Y-86205800D01*
X88550428Y-86205800D02*
X88474237Y-86243895D01*
X88474237Y-86243895D02*
X88245666Y-86243895D01*
X88245666Y-86243895D02*
X88169475Y-86205800D01*
X88169475Y-86205800D02*
X88131380Y-86167704D01*
X89350428Y-85443895D02*
X88969476Y-85443895D01*
X88969476Y-85443895D02*
X88931380Y-85824847D01*
X88931380Y-85824847D02*
X88969476Y-85786752D01*
X88969476Y-85786752D02*
X89045666Y-85748657D01*
X89045666Y-85748657D02*
X89236142Y-85748657D01*
X89236142Y-85748657D02*
X89312333Y-85786752D01*
X89312333Y-85786752D02*
X89350428Y-85824847D01*
X89350428Y-85824847D02*
X89388523Y-85901038D01*
X89388523Y-85901038D02*
X89388523Y-86091514D01*
X89388523Y-86091514D02*
X89350428Y-86167704D01*
X89350428Y-86167704D02*
X89312333Y-86205800D01*
X89312333Y-86205800D02*
X89236142Y-86243895D01*
X89236142Y-86243895D02*
X89045666Y-86243895D01*
X89045666Y-86243895D02*
X88969476Y-86205800D01*
X88969476Y-86205800D02*
X88931380Y-86167704D01*
X86607571Y-110285895D02*
X86607571Y-109485895D01*
X86607571Y-109866847D02*
X87064714Y-109866847D01*
X87064714Y-110285895D02*
X87064714Y-109485895D01*
X87407570Y-109562085D02*
X87445666Y-109523990D01*
X87445666Y-109523990D02*
X87521856Y-109485895D01*
X87521856Y-109485895D02*
X87712332Y-109485895D01*
X87712332Y-109485895D02*
X87788523Y-109523990D01*
X87788523Y-109523990D02*
X87826618Y-109562085D01*
X87826618Y-109562085D02*
X87864713Y-109638276D01*
X87864713Y-109638276D02*
X87864713Y-109714466D01*
X87864713Y-109714466D02*
X87826618Y-109828752D01*
X87826618Y-109828752D02*
X87369475Y-110285895D01*
X87369475Y-110285895D02*
X87864713Y-110285895D01*
X88169475Y-109562085D02*
X88207571Y-109523990D01*
X88207571Y-109523990D02*
X88283761Y-109485895D01*
X88283761Y-109485895D02*
X88474237Y-109485895D01*
X88474237Y-109485895D02*
X88550428Y-109523990D01*
X88550428Y-109523990D02*
X88588523Y-109562085D01*
X88588523Y-109562085D02*
X88626618Y-109638276D01*
X88626618Y-109638276D02*
X88626618Y-109714466D01*
X88626618Y-109714466D02*
X88588523Y-109828752D01*
X88588523Y-109828752D02*
X88131380Y-110285895D01*
X88131380Y-110285895D02*
X88626618Y-110285895D01*
X89350428Y-109485895D02*
X88969476Y-109485895D01*
X88969476Y-109485895D02*
X88931380Y-109866847D01*
X88931380Y-109866847D02*
X88969476Y-109828752D01*
X88969476Y-109828752D02*
X89045666Y-109790657D01*
X89045666Y-109790657D02*
X89236142Y-109790657D01*
X89236142Y-109790657D02*
X89312333Y-109828752D01*
X89312333Y-109828752D02*
X89350428Y-109866847D01*
X89350428Y-109866847D02*
X89388523Y-109943038D01*
X89388523Y-109943038D02*
X89388523Y-110133514D01*
X89388523Y-110133514D02*
X89350428Y-110209704D01*
X89350428Y-110209704D02*
X89312333Y-110247800D01*
X89312333Y-110247800D02*
X89236142Y-110285895D01*
X89236142Y-110285895D02*
X89045666Y-110285895D01*
X89045666Y-110285895D02*
X88969476Y-110247800D01*
X88969476Y-110247800D02*
X88931380Y-110209704D01*
X110649571Y-110285895D02*
X110649571Y-109485895D01*
X110649571Y-109866847D02*
X111106714Y-109866847D01*
X111106714Y-110285895D02*
X111106714Y-109485895D01*
X111411475Y-109485895D02*
X111906713Y-109485895D01*
X111906713Y-109485895D02*
X111640047Y-109790657D01*
X111640047Y-109790657D02*
X111754332Y-109790657D01*
X111754332Y-109790657D02*
X111830523Y-109828752D01*
X111830523Y-109828752D02*
X111868618Y-109866847D01*
X111868618Y-109866847D02*
X111906713Y-109943038D01*
X111906713Y-109943038D02*
X111906713Y-110133514D01*
X111906713Y-110133514D02*
X111868618Y-110209704D01*
X111868618Y-110209704D02*
X111830523Y-110247800D01*
X111830523Y-110247800D02*
X111754332Y-110285895D01*
X111754332Y-110285895D02*
X111525761Y-110285895D01*
X111525761Y-110285895D02*
X111449570Y-110247800D01*
X111449570Y-110247800D02*
X111411475Y-110209704D01*
X112668618Y-110285895D02*
X112211475Y-110285895D01*
X112440047Y-110285895D02*
X112440047Y-109485895D01*
X112440047Y-109485895D02*
X112363856Y-109600180D01*
X112363856Y-109600180D02*
X112287666Y-109676371D01*
X112287666Y-109676371D02*
X112211475Y-109714466D01*
X113392428Y-109485895D02*
X113011476Y-109485895D01*
X113011476Y-109485895D02*
X112973380Y-109866847D01*
X112973380Y-109866847D02*
X113011476Y-109828752D01*
X113011476Y-109828752D02*
X113087666Y-109790657D01*
X113087666Y-109790657D02*
X113278142Y-109790657D01*
X113278142Y-109790657D02*
X113354333Y-109828752D01*
X113354333Y-109828752D02*
X113392428Y-109866847D01*
X113392428Y-109866847D02*
X113430523Y-109943038D01*
X113430523Y-109943038D02*
X113430523Y-110133514D01*
X113430523Y-110133514D02*
X113392428Y-110209704D01*
X113392428Y-110209704D02*
X113354333Y-110247800D01*
X113354333Y-110247800D02*
X113278142Y-110285895D01*
X113278142Y-110285895D02*
X113087666Y-110285895D01*
X113087666Y-110285895D02*
X113011476Y-110247800D01*
X113011476Y-110247800D02*
X112973380Y-110209704D01*
X143364895Y-101123809D02*
X143936323Y-101123809D01*
X143936323Y-101123809D02*
X144050609Y-101161904D01*
X144050609Y-101161904D02*
X144126800Y-101238095D01*
X144126800Y-101238095D02*
X144164895Y-101352380D01*
X144164895Y-101352380D02*
X144164895Y-101428571D01*
X143364895Y-100857142D02*
X143364895Y-100399999D01*
X144164895Y-100628571D02*
X143364895Y-100628571D01*
X144164895Y-100133332D02*
X143364895Y-100133332D01*
X144164895Y-99752380D02*
X143364895Y-99752380D01*
X143364895Y-99752380D02*
X143364895Y-99447618D01*
X143364895Y-99447618D02*
X143402990Y-99371428D01*
X143402990Y-99371428D02*
X143441085Y-99333333D01*
X143441085Y-99333333D02*
X143517276Y-99295237D01*
X143517276Y-99295237D02*
X143631561Y-99295237D01*
X143631561Y-99295237D02*
X143707752Y-99333333D01*
X143707752Y-99333333D02*
X143745847Y-99371428D01*
X143745847Y-99371428D02*
X143783942Y-99447618D01*
X143783942Y-99447618D02*
X143783942Y-99752380D01*
X143936323Y-98990476D02*
X143936323Y-98609523D01*
X144164895Y-99066666D02*
X143364895Y-98799999D01*
X143364895Y-98799999D02*
X144164895Y-98533333D01*
X98819047Y-52364895D02*
X98819047Y-52936323D01*
X98819047Y-52936323D02*
X98780952Y-53050609D01*
X98780952Y-53050609D02*
X98704761Y-53126800D01*
X98704761Y-53126800D02*
X98590476Y-53164895D01*
X98590476Y-53164895D02*
X98514285Y-53164895D01*
X99085714Y-52364895D02*
X99542857Y-52364895D01*
X99314285Y-53164895D02*
X99314285Y-52364895D01*
X99809524Y-53164895D02*
X99809524Y-52364895D01*
X100190476Y-53164895D02*
X100190476Y-52364895D01*
X100190476Y-52364895D02*
X100495238Y-52364895D01*
X100495238Y-52364895D02*
X100571428Y-52402990D01*
X100571428Y-52402990D02*
X100609523Y-52441085D01*
X100609523Y-52441085D02*
X100647619Y-52517276D01*
X100647619Y-52517276D02*
X100647619Y-52631561D01*
X100647619Y-52631561D02*
X100609523Y-52707752D01*
X100609523Y-52707752D02*
X100571428Y-52745847D01*
X100571428Y-52745847D02*
X100495238Y-52783942D01*
X100495238Y-52783942D02*
X100190476Y-52783942D01*
X101257142Y-52745847D02*
X101371428Y-52783942D01*
X101371428Y-52783942D02*
X101409523Y-52822038D01*
X101409523Y-52822038D02*
X101447619Y-52898228D01*
X101447619Y-52898228D02*
X101447619Y-53012514D01*
X101447619Y-53012514D02*
X101409523Y-53088704D01*
X101409523Y-53088704D02*
X101371428Y-53126800D01*
X101371428Y-53126800D02*
X101295238Y-53164895D01*
X101295238Y-53164895D02*
X100990476Y-53164895D01*
X100990476Y-53164895D02*
X100990476Y-52364895D01*
X100990476Y-52364895D02*
X101257142Y-52364895D01*
X101257142Y-52364895D02*
X101333333Y-52402990D01*
X101333333Y-52402990D02*
X101371428Y-52441085D01*
X101371428Y-52441085D02*
X101409523Y-52517276D01*
X101409523Y-52517276D02*
X101409523Y-52593466D01*
X101409523Y-52593466D02*
X101371428Y-52669657D01*
X101371428Y-52669657D02*
X101333333Y-52707752D01*
X101333333Y-52707752D02*
X101257142Y-52745847D01*
X101257142Y-52745847D02*
X100990476Y-52745847D01*
X55764895Y-101180952D02*
X56336323Y-101180952D01*
X56336323Y-101180952D02*
X56450609Y-101219047D01*
X56450609Y-101219047D02*
X56526800Y-101295238D01*
X56526800Y-101295238D02*
X56564895Y-101409523D01*
X56564895Y-101409523D02*
X56564895Y-101485714D01*
X55764895Y-100914285D02*
X55764895Y-100457142D01*
X56564895Y-100685714D02*
X55764895Y-100685714D01*
X56564895Y-100190475D02*
X55764895Y-100190475D01*
X56564895Y-99809523D02*
X55764895Y-99809523D01*
X55764895Y-99809523D02*
X55764895Y-99504761D01*
X55764895Y-99504761D02*
X55802990Y-99428571D01*
X55802990Y-99428571D02*
X55841085Y-99390476D01*
X55841085Y-99390476D02*
X55917276Y-99352380D01*
X55917276Y-99352380D02*
X56031561Y-99352380D01*
X56031561Y-99352380D02*
X56107752Y-99390476D01*
X56107752Y-99390476D02*
X56145847Y-99428571D01*
X56145847Y-99428571D02*
X56183942Y-99504761D01*
X56183942Y-99504761D02*
X56183942Y-99809523D01*
X56488704Y-98552380D02*
X56526800Y-98590476D01*
X56526800Y-98590476D02*
X56564895Y-98704761D01*
X56564895Y-98704761D02*
X56564895Y-98780952D01*
X56564895Y-98780952D02*
X56526800Y-98895238D01*
X56526800Y-98895238D02*
X56450609Y-98971428D01*
X56450609Y-98971428D02*
X56374419Y-99009523D01*
X56374419Y-99009523D02*
X56222038Y-99047619D01*
X56222038Y-99047619D02*
X56107752Y-99047619D01*
X56107752Y-99047619D02*
X55955371Y-99009523D01*
X55955371Y-99009523D02*
X55879180Y-98971428D01*
X55879180Y-98971428D02*
X55802990Y-98895238D01*
X55802990Y-98895238D02*
X55764895Y-98780952D01*
X55764895Y-98780952D02*
X55764895Y-98704761D01*
X55764895Y-98704761D02*
X55802990Y-98590476D01*
X55802990Y-98590476D02*
X55841085Y-98552380D01*
X98819047Y-146764895D02*
X98819047Y-147336323D01*
X98819047Y-147336323D02*
X98780952Y-147450609D01*
X98780952Y-147450609D02*
X98704761Y-147526800D01*
X98704761Y-147526800D02*
X98590476Y-147564895D01*
X98590476Y-147564895D02*
X98514285Y-147564895D01*
X99085714Y-146764895D02*
X99542857Y-146764895D01*
X99314285Y-147564895D02*
X99314285Y-146764895D01*
X99809524Y-147564895D02*
X99809524Y-146764895D01*
X100190476Y-147564895D02*
X100190476Y-146764895D01*
X100190476Y-146764895D02*
X100495238Y-146764895D01*
X100495238Y-146764895D02*
X100571428Y-146802990D01*
X100571428Y-146802990D02*
X100609523Y-146841085D01*
X100609523Y-146841085D02*
X100647619Y-146917276D01*
X100647619Y-146917276D02*
X100647619Y-147031561D01*
X100647619Y-147031561D02*
X100609523Y-147107752D01*
X100609523Y-147107752D02*
X100571428Y-147145847D01*
X100571428Y-147145847D02*
X100495238Y-147183942D01*
X100495238Y-147183942D02*
X100190476Y-147183942D01*
X100990476Y-147564895D02*
X100990476Y-146764895D01*
X100990476Y-146764895D02*
X101180952Y-146764895D01*
X101180952Y-146764895D02*
X101295238Y-146802990D01*
X101295238Y-146802990D02*
X101371428Y-146879180D01*
X101371428Y-146879180D02*
X101409523Y-146955371D01*
X101409523Y-146955371D02*
X101447619Y-147107752D01*
X101447619Y-147107752D02*
X101447619Y-147222038D01*
X101447619Y-147222038D02*
X101409523Y-147374419D01*
X101409523Y-147374419D02*
X101371428Y-147450609D01*
X101371428Y-147450609D02*
X101295238Y-147526800D01*
X101295238Y-147526800D02*
X101180952Y-147564895D01*
X101180952Y-147564895D02*
X100990476Y-147564895D01*
%TO.C,H45*%
D11*
X110821000Y-86779000D02*
X113221000Y-86779000D01*
X113221000Y-89179000D01*
X110821000Y-89179000D01*
X110821000Y-86779000D01*
%TO.C,H135*%
X86779000Y-86779000D02*
X89179000Y-86779000D01*
X89179000Y-89179000D01*
X86779000Y-89179000D01*
X86779000Y-86779000D01*
%TO.C,H225*%
X86779000Y-110821000D02*
X89179000Y-110821000D01*
X89179000Y-113221000D01*
X86779000Y-113221000D01*
X86779000Y-110821000D01*
%TO.C,H315*%
X110821000Y-110821000D02*
X113221000Y-110821000D01*
X113221000Y-113221000D01*
X110821000Y-113221000D01*
X110821000Y-110821000D01*
%TO.C,JTIPA*%
X144700000Y-97200000D02*
X146300000Y-97200000D01*
X146300000Y-102800000D01*
X144700000Y-102800000D01*
X144700000Y-97200000D01*
%TO.C,JTIPB*%
X97200000Y-53700000D02*
X102800000Y-53700000D01*
X102800000Y-55300000D01*
X97200000Y-55300000D01*
X97200000Y-53700000D01*
%TO.C,JTIPC*%
X53700000Y-97200000D02*
X55300000Y-97200000D01*
X55300000Y-102800000D01*
X53700000Y-102800000D01*
X53700000Y-97200000D01*
%TO.C,JTIPD*%
X97200000Y-144700000D02*
X102800000Y-144700000D01*
X102800000Y-146300000D01*
X97200000Y-146300000D01*
X97200000Y-144700000D01*
%TD*%
M02*
