%TF.GenerationSoftware,KiCad,Pcbnew,10.0.6*%
%TF.CreationDate,2026-09-21T21:01:24+03:00*%
%TF.ProjectId,smartspinner_main_v0_4,736d6172-7473-4706-996e-6e65725f6d61,rev?*%
%TF.SameCoordinates,Original*%
%TF.FileFunction,Legend,Bot*%
%TF.FilePolarity,Positive*%
%FSLAX46Y46*%
G04 Gerber Fmt 4.6, Leading zero omitted, Abs format (unit mm)*
G04 Created by KiCad (PCBNEW 10.0.6) date 2026-09-21 21:01:24*
%MOMM*%
%LPD*%
G01*
G04 APERTURE LIST*
%ADD10C,0.110000*%
%ADD11C,0.150000*%
%ADD12C,0.120000*%
%ADD13C,0.100000*%
G04 APERTURE END LIST*
D10*
X131294982Y-89557144D02*
X130985458Y-89340477D01*
X131294982Y-89185715D02*
X130644982Y-89185715D01*
X130644982Y-89185715D02*
X130644982Y-89433334D01*
X130644982Y-89433334D02*
X130675934Y-89495239D01*
X130675934Y-89495239D02*
X130706887Y-89526192D01*
X130706887Y-89526192D02*
X130768791Y-89557144D01*
X130768791Y-89557144D02*
X130861649Y-89557144D01*
X130861649Y-89557144D02*
X130923553Y-89526192D01*
X130923553Y-89526192D02*
X130954506Y-89495239D01*
X130954506Y-89495239D02*
X130985458Y-89433334D01*
X130985458Y-89433334D02*
X130985458Y-89185715D01*
X130954506Y-90052382D02*
X130954506Y-89835715D01*
X131294982Y-89835715D02*
X130644982Y-89835715D01*
X130644982Y-89835715D02*
X130644982Y-90145239D01*
X131294982Y-90888096D02*
X130644982Y-90888096D01*
X131294982Y-91259525D02*
X130923553Y-90980954D01*
X130644982Y-91259525D02*
X131016410Y-90888096D01*
X130954506Y-91538096D02*
X130954506Y-91754763D01*
X131294982Y-91847620D02*
X131294982Y-91538096D01*
X131294982Y-91538096D02*
X130644982Y-91538096D01*
X130644982Y-91538096D02*
X130644982Y-91847620D01*
X130954506Y-92126191D02*
X130954506Y-92342858D01*
X131294982Y-92435715D02*
X131294982Y-92126191D01*
X131294982Y-92126191D02*
X130644982Y-92126191D01*
X130644982Y-92126191D02*
X130644982Y-92435715D01*
X131294982Y-92714286D02*
X130644982Y-92714286D01*
X130644982Y-92714286D02*
X130644982Y-92961905D01*
X130644982Y-92961905D02*
X130675934Y-93023810D01*
X130675934Y-93023810D02*
X130706887Y-93054763D01*
X130706887Y-93054763D02*
X130768791Y-93085715D01*
X130768791Y-93085715D02*
X130861649Y-93085715D01*
X130861649Y-93085715D02*
X130923553Y-93054763D01*
X130923553Y-93054763D02*
X130954506Y-93023810D01*
X130954506Y-93023810D02*
X130985458Y-92961905D01*
X130985458Y-92961905D02*
X130985458Y-92714286D01*
X131047363Y-93364286D02*
X131047363Y-93859525D01*
X130644982Y-94292858D02*
X130644982Y-94416667D01*
X130644982Y-94416667D02*
X130675934Y-94478572D01*
X130675934Y-94478572D02*
X130737839Y-94540477D01*
X130737839Y-94540477D02*
X130861649Y-94571429D01*
X130861649Y-94571429D02*
X131078315Y-94571429D01*
X131078315Y-94571429D02*
X131202125Y-94540477D01*
X131202125Y-94540477D02*
X131264030Y-94478572D01*
X131264030Y-94478572D02*
X131294982Y-94416667D01*
X131294982Y-94416667D02*
X131294982Y-94292858D01*
X131294982Y-94292858D02*
X131264030Y-94230953D01*
X131264030Y-94230953D02*
X131202125Y-94169048D01*
X131202125Y-94169048D02*
X131078315Y-94138096D01*
X131078315Y-94138096D02*
X130861649Y-94138096D01*
X130861649Y-94138096D02*
X130737839Y-94169048D01*
X130737839Y-94169048D02*
X130675934Y-94230953D01*
X130675934Y-94230953D02*
X130644982Y-94292858D01*
X130644982Y-94850000D02*
X131171172Y-94850000D01*
X131171172Y-94850000D02*
X131233077Y-94880953D01*
X131233077Y-94880953D02*
X131264030Y-94911905D01*
X131264030Y-94911905D02*
X131294982Y-94973810D01*
X131294982Y-94973810D02*
X131294982Y-95097619D01*
X131294982Y-95097619D02*
X131264030Y-95159524D01*
X131264030Y-95159524D02*
X131233077Y-95190477D01*
X131233077Y-95190477D02*
X131171172Y-95221429D01*
X131171172Y-95221429D02*
X130644982Y-95221429D01*
X130644982Y-95438095D02*
X130644982Y-95809524D01*
X131294982Y-95623810D02*
X130644982Y-95623810D01*
X131109268Y-96490476D02*
X131109268Y-96800000D01*
X131294982Y-96428571D02*
X130644982Y-96645238D01*
X130644982Y-96645238D02*
X131294982Y-96861905D01*
X131294982Y-97388095D02*
X131294982Y-97078571D01*
X131294982Y-97078571D02*
X130644982Y-97078571D01*
X131294982Y-97914285D02*
X131294982Y-97604761D01*
X131294982Y-97604761D02*
X130644982Y-97604761D01*
X131294982Y-98935713D02*
X131294982Y-98626189D01*
X131294982Y-98626189D02*
X130644982Y-98626189D01*
X131109268Y-99121427D02*
X131109268Y-99430951D01*
X131294982Y-99059522D02*
X130644982Y-99276189D01*
X130644982Y-99276189D02*
X131294982Y-99492856D01*
X130985458Y-99833332D02*
X131294982Y-99833332D01*
X130644982Y-99616665D02*
X130985458Y-99833332D01*
X130985458Y-99833332D02*
X130644982Y-100049999D01*
X130954506Y-100266665D02*
X130954506Y-100483332D01*
X131294982Y-100576189D02*
X131294982Y-100266665D01*
X131294982Y-100266665D02*
X130644982Y-100266665D01*
X130644982Y-100266665D02*
X130644982Y-100576189D01*
X131294982Y-101226189D02*
X130985458Y-101009522D01*
X131294982Y-100854760D02*
X130644982Y-100854760D01*
X130644982Y-100854760D02*
X130644982Y-101102379D01*
X130644982Y-101102379D02*
X130675934Y-101164284D01*
X130675934Y-101164284D02*
X130706887Y-101195237D01*
X130706887Y-101195237D02*
X130768791Y-101226189D01*
X130768791Y-101226189D02*
X130861649Y-101226189D01*
X130861649Y-101226189D02*
X130923553Y-101195237D01*
X130923553Y-101195237D02*
X130954506Y-101164284D01*
X130954506Y-101164284D02*
X130985458Y-101102379D01*
X130985458Y-101102379D02*
X130985458Y-100854760D01*
X131264030Y-101473808D02*
X131294982Y-101566665D01*
X131294982Y-101566665D02*
X131294982Y-101721427D01*
X131294982Y-101721427D02*
X131264030Y-101783332D01*
X131264030Y-101783332D02*
X131233077Y-101814284D01*
X131233077Y-101814284D02*
X131171172Y-101845237D01*
X131171172Y-101845237D02*
X131109268Y-101845237D01*
X131109268Y-101845237D02*
X131047363Y-101814284D01*
X131047363Y-101814284D02*
X131016410Y-101783332D01*
X131016410Y-101783332D02*
X130985458Y-101721427D01*
X130985458Y-101721427D02*
X130954506Y-101597618D01*
X130954506Y-101597618D02*
X130923553Y-101535713D01*
X130923553Y-101535713D02*
X130892601Y-101504760D01*
X130892601Y-101504760D02*
X130830696Y-101473808D01*
X130830696Y-101473808D02*
X130768791Y-101473808D01*
X130768791Y-101473808D02*
X130706887Y-101504760D01*
X130706887Y-101504760D02*
X130675934Y-101535713D01*
X130675934Y-101535713D02*
X130644982Y-101597618D01*
X130644982Y-101597618D02*
X130644982Y-101752379D01*
X130644982Y-101752379D02*
X130675934Y-101845237D01*
D11*
X116992855Y-77365700D02*
X116864284Y-77408557D01*
X116864284Y-77408557D02*
X116649998Y-77408557D01*
X116649998Y-77408557D02*
X116564284Y-77365700D01*
X116564284Y-77365700D02*
X116521426Y-77322842D01*
X116521426Y-77322842D02*
X116478569Y-77237128D01*
X116478569Y-77237128D02*
X116478569Y-77151414D01*
X116478569Y-77151414D02*
X116521426Y-77065700D01*
X116521426Y-77065700D02*
X116564284Y-77022842D01*
X116564284Y-77022842D02*
X116649998Y-76979985D01*
X116649998Y-76979985D02*
X116821426Y-76937128D01*
X116821426Y-76937128D02*
X116907141Y-76894271D01*
X116907141Y-76894271D02*
X116949998Y-76851414D01*
X116949998Y-76851414D02*
X116992855Y-76765700D01*
X116992855Y-76765700D02*
X116992855Y-76679985D01*
X116992855Y-76679985D02*
X116949998Y-76594271D01*
X116949998Y-76594271D02*
X116907141Y-76551414D01*
X116907141Y-76551414D02*
X116821426Y-76508557D01*
X116821426Y-76508557D02*
X116607141Y-76508557D01*
X116607141Y-76508557D02*
X116478569Y-76551414D01*
X116092855Y-77408557D02*
X116092855Y-76508557D01*
X116092855Y-76508557D02*
X115792855Y-77151414D01*
X115792855Y-77151414D02*
X115492855Y-76508557D01*
X115492855Y-76508557D02*
X115492855Y-77408557D01*
X115107141Y-77151414D02*
X114678570Y-77151414D01*
X115192855Y-77408557D02*
X114892855Y-76508557D01*
X114892855Y-76508557D02*
X114592855Y-77408557D01*
X113778569Y-77408557D02*
X114078569Y-76979985D01*
X114292855Y-77408557D02*
X114292855Y-76508557D01*
X114292855Y-76508557D02*
X113949998Y-76508557D01*
X113949998Y-76508557D02*
X113864283Y-76551414D01*
X113864283Y-76551414D02*
X113821426Y-76594271D01*
X113821426Y-76594271D02*
X113778569Y-76679985D01*
X113778569Y-76679985D02*
X113778569Y-76808557D01*
X113778569Y-76808557D02*
X113821426Y-76894271D01*
X113821426Y-76894271D02*
X113864283Y-76937128D01*
X113864283Y-76937128D02*
X113949998Y-76979985D01*
X113949998Y-76979985D02*
X114292855Y-76979985D01*
X113521426Y-76508557D02*
X113007141Y-76508557D01*
X113264283Y-77408557D02*
X113264283Y-76508557D01*
X112749998Y-77365700D02*
X112621427Y-77408557D01*
X112621427Y-77408557D02*
X112407141Y-77408557D01*
X112407141Y-77408557D02*
X112321427Y-77365700D01*
X112321427Y-77365700D02*
X112278569Y-77322842D01*
X112278569Y-77322842D02*
X112235712Y-77237128D01*
X112235712Y-77237128D02*
X112235712Y-77151414D01*
X112235712Y-77151414D02*
X112278569Y-77065700D01*
X112278569Y-77065700D02*
X112321427Y-77022842D01*
X112321427Y-77022842D02*
X112407141Y-76979985D01*
X112407141Y-76979985D02*
X112578569Y-76937128D01*
X112578569Y-76937128D02*
X112664284Y-76894271D01*
X112664284Y-76894271D02*
X112707141Y-76851414D01*
X112707141Y-76851414D02*
X112749998Y-76765700D01*
X112749998Y-76765700D02*
X112749998Y-76679985D01*
X112749998Y-76679985D02*
X112707141Y-76594271D01*
X112707141Y-76594271D02*
X112664284Y-76551414D01*
X112664284Y-76551414D02*
X112578569Y-76508557D01*
X112578569Y-76508557D02*
X112364284Y-76508557D01*
X112364284Y-76508557D02*
X112235712Y-76551414D01*
X111849998Y-77408557D02*
X111849998Y-76508557D01*
X111849998Y-76508557D02*
X111507141Y-76508557D01*
X111507141Y-76508557D02*
X111421426Y-76551414D01*
X111421426Y-76551414D02*
X111378569Y-76594271D01*
X111378569Y-76594271D02*
X111335712Y-76679985D01*
X111335712Y-76679985D02*
X111335712Y-76808557D01*
X111335712Y-76808557D02*
X111378569Y-76894271D01*
X111378569Y-76894271D02*
X111421426Y-76937128D01*
X111421426Y-76937128D02*
X111507141Y-76979985D01*
X111507141Y-76979985D02*
X111849998Y-76979985D01*
X110949998Y-77408557D02*
X110949998Y-76508557D01*
X110521427Y-77408557D02*
X110521427Y-76508557D01*
X110521427Y-76508557D02*
X110007141Y-77408557D01*
X110007141Y-77408557D02*
X110007141Y-76508557D01*
X109578570Y-77408557D02*
X109578570Y-76508557D01*
X109578570Y-76508557D02*
X109064284Y-77408557D01*
X109064284Y-77408557D02*
X109064284Y-76508557D01*
X108635713Y-76937128D02*
X108335713Y-76937128D01*
X108207141Y-77408557D02*
X108635713Y-77408557D01*
X108635713Y-77408557D02*
X108635713Y-76508557D01*
X108635713Y-76508557D02*
X108207141Y-76508557D01*
X107307141Y-77408557D02*
X107607141Y-76979985D01*
X107821427Y-77408557D02*
X107821427Y-76508557D01*
X107821427Y-76508557D02*
X107478570Y-76508557D01*
X107478570Y-76508557D02*
X107392855Y-76551414D01*
X107392855Y-76551414D02*
X107349998Y-76594271D01*
X107349998Y-76594271D02*
X107307141Y-76679985D01*
X107307141Y-76679985D02*
X107307141Y-76808557D01*
X107307141Y-76808557D02*
X107349998Y-76894271D01*
X107349998Y-76894271D02*
X107392855Y-76937128D01*
X107392855Y-76937128D02*
X107478570Y-76979985D01*
X107478570Y-76979985D02*
X107821427Y-76979985D01*
X106321427Y-76808557D02*
X106107141Y-77408557D01*
X106107141Y-77408557D02*
X105892856Y-76808557D01*
X105378570Y-76508557D02*
X105292856Y-76508557D01*
X105292856Y-76508557D02*
X105207142Y-76551414D01*
X105207142Y-76551414D02*
X105164285Y-76594271D01*
X105164285Y-76594271D02*
X105121427Y-76679985D01*
X105121427Y-76679985D02*
X105078570Y-76851414D01*
X105078570Y-76851414D02*
X105078570Y-77065700D01*
X105078570Y-77065700D02*
X105121427Y-77237128D01*
X105121427Y-77237128D02*
X105164285Y-77322842D01*
X105164285Y-77322842D02*
X105207142Y-77365700D01*
X105207142Y-77365700D02*
X105292856Y-77408557D01*
X105292856Y-77408557D02*
X105378570Y-77408557D01*
X105378570Y-77408557D02*
X105464285Y-77365700D01*
X105464285Y-77365700D02*
X105507142Y-77322842D01*
X105507142Y-77322842D02*
X105549999Y-77237128D01*
X105549999Y-77237128D02*
X105592856Y-77065700D01*
X105592856Y-77065700D02*
X105592856Y-76851414D01*
X105592856Y-76851414D02*
X105549999Y-76679985D01*
X105549999Y-76679985D02*
X105507142Y-76594271D01*
X105507142Y-76594271D02*
X105464285Y-76551414D01*
X105464285Y-76551414D02*
X105378570Y-76508557D01*
X104692856Y-77322842D02*
X104649999Y-77365700D01*
X104649999Y-77365700D02*
X104692856Y-77408557D01*
X104692856Y-77408557D02*
X104735713Y-77365700D01*
X104735713Y-77365700D02*
X104692856Y-77322842D01*
X104692856Y-77322842D02*
X104692856Y-77408557D01*
X103878571Y-76808557D02*
X103878571Y-77408557D01*
X104092856Y-76465700D02*
X104307142Y-77108557D01*
X104307142Y-77108557D02*
X103749999Y-77108557D01*
X102721428Y-76937128D02*
X102421428Y-76937128D01*
X102292856Y-77408557D02*
X102721428Y-77408557D01*
X102721428Y-77408557D02*
X102721428Y-76508557D01*
X102721428Y-76508557D02*
X102292856Y-76508557D01*
X101392856Y-77408557D02*
X101692856Y-76979985D01*
X101907142Y-77408557D02*
X101907142Y-76508557D01*
X101907142Y-76508557D02*
X101564285Y-76508557D01*
X101564285Y-76508557D02*
X101478570Y-76551414D01*
X101478570Y-76551414D02*
X101435713Y-76594271D01*
X101435713Y-76594271D02*
X101392856Y-76679985D01*
X101392856Y-76679985D02*
X101392856Y-76808557D01*
X101392856Y-76808557D02*
X101435713Y-76894271D01*
X101435713Y-76894271D02*
X101478570Y-76937128D01*
X101478570Y-76937128D02*
X101564285Y-76979985D01*
X101564285Y-76979985D02*
X101907142Y-76979985D01*
X100492856Y-77322842D02*
X100535713Y-77365700D01*
X100535713Y-77365700D02*
X100664285Y-77408557D01*
X100664285Y-77408557D02*
X100749999Y-77408557D01*
X100749999Y-77408557D02*
X100878570Y-77365700D01*
X100878570Y-77365700D02*
X100964285Y-77279985D01*
X100964285Y-77279985D02*
X101007142Y-77194271D01*
X101007142Y-77194271D02*
X101049999Y-77022842D01*
X101049999Y-77022842D02*
X101049999Y-76894271D01*
X101049999Y-76894271D02*
X101007142Y-76722842D01*
X101007142Y-76722842D02*
X100964285Y-76637128D01*
X100964285Y-76637128D02*
X100878570Y-76551414D01*
X100878570Y-76551414D02*
X100749999Y-76508557D01*
X100749999Y-76508557D02*
X100664285Y-76508557D01*
X100664285Y-76508557D02*
X100535713Y-76551414D01*
X100535713Y-76551414D02*
X100492856Y-76594271D01*
X99421428Y-77065700D02*
X98735714Y-77065700D01*
X97235714Y-76808557D02*
X97235714Y-77408557D01*
X97449999Y-76465700D02*
X97664285Y-77108557D01*
X97664285Y-77108557D02*
X97107142Y-77108557D01*
X96849999Y-77408557D02*
X96378571Y-76808557D01*
X96849999Y-76808557D02*
X96378571Y-77408557D01*
X96078571Y-76594271D02*
X96035714Y-76551414D01*
X96035714Y-76551414D02*
X95950000Y-76508557D01*
X95950000Y-76508557D02*
X95735714Y-76508557D01*
X95735714Y-76508557D02*
X95650000Y-76551414D01*
X95650000Y-76551414D02*
X95607142Y-76594271D01*
X95607142Y-76594271D02*
X95564285Y-76679985D01*
X95564285Y-76679985D02*
X95564285Y-76765700D01*
X95564285Y-76765700D02*
X95607142Y-76894271D01*
X95607142Y-76894271D02*
X96121428Y-77408557D01*
X96121428Y-77408557D02*
X95564285Y-77408557D01*
X95007142Y-76508557D02*
X94921428Y-76508557D01*
X94921428Y-76508557D02*
X94835714Y-76551414D01*
X94835714Y-76551414D02*
X94792857Y-76594271D01*
X94792857Y-76594271D02*
X94749999Y-76679985D01*
X94749999Y-76679985D02*
X94707142Y-76851414D01*
X94707142Y-76851414D02*
X94707142Y-77065700D01*
X94707142Y-77065700D02*
X94749999Y-77237128D01*
X94749999Y-77237128D02*
X94792857Y-77322842D01*
X94792857Y-77322842D02*
X94835714Y-77365700D01*
X94835714Y-77365700D02*
X94921428Y-77408557D01*
X94921428Y-77408557D02*
X95007142Y-77408557D01*
X95007142Y-77408557D02*
X95092857Y-77365700D01*
X95092857Y-77365700D02*
X95135714Y-77322842D01*
X95135714Y-77322842D02*
X95178571Y-77237128D01*
X95178571Y-77237128D02*
X95221428Y-77065700D01*
X95221428Y-77065700D02*
X95221428Y-76851414D01*
X95221428Y-76851414D02*
X95178571Y-76679985D01*
X95178571Y-76679985D02*
X95135714Y-76594271D01*
X95135714Y-76594271D02*
X95092857Y-76551414D01*
X95092857Y-76551414D02*
X95007142Y-76508557D01*
X93764285Y-76508557D02*
X93250000Y-76508557D01*
X93507142Y-77408557D02*
X93507142Y-76508557D01*
X92778571Y-76508557D02*
X92607143Y-76508557D01*
X92607143Y-76508557D02*
X92521428Y-76551414D01*
X92521428Y-76551414D02*
X92435714Y-76637128D01*
X92435714Y-76637128D02*
X92392857Y-76808557D01*
X92392857Y-76808557D02*
X92392857Y-77108557D01*
X92392857Y-77108557D02*
X92435714Y-77279985D01*
X92435714Y-77279985D02*
X92521428Y-77365700D01*
X92521428Y-77365700D02*
X92607143Y-77408557D01*
X92607143Y-77408557D02*
X92778571Y-77408557D01*
X92778571Y-77408557D02*
X92864286Y-77365700D01*
X92864286Y-77365700D02*
X92950000Y-77279985D01*
X92950000Y-77279985D02*
X92992857Y-77108557D01*
X92992857Y-77108557D02*
X92992857Y-76808557D01*
X92992857Y-76808557D02*
X92950000Y-76637128D01*
X92950000Y-76637128D02*
X92864286Y-76551414D01*
X92864286Y-76551414D02*
X92778571Y-76508557D01*
X92007143Y-77408557D02*
X92007143Y-76508557D01*
X92007143Y-76508557D02*
X91664286Y-76508557D01*
X91664286Y-76508557D02*
X91578571Y-76551414D01*
X91578571Y-76551414D02*
X91535714Y-76594271D01*
X91535714Y-76594271D02*
X91492857Y-76679985D01*
X91492857Y-76679985D02*
X91492857Y-76808557D01*
X91492857Y-76808557D02*
X91535714Y-76894271D01*
X91535714Y-76894271D02*
X91578571Y-76937128D01*
X91578571Y-76937128D02*
X91664286Y-76979985D01*
X91664286Y-76979985D02*
X92007143Y-76979985D01*
X90421429Y-77065700D02*
X89735715Y-77065700D01*
X90078572Y-77408557D02*
X90078572Y-76722842D01*
X88235715Y-76808557D02*
X88235715Y-77408557D01*
X88450000Y-76465700D02*
X88664286Y-77108557D01*
X88664286Y-77108557D02*
X88107143Y-77108557D01*
X87850000Y-77408557D02*
X87378572Y-76808557D01*
X87850000Y-76808557D02*
X87378572Y-77408557D01*
X86564286Y-77408557D02*
X87078572Y-77408557D01*
X86821429Y-77408557D02*
X86821429Y-76508557D01*
X86821429Y-76508557D02*
X86907143Y-76637128D01*
X86907143Y-76637128D02*
X86992858Y-76722842D01*
X86992858Y-76722842D02*
X87078572Y-76765700D01*
X86221429Y-76594271D02*
X86178572Y-76551414D01*
X86178572Y-76551414D02*
X86092858Y-76508557D01*
X86092858Y-76508557D02*
X85878572Y-76508557D01*
X85878572Y-76508557D02*
X85792858Y-76551414D01*
X85792858Y-76551414D02*
X85750000Y-76594271D01*
X85750000Y-76594271D02*
X85707143Y-76679985D01*
X85707143Y-76679985D02*
X85707143Y-76765700D01*
X85707143Y-76765700D02*
X85750000Y-76894271D01*
X85750000Y-76894271D02*
X86264286Y-77408557D01*
X86264286Y-77408557D02*
X85707143Y-77408557D01*
X84764286Y-76508557D02*
X84250001Y-76508557D01*
X84507143Y-77408557D02*
X84507143Y-76508557D01*
X83950001Y-77408557D02*
X83950001Y-76508557D01*
X83521430Y-77408557D02*
X83521430Y-76508557D01*
X83521430Y-76508557D02*
X83178573Y-76508557D01*
X83178573Y-76508557D02*
X83092858Y-76551414D01*
X83092858Y-76551414D02*
X83050001Y-76594271D01*
X83050001Y-76594271D02*
X83007144Y-76679985D01*
X83007144Y-76679985D02*
X83007144Y-76808557D01*
X83007144Y-76808557D02*
X83050001Y-76894271D01*
X83050001Y-76894271D02*
X83092858Y-76937128D01*
X83092858Y-76937128D02*
X83178573Y-76979985D01*
X83178573Y-76979985D02*
X83521430Y-76979985D01*
D12*
X109017857Y-123340724D02*
X109017857Y-122590724D01*
X109017857Y-122590724D02*
X108839286Y-122590724D01*
X108839286Y-122590724D02*
X108732143Y-122626438D01*
X108732143Y-122626438D02*
X108660714Y-122697867D01*
X108660714Y-122697867D02*
X108625000Y-122769295D01*
X108625000Y-122769295D02*
X108589286Y-122912152D01*
X108589286Y-122912152D02*
X108589286Y-123019295D01*
X108589286Y-123019295D02*
X108625000Y-123162152D01*
X108625000Y-123162152D02*
X108660714Y-123233581D01*
X108660714Y-123233581D02*
X108732143Y-123305010D01*
X108732143Y-123305010D02*
X108839286Y-123340724D01*
X108839286Y-123340724D02*
X109017857Y-123340724D01*
X108017857Y-122947867D02*
X108267857Y-122947867D01*
X108267857Y-123340724D02*
X108267857Y-122590724D01*
X108267857Y-122590724D02*
X107910714Y-122590724D01*
X107625000Y-123340724D02*
X107625000Y-122590724D01*
X107625000Y-122590724D02*
X107375000Y-123126438D01*
X107375000Y-123126438D02*
X107125000Y-122590724D01*
X107125000Y-122590724D02*
X107125000Y-123340724D01*
X106196428Y-123055010D02*
X105625000Y-123055010D01*
X105910714Y-123340724D02*
X105910714Y-122769295D01*
X104446428Y-122947867D02*
X104696428Y-122947867D01*
X104696428Y-123340724D02*
X104696428Y-122590724D01*
X104696428Y-122590724D02*
X104339285Y-122590724D01*
X104053571Y-123340724D02*
X104053571Y-122590724D01*
X103267857Y-123340724D02*
X103517857Y-122983581D01*
X103696428Y-123340724D02*
X103696428Y-122590724D01*
X103696428Y-122590724D02*
X103410714Y-122590724D01*
X103410714Y-122590724D02*
X103339285Y-122626438D01*
X103339285Y-122626438D02*
X103303571Y-122662152D01*
X103303571Y-122662152D02*
X103267857Y-122733581D01*
X103267857Y-122733581D02*
X103267857Y-122840724D01*
X103267857Y-122840724D02*
X103303571Y-122912152D01*
X103303571Y-122912152D02*
X103339285Y-122947867D01*
X103339285Y-122947867D02*
X103410714Y-122983581D01*
X103410714Y-122983581D02*
X103696428Y-122983581D01*
X102982142Y-123305010D02*
X102875000Y-123340724D01*
X102875000Y-123340724D02*
X102696428Y-123340724D01*
X102696428Y-123340724D02*
X102625000Y-123305010D01*
X102625000Y-123305010D02*
X102589285Y-123269295D01*
X102589285Y-123269295D02*
X102553571Y-123197867D01*
X102553571Y-123197867D02*
X102553571Y-123126438D01*
X102553571Y-123126438D02*
X102589285Y-123055010D01*
X102589285Y-123055010D02*
X102625000Y-123019295D01*
X102625000Y-123019295D02*
X102696428Y-122983581D01*
X102696428Y-122983581D02*
X102839285Y-122947867D01*
X102839285Y-122947867D02*
X102910714Y-122912152D01*
X102910714Y-122912152D02*
X102946428Y-122876438D01*
X102946428Y-122876438D02*
X102982142Y-122805010D01*
X102982142Y-122805010D02*
X102982142Y-122733581D01*
X102982142Y-122733581D02*
X102946428Y-122662152D01*
X102946428Y-122662152D02*
X102910714Y-122626438D01*
X102910714Y-122626438D02*
X102839285Y-122590724D01*
X102839285Y-122590724D02*
X102660714Y-122590724D01*
X102660714Y-122590724D02*
X102553571Y-122626438D01*
X102339285Y-122590724D02*
X101910714Y-122590724D01*
X102124999Y-123340724D02*
X102124999Y-122590724D01*
X101124998Y-123126438D02*
X100767856Y-123126438D01*
X101196427Y-123340724D02*
X100946427Y-122590724D01*
X100946427Y-122590724D02*
X100696427Y-123340724D01*
X100017856Y-123340724D02*
X100267856Y-122983581D01*
X100446427Y-123340724D02*
X100446427Y-122590724D01*
X100446427Y-122590724D02*
X100160713Y-122590724D01*
X100160713Y-122590724D02*
X100089284Y-122626438D01*
X100089284Y-122626438D02*
X100053570Y-122662152D01*
X100053570Y-122662152D02*
X100017856Y-122733581D01*
X100017856Y-122733581D02*
X100017856Y-122840724D01*
X100017856Y-122840724D02*
X100053570Y-122912152D01*
X100053570Y-122912152D02*
X100089284Y-122947867D01*
X100089284Y-122947867D02*
X100160713Y-122983581D01*
X100160713Y-122983581D02*
X100446427Y-122983581D01*
X99803570Y-122590724D02*
X99374999Y-122590724D01*
X99589284Y-123340724D02*
X99589284Y-122590724D01*
X99124998Y-123340724D02*
X99124998Y-122590724D01*
X98339284Y-123269295D02*
X98374998Y-123305010D01*
X98374998Y-123305010D02*
X98482141Y-123340724D01*
X98482141Y-123340724D02*
X98553569Y-123340724D01*
X98553569Y-123340724D02*
X98660712Y-123305010D01*
X98660712Y-123305010D02*
X98732141Y-123233581D01*
X98732141Y-123233581D02*
X98767855Y-123162152D01*
X98767855Y-123162152D02*
X98803569Y-123019295D01*
X98803569Y-123019295D02*
X98803569Y-122912152D01*
X98803569Y-122912152D02*
X98767855Y-122769295D01*
X98767855Y-122769295D02*
X98732141Y-122697867D01*
X98732141Y-122697867D02*
X98660712Y-122626438D01*
X98660712Y-122626438D02*
X98553569Y-122590724D01*
X98553569Y-122590724D02*
X98482141Y-122590724D01*
X98482141Y-122590724D02*
X98374998Y-122626438D01*
X98374998Y-122626438D02*
X98339284Y-122662152D01*
X97660712Y-123340724D02*
X98017855Y-123340724D01*
X98017855Y-123340724D02*
X98017855Y-122590724D01*
X97410712Y-122947867D02*
X97160712Y-122947867D01*
X97053569Y-123340724D02*
X97410712Y-123340724D01*
X97410712Y-123340724D02*
X97410712Y-122590724D01*
X97410712Y-122590724D02*
X97053569Y-122590724D01*
X95732141Y-123340724D02*
X95982141Y-122983581D01*
X96160712Y-123340724D02*
X96160712Y-122590724D01*
X96160712Y-122590724D02*
X95874998Y-122590724D01*
X95874998Y-122590724D02*
X95803569Y-122626438D01*
X95803569Y-122626438D02*
X95767855Y-122662152D01*
X95767855Y-122662152D02*
X95732141Y-122733581D01*
X95732141Y-122733581D02*
X95732141Y-122840724D01*
X95732141Y-122840724D02*
X95767855Y-122912152D01*
X95767855Y-122912152D02*
X95803569Y-122947867D01*
X95803569Y-122947867D02*
X95874998Y-122983581D01*
X95874998Y-122983581D02*
X96160712Y-122983581D01*
X95410712Y-122947867D02*
X95160712Y-122947867D01*
X95053569Y-123340724D02*
X95410712Y-123340724D01*
X95410712Y-123340724D02*
X95410712Y-122590724D01*
X95410712Y-122590724D02*
X95053569Y-122590724D01*
X94232141Y-123412152D02*
X94303570Y-123376438D01*
X94303570Y-123376438D02*
X94374998Y-123305010D01*
X94374998Y-123305010D02*
X94482141Y-123197867D01*
X94482141Y-123197867D02*
X94553570Y-123162152D01*
X94553570Y-123162152D02*
X94624998Y-123162152D01*
X94589284Y-123340724D02*
X94660713Y-123305010D01*
X94660713Y-123305010D02*
X94732141Y-123233581D01*
X94732141Y-123233581D02*
X94767855Y-123090724D01*
X94767855Y-123090724D02*
X94767855Y-122840724D01*
X94767855Y-122840724D02*
X94732141Y-122697867D01*
X94732141Y-122697867D02*
X94660713Y-122626438D01*
X94660713Y-122626438D02*
X94589284Y-122590724D01*
X94589284Y-122590724D02*
X94446427Y-122590724D01*
X94446427Y-122590724D02*
X94374998Y-122626438D01*
X94374998Y-122626438D02*
X94303570Y-122697867D01*
X94303570Y-122697867D02*
X94267855Y-122840724D01*
X94267855Y-122840724D02*
X94267855Y-123090724D01*
X94267855Y-123090724D02*
X94303570Y-123233581D01*
X94303570Y-123233581D02*
X94374998Y-123305010D01*
X94374998Y-123305010D02*
X94446427Y-123340724D01*
X94446427Y-123340724D02*
X94589284Y-123340724D01*
X93946427Y-122590724D02*
X93946427Y-123197867D01*
X93946427Y-123197867D02*
X93910713Y-123269295D01*
X93910713Y-123269295D02*
X93874999Y-123305010D01*
X93874999Y-123305010D02*
X93803570Y-123340724D01*
X93803570Y-123340724D02*
X93660713Y-123340724D01*
X93660713Y-123340724D02*
X93589284Y-123305010D01*
X93589284Y-123305010D02*
X93553570Y-123269295D01*
X93553570Y-123269295D02*
X93517856Y-123197867D01*
X93517856Y-123197867D02*
X93517856Y-122590724D01*
X93160713Y-123340724D02*
X93160713Y-122590724D01*
X92374999Y-123340724D02*
X92624999Y-122983581D01*
X92803570Y-123340724D02*
X92803570Y-122590724D01*
X92803570Y-122590724D02*
X92517856Y-122590724D01*
X92517856Y-122590724D02*
X92446427Y-122626438D01*
X92446427Y-122626438D02*
X92410713Y-122662152D01*
X92410713Y-122662152D02*
X92374999Y-122733581D01*
X92374999Y-122733581D02*
X92374999Y-122840724D01*
X92374999Y-122840724D02*
X92410713Y-122912152D01*
X92410713Y-122912152D02*
X92446427Y-122947867D01*
X92446427Y-122947867D02*
X92517856Y-122983581D01*
X92517856Y-122983581D02*
X92803570Y-122983581D01*
X92053570Y-122947867D02*
X91803570Y-122947867D01*
X91696427Y-123340724D02*
X92053570Y-123340724D01*
X92053570Y-123340724D02*
X92053570Y-122590724D01*
X92053570Y-122590724D02*
X91696427Y-122590724D01*
X91374999Y-123340724D02*
X91374999Y-122590724D01*
X91374999Y-122590724D02*
X91196428Y-122590724D01*
X91196428Y-122590724D02*
X91089285Y-122626438D01*
X91089285Y-122626438D02*
X91017856Y-122697867D01*
X91017856Y-122697867D02*
X90982142Y-122769295D01*
X90982142Y-122769295D02*
X90946428Y-122912152D01*
X90946428Y-122912152D02*
X90946428Y-123019295D01*
X90946428Y-123019295D02*
X90982142Y-123162152D01*
X90982142Y-123162152D02*
X91017856Y-123233581D01*
X91017856Y-123233581D02*
X91089285Y-123305010D01*
X91089285Y-123305010D02*
X91196428Y-123340724D01*
X91196428Y-123340724D02*
X91374999Y-123340724D01*
D13*
X112914895Y-96109523D02*
X113562514Y-96109523D01*
X113562514Y-96109523D02*
X113638704Y-96071428D01*
X113638704Y-96071428D02*
X113676800Y-96033333D01*
X113676800Y-96033333D02*
X113714895Y-95957142D01*
X113714895Y-95957142D02*
X113714895Y-95804761D01*
X113714895Y-95804761D02*
X113676800Y-95728571D01*
X113676800Y-95728571D02*
X113638704Y-95690476D01*
X113638704Y-95690476D02*
X113562514Y-95652380D01*
X113562514Y-95652380D02*
X112914895Y-95652380D01*
X113714895Y-94852381D02*
X113714895Y-95309524D01*
X113714895Y-95080952D02*
X112914895Y-95080952D01*
X112914895Y-95080952D02*
X113029180Y-95157143D01*
X113029180Y-95157143D02*
X113105371Y-95233333D01*
X113105371Y-95233333D02*
X113143466Y-95309524D01*
X83390476Y-88464895D02*
X83390476Y-89112514D01*
X83390476Y-89112514D02*
X83428571Y-89188704D01*
X83428571Y-89188704D02*
X83466666Y-89226800D01*
X83466666Y-89226800D02*
X83542857Y-89264895D01*
X83542857Y-89264895D02*
X83695238Y-89264895D01*
X83695238Y-89264895D02*
X83771428Y-89226800D01*
X83771428Y-89226800D02*
X83809523Y-89188704D01*
X83809523Y-89188704D02*
X83847619Y-89112514D01*
X83847619Y-89112514D02*
X83847619Y-88464895D01*
X84190475Y-88541085D02*
X84228571Y-88502990D01*
X84228571Y-88502990D02*
X84304761Y-88464895D01*
X84304761Y-88464895D02*
X84495237Y-88464895D01*
X84495237Y-88464895D02*
X84571428Y-88502990D01*
X84571428Y-88502990D02*
X84609523Y-88541085D01*
X84609523Y-88541085D02*
X84647618Y-88617276D01*
X84647618Y-88617276D02*
X84647618Y-88693466D01*
X84647618Y-88693466D02*
X84609523Y-88807752D01*
X84609523Y-88807752D02*
X84152380Y-89264895D01*
X84152380Y-89264895D02*
X84647618Y-89264895D01*
X83390476Y-112464895D02*
X83390476Y-113112514D01*
X83390476Y-113112514D02*
X83428571Y-113188704D01*
X83428571Y-113188704D02*
X83466666Y-113226800D01*
X83466666Y-113226800D02*
X83542857Y-113264895D01*
X83542857Y-113264895D02*
X83695238Y-113264895D01*
X83695238Y-113264895D02*
X83771428Y-113226800D01*
X83771428Y-113226800D02*
X83809523Y-113188704D01*
X83809523Y-113188704D02*
X83847619Y-113112514D01*
X83847619Y-113112514D02*
X83847619Y-112464895D01*
X84266666Y-113264895D02*
X84419047Y-113264895D01*
X84419047Y-113264895D02*
X84495237Y-113226800D01*
X84495237Y-113226800D02*
X84533333Y-113188704D01*
X84533333Y-113188704D02*
X84609523Y-113074419D01*
X84609523Y-113074419D02*
X84647618Y-112922038D01*
X84647618Y-112922038D02*
X84647618Y-112617276D01*
X84647618Y-112617276D02*
X84609523Y-112541085D01*
X84609523Y-112541085D02*
X84571428Y-112502990D01*
X84571428Y-112502990D02*
X84495237Y-112464895D01*
X84495237Y-112464895D02*
X84342856Y-112464895D01*
X84342856Y-112464895D02*
X84266666Y-112502990D01*
X84266666Y-112502990D02*
X84228571Y-112541085D01*
X84228571Y-112541085D02*
X84190475Y-112617276D01*
X84190475Y-112617276D02*
X84190475Y-112807752D01*
X84190475Y-112807752D02*
X84228571Y-112883942D01*
X84228571Y-112883942D02*
X84266666Y-112922038D01*
X84266666Y-112922038D02*
X84342856Y-112960133D01*
X84342856Y-112960133D02*
X84495237Y-112960133D01*
X84495237Y-112960133D02*
X84571428Y-112922038D01*
X84571428Y-112922038D02*
X84609523Y-112883942D01*
X84609523Y-112883942D02*
X84647618Y-112807752D01*
X83390476Y-103664895D02*
X83390476Y-104312514D01*
X83390476Y-104312514D02*
X83428571Y-104388704D01*
X83428571Y-104388704D02*
X83466666Y-104426800D01*
X83466666Y-104426800D02*
X83542857Y-104464895D01*
X83542857Y-104464895D02*
X83695238Y-104464895D01*
X83695238Y-104464895D02*
X83771428Y-104426800D01*
X83771428Y-104426800D02*
X83809523Y-104388704D01*
X83809523Y-104388704D02*
X83847619Y-104312514D01*
X83847619Y-104312514D02*
X83847619Y-103664895D01*
X84152380Y-103664895D02*
X84647618Y-103664895D01*
X84647618Y-103664895D02*
X84380952Y-103969657D01*
X84380952Y-103969657D02*
X84495237Y-103969657D01*
X84495237Y-103969657D02*
X84571428Y-104007752D01*
X84571428Y-104007752D02*
X84609523Y-104045847D01*
X84609523Y-104045847D02*
X84647618Y-104122038D01*
X84647618Y-104122038D02*
X84647618Y-104312514D01*
X84647618Y-104312514D02*
X84609523Y-104388704D01*
X84609523Y-104388704D02*
X84571428Y-104426800D01*
X84571428Y-104426800D02*
X84495237Y-104464895D01*
X84495237Y-104464895D02*
X84266666Y-104464895D01*
X84266666Y-104464895D02*
X84190475Y-104426800D01*
X84190475Y-104426800D02*
X84152380Y-104388704D01*
X107390476Y-111164895D02*
X107390476Y-111812514D01*
X107390476Y-111812514D02*
X107428571Y-111888704D01*
X107428571Y-111888704D02*
X107466666Y-111926800D01*
X107466666Y-111926800D02*
X107542857Y-111964895D01*
X107542857Y-111964895D02*
X107695238Y-111964895D01*
X107695238Y-111964895D02*
X107771428Y-111926800D01*
X107771428Y-111926800D02*
X107809523Y-111888704D01*
X107809523Y-111888704D02*
X107847619Y-111812514D01*
X107847619Y-111812514D02*
X107847619Y-111164895D01*
X108571428Y-111431561D02*
X108571428Y-111964895D01*
X108380952Y-111126800D02*
X108190475Y-111698228D01*
X108190475Y-111698228D02*
X108685714Y-111698228D01*
X115390476Y-103164895D02*
X115390476Y-103812514D01*
X115390476Y-103812514D02*
X115428571Y-103888704D01*
X115428571Y-103888704D02*
X115466666Y-103926800D01*
X115466666Y-103926800D02*
X115542857Y-103964895D01*
X115542857Y-103964895D02*
X115695238Y-103964895D01*
X115695238Y-103964895D02*
X115771428Y-103926800D01*
X115771428Y-103926800D02*
X115809523Y-103888704D01*
X115809523Y-103888704D02*
X115847619Y-103812514D01*
X115847619Y-103812514D02*
X115847619Y-103164895D01*
X116609523Y-103164895D02*
X116228571Y-103164895D01*
X116228571Y-103164895D02*
X116190475Y-103545847D01*
X116190475Y-103545847D02*
X116228571Y-103507752D01*
X116228571Y-103507752D02*
X116304761Y-103469657D01*
X116304761Y-103469657D02*
X116495237Y-103469657D01*
X116495237Y-103469657D02*
X116571428Y-103507752D01*
X116571428Y-103507752D02*
X116609523Y-103545847D01*
X116609523Y-103545847D02*
X116647618Y-103622038D01*
X116647618Y-103622038D02*
X116647618Y-103812514D01*
X116647618Y-103812514D02*
X116609523Y-103888704D01*
X116609523Y-103888704D02*
X116571428Y-103926800D01*
X116571428Y-103926800D02*
X116495237Y-103964895D01*
X116495237Y-103964895D02*
X116304761Y-103964895D01*
X116304761Y-103964895D02*
X116228571Y-103926800D01*
X116228571Y-103926800D02*
X116190475Y-103888704D01*
X102390476Y-113664895D02*
X102390476Y-114312514D01*
X102390476Y-114312514D02*
X102428571Y-114388704D01*
X102428571Y-114388704D02*
X102466666Y-114426800D01*
X102466666Y-114426800D02*
X102542857Y-114464895D01*
X102542857Y-114464895D02*
X102695238Y-114464895D01*
X102695238Y-114464895D02*
X102771428Y-114426800D01*
X102771428Y-114426800D02*
X102809523Y-114388704D01*
X102809523Y-114388704D02*
X102847619Y-114312514D01*
X102847619Y-114312514D02*
X102847619Y-113664895D01*
X103571428Y-113664895D02*
X103419047Y-113664895D01*
X103419047Y-113664895D02*
X103342856Y-113702990D01*
X103342856Y-113702990D02*
X103304761Y-113741085D01*
X103304761Y-113741085D02*
X103228571Y-113855371D01*
X103228571Y-113855371D02*
X103190475Y-114007752D01*
X103190475Y-114007752D02*
X103190475Y-114312514D01*
X103190475Y-114312514D02*
X103228571Y-114388704D01*
X103228571Y-114388704D02*
X103266666Y-114426800D01*
X103266666Y-114426800D02*
X103342856Y-114464895D01*
X103342856Y-114464895D02*
X103495237Y-114464895D01*
X103495237Y-114464895D02*
X103571428Y-114426800D01*
X103571428Y-114426800D02*
X103609523Y-114388704D01*
X103609523Y-114388704D02*
X103647618Y-114312514D01*
X103647618Y-114312514D02*
X103647618Y-114122038D01*
X103647618Y-114122038D02*
X103609523Y-114045847D01*
X103609523Y-114045847D02*
X103571428Y-114007752D01*
X103571428Y-114007752D02*
X103495237Y-113969657D01*
X103495237Y-113969657D02*
X103342856Y-113969657D01*
X103342856Y-113969657D02*
X103266666Y-114007752D01*
X103266666Y-114007752D02*
X103228571Y-114045847D01*
X103228571Y-114045847D02*
X103190475Y-114122038D01*
X94390476Y-84214895D02*
X94390476Y-84862514D01*
X94390476Y-84862514D02*
X94428571Y-84938704D01*
X94428571Y-84938704D02*
X94466666Y-84976800D01*
X94466666Y-84976800D02*
X94542857Y-85014895D01*
X94542857Y-85014895D02*
X94695238Y-85014895D01*
X94695238Y-85014895D02*
X94771428Y-84976800D01*
X94771428Y-84976800D02*
X94809523Y-84938704D01*
X94809523Y-84938704D02*
X94847619Y-84862514D01*
X94847619Y-84862514D02*
X94847619Y-84214895D01*
X95152380Y-84214895D02*
X95685714Y-84214895D01*
X95685714Y-84214895D02*
X95342856Y-85014895D01*
X84390476Y-100164895D02*
X84390476Y-100812514D01*
X84390476Y-100812514D02*
X84428571Y-100888704D01*
X84428571Y-100888704D02*
X84466666Y-100926800D01*
X84466666Y-100926800D02*
X84542857Y-100964895D01*
X84542857Y-100964895D02*
X84695238Y-100964895D01*
X84695238Y-100964895D02*
X84771428Y-100926800D01*
X84771428Y-100926800D02*
X84809523Y-100888704D01*
X84809523Y-100888704D02*
X84847619Y-100812514D01*
X84847619Y-100812514D02*
X84847619Y-100164895D01*
X85342856Y-100507752D02*
X85266666Y-100469657D01*
X85266666Y-100469657D02*
X85228571Y-100431561D01*
X85228571Y-100431561D02*
X85190475Y-100355371D01*
X85190475Y-100355371D02*
X85190475Y-100317276D01*
X85190475Y-100317276D02*
X85228571Y-100241085D01*
X85228571Y-100241085D02*
X85266666Y-100202990D01*
X85266666Y-100202990D02*
X85342856Y-100164895D01*
X85342856Y-100164895D02*
X85495237Y-100164895D01*
X85495237Y-100164895D02*
X85571428Y-100202990D01*
X85571428Y-100202990D02*
X85609523Y-100241085D01*
X85609523Y-100241085D02*
X85647618Y-100317276D01*
X85647618Y-100317276D02*
X85647618Y-100355371D01*
X85647618Y-100355371D02*
X85609523Y-100431561D01*
X85609523Y-100431561D02*
X85571428Y-100469657D01*
X85571428Y-100469657D02*
X85495237Y-100507752D01*
X85495237Y-100507752D02*
X85342856Y-100507752D01*
X85342856Y-100507752D02*
X85266666Y-100545847D01*
X85266666Y-100545847D02*
X85228571Y-100583942D01*
X85228571Y-100583942D02*
X85190475Y-100660133D01*
X85190475Y-100660133D02*
X85190475Y-100812514D01*
X85190475Y-100812514D02*
X85228571Y-100888704D01*
X85228571Y-100888704D02*
X85266666Y-100926800D01*
X85266666Y-100926800D02*
X85342856Y-100964895D01*
X85342856Y-100964895D02*
X85495237Y-100964895D01*
X85495237Y-100964895D02*
X85571428Y-100926800D01*
X85571428Y-100926800D02*
X85609523Y-100888704D01*
X85609523Y-100888704D02*
X85647618Y-100812514D01*
X85647618Y-100812514D02*
X85647618Y-100660133D01*
X85647618Y-100660133D02*
X85609523Y-100583942D01*
X85609523Y-100583942D02*
X85571428Y-100545847D01*
X85571428Y-100545847D02*
X85495237Y-100507752D01*
X80685714Y-101764895D02*
X80685714Y-102336323D01*
X80685714Y-102336323D02*
X80647619Y-102450609D01*
X80647619Y-102450609D02*
X80571428Y-102526800D01*
X80571428Y-102526800D02*
X80457143Y-102564895D01*
X80457143Y-102564895D02*
X80380952Y-102564895D01*
X81333333Y-102145847D02*
X81447619Y-102183942D01*
X81447619Y-102183942D02*
X81485714Y-102222038D01*
X81485714Y-102222038D02*
X81523810Y-102298228D01*
X81523810Y-102298228D02*
X81523810Y-102412514D01*
X81523810Y-102412514D02*
X81485714Y-102488704D01*
X81485714Y-102488704D02*
X81447619Y-102526800D01*
X81447619Y-102526800D02*
X81371429Y-102564895D01*
X81371429Y-102564895D02*
X81066667Y-102564895D01*
X81066667Y-102564895D02*
X81066667Y-101764895D01*
X81066667Y-101764895D02*
X81333333Y-101764895D01*
X81333333Y-101764895D02*
X81409524Y-101802990D01*
X81409524Y-101802990D02*
X81447619Y-101841085D01*
X81447619Y-101841085D02*
X81485714Y-101917276D01*
X81485714Y-101917276D02*
X81485714Y-101993466D01*
X81485714Y-101993466D02*
X81447619Y-102069657D01*
X81447619Y-102069657D02*
X81409524Y-102107752D01*
X81409524Y-102107752D02*
X81333333Y-102145847D01*
X81333333Y-102145847D02*
X81066667Y-102145847D01*
X81828571Y-102336323D02*
X82209524Y-102336323D01*
X81752381Y-102564895D02*
X82019048Y-101764895D01*
X82019048Y-101764895D02*
X82285714Y-102564895D01*
X82438095Y-101764895D02*
X82895238Y-101764895D01*
X82666666Y-102564895D02*
X82666666Y-101764895D01*
X83580952Y-102564895D02*
X83123809Y-102564895D01*
X83352381Y-102564895D02*
X83352381Y-101764895D01*
X83352381Y-101764895D02*
X83276190Y-101879180D01*
X83276190Y-101879180D02*
X83200000Y-101955371D01*
X83200000Y-101955371D02*
X83123809Y-101993466D01*
X121533333Y-104764895D02*
X121533333Y-105336323D01*
X121533333Y-105336323D02*
X121495238Y-105450609D01*
X121495238Y-105450609D02*
X121419047Y-105526800D01*
X121419047Y-105526800D02*
X121304762Y-105564895D01*
X121304762Y-105564895D02*
X121228571Y-105564895D01*
X121914286Y-104764895D02*
X121914286Y-105412514D01*
X121914286Y-105412514D02*
X121952381Y-105488704D01*
X121952381Y-105488704D02*
X121990476Y-105526800D01*
X121990476Y-105526800D02*
X122066667Y-105564895D01*
X122066667Y-105564895D02*
X122219048Y-105564895D01*
X122219048Y-105564895D02*
X122295238Y-105526800D01*
X122295238Y-105526800D02*
X122333333Y-105488704D01*
X122333333Y-105488704D02*
X122371429Y-105412514D01*
X122371429Y-105412514D02*
X122371429Y-104764895D01*
X122714285Y-105526800D02*
X122828571Y-105564895D01*
X122828571Y-105564895D02*
X123019047Y-105564895D01*
X123019047Y-105564895D02*
X123095238Y-105526800D01*
X123095238Y-105526800D02*
X123133333Y-105488704D01*
X123133333Y-105488704D02*
X123171428Y-105412514D01*
X123171428Y-105412514D02*
X123171428Y-105336323D01*
X123171428Y-105336323D02*
X123133333Y-105260133D01*
X123133333Y-105260133D02*
X123095238Y-105222038D01*
X123095238Y-105222038D02*
X123019047Y-105183942D01*
X123019047Y-105183942D02*
X122866666Y-105145847D01*
X122866666Y-105145847D02*
X122790476Y-105107752D01*
X122790476Y-105107752D02*
X122752381Y-105069657D01*
X122752381Y-105069657D02*
X122714285Y-104993466D01*
X122714285Y-104993466D02*
X122714285Y-104917276D01*
X122714285Y-104917276D02*
X122752381Y-104841085D01*
X122752381Y-104841085D02*
X122790476Y-104802990D01*
X122790476Y-104802990D02*
X122866666Y-104764895D01*
X122866666Y-104764895D02*
X123057143Y-104764895D01*
X123057143Y-104764895D02*
X123171428Y-104802990D01*
X123780952Y-105145847D02*
X123895238Y-105183942D01*
X123895238Y-105183942D02*
X123933333Y-105222038D01*
X123933333Y-105222038D02*
X123971429Y-105298228D01*
X123971429Y-105298228D02*
X123971429Y-105412514D01*
X123971429Y-105412514D02*
X123933333Y-105488704D01*
X123933333Y-105488704D02*
X123895238Y-105526800D01*
X123895238Y-105526800D02*
X123819048Y-105564895D01*
X123819048Y-105564895D02*
X123514286Y-105564895D01*
X123514286Y-105564895D02*
X123514286Y-104764895D01*
X123514286Y-104764895D02*
X123780952Y-104764895D01*
X123780952Y-104764895D02*
X123857143Y-104802990D01*
X123857143Y-104802990D02*
X123895238Y-104841085D01*
X123895238Y-104841085D02*
X123933333Y-104917276D01*
X123933333Y-104917276D02*
X123933333Y-104993466D01*
X123933333Y-104993466D02*
X123895238Y-105069657D01*
X123895238Y-105069657D02*
X123857143Y-105107752D01*
X123857143Y-105107752D02*
X123780952Y-105145847D01*
X123780952Y-105145847D02*
X123514286Y-105145847D01*
X124733333Y-105564895D02*
X124276190Y-105564895D01*
X124504762Y-105564895D02*
X124504762Y-104764895D01*
X124504762Y-104764895D02*
X124428571Y-104879180D01*
X124428571Y-104879180D02*
X124352381Y-104955371D01*
X124352381Y-104955371D02*
X124276190Y-104993466D01*
X102533333Y-115764895D02*
X102533333Y-116336323D01*
X102533333Y-116336323D02*
X102495238Y-116450609D01*
X102495238Y-116450609D02*
X102419047Y-116526800D01*
X102419047Y-116526800D02*
X102304762Y-116564895D01*
X102304762Y-116564895D02*
X102228571Y-116564895D01*
X102914286Y-116564895D02*
X102914286Y-115764895D01*
X102914286Y-115764895D02*
X103104762Y-115764895D01*
X103104762Y-115764895D02*
X103219048Y-115802990D01*
X103219048Y-115802990D02*
X103295238Y-115879180D01*
X103295238Y-115879180D02*
X103333333Y-115955371D01*
X103333333Y-115955371D02*
X103371429Y-116107752D01*
X103371429Y-116107752D02*
X103371429Y-116222038D01*
X103371429Y-116222038D02*
X103333333Y-116374419D01*
X103333333Y-116374419D02*
X103295238Y-116450609D01*
X103295238Y-116450609D02*
X103219048Y-116526800D01*
X103219048Y-116526800D02*
X103104762Y-116564895D01*
X103104762Y-116564895D02*
X102914286Y-116564895D01*
X103980952Y-116145847D02*
X104095238Y-116183942D01*
X104095238Y-116183942D02*
X104133333Y-116222038D01*
X104133333Y-116222038D02*
X104171429Y-116298228D01*
X104171429Y-116298228D02*
X104171429Y-116412514D01*
X104171429Y-116412514D02*
X104133333Y-116488704D01*
X104133333Y-116488704D02*
X104095238Y-116526800D01*
X104095238Y-116526800D02*
X104019048Y-116564895D01*
X104019048Y-116564895D02*
X103714286Y-116564895D01*
X103714286Y-116564895D02*
X103714286Y-115764895D01*
X103714286Y-115764895D02*
X103980952Y-115764895D01*
X103980952Y-115764895D02*
X104057143Y-115802990D01*
X104057143Y-115802990D02*
X104095238Y-115841085D01*
X104095238Y-115841085D02*
X104133333Y-115917276D01*
X104133333Y-115917276D02*
X104133333Y-115993466D01*
X104133333Y-115993466D02*
X104095238Y-116069657D01*
X104095238Y-116069657D02*
X104057143Y-116107752D01*
X104057143Y-116107752D02*
X103980952Y-116145847D01*
X103980952Y-116145847D02*
X103714286Y-116145847D01*
X104933333Y-115802990D02*
X104857143Y-115764895D01*
X104857143Y-115764895D02*
X104742857Y-115764895D01*
X104742857Y-115764895D02*
X104628571Y-115802990D01*
X104628571Y-115802990D02*
X104552381Y-115879180D01*
X104552381Y-115879180D02*
X104514286Y-115955371D01*
X104514286Y-115955371D02*
X104476190Y-116107752D01*
X104476190Y-116107752D02*
X104476190Y-116222038D01*
X104476190Y-116222038D02*
X104514286Y-116374419D01*
X104514286Y-116374419D02*
X104552381Y-116450609D01*
X104552381Y-116450609D02*
X104628571Y-116526800D01*
X104628571Y-116526800D02*
X104742857Y-116564895D01*
X104742857Y-116564895D02*
X104819048Y-116564895D01*
X104819048Y-116564895D02*
X104933333Y-116526800D01*
X104933333Y-116526800D02*
X104971429Y-116488704D01*
X104971429Y-116488704D02*
X104971429Y-116222038D01*
X104971429Y-116222038D02*
X104819048Y-116222038D01*
X105733333Y-116564895D02*
X105276190Y-116564895D01*
X105504762Y-116564895D02*
X105504762Y-115764895D01*
X105504762Y-115764895D02*
X105428571Y-115879180D01*
X105428571Y-115879180D02*
X105352381Y-115955371D01*
X105352381Y-115955371D02*
X105276190Y-115993466D01*
X135866667Y-92138704D02*
X135828571Y-92176800D01*
X135828571Y-92176800D02*
X135714286Y-92214895D01*
X135714286Y-92214895D02*
X135638095Y-92214895D01*
X135638095Y-92214895D02*
X135523809Y-92176800D01*
X135523809Y-92176800D02*
X135447619Y-92100609D01*
X135447619Y-92100609D02*
X135409524Y-92024419D01*
X135409524Y-92024419D02*
X135371428Y-91872038D01*
X135371428Y-91872038D02*
X135371428Y-91757752D01*
X135371428Y-91757752D02*
X135409524Y-91605371D01*
X135409524Y-91605371D02*
X135447619Y-91529180D01*
X135447619Y-91529180D02*
X135523809Y-91452990D01*
X135523809Y-91452990D02*
X135638095Y-91414895D01*
X135638095Y-91414895D02*
X135714286Y-91414895D01*
X135714286Y-91414895D02*
X135828571Y-91452990D01*
X135828571Y-91452990D02*
X135866667Y-91491085D01*
X136628571Y-92214895D02*
X136171428Y-92214895D01*
X136400000Y-92214895D02*
X136400000Y-91414895D01*
X136400000Y-91414895D02*
X136323809Y-91529180D01*
X136323809Y-91529180D02*
X136247619Y-91605371D01*
X136247619Y-91605371D02*
X136171428Y-91643466D01*
X96438704Y-64133332D02*
X96476800Y-64171428D01*
X96476800Y-64171428D02*
X96514895Y-64285713D01*
X96514895Y-64285713D02*
X96514895Y-64361904D01*
X96514895Y-64361904D02*
X96476800Y-64476190D01*
X96476800Y-64476190D02*
X96400609Y-64552380D01*
X96400609Y-64552380D02*
X96324419Y-64590475D01*
X96324419Y-64590475D02*
X96172038Y-64628571D01*
X96172038Y-64628571D02*
X96057752Y-64628571D01*
X96057752Y-64628571D02*
X95905371Y-64590475D01*
X95905371Y-64590475D02*
X95829180Y-64552380D01*
X95829180Y-64552380D02*
X95752990Y-64476190D01*
X95752990Y-64476190D02*
X95714895Y-64361904D01*
X95714895Y-64361904D02*
X95714895Y-64285713D01*
X95714895Y-64285713D02*
X95752990Y-64171428D01*
X95752990Y-64171428D02*
X95791085Y-64133332D01*
X95791085Y-63828571D02*
X95752990Y-63790475D01*
X95752990Y-63790475D02*
X95714895Y-63714285D01*
X95714895Y-63714285D02*
X95714895Y-63523809D01*
X95714895Y-63523809D02*
X95752990Y-63447618D01*
X95752990Y-63447618D02*
X95791085Y-63409523D01*
X95791085Y-63409523D02*
X95867276Y-63371428D01*
X95867276Y-63371428D02*
X95943466Y-63371428D01*
X95943466Y-63371428D02*
X96057752Y-63409523D01*
X96057752Y-63409523D02*
X96514895Y-63866666D01*
X96514895Y-63866666D02*
X96514895Y-63371428D01*
X63866667Y-108438704D02*
X63828571Y-108476800D01*
X63828571Y-108476800D02*
X63714286Y-108514895D01*
X63714286Y-108514895D02*
X63638095Y-108514895D01*
X63638095Y-108514895D02*
X63523809Y-108476800D01*
X63523809Y-108476800D02*
X63447619Y-108400609D01*
X63447619Y-108400609D02*
X63409524Y-108324419D01*
X63409524Y-108324419D02*
X63371428Y-108172038D01*
X63371428Y-108172038D02*
X63371428Y-108057752D01*
X63371428Y-108057752D02*
X63409524Y-107905371D01*
X63409524Y-107905371D02*
X63447619Y-107829180D01*
X63447619Y-107829180D02*
X63523809Y-107752990D01*
X63523809Y-107752990D02*
X63638095Y-107714895D01*
X63638095Y-107714895D02*
X63714286Y-107714895D01*
X63714286Y-107714895D02*
X63828571Y-107752990D01*
X63828571Y-107752990D02*
X63866667Y-107791085D01*
X64133333Y-107714895D02*
X64628571Y-107714895D01*
X64628571Y-107714895D02*
X64361905Y-108019657D01*
X64361905Y-108019657D02*
X64476190Y-108019657D01*
X64476190Y-108019657D02*
X64552381Y-108057752D01*
X64552381Y-108057752D02*
X64590476Y-108095847D01*
X64590476Y-108095847D02*
X64628571Y-108172038D01*
X64628571Y-108172038D02*
X64628571Y-108362514D01*
X64628571Y-108362514D02*
X64590476Y-108438704D01*
X64590476Y-108438704D02*
X64552381Y-108476800D01*
X64552381Y-108476800D02*
X64476190Y-108514895D01*
X64476190Y-108514895D02*
X64247619Y-108514895D01*
X64247619Y-108514895D02*
X64171428Y-108476800D01*
X64171428Y-108476800D02*
X64133333Y-108438704D01*
X104138704Y-136133332D02*
X104176800Y-136171428D01*
X104176800Y-136171428D02*
X104214895Y-136285713D01*
X104214895Y-136285713D02*
X104214895Y-136361904D01*
X104214895Y-136361904D02*
X104176800Y-136476190D01*
X104176800Y-136476190D02*
X104100609Y-136552380D01*
X104100609Y-136552380D02*
X104024419Y-136590475D01*
X104024419Y-136590475D02*
X103872038Y-136628571D01*
X103872038Y-136628571D02*
X103757752Y-136628571D01*
X103757752Y-136628571D02*
X103605371Y-136590475D01*
X103605371Y-136590475D02*
X103529180Y-136552380D01*
X103529180Y-136552380D02*
X103452990Y-136476190D01*
X103452990Y-136476190D02*
X103414895Y-136361904D01*
X103414895Y-136361904D02*
X103414895Y-136285713D01*
X103414895Y-136285713D02*
X103452990Y-136171428D01*
X103452990Y-136171428D02*
X103491085Y-136133332D01*
X103681561Y-135447618D02*
X104214895Y-135447618D01*
X103376800Y-135638094D02*
X103948228Y-135828571D01*
X103948228Y-135828571D02*
X103948228Y-135333332D01*
%TO.C,U1*%
D12*
X114250000Y-90250000D02*
X129750000Y-90250000D01*
X129750000Y-100750000D01*
X114250000Y-100750000D01*
X114250000Y-90250000D01*
%TO.C,U2*%
X81500000Y-89800000D02*
X86500000Y-89800000D01*
X86500000Y-94200000D01*
X81500000Y-94200000D01*
X81500000Y-89800000D01*
%TO.C,U9*%
X81500000Y-113800000D02*
X86500000Y-113800000D01*
X86500000Y-118200000D01*
X81500000Y-118200000D01*
X81500000Y-113800000D01*
%TO.C,U3*%
X83000000Y-105000000D02*
X85000000Y-105000000D01*
X85000000Y-107000000D01*
X83000000Y-107000000D01*
X83000000Y-105000000D01*
%TO.C,U4*%
X106500000Y-112500000D02*
X109500000Y-112500000D01*
X109500000Y-115500000D01*
X106500000Y-115500000D01*
X106500000Y-112500000D01*
%TO.C,U5*%
X114500000Y-104500000D02*
X117500000Y-104500000D01*
X117500000Y-107500000D01*
X114500000Y-107500000D01*
X114500000Y-104500000D01*
%TO.C,U6*%
X102000000Y-115000000D02*
X104000000Y-115000000D01*
X104000000Y-117000000D01*
X102000000Y-117000000D01*
X102000000Y-115000000D01*
%TO.C,U7*%
X93500000Y-85550000D02*
X96500000Y-85550000D01*
X96500000Y-88050000D01*
X93500000Y-88050000D01*
X93500000Y-85550000D01*
%TO.C,U8*%
X83500000Y-101500000D02*
X86500000Y-101500000D01*
X86500000Y-104500000D01*
X83500000Y-104500000D01*
X83500000Y-101500000D01*
%TO.C,JBAT1*%
X80500000Y-103100000D02*
X83500000Y-103100000D01*
X83500000Y-104900000D01*
X80500000Y-104900000D01*
X80500000Y-103100000D01*
%TO.C,JUSB1*%
X121500000Y-106100000D02*
X124500000Y-106100000D01*
X124500000Y-107900000D01*
X121500000Y-107900000D01*
X121500000Y-106100000D01*
%TO.C,JDBG1*%
X101500000Y-117100000D02*
X106500000Y-117100000D01*
X106500000Y-118900000D01*
X101500000Y-118900000D01*
X101500000Y-117100000D01*
%TO.C,C1*%
X134400000Y-92750000D02*
X137600000Y-92750000D01*
X137600000Y-95250000D01*
X134400000Y-95250000D01*
X134400000Y-92750000D01*
%TO.C,C2*%
X92750000Y-62400000D02*
X95250000Y-62400000D01*
X95250000Y-65600000D01*
X92750000Y-65600000D01*
X92750000Y-62400000D01*
%TO.C,C3*%
X62400000Y-104750000D02*
X65600000Y-104750000D01*
X65600000Y-107250000D01*
X62400000Y-107250000D01*
X62400000Y-104750000D01*
%TO.C,C4*%
X104750000Y-134400000D02*
X107250000Y-134400000D01*
X107250000Y-137600000D01*
X104750000Y-137600000D01*
X104750000Y-134400000D01*
%TD*%
M02*
