%TF.GenerationSoftware,KiCad,Pcbnew,10.0.6*%
%TF.CreationDate,2026-09-21T21:01:24+03:00*%
%TF.ProjectId,smartspinner_main_v0_4,736d6172-7473-4706-996e-6e65725f6d61,rev?*%
%TF.SameCoordinates,Original*%
%TF.FileFunction,Other,User*%
%FSLAX46Y46*%
G04 Gerber Fmt 4.6, Leading zero omitted, Abs format (unit mm)*
G04 Created by KiCad (PCBNEW 10.0.6) date 2026-09-21 21:01:24*
%MOMM*%
%LPD*%
G01*
G04 APERTURE LIST*
%ADD10C,0.250000*%
%ADD11C,0.050000*%
G04 APERTURE END LIST*
D10*
X127000000Y-90000000D02*
X129750000Y-90000000D01*
X130750000Y-90000000D02*
X133500000Y-90000000D01*
X134500000Y-90000000D02*
X135000000Y-90000000D01*
X135000000Y-90000000D02*
X135000000Y-92750000D01*
X135000000Y-93750000D02*
X135000000Y-96500000D01*
X135000000Y-97500000D02*
X135000000Y-100250000D01*
X135000000Y-101000000D02*
X132250000Y-101000000D01*
X131250000Y-101000000D02*
X128500000Y-101000000D01*
X127500000Y-101000000D02*
X127000000Y-101000000D01*
X127000000Y-101000000D02*
X127000000Y-98250000D01*
X127000000Y-97250000D02*
X127000000Y-94500000D01*
X127000000Y-93500000D02*
X127000000Y-90750000D01*
%TO.C,U1*%
D11*
X114250000Y-90250000D02*
X129750000Y-90250000D01*
X129750000Y-100750000D01*
X114250000Y-100750000D01*
X114250000Y-90250000D01*
%TO.C,U2*%
X81500000Y-89800000D02*
X86500000Y-89800000D01*
X86500000Y-94200000D01*
X81500000Y-94200000D01*
X81500000Y-89800000D01*
%TO.C,U9*%
X81500000Y-113800000D02*
X86500000Y-113800000D01*
X86500000Y-118200000D01*
X81500000Y-118200000D01*
X81500000Y-113800000D01*
%TO.C,U3*%
X83000000Y-105000000D02*
X85000000Y-105000000D01*
X85000000Y-107000000D01*
X83000000Y-107000000D01*
X83000000Y-105000000D01*
%TO.C,U4*%
X106500000Y-112500000D02*
X109500000Y-112500000D01*
X109500000Y-115500000D01*
X106500000Y-115500000D01*
X106500000Y-112500000D01*
%TO.C,U5*%
X114500000Y-104500000D02*
X117500000Y-104500000D01*
X117500000Y-107500000D01*
X114500000Y-107500000D01*
X114500000Y-104500000D01*
%TO.C,U6*%
X102000000Y-115000000D02*
X104000000Y-115000000D01*
X104000000Y-117000000D01*
X102000000Y-117000000D01*
X102000000Y-115000000D01*
%TO.C,U7*%
X93500000Y-85550000D02*
X96500000Y-85550000D01*
X96500000Y-88050000D01*
X93500000Y-88050000D01*
X93500000Y-85550000D01*
%TO.C,U8*%
X83500000Y-101500000D02*
X86500000Y-101500000D01*
X86500000Y-104500000D01*
X83500000Y-104500000D01*
X83500000Y-101500000D01*
%TO.C,JBAT1*%
X80500000Y-103100000D02*
X83500000Y-103100000D01*
X83500000Y-104900000D01*
X80500000Y-104900000D01*
X80500000Y-103100000D01*
%TO.C,JUSB1*%
X121500000Y-106100000D02*
X124500000Y-106100000D01*
X124500000Y-107900000D01*
X121500000Y-107900000D01*
X121500000Y-106100000D01*
%TO.C,JDBG1*%
X101500000Y-117100000D02*
X106500000Y-117100000D01*
X106500000Y-118900000D01*
X101500000Y-118900000D01*
X101500000Y-117100000D01*
%TO.C,C1*%
X134400000Y-92750000D02*
X137600000Y-92750000D01*
X137600000Y-95250000D01*
X134400000Y-95250000D01*
X134400000Y-92750000D01*
%TO.C,C2*%
X92750000Y-62400000D02*
X95250000Y-62400000D01*
X95250000Y-65600000D01*
X92750000Y-65600000D01*
X92750000Y-62400000D01*
%TO.C,C3*%
X62400000Y-104750000D02*
X65600000Y-104750000D01*
X65600000Y-107250000D01*
X62400000Y-107250000D01*
X62400000Y-104750000D01*
%TO.C,C4*%
X104750000Y-134400000D02*
X107250000Y-134400000D01*
X107250000Y-137600000D01*
X104750000Y-137600000D01*
X104750000Y-134400000D01*
%TD*%
M02*
