  0
SECTION
  2
HEADER
  9
$ACADVER
  1
AC1024
  9
$ACADMAINTVER
 70
6
  9
$DWGCODEPAGE
  3
ANSI_1252
  9
$LASTSAVEDBY
  1
ezdxf
  9
$INSBASE
 10
0.0
 20
0.0
 30
0.0
  9
$EXTMIN
 10
1e+20
 20
1e+20
 30
1e+20
  9
$EXTMAX
 10
-1e+20
 20
-1e+20
 30
-1e+20
  9
$LIMMIN
 10
0.0
 20
0.0
  9
$LIMMAX
 10
420.0
 20
297.0
  9
$ORTHOMODE
 70
0
  9
$REGENMODE
 70
1
  9
$FILLMODE
 70
1
  9
$QTEXTMODE
 70
0
  9
$MIRRTEXT
 70
1
  9
$LTSCALE
 40
1.0
  9
$ATTMODE
 70
1
  9
$TEXTSIZE
 40
2.5
  9
$TRACEWID
 40
1.0
  9
$TEXTSTYLE
  7
Standard
  9
$CLAYER
  8
0
  9
$CELTYPE
  6
ByLayer
  9
$CECOLOR
 62
256
  9
$CELTSCALE
 40
1.0
  9
$DISPSILH
 70
0
  9
$DIMSCALE
 40
1.0
  9
$DIMASZ
 40
2.5
  9
$DIMEXO
 40
0.625
  9
$DIMDLI
 40
3.75
  9
$DIMRND
 40
0.0
  9
$DIMDLE
 40
0.0
  9
$DIMEXE
 40
1.25
  9
$DIMTP
 40
0.0
  9
$DIMTM
 40
0.0
  9
$DIMTXT
 40
2.5
  9
$DIMCEN
 40
2.5
  9
$DIMTSZ
 40
0.0
  9
$DIMTOL
 70
0
  9
$DIMLIM
 70
0
  9
$DIMTIH
 70
0
  9
$DIMTOH
 70
0
  9
$DIMSE1
 70
0
  9
$DIMSE2
 70
0
  9
$DIMTAD
 70
1
  9
$DIMZIN
 70
8
  9
$DIMBLK
  1

  9
$DIMASO
 70
1
  9
$DIMSHO
 70
1
  9
$DIMPOST
  1

  9
$DIMAPOST
  1

  9
$DIMALT
 70
0
  9
$DIMALTD
 70
3
  9
$DIMALTF
 40
0.03937007874
  9
$DIMLFAC
 40
1.0
  9
$DIMTOFL
 70
1
  9
$DIMTVP
 40
0.0
  9
$DIMTIX
 70
0
  9
$DIMSOXD
 70
0
  9
$DIMSAH
 70
0
  9
$DIMBLK1
  1

  9
$DIMBLK2
  1

  9
$DIMSTYLE
  2
ISO-25
  9
$DIMCLRD
 70
0
  9
$DIMCLRE
 70
0
  9
$DIMCLRT
 70
0
  9
$DIMTFAC
 40
1.0
  9
$DIMGAP
 40
0.625
  9
$DIMJUST
 70
0
  9
$DIMSD1
 70
0
  9
$DIMSD2
 70
0
  9
$DIMTOLJ
 70
0
  9
$DIMTZIN
 70
8
  9
$DIMALTZ
 70
0
  9
$DIMALTTZ
 70
0
  9
$DIMUPT
 70
0
  9
$DIMDEC
 70
2
  9
$DIMTDEC
 70
2
  9
$DIMALTU
 70
2
  9
$DIMALTTD
 70
3
  9
$DIMTXSTY
  7
Standard
  9
$DIMAUNIT
 70
0
  9
$DIMADEC
 70
0
  9
$DIMALTRND
 40
0.0
  9
$DIMAZIN
 70
0
  9
$DIMDSEP
 70
44
  9
$DIMATFIT
 70
3
  9
$DIMFRAC
 70
0
  9
$DIMLDRBLK
  1

  9
$DIMLUNIT
 70
2
  9
$DIMLWD
 70
-2
  9
$DIMLWE
 70
-2
  9
$DIMTMOVE
 70
0
  9
$DIMFXL
 40
1.0
  9
$DIMFXLON
 70
0
  9
$DIMJOGANG
 40
0.785398163397
  9
$DIMTFILL
 70
0
  9
$DIMTFILLCLR
 70
0
  9
$DIMARCSYM
 70
0
  9
$DIMLTYPE
  6

  9
$DIMLTEX1
  6

  9
$DIMLTEX2
  6

  9
$DIMTXTDIRECTION
 70
0
  9
$LUNITS
 70
2
  9
$LUPREC
 70
4
  9
$SKETCHINC
 40
1.0
  9
$FILLETRAD
 40
10.0
  9
$AUNITS
 70
0
  9
$AUPREC
 70
2
  9
$MENU
  1
.
  9
$ELEVATION
 40
0.0
  9
$PELEVATION
 40
0.0
  9
$THICKNESS
 40
0.0
  9
$LIMCHECK
 70
0
  9
$CHAMFERA
 40
0.0
  9
$CHAMFERB
 40
0.0
  9
$CHAMFERC
 40
0.0
  9
$CHAMFERD
 40
0.0
  9
$SKPOLY
 70
0
  9
$TDCREATE
 40
2461302.601412037
  9
$TDUCREATE
 40
2458532.153996898
  9
$TDUPDATE
 40
2461302.601423611
  9
$TDUUPDATE
 40
2458532.1544311
  9
$TDINDWG
 40
0.0
  9
$TDUSRTIMER
 40
0.0
  9
$USRTIMER
 70
1
  9
$ANGBASE
 50
0.0
  9
$ANGDIR
 70
0
  9
$PDMODE
 70
0
  9
$PDSIZE
 40
0.0
  9
$PLINEWID
 40
0.0
  9
$SPLFRAME
 70
0
  9
$SPLINETYPE
 70
6
  9
$SPLINESEGS
 70
8
  9
$HANDSEED
  5
F8
  9
$SURFTAB1
 70
6
  9
$SURFTAB2
 70
6
  9
$SURFTYPE
 70
6
  9
$SURFU
 70
6
  9
$SURFV
 70
6
  9
$UCSBASE
  2

  9
$UCSNAME
  2

  9
$UCSORG
 10
0.0
 20
0.0
 30
0.0
  9
$UCSXDIR
 10
1.0
 20
0.0
 30
0.0
  9
$UCSYDIR
 10
0.0
 20
1.0
 30
0.0
  9
$UCSORTHOREF
  2

  9
$UCSORTHOVIEW
 70
0
  9
$UCSORGTOP
 10
0.0
 20
0.0
 30
0.0
  9
$UCSORGBOTTOM
 10
0.0
 20
0.0
 30
0.0
  9
$UCSORGLEFT
 10
0.0
 20
0.0
 30
0.0
  9
$UCSORGRIGHT
 10
0.0
 20
0.0
 30
0.0
  9
$UCSORGFRONT
 10
0.0
 20
0.0
 30
0.0
  9
$UCSORGBACK
 10
0.0
 20
0.0
 30
0.0
  9
$PUCSBASE
  2

  9
$PUCSNAME
  2

  9
$PUCSORG
 10
0.0
 20
0.0
 30
0.0
  9
$PUCSXDIR
 10
1.0
 20
0.0
 30
0.0
  9
$PUCSYDIR
 10
0.0
 20
1.0
 30
0.0
  9
$PUCSORTHOREF
  2

  9
$PUCSORTHOVIEW
 70
0
  9
$PUCSORGTOP
 10
0.0
 20
0.0
 30
0.0
  9
$PUCSORGBOTTOM
 10
0.0
 20
0.0
 30
0.0
  9
$PUCSORGLEFT
 10
0.0
 20
0.0
 30
0.0
  9
$PUCSORGRIGHT
 10
0.0
 20
0.0
 30
0.0
  9
$PUCSORGFRONT
 10
0.0
 20
0.0
 30
0.0
  9
$PUCSORGBACK
 10
0.0
 20
0.0
 30
0.0
  9
$USERI1
 70
0
  9
$USERI2
 70
0
  9
$USERI3
 70
0
  9
$USERI4
 70
0
  9
$USERI5
 70
0
  9
$USERR1
 40
0.0
  9
$USERR2
 40
0.0
  9
$USERR3
 40
0.0
  9
$USERR4
 40
0.0
  9
$USERR5
 40
0.0
  9
$WORLDVIEW
 70
1
  9
$SHADEDGE
 70
3
  9
$SHADEDIF
 70
70
  9
$TILEMODE
 70
1
  9
$MAXACTVP
 70
64
  9
$PINSBASE
 10
0.0
 20
0.0
 30
0.0
  9
$PLIMCHECK
 70
0
  9
$PEXTMIN
 10
1e+20
 20
1e+20
 30
1e+20
  9
$PEXTMAX
 10
-1e+20
 20
-1e+20
 30
-1e+20
  9
$PLIMMIN
 10
0.0
 20
0.0
  9
$PLIMMAX
 10
420.0
 20
297.0
  9
$UNITMODE
 70
0
  9
$VISRETAIN
 70
1
  9
$PLINEGEN
 70
0
  9
$PSLTSCALE
 70
1
  9
$TREEDEPTH
 70
3020
  9
$CMLSTYLE
  2
Standard
  9
$CMLJUST
 70
0
  9
$CMLSCALE
 40
20.0
  9
$PROXYGRAPHICS
 70
1
  9
$MEASUREMENT
 70
1
  9
$CELWEIGHT
370
-1
  9
$ENDCAPS
280
0
  9
$JOINSTYLE
280
0
  9
$LWDISPLAY
290
0
  9
$INSUNITS
 70
4
  9
$HYPERLINKBASE
  1

  9
$STYLESHEET
  1

  9
$XEDIT
290
1
  9
$CEPSNTYPE
380
0
  9
$PSTYLEMODE
290
1
  9
$FINGERPRINTGUID
  2
{8826C34B-23F3-418F-876D-7CAFF291CA64}
  9
$VERSIONGUID
  2
{5016C09B-D65E-48EC-AF20-11C49DF0B697}
  9
$EXTNAMES
290
1
  9
$PSVPSCALE
 40
0.0
  9
$OLESTARTUP
290
0
  9
$SORTENTS
280
127
  9
$INDEXCTL
280
0
  9
$HIDETEXT
280
1
  9
$XCLIPFRAME
280
1
  9
$HALOGAP
280
0
  9
$OBSCOLOR
 70
257
  9
$OBSLTYPE
280
0
  9
$INTERSECTIONDISPLAY
280
0
  9
$INTERSECTIONCOLOR
 70
257
  9
$DIMASSOC
280
2
  9
$PROJECTNAME
  1

  9
$CAMERADISPLAY
290
0
  9
$LENSLENGTH
 40
50.0
  9
$CAMERAHEIGHT
 40
0.0
  9
$STEPSPERSEC
 40
24.0
  9
$STEPSIZE
 40
100.0
  9
$3DDWFPREC
 40
2.0
  9
$PSOLWIDTH
 40
0.005
  9
$PSOLHEIGHT
 40
0.08
  9
$LOFTANG1
 40
1.570796326795
  9
$LOFTANG2
 40
1.570796326795
  9
$LOFTMAG1
 40
0.0
  9
$LOFTMAG2
 40
0.0
  9
$LOFTPARAM
 70
7
  9
$LOFTNORMALS
280
1
  9
$LATITUDE
 40
37.795
  9
$LONGITUDE
 40
-122.394
  9
$NORTHDIRECTION
 40
0.0
  9
$TIMEZONE
 70
-8000
  9
$LIGHTGLYPHDISPLAY
280
1
  9
$TILEMODELIGHTSYNCH
280
1
  9
$CMATERIAL
347
20
  9
$SOLIDHIST
280
0
  9
$SHOWHIST
280
1
  9
$DWFFRAME
280
2
  9
$DGNFRAME
280
2
  9
$REALWORLDSCALE
290
1
  9
$INTERFERECOLOR
 62
256
  9
$CSHADOW
280
0
  9
$SHADOWPLANELOCATION
 40
0.0
  0
ENDSEC
  0
SECTION
  2
CLASSES
  0
CLASS
  1
ACDBDICTIONARYWDFLT
  2
AcDbDictionaryWithDefault
  3
ObjectDBX Classes
 90
0
 91
0
280
0
281
0
  0
CLASS
  1
SUN
  2
AcDbSun
  3
SCENEOE
 90
1153
 91
0
280
0
281
0
  0
CLASS
  1
VISUALSTYLE
  2
AcDbVisualStyle
  3
ObjectDBX Classes
 90
4095
 91
0
280
0
281
0
  0
CLASS
  1
MATERIAL
  2
AcDbMaterial
  3
ObjectDBX Classes
 90
1153
 91
0
280
0
281
0
  0
CLASS
  1
SCALE
  2
AcDbScale
  3
ObjectDBX Classes
 90
1153
 91
0
280
0
281
0
  0
CLASS
  1
TABLESTYLE
  2
AcDbTableStyle
  3
ObjectDBX Classes
 90
4095
 91
0
280
0
281
0
  0
CLASS
  1
MLEADERSTYLE
  2
AcDbMLeaderStyle
  3
ACDB_MLEADERSTYLE_CLASS
 90
4095
 91
0
280
0
281
0
  0
CLASS
  1
DICTIONARYVAR
  2
AcDbDictionaryVar
  3
ObjectDBX Classes
 90
0
 91
0
280
0
281
0
  0
CLASS
  1
CELLSTYLEMAP
  2
AcDbCellStyleMap
  3
ObjectDBX Classes
 90
1152
 91
0
280
0
281
0
  0
CLASS
  1
MENTALRAYRENDERSETTINGS
  2
AcDbMentalRayRenderSettings
  3
SCENEOE
 90
1024
 91
0
280
0
281
0
  0
CLASS
  1
ACDBDETAILVIEWSTYLE
  2
AcDbDetailViewStyle
  3
ObjectDBX Classes
 90
1025
 91
0
280
0
281
0
  0
CLASS
  1
ACDBSECTIONVIEWSTYLE
  2
AcDbSectionViewStyle
  3
ObjectDBX Classes
 90
1025
 91
0
280
0
281
0
  0
CLASS
  1
RASTERVARIABLES
  2
AcDbRasterVariables
  3
ISM
 90
0
 91
0
280
0
281
0
  0
CLASS
  1
LAYOUT
  2
AcDbLayout
  3
ObjectDBX Classes
 90
0
 91
0
280
0
281
0
  0
CLASS
  1
ACDBPLACEHOLDER
  2
AcDbPlaceHolder
  3
ObjectDBX Classes
 90
0
 91
0
280
0
281
0
  0
ENDSEC
  0
SECTION
  2
TABLES
  0
TABLE
  2
VPORT
  5
8
330
0
100
AcDbSymbolTable
 70
1
  0
VPORT
  5
23
330
8
100
AcDbSymbolTableRecord
100
AcDbViewportTableRecord
  2
*Active
 70
0
 10
0.0
 20
0.0
 11
1.0
 21
1.0
 12
0.0
 22
0.0
 13
0.0
 23
0.0
 14
0.5
 24
0.5
 15
0.5
 25
0.5
 16
0.0
 26
0.0
 36
1.0
 17
0.0
 27
0.0
 37
0.0
 40
1000.0
 41
1.34
 42
50.0
 43
0.0
 44
0.0
 50
0.0
 51
0.0
 71
0
 72
1000
 73
1
 74
3
 75
0
 76
0
 77
0
 78
0
281
0
 65
0
146
0.0
  0
ENDTAB
  0
TABLE
  2
LTYPE
  5
2
330
0
100
AcDbSymbolTable
 70
3
  0
LTYPE
  5
24
330
2
100
AcDbSymbolTableRecord
100
AcDbLinetypeTableRecord
  2
ByBlock
 70
0
  3

 72
65
 73
0
 40
0.0
  0
LTYPE
  5
25
330
2
100
AcDbSymbolTableRecord
100
AcDbLinetypeTableRecord
  2
ByLayer
 70
0
  3

 72
65
 73
0
 40
0.0
  0
LTYPE
  5
26
330
2
100
AcDbSymbolTableRecord
100
AcDbLinetypeTableRecord
  2
Continuous
 70
0
  3

 72
65
 73
0
 40
0.0
  0
ENDTAB
  0
TABLE
  2
LAYER
  5
1
330
0
100
AcDbSymbolTable
 70
11
  0
LAYER
  5
27
330
1
100
AcDbSymbolTableRecord
100
AcDbLayerTableRecord
  2
0
 70
0
 62
7
  6
Continuous
370
-3
390
13
347
21
  0
LAYER
  5
28
330
1
100
AcDbSymbolTableRecord
100
AcDbLayerTableRecord
  2
Defpoints
 70
0
 62
7
  6
Continuous
290
0
370
-3
390
13
347
21
  0
LAYER
  5
2F
330
1
100
AcDbSymbolTableRecord
100
AcDbLayerTableRecord
  2
EDGE.CUTS
 70
0
 62
7
  6
Continuous
370
-3
390
13
347
21
  0
LAYER
  5
30
330
1
100
AcDbSymbolTableRecord
100
AcDbLayerTableRecord
  2
NPTH
 70
0
 62
1
  6
Continuous
370
-3
390
13
347
21
  0
LAYER
  5
31
330
1
100
AcDbSymbolTableRecord
100
AcDbLayerTableRecord
  2
LED_TOP
 70
0
 62
3
  6
Continuous
370
-3
390
13
347
21
  0
LAYER
  5
32
330
1
100
AcDbSymbolTableRecord
100
AcDbLayerTableRecord
  2
LED_SIDE
 70
0
 62
4
  6
Continuous
370
-3
390
13
347
21
  0
LAYER
  5
33
330
1
100
AcDbSymbolTableRecord
100
AcDbLayerTableRecord
  2
COURTYARD
 70
0
 62
6
  6
Continuous
370
-3
390
13
347
21
  0
LAYER
  5
34
330
1
100
AcDbSymbolTableRecord
100
AcDbLayerTableRecord
  2
PLACEMENT_ZONES
 70
0
 62
2
  6
Continuous
370
-3
390
13
347
21
  0
LAYER
  5
35
330
1
100
AcDbSymbolTableRecord
100
AcDbLayerTableRecord
  2
TIP_INTERFACE
 70
0
 62
4
  6
Continuous
370
-3
390
13
347
21
  0
LAYER
  5
36
330
1
100
AcDbSymbolTableRecord
100
AcDbLayerTableRecord
  2
BALANCE
 70
0
 62
5
  6
Continuous
370
-3
390
13
347
21
  0
LAYER
  5
37
330
1
100
AcDbSymbolTableRecord
100
AcDbLayerTableRecord
  2
NOTES
 70
0
 62
7
  6
Continuous
370
-3
390
13
347
21
  0
ENDTAB
  0
TABLE
  2
STYLE
  5
5
330
0
100
AcDbSymbolTable
 70
1
  0
STYLE
  5
29
330
5
100
AcDbSymbolTableRecord
100
AcDbTextStyleTableRecord
  2
Standard
 70
0
 40
0.0
 41
1.0
 50
0.0
 71
0
 42
2.5
  3
txt
  4

  0
ENDTAB
  0
TABLE
  2
VIEW
  5
7
330
0
100
AcDbSymbolTable
 70
0
  0
ENDTAB
  0
TABLE
  2
UCS
  5
6
330
0
100
AcDbSymbolTable
 70
0
  0
ENDTAB
  0
TABLE
  2
APPID
  5
3
330
0
100
AcDbSymbolTable
 70
3
  0
APPID
  5
2A
330
3
100
AcDbSymbolTableRecord
100
AcDbRegAppTableRecord
  2
ACAD
 70
0
  0
APPID
  5
F5
330
3
100
AcDbSymbolTableRecord
100
AcDbRegAppTableRecord
  2
HATCHBACKGROUNDCOLOR
 70
0
  0
APPID
  5
F6
330
3
100
AcDbSymbolTableRecord
100
AcDbRegAppTableRecord
  2
EZDXF
 70
0
  0
ENDTAB
  0
TABLE
  2
DIMSTYLE
  5
4
330
0
100
AcDbSymbolTable
 70
1
100
AcDbDimStyleTable
  0
DIMSTYLE
105
2B
330
4
100
AcDbSymbolTableRecord
100
AcDbDimStyleTableRecord
  2
Standard
 70
0
 40
1.0
 41
2.5
 42
0.625
 43
3.75
 44
1.25
 45
0.0
 46
0.0
 47
0.0
 48
0.0
 49
2.5
140
2.5
141
2.5
142
0.0
143
0.03937007874
144
1.0
145
0.0
146
1.0
147
0.625
148
0.0
 69
0
 70
0
 71
0
 72
0
 73
0
 74
0
 75
0
 76
0
 77
1
 78
8
 79
3
170
0
171
3
172
1
173
0
174
0
175
0
176
0
177
0
178
0
179
2
271
2
272
2
273
2
274
3
275
0
276
0
277
2
278
44
279
0
280
0
281
0
282
0
283
0
284
8
285
0
286
0
288
0
289
3
290
0
371
-2
372
-2
  0
ENDTAB
  0
TABLE
  2
BLOCK_RECORD
  5
9
330
0
100
AcDbSymbolTable
 70
2
  0
BLOCK_RECORD
  5
17
330
9
100
AcDbSymbolTableRecord
100
AcDbBlockTableRecord
  2
*Model_Space
340
1A
 70
0
280
1
281
0
  0
BLOCK_RECORD
  5
1B
330
9
100
AcDbSymbolTableRecord
100
AcDbBlockTableRecord
  2
*Paper_Space
340
1E
 70
0
280
1
281
0
  0
ENDTAB
  0
ENDSEC
  0
SECTION
  2
BLOCKS
  0
BLOCK
  5
18
330
17
100
AcDbEntity
  8
0
100
AcDbBlockBegin
  2
*Model_Space
 70
0
 10
0.0
 20
0.0
 30
0.0
  3
*Model_Space
  1

  0
ENDBLK
  5
19
330
17
100
AcDbEntity
  8
0
100
AcDbBlockEnd
  0
BLOCK
  5
1C
330
1B
100
AcDbEntity
  8
0
100
AcDbBlockBegin
  2
*Paper_Space
 70
0
 10
0.0
 20
0.0
 30
0.0
  3
*Paper_Space
  1

  0
ENDBLK
  5
1D
330
1B
100
AcDbEntity
  8
0
100
AcDbBlockEnd
  0
ENDSEC
  0
SECTION
  2
ENTITIES
  0
LWPOLYLINE
  5
38
330
17
100
AcDbEntity
  8
EDGE.CUTS
100
AcDbPolyline
 90
1777
 70
1
 10
18.16927779900686
 20
-7.408291937332766
 10
17.968342169346148
 20
-7.437224848225715
 10
17.76669707212159
 20
-7.460708786677053
 10
17.564490245044528
 20
-7.4787265468961746
 10
17.361869837384443
 20
-7.491264927953846
 10
17.15898430142562
 20
-7.498314743454039
 10
16.95598228370178
 20
-7.499870828264437
 10
16.753012516088425
 20
-7.495932042300746
 10
16.550223706832618
 20
-7.486501271361985
 10
16.347764431600105
 20
-7.471585425016171
 10
16.14578302461955
 20
-7.451195431537942
 10
15.944427470003687
 20
-7.425346229901821
 10
15.743845293326967
 20
-7.394056758837005
 10
15.544183453539173
 20
-7.357349942951665
 10
15.345588235294171
 20
-7.315252675936967
 10
15.257080490191878
 20
-7.498099420240195
 10
15.166394173745932
 20
-7.679875504626715
 10
15.073542235131656
 20
-7.860554973136575
 10
14.978537932755401
 20
-8.040112026396619
 10
14.881394832361329
 20
-8.218521025304344
 10
14.782126805094371
 20
-8.395756494688877
 10
14.68074802551956
 20
-8.571793126948617
 10
14.577272969598015
 20
-8.74660578566492
 10
14.471716412619923
 20
-8.920169509191354
 10
14.364093427094748
 20
-9.092459514218003
 10
14.254419380599039
 20
-9.26345119931025
 10
14.142709933582049
 20
-9.433120148421711
 10
14.028981037129586
 20
-9.60144213438057
 10
13.913248930686338
 20
-9.76839312234901
 10
13.79553013973704
 20
-9.933949273255172
 10
13.675841473446763
 20
-10.098086947197153
 10
13.554200022260732
 20
-10.260782706818578
 10
13.430623155463998
 20
-10.422013320655191
 10
13.305128518701203
 20
-10.581755766452178
 10
13.177734031456982
 20
-10.739987234451469
 10
13.048457884497216
 20
-10.896685130648791
 10
12.917318537271552
 20
-11.051827080019882
 10
12.784334715277593
 20
-11.205390929715403
 10
12.64952540738702
 20
-11.357354752224227
 10
12.512909863134185
 20
-11.507696848504448
 10
12.37450758996745
 20
-11.656395751081805
 10
12.234338350463702
 20
-11.803430227115044
 10
12.092422159506429
 20
-11.948779281427786
 10
11.948779281427779
 20
-12.092422159506434
 10
11.803430227115038
 20
-12.234338350463707
 10
11.6563957510818
 20
-12.374507589967457
 10
11.507696848504443
 20
-12.512909863134192
 10
11.357354752224222
 20
-12.649525407387026
 10
11.205390929715396
 20
-12.784334715277598
 10
11.051827080019875
 20
-12.917318537271555
 10
10.896685130648786
 20
-13.04845788449722
 10
10.739987234451464
 20
-13.177734031456986
 10
10.581755766452172
 20
-13.305128518701206
 10
10.422013320655186
 20
-13.430623155464005
 10
10.260782706818572
 20
-13.554200022260737
 10
10.098086947197148
 20
-13.675841473446766
 10
9.933949273255166
 20
-13.795530139737043
 10
9.768393122349003
 20
-13.913248930686345
 10
9.601442134380564
 20
-14.02898103712959
 10
9.433120148421704
 20
-14.142709933582053
 10
9.263451199310245
 20
-14.254419380599042
 10
9.092459514217996
 20
-14.364093427094751
 10
8.920169509191346
 20
-14.471716412619928
 10
8.746605785664913
 20
-14.577272969598019
 10
8.571793126948611
 20
-14.680748025519563
 10
8.395756494688872
 20
-14.782126805094375
 10
8.218521025304337
 20
-14.881394832361332
 10
8.040112026396613
 20
-14.978537932755405
 10
7.860554973136556
 20
-15.073542235131667
 10
7.6798755046267075
 20
-15.166394173745935
 10
7.498099420240187
 20
-15.257080490191882
 10
7.315252675936833
 20
-15.345588235294176
 10
7.357349942951708
 20
-15.544183453539405
 10
7.394056758837038
 20
-15.743845293327183
 10
7.4253462299018445
 20
-15.944427470003884
 10
7.4511954315379585
 20
-16.145783024619732
 10
7.471585425016181
 20
-16.347764431600265
 10
7.486501271361989
 20
-16.550223706832764
 10
7.495932042300747
 20
-16.753012516088546
 10
7.499870828264434
 20
-16.955982283701882
 10
7.498314743454033
 20
-17.158984301425704
 10
7.491264927953841
 20
-17.361869837384507
 10
7.478726546896167
 20
-17.564490245044578
 10
7.4607087866770465
 20
-17.76669707212162
 10
7.437224848225709
 20
-17.96834216934616
 10
7.4082919373327645
 20
-18.16927779900685
 10
7.39246463756817
 20
-18.37107587100577
 10
7.376637337803549
 20
-18.572873943004687
 10
7.360810038038928
 20
-18.774672015003603
 10
7.344982738274307
 20
-18.97647008700252
 10
7.329155438509686
 20
-19.178268159001437
 10
7.3133281387450655
 20
-19.380066231000356
 10
7.2975008389804445
 20
-19.581864302999268
 10
7.2816735392158245
 20
-19.783662374998183
 10
7.265846239451203
 20
-19.985460446997102
 10
7.250018939686582
 20
-20.187258518996018
 10
7.234191639921961
 20
-20.389056590994937
 10
7.21836434015734
 20
-20.590854662993852
 10
7.202537040392719
 20
-20.79265273499277
 10
7.186709740628098
 20
-20.99445080699169
 10
7.170882440863477
 20
-21.196248878990602
 10
7.155055141098856
 20
-21.398046950989517
 10
7.139227841334235
 20
-21.599845022988433
 10
7.123400541569614
 20
-21.80164309498735
 10
7.107573241804993
 20
-22.00344116698627
 10
7.091745942040372
 20
-22.205239238985182
 10
7.075918642275751
 20
-22.4070373109841
 10
7.0600913425111305
 20
-22.608835382983017
 10
7.0442640427465095
 20
-22.810633454981932
 10
7.028436742981889
 20
-23.01243152698085
 10
7.012609443217268
 20
-23.214229598979767
 10
6.996782143452647
 20
-23.416027670978686
 10
6.980954843688026
 20
-23.617825742977598
 10
6.965127543923405
 20
-23.819623814976516
 10
6.949300244158784
 20
-24.021421886975435
 10
6.933472944394163
 20
-24.223219958974347
 10
6.917645644629542
 20
-24.425018030973266
 10
6.901818344864921
 20
-24.62681610297218
 10
6.8859910451003
 20
-24.8286141749711
 10
6.870163745335679
 20
-25.030412246970016
 10
6.854336445571058
 20
-25.23221031896893
 10
6.838509145806437
 20
-25.43400839096785
 10
6.822681846041816
 20
-25.635806462966762
 10
6.806854546277195
 20
-25.83760453496568
 10
6.7910272465125745
 20
-26.0394026069646
 10
6.775199946747954
 20
-26.241200678963516
 10
6.759372646983333
 20
-26.44299875096243
 10
6.743545347218712
 20
-26.644796822961347
 10
6.727718047454091
 20
-26.846594894960266
 10
6.71189074768947
 20
-27.04839296695918
 10
6.696063447924849
 20
-27.250191038958096
 10
6.680236148160228
 20
-27.451989110957015
 10
6.664408848395607
 20
-27.65378718295593
 10
6.648581548630986
 20
-27.855585254954846
 10
6.632754248866365
 20
-28.057383326953765
 10
6.616926949101744
 20
-28.25918139895268
 10
6.601099649337123
 20
-28.460979470951596
 10
6.585272349572502
 20
-28.66277754295051
 10
6.569445049807881
 20
-28.86457561494943
 10
6.55361775004326
 20
-29.066373686948346
 10
6.5377904502786395
 20
-29.26817175894726
 10
6.5219631505140185
 20
-29.46996983094618
 10
6.506135850749398
 20
-29.671767902945096
 10
6.4360680900201
 20
-29.47860830958092
 10
6.335302773683187
 20
-29.29953717671536
 10
6.206562668911443
 20
-29.139393163322442
 10
6.053326446182347
 20
-29.00250350101754
 10
5.879734682552551
 20
-28.892567068466136
 10
5.6904779796364
 20
-28.812554444440053
 10
5.490670219438786
 20
-28.76462764017517
 10
5.285710382780826
 20
-28.75008167993275
 10
5.0811366641056255
 20
-28.76930960830874
 10
4.882476824609948
 20
-28.82179186982426
 10
4.695098827291343
 20
-28.906110347770078
 10
4.52406578988268
 20
-29.019986682963125
 10
4.373999174972972
 20
-29.1603438370087
 10
4.248953914037284
 20
-29.323389236575068
 10
4.1523088396339505
 20
-29.504717252049254
 10
4.086675386387147
 20
-29.699428241510894
 10
4.053827027734306
 20
-29.902260943351713
 10
4.054651355119304
 20
-30.107734640175888
 10
4.089126094493641
 20
-30.310297252588207
 10
4.156319708180745
 20
-30.504475361245955
 10
4.254416565840537
 20
-30.685022103447267
 10
4.380766004392696
 20
-30.847058947960438
 10
4.531953951256521
 20
-30.98620751721407
 10
4.703895175584647
 20
-31.098707894896886
 10
4.891943674781435
 20
-31.18152022219221
 10
5.091018213565534
 20
-31.232406837427746
 10
5.295739623401122
 20
-31.249992739655408
 10
5.5005761523468255
 20
-31.23380274238216
 10
5.699992937842008
 20
-31.18427431352559
 10
5.888601563544718
 20
-31.10274575464733
 10
6.06130565906444
 20
-30.991420038871745
 10
6.213438608357246
 20
-30.853305284621143
 10
6.340889645781803
 20
-30.69213347361923
 10
6.440214932590274
 20
-30.512259609473695
 10
6.424544683713786
 20
-30.71205528264914
 10
6.408874434837281
 20
-30.91185095582458
 10
6.3932041859607756
 20
-31.111646629000017
 10
6.377533937084271
 20
-31.311442302175454
 10
6.361863688207766
 20
-31.511237975350895
 10
6.346193439331261
 20
-31.71103364852633
 10
6.330523190454755
 20
-31.91082932170177
 10
6.314852941578251
 20
-32.110624994877206
 10
6.299182692701746
 20
-32.31042066805265
 10
6.2835124438252405
 20
-32.51021634122809
 10
6.267842194948735
 20
-32.710012014403524
 10
6.252171946072231
 20
-32.90980768757896
 10
6.236501697195726
 20
-33.1096033607544
 10
6.22083144831922
 20
-33.309399033929836
 10
6.205161199442716
 20
-33.50919470710527
 10
6.189490950566211
 20
-33.70899038028072
 10
6.1738207016897055
 20
-33.908786053456154
 10
6.1581504528132
 20
-34.10858172663159
 10
6.142480203936696
 20
-34.30837739980703
 10
6.126809955060191
 20
-34.508173072982466
 10
6.111139706183685
 20
-34.7079687461579
 10
6.09546945730718
 20
-34.90776441933335
 10
6.079799208430676
 20
-35.107560092508784
 10
6.0641289595541705
 20
-35.30735576568422
 10
6.048458710677665
 20
-35.50715143885966
 10
6.032788461801161
 20
-35.706947112035095
 10
6.017118212924656
 20
-35.90674278521053
 10
6.00144796404815
 20
-36.10653845838598
 10
5.985777715171645
 20
-36.306334131561414
 10
5.970107466295141
 20
-36.50612980473685
 10
5.9544372174186355
 20
-36.70592547791229
 10
5.93876696854213
 20
-36.905721151087725
 10
5.923096719665626
 20
-37.10551682426316
 10
5.907426470789121
 20
-37.30531249743861
 10
5.891756221912615
 20
-37.505108170614044
 10
5.87608597303611
 20
-37.70490384378948
 10
5.860415724159606
 20
-37.90469951696492
 10
5.8447454752831005
 20
-38.104495190140355
 10
5.829075226406595
 20
-38.30429086331579
 10
5.81340497753009
 20
-38.504086536491236
 10
5.797734728653586
 20
-38.70388220966667
 10
5.78206447977708
 20
-38.90367788284211
 10
5.766394230900575
 20
-39.10347355601755
 10
5.750723982024071
 20
-39.303269229192985
 10
5.7350537331475655
 20
-39.50306490236842
 10
5.71938348427106
 20
-39.702860575543866
 10
5.703713235394555
 20
-39.9026562487193
 10
5.688042986518051
 20
-40.10245192189474
 10
5.672372737641545
 20
-40.30224759507018
 10
5.65670248876504
 20
-40.502043268245615
 10
5.641032239888536
 20
-40.70183894142105
 10
5.6253619910120305
 20
-40.901634614596496
 10
5.609691742135525
 20
-41.10143028777193
 10
5.59402149325902
 20
-41.30122596094737
 10
5.578351244382516
 20
-41.50102163412281
 10
5.56268099550601
 20
-41.700817307298244
 10
5.547010746629505
 20
-41.90061298047368
 10
5.531340497753
 20
-42.100408653649126
 10
5.5156702488764955
 20
-42.30020432682456
 10
5.49999999999999
 20
-42.5
 10
5.4963306660363065
 20
-42.70087112681713
 10
5.485327560149524
 20
-42.901474230634996
 10
5.467005363819692
 20
-43.10154164607832
 10
5.441388524413096
 20
-43.30080642254253
 10
5.408511222562054
 20
-43.4990026803869
 10
5.368417326557589
 20
-43.695865965698566
 10
5.321160333815828
 20
-43.891133603154245
 10
5.266803299496222
 20
-44.08454504650881
 10
5.205418752366841
 20
-44.27584222624296
 10
5.1370885980290035
 20
-44.46476989390624
 10
5.061904009630366
 20
-44.65107596269586
 10
4.979965306212295
 20
-44.83451184381698
 10
4.891381818853842
 20
-45.01483277817552
 10
4.796271744790929
 20
-45.19179816296098
 10
4.694761989705394
 20
-45.36517187268362
 10
4.586987998394317
 20
-45.534722574237456
 10
4.473093574045597
 20
-45.700224035568745
 10
4.353230686360885
 20
-45.861455427538175
 10
4.2275592687819135
 20
-46.018201618573904
 10
4.09624700509079
 20
-46.17025346172232
 10
3.959469105668966
 20
-46.31740807371349
 10
3.817408073713475
 20
-46.45946910566898
 10
3.670253461722304
 20
-46.5962470050908
 10
3.5182016185738907
 20
-46.72755926878193
 10
3.3614554275381607
 20
-46.8532306863609
 10
3.2002240355687293
 20
-46.97309357404561
 10
3.03472257423744
 20
-47.08698799839433
 10
2.865171872683606
 20
-47.194761989705405
 10
2.691798162960959
 20
-47.29627174479094
 10
2.5148327781754993
 20
-47.39138181885386
 10
2.334511843816972
 20
-47.47996530621231
 10
2.1510759626958467
 20
-47.56190400963038
 10
1.9647698939062193
 20
-47.63708859802902
 10
1.7758422262429412
 20
-47.70541875236685
 10
1.5845450465087936
 20
-47.76680329949623
 10
1.3911336031542327
 20
-47.82116033381584
 10
1.1958659656985522
 20
-47.8684173265576
 10
0.9990026803868881
 20
-47.90851122256206
 10
0.8008064225425148
 20
-47.94138852441311
 10
0.6015416460782974
 20
-47.9670053638197
 10
0.40147423063498106
 20
-47.985327560149535
 10
0.2008711268171111
 20
-47.996330666036314
 10
-1.2216164233254697e-14
 20
-48.0
 10
-0.20087112681713556
 20
-47.996330666036314
 10
-0.40147423063500304
 20
-47.985327560149535
 10
-0.6015416460783205
 20
-47.9670053638197
 10
-0.8008064225425391
 20
-47.94138852441311
 10
-0.9990026803869125
 20
-47.90851122256206
 10
-1.1958659656985753
 20
-47.8684173265576
 10
-1.3911336031542567
 20
-47.82116033381584
 10
-1.584545046508818
 20
-47.76680329949623
 10
-1.775842226242966
 20
-47.70541875236685
 10
-1.964769893906241
 20
-47.63708859802902
 10
-2.1510759626958698
 20
-47.561904009630375
 10
-2.334511843816994
 20
-47.47996530621231
 10
-2.5148327781755224
 20
-47.39138181885385
 10
-2.6917981629609806
 20
-47.29627174479094
 10
-2.8651718726836277
 20
-47.194761989705405
 10
-3.0347225742374633
 20
-47.08698799839433
 10
-3.2002240355687515
 20
-46.973093574045606
 10
-3.3614554275381816
 20
-46.853230686360895
 10
-3.518201618573913
 20
-46.727559268781924
 10
-3.6702534617223272
 20
-46.5962470050908
 10
-3.817408073713497
 20
-46.45946910566897
 10
-3.9594691056689877
 20
-46.31740807371349
 10
-4.096247005090811
 20
-46.17025346172232
 10
-4.227559268781937
 20
-46.0182016185739
 10
-4.353230686360909
 20
-45.86145542753817
 10
-4.47309357404562
 20
-45.70022403556874
 10
-4.586987998394339
 20
-45.53472257423745
 10
-4.694761989705416
 20
-45.36517187268362
 10
-4.796271744790953
 20
-45.19179816296097
 10
-4.891381818853865
 20
-45.01483277817551
 10
-4.979965306212317
 20
-44.83451184381698
 10
-5.061904009630387
 20
-44.651075962695856
 10
-5.137088598029024
 20
-44.46476989390623
 10
-5.205418752366861
 20
-44.27584222624295
 10
-5.266803299496242
 20
-44.08454504650881
 10
-5.321160333815849
 20
-43.891133603154245
 10
-5.368417326557609
 20
-43.69586596569856
 10
-5.4085112225620735
 20
-43.4990026803869
 10
-5.441388524413116
 20
-43.30080642254253
 10
-5.4670053638197125
 20
-43.10154164607831
 10
-5.4853275601495435
 20
-42.90147423063499
 10
-5.496330666036326
 20
-42.70087112681712
 10
-5.50000000000001
 20
-42.5
 10
-5.515641737191261
 20
-42.30056785081154
 10
-5.531283474382513
 20
-42.10113570162307
 10
-5.5469252115737655
 20
-41.901703552434604
 10
-5.562566948765018
 20
-41.70227140324613
 10
-5.5782086859562705
 20
-41.50283925405766
 10
-5.593850423147523
 20
-41.303407104869194
 10
-5.6094921603387755
 20
-41.10397495568073
 10
-5.625133897530028
 20
-40.90454280649226
 10
-5.6407756347212805
 20
-40.70511065730379
 10
-5.656417371912532
 20
-40.505678508115324
 10
-5.672059109103785
 20
-40.30624635892685
 10
-5.687700846295037
 20
-40.10681420973838
 10
-5.70334258348629
 20
-39.907382060549914
 10
-5.718984320677542
 20
-39.707949911361446
 10
-5.734626057868794
 20
-39.50851776217298
 10
-5.750267795060047
 20
-39.30908561298451
 10
-5.765909532251299
 20
-39.10965346379604
 10
-5.781551269442551
 20
-38.910221314607575
 10
-5.797193006633804
 20
-38.71078916541911
 10
-5.812834743825056
 20
-38.51135701623064
 10
-5.828476481016309
 20
-38.311924867042165
 10
-5.844118218207561
 20
-38.1124927178537
 10
-5.859759955398813
 20
-37.91306056866523
 10
-5.875401692590066
 20
-37.71362841947676
 10
-5.891043429781318
 20
-37.514196270288295
 10
-5.90668516697257
 20
-37.31476412109983
 10
-5.922326904163823
 20
-37.11533197191136
 10
-5.937968641355075
 20
-36.91589982272289
 10
-5.953610378546328
 20
-36.716467673534424
 10
-5.9692521157375795
 20
-36.51703552434596
 10
-5.984893852928832
 20
-36.31760337515748
 10
-6.0005355901200845
 20
-36.11817122596902
 10
-6.016177327311337
 20
-35.91873907678055
 10
-6.0318190645025895
 20
-35.71930692759208
 10
-6.047460801693842
 20
-35.51987477840361
 10
-6.0631025388850945
 20
-35.320442629215144
 10
-6.078744276076347
 20
-35.121010480026676
 10
-6.0943860132675995
 20
-34.9215783308382
 10
-6.110027750458851
 20
-34.72214618164974
 10
-6.125669487650104
 20
-34.52271403246127
 10
-6.141311224841356
 20
-34.323281883272806
 10
-6.156952962032609
 20
-34.12384973408434
 10
-6.172594699223861
 20
-33.92441758489586
 10
-6.188236436415113
 20
-33.724985435707396
 10
-6.203878173606366
 20
-33.52555328651893
 10
-6.219519910797618
 20
-33.32612113733046
 10
-6.23516164798887
 20
-33.126688988141986
 10
-6.250803385180123
 20
-32.927256838953525
 10
-6.266445122371375
 20
-32.72782468976506
 10
-6.282086859562628
 20
-32.52839254057658
 10
-6.29772859675388
 20
-32.328960391388115
 10
-6.313370333945132
 20
-32.129528242199655
 10
-6.329012071136384
 20
-31.930096093011183
 10
-6.344653808327637
 20
-31.730663943822712
 10
-6.360295545518889
 20
-31.531231794634245
 10
-6.375937282710142
 20
-31.331799645445777
 10
-6.391579019901394
 20
-31.13236749625731
 10
-6.407220757092647
 20
-30.932935347068838
 10
-6.4228624942838985
 20
-30.73350319788037
 10
-6.438504231475151
 20
-30.534071048691903
 10
-6.4541459686664036
 20
-30.334638899503435
 10
-6.469787705857656
 20
-30.135206750314968
 10
-6.485429443048909
 20
-29.935774601126496
 10
-6.501071180240161
 20
-29.73634245193803
 10
-6.516712917431414
 20
-29.53691030274956
 10
-6.532354654622665
 20
-29.337478153561094
 10
-6.547996391813918
 20
-29.138046004372622
 10
-6.56363812900517
 20
-28.93861385518416
 10
-6.579279866196423
 20
-28.739181705995687
 10
-6.594921603387675
 20
-28.53974955680722
 10
-6.610563340578928
 20
-28.340317407618752
 10
-6.62620507777018
 20
-28.140885258430284
 10
-6.641846814961433
 20
-27.941453109241813
 10
-6.657488552152684
 20
-27.742020960053345
 10
-6.673130289343937
 20
-27.542588810864878
 10
-6.688772026535189
 20
-27.34315666167641
 10
-6.704413763726442
 20
-27.143724512487942
 10
-6.720055500917694
 20
-26.94429236329947
 10
-6.735697238108947
 20
-26.744860214111004
 10
-6.751338975300199
 20
-26.545428064922536
 10
-6.766980712491451
 20
-26.34599591573407
 10
-6.7826224496827034
 20
-26.1465637665456
 10
-6.798264186873956
 20
-25.947131617357133
 10
-6.8139059240652085
 20
-25.747699468168662
 10
-6.829547661256461
 20
-25.548267318980194
 10
-6.8451893984477135
 20
-25.348835169791723
 10
-6.860831135638966
 20
-25.14940302060326
 10
-6.876472872830218
 20
-24.949970871414788
 10
-6.89211461002147
 20
-24.75053872222632
 10
-6.907756347212723
 20
-24.551106573037853
 10
-6.923398084403975
 20
-24.351674423849385
 10
-6.939039821595228
 20
-24.152242274660917
 10
-6.95468155878648
 20
-23.952810125472446
 10
-6.970323295977733
 20
-23.75337797628398
 10
-6.985965033168984
 20
-23.55394582709551
 10
-7.001606770360237
 20
-23.354513677907043
 10
-7.017248507551489
 20
-23.155081528718572
 10
-7.032890244742742
 20
-22.955649379530104
 10
-7.048531981933994
 20
-22.756217230341637
 10
-7.064173719125247
 20
-22.55678508115317
 10
-7.079815456316499
 20
-22.357352931964698
 10
-7.095457193507751
 20
-22.15792078277623
 10
-7.111098930699003
 20
-21.958488633587763
 10
-7.126740667890256
 20
-21.759056484399295
 10
-7.142382405081508
 20
-21.559624335210827
 10
-7.158024142272761
 20
-21.360192186022356
 10
-7.173665879464013
 20
-21.160760036833892
 10
-7.189307616655266
 20
-20.96132788764542
 10
-7.2049493538465175
 20
-20.761895738456953
 10
-7.22059109103777
 20
-20.562463589268486
 10
-7.2362328282290225
 20
-20.363031440080018
 10
-7.251874565420275
 20
-20.163599290891547
 10
-7.2675163026115275
 20
-19.96416714170308
 10
-7.28315803980278
 20
-19.76473499251461
 10
-7.2987997769940325
 20
-19.565302843326144
 10
-7.314441514185284
 20
-19.365870694137673
 10
-7.330083251376537
 20
-19.166438544949205
 10
-7.345724988567789
 20
-18.967006395760738
 10
-7.361366725759042
 20
-18.76757424657227
 10
-7.377008462950294
 20
-18.568142097383802
 10
-7.392650200141547
 20
-18.368709948195335
 10
-7.408291937332799
 20
-18.169277799006863
 10
-7.437224848225716
 20
-17.968342169346165
 10
-7.460708786677053
 20
-17.766697072121627
 10
-7.478726546896174
 20
-17.56449024504458
 10
-7.491264927953847
 20
-17.361869837384514
 10
-7.49831474345404
 20
-17.158984301425708
 10
-7.4998708282644415
 20
-16.95598228370189
 10
-7.495932042300754
 20
-16.753012516088553
 10
-7.486501271361997
 20
-16.550223706832764
 10
-7.471585425016188
 20
-16.347764431600268
 10
-7.451195431537965
 20
-16.145783024619732
 10
-7.425346229901853
 20
-15.944427470003886
 10
-7.394056758837046
 20
-15.743845293327183
 10
-7.357349942951715
 20
-15.544183453539407
 10
-7.315252675937026
 20
-15.345588235294422
 10
-7.498099420240194
 20
-15.257080490191878
 10
-7.679875504626714
 20
-15.166394173745932
 10
-7.8605549731365745
 20
-15.073542235131656
 10
-8.040112026396619
 20
-14.978537932755401
 10
-8.218521025304343
 20
-14.881394832361329
 10
-8.395756494688877
 20
-14.782126805094371
 10
-8.571793126948617
 20
-14.68074802551956
 10
-8.74660578566492
 20
-14.577272969598017
 10
-8.920169509191352
 20
-14.471716412619926
 10
-9.092459514218003
 20
-14.364093427094748
 10
-9.263451199310248
 20
-14.254419380599039
 10
-9.43312014842171
 20
-14.142709933582049
 10
-9.601442134380568
 20
-14.028981037129586
 10
-9.768393122349007
 20
-13.91324893068634
 10
-9.93394927325517
 20
-13.795530139737041
 10
-10.098086947197151
 20
-13.675841473446763
 10
-10.260782706818576
 20
-13.554200022260734
 10
-10.422013320655191
 20
-13.430623155464
 10
-10.581755766452178
 20
-13.305128518701203
 10
-10.739987234451469
 20
-13.177734031456982
 10
-10.89668513064879
 20
-13.048457884497216
 10
-11.05182708001988
 20
-12.917318537271552
 10
-11.205390929715394
 20
-12.784334715277598
 10
-11.357354752224227
 20
-12.649525407387022
 10
-11.507696848504446
 20
-12.512909863134187
 10
-11.656395751081803
 20
-12.374507589967454
 10
-11.803430227115049
 20
-12.234338350463698
 10
-11.94877928142779
 20
-12.092422159506425
 10
-12.092422159506427
 20
-11.948779281427786
 10
-12.234338350463707
 20
-11.80343022711504
 10
-12.374507589967456
 20
-11.6563957510818
 10
-12.51290986313419
 20
-11.507696848504443
 10
-12.649525407387024
 20
-11.357354752224223
 10
-12.784334715277602
 20
-11.20539092971539
 10
-12.917318537271559
 20
-11.05182708001987
 10
-13.048457884497214
 20
-10.896685130648791
 10
-13.177734031456986
 20
-10.739987234451464
 10
-13.305128518701206
 20
-10.581755766452174
 10
-13.430623155464001
 20
-10.422013320655187
 10
-13.55420002226074
 20
-10.260782706818565
 10
-13.675841473446761
 20
-10.098086947197153
 10
-13.79553013973704
 20
-9.933949273255172
 10
-13.913248930686343
 20
-9.768393122349003
 10
-14.02898103712959
 20
-9.601442134380564
 10
-14.142709933582053
 20
-9.433120148421706
 10
-14.254419380599042
 20
-9.263451199310245
 10
-14.364093427094755
 20
-9.09245951421799
 10
-14.471716412619923
 20
-8.920169509191354
 10
-14.577272969598019
 20
-8.746605785664913
 10
-14.680748025519563
 20
-8.571793126948611
 10
-14.782126805094375
 20
-8.395756494688872
 10
-14.88139483236133
 20
-8.218521025304339
 10
-14.978537932755408
 20
-8.040112026396606
 10
-15.073542235131663
 20
-7.860554973136563
 10
-15.166394173745932
 20
-7.6798755046267155
 10
-15.25708049019188
 20
-7.498099420240188
 10
-15.345588235294176
 20
-7.315252675936834
 10
-15.54418345353918
 20
-7.3573499429516644
 10
-15.743845293326972
 20
-7.394056758837004
 10
-15.944427470003689
 20
-7.42534622990182
 10
-16.14578302461955
 20
-7.451195431537939
 10
-16.347764431600105
 20
-7.471585425016168
 10
-16.550223706832618
 20
-7.486501271361983
 10
-16.753012516088422
 20
-7.495932042300744
 10
-16.955982283701776
 20
-7.499870828264435
 10
-17.158984301425612
 20
-7.498314743454037
 10
-17.361869837384436
 20
-7.4912649279538455
 10
-17.56449024504452
 20
-7.478726546896173
 10
-17.76669707212158
 20
-7.460708786677053
 10
-17.968342169346137
 20
-7.437224848225714
 10
-18.16927779900685
 20
-7.408291937332766
 10
-18.371075871005782
 20
-7.392464637568172
 10
-18.572873943004705
 20
-7.37663733780355
 10
-18.77467201500363
 20
-7.360810038038928
 10
-18.976470087002557
 20
-7.344982738274307
 10
-19.178268159001483
 20
-7.3291554385096855
 10
-19.380066231000413
 20
-7.313328138745064
 10
-19.581864302999335
 20
-7.297500838980442
 10
-19.78366237499826
 20
-7.28167353921582
 10
-19.985460446997187
 20
-7.265846239451198
 10
-20.187258518996114
 20
-7.250018939686576
 10
-20.389056590995043
 20
-7.234191639921955
 10
-20.590854662993966
 20
-7.218364340157334
 10
-20.792652734992892
 20
-7.202537040392712
 10
-20.994450806991818
 20
-7.18670974062809
 10
-21.196248878990744
 20
-7.170882440863468
 10
-21.39804695098967
 20
-7.155055141098847
 10
-21.599845022988596
 20
-7.139227841334225
 10
-21.801643094987522
 20
-7.123400541569604
 10
-22.00344116698645
 20
-7.107573241804982
 10
-22.205239238985374
 20
-7.09174594204036
 10
-22.4070373109843
 20
-7.075918642275738
 10
-22.608835382983226
 20
-7.060091342511116
 10
-22.810633454982153
 20
-7.044264042746495
 10
-23.012431526981075
 20
-7.0284367429818735
 10
-23.214229598980005
 20
-7.012609443217252
 10
-23.41602767097893
 20
-6.99678214345263
 10
-23.617825742977857
 20
-6.980954843688008
 10
-23.819623814976783
 20
-6.965127543923387
 10
-24.021421886975705
 20
-6.949300244158765
 10
-24.223219958974635
 20
-6.933472944394143
 10
-24.42501803097356
 20
-6.917645644629522
 10
-24.626816102972487
 20
-6.9018183448649
 10
-24.828614174971413
 20
-6.885991045100278
 10
-25.030412246970336
 20
-6.870163745335657
 10
-25.232210318969262
 20
-6.854336445571035
 10
-25.43400839096819
 20
-6.838509145806413
 10
-25.635806462967114
 20
-6.8226818460417915
 10
-25.837604534966044
 20
-6.80685454627717
 10
-26.039402606964966
 20
-6.791027246512549
 10
-26.241200678963892
 20
-6.775199946747927
 10
-26.442998750962822
 20
-6.759372646983305
 10
-26.644796822961744
 20
-6.743545347218683
 10
-26.84659489496067
 20
-6.727718047454061
 10
-27.048392966959597
 20
-6.71189074768944
 10
-27.250191038958523
 20
-6.696063447924819
 10
-27.451989110957452
 20
-6.680236148160197
 10
-27.653787182956375
 20
-6.664408848395575
 10
-27.8555852549553
 20
-6.648581548630953
 10
-28.057383326954227
 20
-6.632754248866331
 10
-28.259181398953153
 20
-6.6169269491017095
 10
-28.46097947095208
 20
-6.601099649337089
 10
-28.662777542951005
 20
-6.585272349572467
 10
-28.86457561494993
 20
-6.569445049807845
 10
-29.066373686948857
 20
-6.553617750043223
 10
-29.268171758947783
 20
-6.537790450278601
 10
-29.46996983094671
 20
-6.52196315051398
 10
-29.671767902945636
 20
-6.5061358507493585
 10
-29.478608309581354
 20
-6.436068090020303
 10
-29.299537176715734
 20
-6.335302773683443
 10
-29.139393163322747
 20
-6.206562668911734
 10
-29.002503501017774
 20
-6.053326446182661
 10
-28.892567068466306
 20
-5.879734682552873
 10
-28.812554444440156
 20
-5.690477979636716
 10
-28.76462764017522
 20
-5.490670219439085
 10
-28.750081679932748
 20
-5.285710382781098
 10
-28.769309608308696
 20
-5.081136664105866
 10
-28.82179186982419
 20
-4.88247682461015
 10
-28.906110347769992
 20
-4.695098827291503
 10
-29.01998668296303
 20
-4.5240657898828
 10
-29.160343837008607
 20
-4.373999174973056
 10
-29.323389236574993
 20
-4.248953914037336
 10
-29.504717252049197
 20
-4.152308839633976
 10
-29.699428241510862
 20
-4.086675386387156
 10
-29.90226094335171
 20
-4.053827027734307
 10
-30.107734640175916
 20
-4.054651355119308
 10
-30.310297252588263
 20
-4.089126094493657
 10
-30.504475361246037
 20
-4.156319708180782
 10
-30.685022103447363
 20
-4.254416565840604
 10
-30.847058947960544
 20
-4.3807660043927985
 10
-30.98620751721418
 20
-4.531953951256663
 10
-31.098707894896986
 20
-4.703895175584831
 10
-31.181520222192287
 20
-4.89194367478166
 10
-31.232406837427792
 20
-5.0910182135658
 10
-31.24999273965541
 20
-5.295739623401421
 10
-31.233802742382107
 20
-5.50057615234715
 10
-31.184274313525478
 20
-5.699992937842348
 10
-31.102745754647145
 20
-5.888601563545061
 10
-30.99142003887149
 20
-6.0613056590647725
 10
-30.853305284620813
 20
-6.213438608357553
 10
-30.692133473618835
 20
-6.3408896457820685
 10
-30.512259609473233
 20
-6.440214932590484
 10
-30.712055282648613
 20
-6.4245446837138305
 10
-30.91185095582406
 20
-6.408874434837324
 10
-31.11164662899951
 20
-6.393204185960819
 10
-31.311442302174953
 20
-6.377533937084314
 10
-31.5112379753504
 20
-6.361863688207808
 10
-31.71103364852585
 20
-6.346193439331302
 10
-31.910829321701296
 20
-6.330523190454796
 10
-32.110624994876744
 20
-6.314852941578291
 10
-32.31042066805219
 20
-6.299182692701785
 10
-32.51021634122764
 20
-6.28351244382528
 10
-32.710012014403084
 20
-6.2678421949487735
 10
-32.90980768757853
 20
-6.252171946072268
 10
-33.10960336075398
 20
-6.236501697195762
 10
-33.30939903392943
 20
-6.220831448319257
 10
-33.509194707104875
 20
-6.205161199442751
 10
-33.70899038028032
 20
-6.189490950566245
 10
-33.90878605345577
 20
-6.173820701689739
 10
-34.108581726631215
 20
-6.158150452813234
 10
-34.308377399806666
 20
-6.142480203936728
 10
-34.50817307298211
 20
-6.126809955060223
 10
-34.707968746157555
 20
-6.1111397061837165
 10
-34.907764419333006
 20
-6.095469457307211
 10
-35.10756009250845
 20
-6.079799208430705
 10
-35.3073557656839
 20
-6.0641289595542
 10
-35.507151438859346
 20
-6.048458710677694
 10
-35.7069471120348
 20
-6.032788461801188
 10
-35.90674278521024
 20
-6.017118212924682
 10
-36.106538458385685
 20
-6.001447964048177
 10
-36.30633413156114
 20
-5.985777715171671
 10
-36.50612980473658
 20
-5.970107466295166
 10
-36.70592547791203
 20
-5.9544372174186595
 10
-36.90572115108748
 20
-5.938766968542154
 10
-37.10551682426292
 20
-5.923096719665648
 10
-37.30531249743837
 20
-5.907426470789143
 10
-37.505108170613816
 20
-5.891756221912637
 10
-37.70490384378927
 20
-5.8760859730361314
 10
-37.90469951696471
 20
-5.860415724159625
 10
-38.10449519014016
 20
-5.84474547528312
 10
-38.30429086331561
 20
-5.829075226406614
 10
-38.50408653649106
 20
-5.813404977530109
 10
-38.7038822096665
 20
-5.7977347286536025
 10
-38.90367788284195
 20
-5.782064479777097
 10
-39.1034735560174
 20
-5.766394230900591
 10
-39.30326922919284
 20
-5.750723982024086
 10
-39.503064902368294
 20
-5.73505373314758
 10
-39.70286057554374
 20
-5.7193834842710745
 10
-39.90265624871918
 20
-5.703713235394568
 10
-40.102451921894634
 20
-5.688042986518063
 10
-40.30224759507008
 20
-5.672372737641557
 10
-40.50204326824553
 20
-5.656702488765052
 10
-40.701838941420974
 20
-5.6410322398885455
 10
-40.901634614596425
 20
-5.62536199101204
 10
-41.10143028777187
 20
-5.609691742135534
 10
-41.30122596094731
 20
-5.594021493259029
 10
-41.501021634122765
 20
-5.578351244382523
 10
-41.70081730729821
 20
-5.5626809955060175
 10
-41.90061298047366
 20
-5.547010746629511
 10
-42.100408653649104
 20
-5.531340497753006
 10
-42.300204326824556
 20
-5.5156702488765
 10
-42.5
 20
-5.499999999999995
 10
-42.70087112681713
 20
-5.496330666036311
 10
-42.901474230634996
 20
-5.485327560149528
 10
-43.10154164607831
 20
-5.4670053638196965
 10
-43.30080642254253
 20
-5.4413885244131
 10
-43.4990026803869
 20
-5.408511222562058
 10
-43.695865965698566
 20
-5.368417326557593
 10
-43.891133603154245
 20
-5.321160333815833
 10
-44.08454504650881
 20
-5.266803299496226
 10
-44.27584222624296
 20
-5.205418752366845
 10
-44.46476989390624
 20
-5.137088598029008
 10
-44.65107596269586
 20
-5.061904009630371
 10
-44.83451184381698
 20
-4.9799653062123
 10
-45.01483277817552
 20
-4.891381818853847
 10
-45.19179816296097
 20
-4.796271744790935
 10
-45.36517187268362
 20
-4.694761989705399
 10
-45.534722574237456
 20
-4.5869879983943225
 10
-45.700224035568745
 20
-4.473093574045603
 10
-45.861455427538175
 20
-4.353230686360891
 10
-46.018201618573904
 20
-4.227559268781919
 10
-46.17025346172232
 20
-4.096247005090794
 10
-46.31740807371349
 20
-3.9594691056689704
 10
-46.45946910566898
 20
-3.8174080737134792
 10
-46.5962470050908
 20
-3.6702534617223086
 10
-46.72755926878193
 20
-3.518201618573895
 10
-46.853230686360895
 20
-3.361455427538165
 10
-46.973093574045606
 20
-3.2002240355687337
 10
-47.08698799839433
 20
-3.0347225742374446
 10
-47.194761989705405
 20
-2.8651718726836104
 10
-47.29627174479094
 20
-2.6917981629609633
 10
-47.39138181885386
 20
-2.5148327781755038
 10
-47.47996530621231
 20
-2.3345118438169763
 10
-47.561904009630375
 20
-2.1510759626958516
 10
-47.63708859802902
 20
-1.9647698939062241
 10
-47.70541875236685
 20
-1.7758422262429459
 10
-47.76680329949623
 20
-1.5845450465087985
 10
-47.82116033381584
 20
-1.3911336031542374
 10
-47.8684173265576
 20
-1.1958659656985569
 10
-47.90851122256206
 20
-0.9990026803868929
 10
-47.94138852441311
 20
-0.8008064225425195
 10
-47.9670053638197
 20
-0.6015416460783022
 10
-47.985327560149535
 20
-0.40147423063498583
 10
-47.996330666036314
 20
-0.20087112681711589
 10
-48.0
 20
7.43632783276049e-15
 10
-47.996330666036314
 20
0.2008711268171308
 10
-47.985327560149535
 20
0.40147423063499826
 10
-47.9670053638197
 20
0.6015416460783157
 10
-47.94138852441311
 20
0.8008064225425343
 10
-47.90851122256206
 20
0.9990026803869078
 10
-47.8684173265576
 20
1.1958659656985704
 10
-47.82116033381584
 20
1.3911336031542518
 10
-47.76680329949623
 20
1.5845450465088131
 10
-47.70541875236685
 20
1.7758422262429614
 10
-47.63708859802902
 20
1.9647698939062364
 10
-47.561904009630375
 20
2.151075962695865
 10
-47.47996530621231
 20
2.3345118438169896
 10
-47.39138181885385
 20
2.514832778175518
 10
-47.29627174479094
 20
2.691798162960976
 10
-47.194761989705405
 20
2.8651718726836233
 10
-47.08698799839433
 20
3.034722574237459
 10
-46.973093574045606
 20
3.200224035568747
 10
-46.853230686360895
 20
3.361455427538177
 10
-46.727559268781924
 20
3.5182016185739085
 10
-46.5962470050908
 20
3.670253461722323
 10
-46.45946910566897
 20
3.8174080737134926
 10
-46.31740807371349
 20
3.9594691056689832
 10
-46.17025346172232
 20
4.096247005090807
 10
-46.0182016185739
 20
4.227559268781932
 10
-45.86145542753817
 20
4.353230686360904
 10
-45.70022403556874
 20
4.473093574045615
 10
-45.53472257423745
 20
4.586987998394334
 10
-45.36517187268362
 20
4.694761989705411
 10
-45.19179816296097
 20
4.796271744790948
 10
-45.01483277817551
 20
4.891381818853859
 10
-44.83451184381698
 20
4.9799653062123115
 10
-44.651075962695856
 20
5.061904009630382
 10
-44.46476989390623
 20
5.1370885980290195
 10
-44.27584222624295
 20
5.205418752366857
 10
-44.08454504650881
 20
5.266803299496238
 10
-43.891133603154245
 20
5.321160333815844
 10
-43.695865965698566
 20
5.368417326557605
 10
-43.4990026803869
 20
5.408511222562069
 10
-43.30080642254253
 20
5.441388524413112
 10
-43.10154164607831
 20
5.467005363819708
 10
-42.90147423063499
 20
5.485327560149539
 10
-42.70087112681712
 20
5.496330666036322
 10
-42.5
 20
5.500000000000005
 10
-42.30056785081153
 20
5.515641737191257
 10
-42.101135701623065
 20
5.5312834743825094
 10
-41.9017035524346
 20
5.546925211573762
 10
-41.70227140324613
 20
5.5625669487650145
 10
-41.50283925405766
 20
5.578208685956267
 10
-41.30340710486919
 20
5.5938504231475195
 10
-41.10397495568073
 20
5.609492160338772
 10
-40.90454280649226
 20
5.625133897530024
 10
-40.705110657303784
 20
5.640775634721276
 10
-40.50567850811532
 20
5.656417371912529
 10
-40.30624635892685
 20
5.672059109103781
 10
-40.10681420973838
 20
5.687700846295034
 10
-39.907382060549914
 20
5.703342583486286
 10
-39.707949911361446
 20
5.718984320677539
 10
-39.50851776217298
 20
5.73462605786879
 10
-39.30908561298451
 20
5.750267795060043
 10
-39.10965346379604
 20
5.765909532251295
 10
-38.91022131460757
 20
5.781551269442548
 10
-38.7107891654191
 20
5.7971930066338
 10
-38.51135701623063
 20
5.812834743825053
 10
-38.311924867042165
 20
5.828476481016305
 10
-38.1124927178537
 20
5.844118218207558
 10
-37.91306056866523
 20
5.859759955398809
 10
-37.71362841947676
 20
5.875401692590063
 10
-37.514196270288295
 20
5.891043429781314
 10
-37.31476412109982
 20
5.906685166972567
 10
-37.11533197191136
 20
5.922326904163819
 10
-36.915899822722885
 20
5.937968641355072
 10
-36.716467673534424
 20
5.953610378546324
 10
-36.51703552434596
 20
5.969252115737577
 10
-36.31760337515748
 20
5.984893852928829
 10
-36.118171225969014
 20
6.000535590120081
 10
-35.91873907678055
 20
6.0161773273113335
 10
-35.71930692759208
 20
6.031819064502586
 10
-35.51987477840361
 20
6.0474608016938385
 10
-35.32044262921514
 20
6.063102538885091
 10
-35.121010480026676
 20
6.0787442760763435
 10
-34.9215783308382
 20
6.094386013267596
 10
-34.72214618164974
 20
6.110027750458848
 10
-34.522714032461266
 20
6.125669487650101
 10
-34.3232818832728
 20
6.141311224841353
 10
-34.12384973408433
 20
6.156952962032605
 10
-33.92441758489586
 20
6.172594699223858
 10
-33.724985435707396
 20
6.18823643641511
 10
-33.52555328651893
 20
6.203878173606363
 10
-33.32612113733046
 20
6.219519910797615
 10
-33.126688988141986
 20
6.235161647988868
 10
-32.927256838953525
 20
6.250803385180119
 10
-32.72782468976505
 20
6.266445122371372
 10
-32.52839254057658
 20
6.282086859562624
 10
-32.328960391388115
 20
6.297728596753877
 10
-32.12952824219965
 20
6.313370333945129
 10
-31.93009609301118
 20
6.329012071136382
 10
-31.730663943822712
 20
6.344653808327634
 10
-31.531231794634245
 20
6.360295545518887
 10
-31.331799645445777
 20
6.375937282710138
 10
-31.132367496257306
 20
6.391579019901391
 10
-30.932935347068838
 20
6.407220757092643
 10
-30.73350319788037
 20
6.422862494283896
 10
-30.534071048691903
 20
6.438504231475148
 10
-30.33463889950343
 20
6.454145968666401
 10
-30.135206750314964
 20
6.469787705857653
 10
-29.935774601126496
 20
6.485429443048906
 10
-29.73634245193803
 20
6.501071180240158
 10
-29.53691030274956
 20
6.51671291743141
 10
-29.33747815356109
 20
6.5323546546226625
 10
-29.138046004372622
 20
6.547996391813915
 10
-28.938613855184155
 20
6.5636381290051675
 10
-28.739181705995687
 20
6.57927986619642
 10
-28.539749556807216
 20
6.5949216033876725
 10
-28.340317407618752
 20
6.610563340578925
 10
-28.14088525843028
 20
6.6262050777701775
 10
-27.941453109241813
 20
6.641846814961429
 10
-27.742020960053345
 20
6.657488552152682
 10
-27.542588810864878
 20
6.673130289343934
 10
-27.34315666167641
 20
6.688772026535187
 10
-27.14372451248794
 20
6.704413763726439
 10
-26.94429236329947
 20
6.720055500917692
 10
-26.744860214111004
 20
6.735697238108944
 10
-26.545428064922532
 20
6.751338975300197
 10
-26.345995915734065
 20
6.766980712491448
 10
-26.1465637665456
 20
6.782622449682701
 10
-25.94713161735713
 20
6.798264186873953
 10
-25.747699468168662
 20
6.813905924065206
 10
-25.54826731898019
 20
6.829547661256458
 10
-25.348835169791723
 20
6.845189398447711
 10
-25.149403020603255
 20
6.860831135638963
 10
-24.949970871414788
 20
6.876472872830216
 10
-24.75053872222632
 20
6.892114610021467
 10
-24.551106573037853
 20
6.90775634721272
 10
-24.35167442384938
 20
6.923398084403972
 10
-24.152242274660914
 20
6.939039821595225
 10
-23.952810125472446
 20
6.954681558786477
 10
-23.75337797628398
 20
6.97032329597773
 10
-23.55394582709551
 20
6.985965033168982
 10
-23.35451367790704
 20
7.001606770360235
 10
-23.155081528718572
 20
7.017248507551487
 10
-22.955649379530104
 20
7.03289024474274
 10
-22.756217230341637
 20
7.0485319819339916
 10
-22.556785081153166
 20
7.064173719125244
 10
-22.357352931964698
 20
7.079815456316497
 10
-22.15792078277623
 20
7.095457193507749
 10
-21.958488633587763
 20
7.111098930699002
 10
-21.759056484399295
 20
7.126740667890254
 10
-21.559624335210827
 20
7.142382405081507
 10
-21.360192186022356
 20
7.158024142272758
 10
-21.16076003683389
 20
7.173665879464011
 10
-20.96132788764542
 20
7.189307616655263
 10
-20.761895738456953
 20
7.204949353846516
 10
-20.562463589268486
 20
7.220591091037768
 10
-20.363031440080015
 20
7.236232828229021
 10
-20.163599290891547
 20
7.251874565420273
 10
-19.96416714170308
 20
7.267516302611526
 10
-19.76473499251461
 20
7.283158039802777
 10
-19.565302843326144
 20
7.29879977699403
 10
-19.365870694137673
 20
7.314441514185282
 10
-19.166438544949205
 20
7.330083251376535
 10
-18.967006395760738
 20
7.345724988567787
 10
-18.76757424657227
 20
7.36136672575904
 10
-18.568142097383802
 20
7.377008462950292
 10
-18.36870994819533
 20
7.392650200141545
 10
-18.169277799006863
 20
7.4082919373327965
 10
-17.968342169346148
 20
7.437224848225717
 10
-17.76669707212159
 20
7.4607087866770545
 10
-17.56449024504453
 20
7.478726546896176
 10
-17.361869837384443
 20
7.491264927953849
 10
-17.15898430142562
 20
7.49831474345404
 10
-16.955982283701783
 20
7.499870828264439
 10
-16.75301251608843
 20
7.495932042300748
 10
-16.55022370683262
 20
7.486501271361988
 10
-16.34776443160011
 20
7.471585425016172
 10
-16.145783024619554
 20
7.451195431537943
 10
-15.944427470003692
 20
7.425346229901823
 10
-15.743845293326972
 20
7.394056758837007
 10
-15.54418345353918
 20
7.357349942951669
 10
-15.345588235294178
 20
7.31525267593697
 10
-15.257080490191886
 20
7.498099420240179
 10
-15.166394173745937
 20
7.679875504626706
 10
-15.073542235131669
 20
7.860554973136553
 10
-14.978537932755408
 20
8.040112026396605
 10
-14.881394832361336
 20
8.218521025304328
 10
-14.78212680509438
 20
8.395756494688863
 10
-14.680748025519566
 20
8.57179312694861
 10
-14.57727296959802
 20
8.746605785664912
 10
-14.471716412619926
 20
8.920169509191352
 10
-14.364093427094758
 20
9.092459514217987
 10
-14.254419380599048
 20
9.263451199310236
 10
-14.142709933582054
 20
9.433120148421702
 10
-14.028981037129592
 20
9.60144213438056
 10
-13.91324893068634
 20
9.768393122349007
 10
-13.795530139737041
 20
9.93394927325517
 10
-13.675841473446763
 20
10.098086947197151
 10
-13.554200022260739
 20
10.26078270681857
 10
-13.430623155464005
 20
10.422013320655184
 10
-13.30512851870121
 20
10.58175576645217
 10
-13.177734031456984
 20
10.739987234451467
 10
-13.048457884497218
 20
10.89668513064879
 10
-12.917318537271557
 20
11.051827080019873
 10
-12.7843347152776
 20
11.205390929715394
 10
-12.649525407387026
 20
11.35735475222422
 10
-12.512909863134187
 20
11.507696848504446
 10
-12.374507589967454
 20
11.656395751081803
 10
-12.234338350463704
 20
11.803430227115042
 10
-12.092422159506425
 20
11.94877928142779
 10
-11.948779281427788
 20
12.092422159506427
 10
-11.80343022711504
 20
12.234338350463705
 10
-11.656395751081801
 20
12.374507589967456
 10
-11.507696848504445
 20
12.51290986313419
 10
-11.357354752224218
 20
12.64952540738703
 10
-11.205390929715392
 20
12.784334715277602
 10
-11.051827080019866
 20
12.917318537271566
 10
-10.896685130648788
 20
13.04845788449722
 10
-10.739987234451466
 20
13.177734031456986
 10
-10.581755766452169
 20
13.305128518701212
 10
-10.422013320655182
 20
13.430623155464007
 10
-10.26078270681856
 20
13.554200022260744
 10
-10.098086947197148
 20
13.675841473446765
 10
-9.933949273255168
 20
13.795530139737043
 10
-9.768393122348998
 20
13.913248930686347
 10
-9.601442134380559
 20
14.028981037129594
 10
-9.4331201484217
 20
14.142709933582054
 10
-9.263451199310234
 20
14.25441938059905
 10
-9.092459514217985
 20
14.364093427094758
 10
-8.920169509191343
 20
14.471716412619932
 10
-8.746605785664908
 20
14.577272969598022
 10
-8.571793126948606
 20
14.680748025519566
 10
-8.39575649468886
 20
14.78212680509438
 10
-8.218521025304327
 20
14.881394832361337
 10
-8.040112026396601
 20
14.97853793275541
 10
-7.8605549731365505
 20
15.07354223513167
 10
-7.679875504626702
 20
15.166394173745937
 10
-7.498099420240177
 20
15.257080490191889
 10
-7.315252675936821
 20
15.345588235294182
 10
-7.3573499429516644
 20
15.54418345353918
 10
-7.394056758837004
 20
15.743845293326972
 10
-7.42534622990182
 20
15.944427470003689
 10
-7.451195431537939
 20
16.14578302461955
 10
-7.471585425016168
 20
16.347764431600105
 10
-7.486501271361983
 20
16.550223706832618
 10
-7.495932042300744
 20
16.753012516088422
 10
-7.499870828264435
 20
16.955982283701776
 10
-7.498314743454037
 20
17.158984301425612
 10
-7.4912649279538455
 20
17.361869837384436
 10
-7.478726546896173
 20
17.56449024504452
 10
-7.460708786677053
 20
17.76669707212158
 10
-7.437224848225714
 20
17.968342169346137
 10
-7.408291937332766
 20
18.16927779900685
 10
-7.392464637568172
 20
18.371075871005782
 10
-7.376637337803551
 20
18.572873943004705
 10
-7.360810038038929
 20
18.77467201500363
 10
-7.344982738274307
 20
18.976470087002557
 10
-7.3291554385096855
 20
19.178268159001483
 10
-7.313328138745064
 20
19.380066231000413
 10
-7.297500838980442
 20
19.581864302999335
 10
-7.281673539215821
 20
19.78366237499826
 10
-7.265846239451199
 20
19.985460446997187
 10
-7.250018939686577
 20
20.187258518996114
 10
-7.2341916399219555
 20
20.389056590995043
 10
-7.218364340157334
 20
20.590854662993966
 10
-7.202537040392713
 20
20.792652734992892
 10
-7.186709740628091
 20
20.994450806991818
 10
-7.170882440863469
 20
21.196248878990744
 10
-7.155055141098847
 20
21.39804695098967
 10
-7.139227841334225
 20
21.599845022988596
 10
-7.1234005415696044
 20
21.801643094987522
 10
-7.107573241804983
 20
22.00344116698645
 10
-7.091745942040361
 20
22.205239238985374
 10
-7.075918642275739
 20
22.4070373109843
 10
-7.060091342511117
 20
22.608835382983226
 10
-7.044264042746495
 20
22.810633454982153
 10
-7.028436742981874
 20
23.012431526981075
 10
-7.0126094432172525
 20
23.214229598980005
 10
-6.996782143452631
 20
23.41602767097893
 10
-6.980954843688009
 20
23.617825742977857
 10
-6.965127543923387
 20
23.819623814976783
 10
-6.949300244158766
 20
24.021421886975705
 10
-6.933472944394144
 20
24.223219958974635
 10
-6.9176456446295225
 20
24.42501803097356
 10
-6.901818344864901
 20
24.626816102972487
 10
-6.885991045100279
 20
24.828614174971413
 10
-6.870163745335657
 20
25.030412246970336
 10
-6.854336445571036
 20
25.232210318969262
 10
-6.838509145806414
 20
25.43400839096819
 10
-6.822681846041792
 20
25.635806462967114
 10
-6.806854546277171
 20
25.837604534966044
 10
-6.791027246512549
 20
26.039402606964966
 10
-6.775199946747928
 20
26.241200678963892
 10
-6.759372646983306
 20
26.442998750962822
 10
-6.743545347218684
 20
26.644796822961744
 10
-6.727718047454062
 20
26.84659489496067
 10
-6.7118907476894405
 20
27.048392966959597
 10
-6.696063447924819
 20
27.250191038958523
 10
-6.680236148160197
 20
27.451989110957452
 10
-6.664408848395576
 20
27.653787182956375
 10
-6.648581548630954
 20
27.8555852549553
 10
-6.632754248866332
 20
28.057383326954227
 10
-6.61692694910171
 20
28.259181398953153
 10
-6.601099649337089
 20
28.46097947095208
 10
-6.585272349572468
 20
28.662777542951005
 10
-6.569445049807846
 20
28.86457561494993
 10
-6.553617750043224
 20
29.066373686948857
 10
-6.537790450278602
 20
29.268171758947783
 10
-6.52196315051398
 20
29.46996983094671
 10
-6.5061358507493585
 20
29.671767902945636
 10
-6.436068090020305
 20
29.478608309581354
 10
-6.335302773683444
 20
29.299537176715734
 10
-6.206562668911736
 20
29.139393163322747
 10
-6.053326446182663
 20
29.002503501017774
 10
-5.879734682552875
 20
28.892567068466303
 10
-5.690477979636719
 20
28.812554444440156
 10
-5.490670219439087
 20
28.764627640175217
 10
-5.2857103827811
 20
28.750081679932748
 10
-5.081136664105867
 20
28.769309608308696
 10
-4.882476824610152
 20
28.82179186982419
 10
-4.695098827291504
 20
28.906110347769992
 10
-4.524065789882802
 20
29.01998668296303
 10
-4.373999174973058
 20
29.160343837008607
 10
-4.248953914037338
 20
29.323389236574993
 10
-4.152308839633978
 20
29.504717252049197
 10
-4.086675386387157
 20
29.699428241510862
 10
-4.053827027734308
 20
29.90226094335171
 10
-4.05465135511931
 20
30.107734640175916
 10
-4.0891260944936585
 20
30.310297252588263
 10
-4.156319708180784
 20
30.504475361246037
 10
-4.254416565840605
 20
30.685022103447363
 10
-4.380766004392799
 20
30.847058947960544
 10
-4.531953951256664
 20
30.98620751721418
 10
-4.703895175584832
 20
31.098707894896986
 10
-4.891943674781662
 20
31.181520222192287
 10
-5.091018213565801
 20
31.232406837427792
 10
-5.295739623401422
 20
31.24999273965541
 10
-5.500576152347151
 20
31.23380274238211
 10
-5.6999929378423495
 20
31.184274313525478
 10
-5.888601563545063
 20
31.102745754647145
 10
-6.061305659064774
 20
30.99142003887149
 10
-6.213438608357555
 20
30.853305284620816
 10
-6.34088964578207
 20
30.692133473618835
 10
-6.440214932590486
 20
30.512259609473233
 10
-6.424544683713831
 20
30.712055282648613
 10
-6.408874434837325
 20
30.91185095582406
 10
-6.39320418596082
 20
31.11164662899951
 10
-6.377533937084314
 20
31.311442302174953
 10
-6.361863688207809
 20
31.5112379753504
 10
-6.346193439331302
 20
31.71103364852585
 10
-6.330523190454797
 20
31.910829321701296
 10
-6.314852941578291
 20
32.110624994876744
 10
-6.299182692701786
 20
32.31042066805219
 10
-6.28351244382528
 20
32.51021634122764
 10
-6.267842194948774
 20
32.710012014403084
 10
-6.252171946072269
 20
32.90980768757853
 10
-6.236501697195763
 20
33.10960336075398
 10
-6.220831448319257
 20
33.30939903392943
 10
-6.205161199442752
 20
33.509194707104875
 10
-6.189490950566246
 20
33.70899038028032
 10
-6.17382070168974
 20
33.90878605345577
 10
-6.158150452813235
 20
34.108581726631215
 10
-6.142480203936729
 20
34.308377399806666
 10
-6.126809955060223
 20
34.50817307298211
 10
-6.111139706183717
 20
34.707968746157555
 10
-6.095469457307212
 20
34.907764419333006
 10
-6.079799208430706
 20
35.10756009250845
 10
-6.064128959554201
 20
35.3073557656839
 10
-6.048458710677695
 20
35.507151438859346
 10
-6.032788461801189
 20
35.7069471120348
 10
-6.017118212924683
 20
35.90674278521024
 10
-6.001447964048178
 20
36.106538458385685
 10
-5.985777715171672
 20
36.30633413156114
 10
-5.9701074662951665
 20
36.50612980473658
 10
-5.95443721741866
 20
36.70592547791203
 10
-5.938766968542155
 20
36.90572115108748
 10
-5.923096719665649
 20
37.10551682426292
 10
-5.907426470789144
 20
37.30531249743837
 10
-5.891756221912638
 20
37.505108170613816
 10
-5.876085973036132
 20
37.70490384378927
 10
-5.860415724159626
 20
37.90469951696471
 10
-5.844745475283121
 20
38.10449519014016
 10
-5.829075226406615
 20
38.30429086331561
 10
-5.8134049775301095
 20
38.50408653649106
 10
-5.797734728653603
 20
38.7038822096665
 10
-5.782064479777098
 20
38.90367788284195
 10
-5.766394230900592
 20
39.1034735560174
 10
-5.750723982024087
 20
39.30326922919284
 10
-5.735053733147581
 20
39.503064902368294
 10
-5.719383484271075
 20
39.70286057554374
 10
-5.703713235394569
 20
39.90265624871918
 10
-5.688042986518064
 20
40.102451921894634
 10
-5.672372737641558
 20
40.30224759507008
 10
-5.6567024887650525
 20
40.50204326824553
 10
-5.641032239888546
 20
40.701838941420974
 10
-5.625361991012041
 20
40.901634614596425
 10
-5.609691742135535
 20
41.10143028777187
 10
-5.59402149325903
 20
41.30122596094731
 10
-5.578351244382524
 20
41.501021634122765
 10
-5.562680995506018
 20
41.70081730729821
 10
-5.547010746629512
 20
41.90061298047366
 10
-5.531340497753007
 20
42.100408653649104
 10
-5.515670248876501
 20
42.300204326824556
 10
-5.499999999999996
 20
42.5
 10
-5.496330666036312
 20
42.70087112681713
 10
-5.485327560149529
 20
42.901474230634996
 10
-5.467005363819697
 20
43.10154164607831
 10
-5.441388524413101
 20
43.30080642254253
 10
-5.408511222562059
 20
43.4990026803869
 10
-5.368417326557594
 20
43.695865965698566
 10
-5.3211603338158335
 20
43.891133603154245
 10
-5.266803299496227
 20
44.08454504650881
 10
-5.205418752366846
 20
44.27584222624296
 10
-5.137088598029009
 20
44.46476989390624
 10
-5.061904009630372
 20
44.65107596269586
 10
-4.979965306212301
 20
44.83451184381698
 10
-4.891381818853848
 20
45.01483277817552
 10
-4.7962717447909355
 20
45.19179816296097
 10
-4.6947619897054
 20
45.36517187268362
 10
-4.586987998394323
 20
45.534722574237456
 10
-4.4730935740456035
 20
45.700224035568745
 10
-4.353230686360892
 20
45.861455427538175
 10
-4.22755926878192
 20
46.018201618573904
 10
-4.096247005090796
 20
46.17025346172232
 10
-3.959469105668971
 20
46.31740807371349
 10
-3.8174080737134797
 20
46.45946910566898
 10
-3.670253461722309
 20
46.5962470050908
 10
-3.5182016185738956
 20
46.72755926878193
 10
-3.3614554275381656
 20
46.853230686360895
 10
-3.200224035568734
 20
46.973093574045606
 10
-3.034722574237445
 20
47.08698799839433
 10
-2.865171872683611
 20
47.194761989705405
 10
-2.6917981629609637
 20
47.29627174479094
 10
-2.514832778175504
 20
47.39138181885386
 10
-2.3345118438169767
 20
47.47996530621231
 10
-2.151075962695852
 20
47.561904009630375
 10
-1.9647698939062246
 20
47.63708859802902
 10
-1.7758422262429463
 20
47.70541875236685
 10
-1.584545046508799
 20
47.76680329949623
 10
-1.3911336031542378
 20
47.82116033381584
 10
-1.1958659656985573
 20
47.8684173265576
 10
-0.9990026803868934
 20
47.90851122256206
 10
-0.8008064225425202
 20
47.94138852441311
 10
-0.6015416460783027
 20
47.9670053638197
 10
-0.4014742306349864
 20
47.985327560149535
 10
-0.20087112681711644
 20
47.996330666036314
 10
6.887093715053946e-15
 20
48.0
 10
0.20087112681713024
 20
47.996330666036314
 10
0.4014742306349977
 20
47.985327560149535
 10
0.6015416460783152
 20
47.9670053638197
 10
0.8008064225425338
 20
47.94138852441311
 10
0.9990026803869072
 20
47.90851122256206
 10
1.19586596569857
 20
47.8684173265576
 10
1.3911336031542514
 20
47.82116033381584
 10
1.5845450465088127
 20
47.76680329949623
 10
1.775842226242961
 20
47.70541875236685
 10
1.964769893906236
 20
47.63708859802902
 10
2.1510759626958644
 20
47.561904009630375
 10
2.334511843816989
 20
47.47996530621231
 10
2.5148327781755175
 20
47.39138181885385
 10
2.6917981629609757
 20
47.29627174479094
 10
2.865171872683623
 20
47.194761989705405
 10
3.0347225742374584
 20
47.08698799839433
 10
3.2002240355687466
 20
46.973093574045606
 10
3.3614554275381767
 20
46.853230686360895
 10
3.518201618573908
 20
46.727559268781924
 10
3.6702534617223224
 20
46.5962470050908
 10
3.817408073713492
 20
46.45946910566897
 10
3.959469105668983
 20
46.31740807371349
 10
4.096247005090805
 20
46.17025346172232
 10
4.227559268781931
 20
46.0182016185739
 10
4.353230686360903
 20
45.86145542753817
 10
4.473093574045614
 20
45.70022403556874
 10
4.586987998394333
 20
45.53472257423745
 10
4.69476198970541
 20
45.36517187268362
 10
4.796271744790947
 20
45.19179816296097
 10
4.8913818188538585
 20
45.01483277817551
 10
4.979965306212311
 20
44.83451184381698
 10
5.061904009630381
 20
44.651075962695856
 10
5.137088598029019
 20
44.46476989390623
 10
5.205418752366856
 20
44.27584222624295
 10
5.266803299496237
 20
44.08454504650881
 10
5.321160333815843
 20
43.891133603154245
 10
5.368417326557604
 20
43.695865965698566
 10
5.408511222562068
 20
43.4990026803869
 10
5.441388524413111
 20
43.30080642254253
 10
5.467005363819707
 20
43.10154164607831
 10
5.485327560149538
 20
42.90147423063499
 10
5.496330666036321
 20
42.70087112681712
 10
5.500000000000004
 20
42.5
 10
5.515641737191256
 20
42.30056785081154
 10
5.531283474382509
 20
42.10113570162307
 10
5.546925211573761
 20
41.901703552434604
 10
5.562566948765014
 20
41.70227140324613
 10
5.578208685956266
 20
41.50283925405766
 10
5.593850423147519
 20
41.303407104869194
 10
5.609492160338771
 20
41.10397495568073
 10
5.625133897530024
 20
40.90454280649226
 10
5.640775634721276
 20
40.70511065730379
 10
5.656417371912528
 20
40.505678508115324
 10
5.672059109103781
 20
40.30624635892685
 10
5.687700846295033
 20
40.10681420973838
 10
5.703342583486285
 20
39.907382060549914
 10
5.718984320677538
 20
39.707949911361446
 10
5.73462605786879
 20
39.50851776217298
 10
5.750267795060043
 20
39.30908561298451
 10
5.765909532251295
 20
39.10965346379604
 10
5.781551269442548
 20
38.910221314607575
 10
5.797193006633799
 20
38.71078916541911
 10
5.812834743825052
 20
38.51135701623064
 10
5.828476481016304
 20
38.311924867042165
 10
5.844118218207557
 20
38.1124927178537
 10
5.859759955398809
 20
37.91306056866523
 10
5.875401692590062
 20
37.71362841947676
 10
5.891043429781314
 20
37.514196270288295
 10
5.906685166972567
 20
37.31476412109983
 10
5.9223269041638185
 20
37.11533197191136
 10
5.937968641355071
 20
36.91589982272289
 10
5.9536103785463235
 20
36.716467673534424
 10
5.969252115737576
 20
36.51703552434596
 10
5.9848938529288285
 20
36.31760337515748
 10
6.000535590120081
 20
36.11817122596902
 10
6.0161773273113335
 20
35.91873907678055
 10
6.031819064502586
 20
35.71930692759208
 10
6.047460801693838
 20
35.51987477840361
 10
6.063102538885091
 20
35.320442629215144
 10
6.078744276076343
 20
35.121010480026676
 10
6.094386013267595
 20
34.9215783308382
 10
6.110027750458848
 20
34.72214618164974
 10
6.1256694876501
 20
34.52271403246127
 10
6.141311224841353
 20
34.323281883272806
 10
6.156952962032605
 20
34.12384973408434
 10
6.172594699223858
 20
33.92441758489586
 10
6.188236436415109
 20
33.724985435707396
 10
6.203878173606362
 20
33.52555328651893
 10
6.219519910797614
 20
33.32612113733046
 10
6.235161647988867
 20
33.126688988141986
 10
6.250803385180119
 20
32.927256838953525
 10
6.266445122371372
 20
32.72782468976506
 10
6.282086859562624
 20
32.52839254057658
 10
6.297728596753877
 20
32.328960391388115
 10
6.313370333945128
 20
32.129528242199655
 10
6.329012071136381
 20
31.930096093011183
 10
6.344653808327633
 20
31.730663943822712
 10
6.360295545518886
 20
31.531231794634245
 10
6.375937282710138
 20
31.331799645445777
 10
6.391579019901391
 20
31.13236749625731
 10
6.407220757092643
 20
30.932935347068838
 10
6.422862494283896
 20
30.73350319788037
 10
6.438504231475148
 20
30.534071048691903
 10
6.454145968666401
 20
30.334638899503435
 10
6.4697877058576525
 20
30.135206750314968
 10
6.485429443048905
 20
29.935774601126496
 10
6.5010711802401575
 20
29.73634245193803
 10
6.51671291743141
 20
29.53691030274956
 10
6.5323546546226625
 20
29.337478153561094
 10
6.547996391813915
 20
29.138046004372622
 10
6.5636381290051675
 20
28.93861385518416
 10
6.57927986619642
 20
28.739181705995687
 10
6.594921603387672
 20
28.53974955680722
 10
6.610563340578924
 20
28.340317407618752
 10
6.626205077770177
 20
28.140885258430284
 10
6.641846814961429
 20
27.941453109241813
 10
6.657488552152682
 20
27.742020960053345
 10
6.673130289343934
 20
27.542588810864878
 10
6.688772026535187
 20
27.34315666167641
 10
6.704413763726439
 20
27.143724512487942
 10
6.720055500917692
 20
26.94429236329947
 10
6.735697238108943
 20
26.744860214111004
 10
6.751338975300196
 20
26.545428064922536
 10
6.766980712491448
 20
26.34599591573407
 10
6.782622449682701
 20
26.1465637665456
 10
6.798264186873953
 20
25.947131617357133
 10
6.813905924065206
 20
25.747699468168662
 10
6.829547661256458
 20
25.548267318980194
 10
6.845189398447711
 20
25.348835169791723
 10
6.860831135638962
 20
25.14940302060326
 10
6.876472872830215
 20
24.949970871414788
 10
6.892114610021467
 20
24.75053872222632
 10
6.90775634721272
 20
24.551106573037853
 10
6.923398084403972
 20
24.351674423849385
 10
6.939039821595225
 20
24.152242274660917
 10
6.954681558786477
 20
23.952810125472446
 10
6.97032329597773
 20
23.75337797628398
 10
6.985965033168982
 20
23.55394582709551
 10
7.001606770360234
 20
23.354513677907043
 10
7.0172485075514865
 20
23.155081528718572
 10
7.032890244742739
 20
22.955649379530104
 10
7.0485319819339916
 20
22.756217230341637
 10
7.064173719125244
 20
22.55678508115317
 10
7.079815456316497
 20
22.357352931964698
 10
7.095457193507749
 20
22.15792078277623
 10
7.111098930699002
 20
21.958488633587763
 10
7.126740667890254
 20
21.759056484399295
 10
7.142382405081506
 20
21.559624335210827
 10
7.158024142272758
 20
21.360192186022356
 10
7.173665879464011
 20
21.160760036833892
 10
7.189307616655263
 20
20.96132788764542
 10
7.204949353846516
 20
20.761895738456953
 10
7.220591091037768
 20
20.562463589268486
 10
7.236232828229021
 20
20.363031440080018
 10
7.251874565420273
 20
20.163599290891547
 10
7.267516302611526
 20
19.96416714170308
 10
7.283158039802777
 20
19.76473499251461
 10
7.29879977699403
 20
19.565302843326144
 10
7.314441514185282
 20
19.365870694137673
 10
7.330083251376535
 20
19.166438544949205
 10
7.345724988567787
 20
18.967006395760738
 10
7.36136672575904
 20
18.76757424657227
 10
7.377008462950292
 20
18.568142097383802
 10
7.392650200141545
 20
18.368709948195335
 10
7.4082919373327965
 20
18.169277799006863
 10
7.437224848225717
 20
17.968342169346148
 10
7.4607087866770545
 20
17.76669707212159
 10
7.478726546896176
 20
17.56449024504453
 10
7.491264927953849
 20
17.361869837384443
 10
7.49831474345404
 20
17.15898430142562
 10
7.499870828264439
 20
16.955982283701783
 10
7.495932042300748
 20
16.75301251608843
 10
7.486501271361988
 20
16.55022370683262
 10
7.471585425016173
 20
16.34776443160011
 10
7.451195431537944
 20
16.145783024619554
 10
7.425346229901823
 20
15.944427470003692
 10
7.394056758837008
 20
15.743845293326974
 10
7.357349942951668
 20
15.54418345353918
 10
7.3152526759369705
 20
15.345588235294178
 10
7.498099420240182
 20
15.257080490191884
 10
7.679875504626705
 20
15.166394173745937
 10
7.860554973136552
 20
15.073542235131669
 10
8.040112026396601
 20
14.97853793275541
 10
8.218521025304327
 20
14.881394832361337
 10
8.395756494688865
 20
14.782126805094379
 10
8.571793126948604
 20
14.680748025519568
 10
8.74660578566491
 20
14.57727296959802
 10
8.920169509191346
 20
14.471716412619928
 10
9.092459514217987
 20
14.364093427094758
 10
9.263451199310236
 20
14.254419380599048
 10
9.433120148421699
 20
14.142709933582056
 10
9.60144213438056
 20
14.028981037129592
 10
9.768393122349
 20
13.913248930686347
 10
9.933949273255166
 20
13.795530139737043
 10
10.098086947197148
 20
13.675841473446766
 10
10.260782706818564
 20
13.554200022260742
 10
10.42201332065518
 20
13.430623155464009
 10
10.58175576645217
 20
13.305128518701212
 10
10.739987234451462
 20
13.177734031456987
 10
10.896685130648786
 20
13.04845788449722
 10
11.051827080019866
 20
12.917318537271562
 10
11.20539092971539
 20
12.784334715277604
 10
11.357354752224216
 20
12.64952540738703
 10
11.50769684850444
 20
12.512909863134194
 10
11.6563957510818
 20
12.374507589967457
 10
11.80343022711504
 20
12.234338350463705
 10
11.94877928142778
 20
12.09242215950643
 10
12.092422159506423
 20
11.94877928142779
 10
12.2343383504637
 20
11.803430227115046
 10
12.374507589967454
 20
11.656395751081805
 10
12.512909863134185
 20
11.507696848504446
 10
12.649525407387024
 20
11.357354752224223
 10
12.784334715277598
 20
11.205390929715396
 10
12.917318537271557
 20
11.051827080019873
 10
13.048457884497214
 20
10.896685130648793
 10
13.177734031456982
 20
10.739987234451469
 10
13.305128518701204
 20
10.581755766452176
 10
13.430623155464001
 20
10.42201332065519
 10
13.554200022260737
 20
10.26078270681857
 10
13.675841473446761
 20
10.098086947197155
 10
13.79553013973704
 20
9.933949273255173
 10
13.91324893068634
 20
9.76839312234901
 10
14.028981037129588
 20
9.601442134380566
 10
14.142709933582053
 20
9.433120148421706
 10
14.254419380599044
 20
9.263451199310241
 10
14.364093427094753
 20
9.092459514217992
 10
14.471716412619926
 20
8.920169509191352
 10
14.577272969598017
 20
8.746605785664919
 10
14.680748025519561
 20
8.571793126948613
 10
14.782126805094375
 20
8.39575649468887
 10
14.881394832361332
 20
8.218521025304334
 10
14.978537932755408
 20
8.040112026396606
 10
15.073542235131665
 20
7.860554973136562
 10
15.166394173745934
 20
7.679875504626711
 10
15.25708049019188
 20
7.498099420240189
 10
15.345588235294176
 20
7.315252675936831
 10
15.544183453539175
 20
7.357349942951666
 10
15.743845293326968
 20
7.394056758837005
 10
15.944427470003687
 20
7.425346229901821
 10
16.145783024619547
 20
7.45119543153794
 10
16.3477644316001
 20
7.471585425016171
 10
16.550223706832615
 20
7.486501271361984
 10
16.75301251608842
 20
7.495932042300746
 10
16.955982283701772
 20
7.499870828264437
 10
17.158984301425612
 20
7.4983147434540385
 10
17.361869837384436
 20
7.491264927953847
 10
17.564490245044517
 20
7.4787265468961746
 10
17.76669707212158
 20
7.4607087866770545
 10
17.968342169346137
 20
7.437224848225716
 10
18.16927779900685
 20
7.408291937332768
 10
18.37107587100577
 20
7.392464637568175
 10
18.572873943004687
 20
7.376637337803554
 10
18.774672015003603
 20
7.360810038038933
 10
18.97647008700252
 20
7.344982738274312
 10
19.178268159001437
 20
7.329155438509691
 10
19.380066231000356
 20
7.31332813874507
 10
19.581864302999268
 20
7.29750083898045
 10
19.783662374998183
 20
7.281673539215829
 10
19.985460446997102
 20
7.265846239451208
 10
20.187258518996018
 20
7.250018939686587
 10
20.389056590994937
 20
7.234191639921966
 10
20.590854662993852
 20
7.218364340157345
 10
20.79265273499277
 20
7.202537040392724
 10
20.99445080699169
 20
7.186709740628103
 10
21.196248878990602
 20
7.170882440863482
 10
21.398046950989517
 20
7.155055141098861
 10
21.599845022988433
 20
7.1392278413342405
 10
21.80164309498735
 20
7.1234005415696195
 10
22.00344116698627
 20
7.107573241804999
 10
22.205239238985182
 20
7.091745942040378
 10
22.4070373109841
 20
7.075918642275757
 10
22.608835382983017
 20
7.060091342511136
 10
22.810633454981932
 20
7.044264042746515
 10
23.01243152698085
 20
7.028436742981894
 10
23.214229598979767
 20
7.012609443217273
 10
23.416027670978686
 20
6.996782143452652
 10
23.617825742977598
 20
6.980954843688031
 10
23.819623814976516
 20
6.96512754392341
 10
24.021421886975435
 20
6.949300244158789
 10
24.223219958974347
 20
6.933472944394169
 10
24.425018030973266
 20
6.917645644629548
 10
24.62681610297218
 20
6.901818344864926
 10
24.8286141749711
 20
6.8859910451003055
 10
25.030412246970016
 20
6.870163745335685
 10
25.23221031896893
 20
6.8543364455710645
 10
25.43400839096785
 20
6.8385091458064435
 10
25.635806462966762
 20
6.822681846041823
 10
25.83760453496568
 20
6.806854546277202
 10
26.0394026069646
 20
6.791027246512581
 10
26.241200678963516
 20
6.77519994674796
 10
26.44299875096243
 20
6.759372646983339
 10
26.644796822961347
 20
6.743545347218718
 10
26.846594894960266
 20
6.727718047454097
 10
27.04839296695918
 20
6.711890747689476
 10
27.250191038958096
 20
6.696063447924855
 10
27.451989110957015
 20
6.680236148160234
 10
27.65378718295593
 20
6.664408848395613
 10
27.855585254954846
 20
6.648581548630992
 10
28.057383326953765
 20
6.632754248866371
 10
28.25918139895268
 20
6.61692694910175
 10
28.460979470951596
 20
6.6010996493371294
 10
28.66277754295051
 20
6.5852723495725085
 10
28.86457561494943
 20
6.569445049807888
 10
29.066373686948346
 20
6.553617750043267
 10
29.26817175894726
 20
6.537790450278646
 10
29.46996983094618
 20
6.521963150514025
 10
29.671767902945096
 20
6.506135850749405
 10
29.478608309580917
 20
6.436068090020107
 10
29.29953717671536
 20
6.3353027736831935
 10
29.139393163322442
 20
6.206562668911448
 10
29.00250350101754
 20
6.053326446182353
 10
28.892567068466136
 20
5.879734682552557
 10
28.812554444440053
 20
5.690477979636406
 10
28.76462764017517
 20
5.490670219438791
 10
28.75008167993275
 20
5.285710382780832
 10
28.76930960830874
 20
5.081136664105632
 10
28.82179186982426
 20
4.882476824609955
 10
28.906110347770078
 20
4.695098827291347
 10
29.019986682963125
 20
4.524065789882686
 10
29.1603438370087
 20
4.373999174972978
 10
29.323389236575068
 20
4.24895391403729
 10
29.504717252049254
 20
4.152308839633956
 10
29.699428241510894
 20
4.086675386387152
 10
29.902260943351713
 20
4.05382702773431
 10
30.107734640175888
 20
4.05465135511931
 10
30.310297252588207
 20
4.089126094493646
 10
30.504475361245955
 20
4.15631970818075
 10
30.685022103447263
 20
4.254416565840542
 10
30.847058947960438
 20
4.380766004392702
 10
30.98620751721407
 20
4.531953951256527
 10
31.098707894896886
 20
4.703895175584653
 10
31.18152022219221
 20
4.89194367478144
 10
31.232406837427746
 20
5.091018213565539
 10
31.249992739655408
 20
5.295739623401127
 10
31.23380274238216
 20
5.500576152346831
 10
31.184274313525595
 20
5.699992937842012
 10
31.10274575464733
 20
5.888601563544723
 10
30.991420038871745
 20
6.061305659064446
 10
30.853305284621143
 20
6.213438608357251
 10
30.69213347361923
 20
6.340889645781808
 10
30.512259609473695
 20
6.44021493259028
 10
30.71205528264914
 20
6.424544683713793
 10
30.91185095582458
 20
6.408874434837288
 10
31.111646629000017
 20
6.393204185960783
 10
31.311442302175454
 20
6.377533937084278
 10
31.511237975350895
 20
6.361863688207773
 10
31.71103364852633
 20
6.346193439331268
 10
31.91082932170177
 20
6.330523190454763
 10
32.110624994877206
 20
6.314852941578258
 10
32.31042066805265
 20
6.299182692701753
 10
32.51021634122809
 20
6.2835124438252485
 10
32.710012014403524
 20
6.267842194948743
 10
32.90980768757896
 20
6.252171946072238
 10
33.1096033607544
 20
6.236501697195734
 10
33.309399033929836
 20
6.220831448319228
 10
33.50919470710527
 20
6.205161199442723
 10
33.70899038028072
 20
6.189490950566219
 10
33.908786053456154
 20
6.1738207016897135
 10
34.10858172663159
 20
6.158150452813208
 10
34.30837739980703
 20
6.142480203936704
 10
34.508173072982466
 20
6.126809955060199
 10
34.7079687461579
 20
6.111139706183693
 10
34.90776441933335
 20
6.095469457307189
 10
35.107560092508784
 20
6.079799208430684
 10
35.30735576568422
 20
6.0641289595541785
 10
35.50715143885966
 20
6.048458710677674
 10
35.706947112035095
 20
6.032788461801169
 10
35.90674278521053
 20
6.017118212924664
 10
36.10653845838598
 20
6.001447964048159
 10
36.306334131561414
 20
5.985777715171654
 10
36.50612980473685
 20
5.970107466295149
 10
36.70592547791229
 20
5.954437217418644
 10
36.905721151087725
 20
5.938766968542139
 10
37.10551682426316
 20
5.923096719665634
 10
37.30531249743861
 20
5.9074264707891295
 10
37.505108170614044
 20
5.891756221912624
 10
37.70490384378948
 20
5.876085973036119
 10
37.90469951696492
 20
5.860415724159614
 10
38.104495190140355
 20
5.844745475283109
 10
38.30429086331579
 20
5.829075226406604
 10
38.504086536491236
 20
5.813404977530099
 10
38.70388220966667
 20
5.7977347286535945
 10
38.90367788284211
 20
5.782064479777089
 10
39.10347355601755
 20
5.766394230900584
 10
39.303269229192985
 20
5.75072398202408
 10
39.50306490236842
 20
5.735053733147574
 10
39.702860575543866
 20
5.719383484271069
 10
39.9026562487193
 20
5.703713235394565
 10
40.10245192189474
 20
5.6880429865180595
 10
40.30224759507018
 20
5.672372737641554
 10
40.502043268245615
 20
5.65670248876505
 10
40.70183894142105
 20
5.641032239888545
 10
40.901634614596496
 20
5.625361991012039
 10
41.10143028777193
 20
5.609691742135535
 10
41.30122596094737
 20
5.59402149325903
 10
41.50102163412281
 20
5.5783512443825245
 10
41.700817307298244
 20
5.56268099550602
 10
41.90061298047368
 20
5.547010746629515
 10
42.100408653649126
 20
5.53134049775301
 10
42.30020432682456
 20
5.515670248876505
 10
42.5
 20
5.5
 10
42.70087112681713
 20
5.496330666036316
 10
42.901474230634996
 20
5.485327560149534
 10
43.10154164607831
 20
5.467005363819702
 10
43.30080642254253
 20
5.441388524413106
 10
43.4990026803869
 20
5.408511222562064
 10
43.695865965698566
 20
5.368417326557599
 10
43.891133603154245
 20
5.321160333815838
 10
44.08454504650881
 20
5.266803299496232
 10
44.27584222624296
 20
5.2054187523668505
 10
44.46476989390624
 20
5.137088598029013
 10
44.651075962695856
 20
5.061904009630377
 10
44.83451184381698
 20
4.979965306212305
 10
45.01483277817552
 20
4.891381818853852
 10
45.19179816296097
 20
4.79627174479094
 10
45.36517187268362
 20
4.6947619897054045
 10
45.534722574237456
 20
4.586987998394328
 10
45.700224035568745
 20
4.473093574045608
 10
45.861455427538175
 20
4.353230686360896
 10
46.018201618573904
 20
4.227559268781924
 10
46.17025346172232
 20
4.096247005090801
 10
46.31740807371349
 20
3.959469105668976
 10
46.45946910566898
 20
3.817408073713485
 10
46.5962470050908
 20
3.6702534617223144
 10
46.72755926878193
 20
3.518201618573901
 10
46.853230686360895
 20
3.361455427538171
 10
46.973093574045606
 20
3.2002240355687395
 10
47.08698799839433
 20
3.0347225742374504
 10
47.194761989705405
 20
2.865171872683616
 10
47.29627174479094
 20
2.691798162960969
 10
47.39138181885386
 20
2.5148327781755095
 10
47.47996530621231
 20
2.334511843816982
 10
47.561904009630375
 20
2.1510759626958573
 10
47.63708859802902
 20
1.96476989390623
 10
47.70541875236685
 20
1.7758422262429516
 10
47.76680329949623
 20
1.5845450465088042
 10
47.82116033381584
 20
1.3911336031542432
 10
47.8684173265576
 20
1.1958659656985626
 10
47.90851122256206
 20
0.9990026803868988
 10
47.94138852441311
 20
0.8008064225425254
 10
47.9670053638197
 20
0.6015416460783081
 10
47.985327560149535
 20
0.4014742306349917
 10
47.996330666036314
 20
0.20087112681712177
 10
48.0
 20
-1.5580231968531944e-15
 10
47.996330666036314
 20
-0.2008711268171249
 10
47.985327560149535
 20
-0.4014742306349924
 10
47.9670053638197
 20
-0.6015416460783098
 10
47.94138852441311
 20
-0.8008064225425284
 10
47.90851122256206
 20
-0.9990026803869019
 10
47.8684173265576
 20
-1.1958659656985646
 10
47.82116033381584
 20
-1.391133603154246
 10
47.76680329949623
 20
-1.5845450465088073
 10
47.70541875236685
 20
-1.7758422262429556
 10
47.63708859802902
 20
-1.9647698939062306
 10
47.561904009630375
 20
-2.151075962695859
 10
47.47996530621231
 20
-2.334511843816984
 10
47.39138181885385
 20
-2.514832778175512
 10
47.29627174479094
 20
-2.6917981629609704
 10
47.194761989705405
 20
-2.8651718726836175
 10
47.08698799839433
 20
-3.034722574237453
 10
46.973093574045606
 20
-3.2002240355687412
 10
46.853230686360895
 20
-3.3614554275381714
 10
46.727559268781924
 20
-3.5182016185739027
 10
46.5962470050908
 20
-3.670253461722317
 10
46.45946910566897
 20
-3.817408073713487
 10
46.31740807371349
 20
-3.9594691056689775
 10
46.17025346172232
 20
-4.096247005090801
 10
46.018201618573904
 20
-4.227559268781927
 10
45.86145542753817
 20
-4.353230686360899
 10
45.70022403556874
 20
-4.47309357404561
 10
45.53472257423745
 20
-4.586987998394329
 10
45.36517187268362
 20
-4.694761989705405
 10
45.19179816296097
 20
-4.796271744790943
 10
45.01483277817551
 20
-4.891381818853854
 10
44.83451184381698
 20
-4.979965306212306
 10
44.651075962695856
 20
-5.061904009630377
 10
44.46476989390623
 20
-5.137088598029014
 10
44.27584222624295
 20
-5.205418752366851
 10
44.08454504650881
 20
-5.266803299496233
 10
43.891133603154245
 20
-5.321160333815839
 10
43.695865965698566
 20
-5.3684173265576
 10
43.4990026803869
 20
-5.408511222562064
 10
43.30080642254253
 20
-5.441388524413107
 10
43.10154164607831
 20
-5.467005363819703
 10
42.90147423063499
 20
-5.485327560149534
 10
42.70087112681713
 20
-5.496330666036316
 10
42.5
 20
-5.5
 10
42.30056785081153
 20
-5.5156417371912525
 10
42.101135701623065
 20
-5.531283474382505
 10
41.9017035524346
 20
-5.546925211573757
 10
41.70227140324613
 20
-5.562566948765009
 10
41.50283925405766
 20
-5.578208685956262
 10
41.30340710486919
 20
-5.593850423147514
 10
41.10397495568073
 20
-5.609492160338767
 10
40.90454280649226
 20
-5.625133897530019
 10
40.705110657303784
 20
-5.640775634721272
 10
40.50567850811532
 20
-5.656417371912524
 10
40.30624635892685
 20
-5.672059109103777
 10
40.10681420973838
 20
-5.687700846295029
 10
39.907382060549914
 20
-5.703342583486282
 10
39.707949911361446
 20
-5.718984320677533
 10
39.50851776217298
 20
-5.734626057868786
 10
39.30908561298451
 20
-5.750267795060038
 10
39.10965346379604
 20
-5.765909532251291
 10
38.91022131460757
 20
-5.781551269442543
 10
38.7107891654191
 20
-5.797193006633796
 10
38.51135701623063
 20
-5.812834743825048
 10
38.311924867042165
 20
-5.828476481016301
 10
38.1124927178537
 20
-5.844118218207553
 10
37.91306056866523
 20
-5.859759955398806
 10
37.71362841947676
 20
-5.875401692590058
 10
37.514196270288295
 20
-5.89104342978131
 10
37.31476412109982
 20
-5.906685166972563
 10
37.11533197191136
 20
-5.922326904163815
 10
36.915899822722885
 20
-5.937968641355067
 10
36.716467673534424
 20
-5.95361037854632
 10
36.51703552434596
 20
-5.969252115737572
 10
36.31760337515748
 20
-5.984893852928825
 10
36.118171225969014
 20
-6.000535590120077
 10
35.91873907678055
 20
-6.01617732731133
 10
35.71930692759208
 20
-6.031819064502582
 10
35.51987477840361
 20
-6.047460801693834
 10
35.32044262921514
 20
-6.063102538885087
 10
35.121010480026676
 20
-6.078744276076339
 10
34.9215783308382
 20
-6.0943860132675916
 10
34.72214618164974
 20
-6.110027750458844
 10
34.522714032461266
 20
-6.125669487650097
 10
34.3232818832728
 20
-6.141311224841349
 10
34.12384973408433
 20
-6.156952962032602
 10
33.92441758489586
 20
-6.172594699223854
 10
33.724985435707396
 20
-6.188236436415107
 10
33.52555328651893
 20
-6.203878173606359
 10
33.32612113733046
 20
-6.219519910797611
 10
33.126688988141986
 20
-6.235161647988864
 10
32.927256838953525
 20
-6.250803385180116
 10
32.72782468976505
 20
-6.266445122371368
 10
32.52839254057658
 20
-6.282086859562621
 10
32.328960391388115
 20
-6.297728596753873
 10
32.12952824219965
 20
-6.313370333945126
 10
31.93009609301118
 20
-6.329012071136378
 10
31.730663943822712
 20
-6.344653808327631
 10
31.531231794634245
 20
-6.360295545518882
 10
31.331799645445777
 20
-6.375937282710135
 10
31.132367496257306
 20
-6.391579019901387
 10
30.932935347068838
 20
-6.40722075709264
 10
30.73350319788037
 20
-6.422862494283892
 10
30.534071048691903
 20
-6.438504231475145
 10
30.33463889950343
 20
-6.454145968666397
 10
30.135206750314964
 20
-6.46978770585765
 10
29.935774601126496
 20
-6.485429443048902
 10
29.73634245193803
 20
-6.501071180240155
 10
29.53691030274956
 20
-6.516712917431407
 10
29.33747815356109
 20
-6.53235465462266
 10
29.138046004372622
 20
-6.547996391813912
 10
28.938613855184155
 20
-6.563638129005164
 10
28.739181705995687
 20
-6.5792798661964165
 10
28.539749556807216
 20
-6.594921603387669
 10
28.340317407618752
 20
-6.6105633405789215
 10
28.14088525843028
 20
-6.626205077770174
 10
27.941453109241813
 20
-6.6418468149614265
 10
27.742020960053345
 20
-6.657488552152679
 10
27.542588810864878
 20
-6.6731302893439315
 10
27.34315666167641
 20
-6.688772026535184
 10
27.14372451248794
 20
-6.704413763726436
 10
26.94429236329947
 20
-6.720055500917688
 10
26.744860214111004
 20
-6.735697238108941
 10
26.545428064922532
 20
-6.751338975300193
 10
26.345995915734065
 20
-6.766980712491446
 10
26.1465637665456
 20
-6.782622449682698
 10
25.94713161735713
 20
-6.798264186873951
 10
25.747699468168662
 20
-6.813905924065203
 10
25.54826731898019
 20
-6.829547661256456
 10
25.348835169791723
 20
-6.845189398447708
 10
25.149403020603255
 20
-6.860831135638961
 10
24.949970871414788
 20
-6.876472872830213
 10
24.75053872222632
 20
-6.892114610021465
 10
24.551106573037853
 20
-6.907756347212717
 10
24.35167442384938
 20
-6.92339808440397
 10
24.152242274660914
 20
-6.939039821595222
 10
23.952810125472446
 20
-6.954681558786475
 10
23.75337797628398
 20
-6.970323295977727
 10
23.55394582709551
 20
-6.98596503316898
 10
23.35451367790704
 20
-7.001606770360232
 10
23.155081528718572
 20
-7.017248507551485
 10
22.955649379530104
 20
-7.032890244742737
 10
22.756217230341637
 20
-7.048531981933989
 10
22.556785081153166
 20
-7.064173719125241
 10
22.357352931964698
 20
-7.079815456316494
 10
22.15792078277623
 20
-7.095457193507746
 10
21.958488633587763
 20
-7.111098930698999
 10
21.759056484399295
 20
-7.126740667890251
 10
21.559624335210827
 20
-7.142382405081504
 10
21.360192186022356
 20
-7.158024142272756
 10
21.16076003683389
 20
-7.173665879464009
 10
20.96132788764542
 20
-7.189307616655261
 10
20.761895738456953
 20
-7.204949353846514
 10
20.562463589268486
 20
-7.2205910910377655
 10
20.363031440080015
 20
-7.236232828229018
 10
20.163599290891547
 20
-7.2518745654202705
 10
19.96416714170308
 20
-7.267516302611523
 10
19.76473499251461
 20
-7.2831580398027755
 10
19.565302843326144
 20
-7.298799776994028
 10
19.365870694137673
 20
-7.3144415141852805
 10
19.166438544949205
 20
-7.330083251376533
 10
18.967006395760738
 20
-7.3457249885677856
 10
18.76757424657227
 20
-7.361366725759038
 10
18.568142097383802
 20
-7.37700846295029
 10
18.36870994819533
 20
-7.392650200141542
 10
18.169277799006863
 20
-7.408291937332795
  0
CIRCLE
  5
39
330
17
100
AcDbEntity
  8
NPTH
100
AcDbCircle
 10
0.0
 20
0.0
 30
0.0
 40
11.6
  0
CIRCLE
  5
3A
330
17
100
AcDbEntity
  8
NPTH
100
AcDbCircle
 10
30.0
 20
5.3
 30
0.0
 40
1.25
  0
CIRCLE
  5
3B
330
17
100
AcDbEntity
  8
NPTH
100
AcDbCircle
 10
-5.299999999999998
 20
30.0
 30
0.0
 40
1.25
  0
CIRCLE
  5
3C
330
17
100
AcDbEntity
  8
NPTH
100
AcDbCircle
 10
-30.0
 20
-5.299999999999996
 30
0.0
 40
1.25
  0
CIRCLE
  5
3D
330
17
100
AcDbEntity
  8
NPTH
100
AcDbCircle
 10
5.2999999999999945
 20
-30.0
 30
0.0
 40
1.25
  0
LWPOLYLINE
  5
3E
330
17
100
AcDbEntity
  8
LED_TOP
100
AcDbPolyline
 90
4
 70
1
 10
14.05
 20
-0.75
 10
15.55
 20
-0.75
 10
15.55
 20
0.75
 10
14.05
 20
0.75
  0
TEXT
  5
3F
330
17
100
AcDbEntity
  8
NOTES
100
AcDbText
 10
14.8
 20
0.0
 30
0.0
 40
0.65
  1
D1_01
100
AcDbText
  0
LWPOLYLINE
  5
40
330
17
100
AcDbEntity
  8
LED_TOP
100
AcDbPolyline
 90
4
 70
1
 10
15.650000000000002
 20
-0.75
 10
17.150000000000002
 20
-0.75
 10
17.150000000000002
 20
0.75
 10
15.650000000000002
 20
0.75
  0
TEXT
  5
41
330
17
100
AcDbEntity
  8
NOTES
100
AcDbText
 10
16.400000000000002
 20
0.0
 30
0.0
 40
0.65
  1
D1_02
100
AcDbText
  0
LWPOLYLINE
  5
42
330
17
100
AcDbEntity
  8
LED_TOP
100
AcDbPolyline
 90
4
 70
1
 10
17.25
 20
-0.75
 10
18.75
 20
-0.75
 10
18.75
 20
0.75
 10
17.25
 20
0.75
  0
TEXT
  5
43
330
17
100
AcDbEntity
  8
NOTES
100
AcDbText
 10
18.0
 20
0.0
 30
0.0
 40
0.65
  1
D1_03
100
AcDbText
  0
LWPOLYLINE
  5
44
330
17
100
AcDbEntity
  8
LED_TOP
100
AcDbPolyline
 90
4
 70
1
 10
18.85
 20
-0.75
 10
20.35
 20
-0.75
 10
20.35
 20
0.75
 10
18.85
 20
0.75
  0
TEXT
  5
45
330
17
100
AcDbEntity
  8
NOTES
100
AcDbText
 10
19.6
 20
0.0
 30
0.0
 40
0.65
  1
D1_04
100
AcDbText
  0
LWPOLYLINE
  5
46
330
17
100
AcDbEntity
  8
LED_TOP
100
AcDbPolyline
 90
4
 70
1
 10
20.450000000000003
 20
-0.75
 10
21.950000000000003
 20
-0.75
 10
21.950000000000003
 20
0.75
 10
20.450000000000003
 20
0.75
  0
TEXT
  5
47
330
17
100
AcDbEntity
  8
NOTES
100
AcDbText
 10
21.200000000000003
 20
0.0
 30
0.0
 40
0.65
  1
D1_05
100
AcDbText
  0
LWPOLYLINE
  5
48
330
17
100
AcDbEntity
  8
LED_TOP
100
AcDbPolyline
 90
4
 70
1
 10
22.05
 20
-0.75
 10
23.55
 20
-0.75
 10
23.55
 20
0.75
 10
22.05
 20
0.75
  0
TEXT
  5
49
330
17
100
AcDbEntity
  8
NOTES
100
AcDbText
 10
22.8
 20
0.0
 30
0.0
 40
0.65
  1
D1_06
100
AcDbText
  0
LWPOLYLINE
  5
4A
330
17
100
AcDbEntity
  8
LED_TOP
100
AcDbPolyline
 90
4
 70
1
 10
23.650000000000002
 20
-0.75
 10
25.150000000000002
 20
-0.75
 10
25.150000000000002
 20
0.75
 10
23.650000000000002
 20
0.75
  0
TEXT
  5
4B
330
17
100
AcDbEntity
  8
NOTES
100
AcDbText
 10
24.400000000000002
 20
0.0
 30
0.0
 40
0.65
  1
D1_07
100
AcDbText
  0
LWPOLYLINE
  5
4C
330
17
100
AcDbEntity
  8
LED_TOP
100
AcDbPolyline
 90
4
 70
1
 10
25.25
 20
-0.75
 10
26.75
 20
-0.75
 10
26.75
 20
0.75
 10
25.25
 20
0.75
  0
TEXT
  5
4D
330
17
100
AcDbEntity
  8
NOTES
100
AcDbText
 10
26.0
 20
0.0
 30
0.0
 40
0.65
  1
D1_08
100
AcDbText
  0
LWPOLYLINE
  5
4E
330
17
100
AcDbEntity
  8
LED_TOP
100
AcDbPolyline
 90
4
 70
1
 10
26.85
 20
-0.75
 10
28.35
 20
-0.75
 10
28.35
 20
0.75
 10
26.85
 20
0.75
  0
TEXT
  5
4F
330
17
100
AcDbEntity
  8
NOTES
100
AcDbText
 10
27.6
 20
0.0
 30
0.0
 40
0.65
  1
D1_09
100
AcDbText
  0
LWPOLYLINE
  5
50
330
17
100
AcDbEntity
  8
LED_TOP
100
AcDbPolyline
 90
4
 70
1
 10
28.450000000000003
 20
-0.75
 10
29.950000000000003
 20
-0.75
 10
29.950000000000003
 20
0.75
 10
28.450000000000003
 20
0.75
  0
TEXT
  5
51
330
17
100
AcDbEntity
  8
NOTES
100
AcDbText
 10
29.200000000000003
 20
0.0
 30
0.0
 40
0.65
  1
D1_10
100
AcDbText
  0
LWPOLYLINE
  5
52
330
17
100
AcDbEntity
  8
LED_TOP
100
AcDbPolyline
 90
4
 70
1
 10
30.05
 20
-0.75
 10
31.55
 20
-0.75
 10
31.55
 20
0.75
 10
30.05
 20
0.75
  0
TEXT
  5
53
330
17
100
AcDbEntity
  8
NOTES
100
AcDbText
 10
30.8
 20
0.0
 30
0.0
 40
0.65
  1
D1_11
100
AcDbText
  0
LWPOLYLINE
  5
54
330
17
100
AcDbEntity
  8
LED_TOP
100
AcDbPolyline
 90
4
 70
1
 10
31.650000000000006
 20
-0.75
 10
33.150000000000006
 20
-0.75
 10
33.150000000000006
 20
0.75
 10
31.650000000000006
 20
0.75
  0
TEXT
  5
55
330
17
100
AcDbEntity
  8
NOTES
100
AcDbText
 10
32.400000000000006
 20
0.0
 30
0.0
 40
0.65
  1
D1_12
100
AcDbText
  0
LWPOLYLINE
  5
56
330
17
100
AcDbEntity
  8
LED_TOP
100
AcDbPolyline
 90
4
 70
1
 10
33.25
 20
-0.75
 10
34.75
 20
-0.75
 10
34.75
 20
0.75
 10
33.25
 20
0.75
  0
TEXT
  5
57
330
17
100
AcDbEntity
  8
NOTES
100
AcDbText
 10
34.0
 20
0.0
 30
0.0
 40
0.65
  1
D1_13
100
AcDbText
  0
LWPOLYLINE
  5
58
330
17
100
AcDbEntity
  8
LED_TOP
100
AcDbPolyline
 90
4
 70
1
 10
34.85
 20
-0.75
 10
36.35
 20
-0.75
 10
36.35
 20
0.75
 10
34.85
 20
0.75
  0
TEXT
  5
59
330
17
100
AcDbEntity
  8
NOTES
100
AcDbText
 10
35.6
 20
0.0
 30
0.0
 40
0.65
  1
D1_14
100
AcDbText
  0
LWPOLYLINE
  5
5A
330
17
100
AcDbEntity
  8
LED_TOP
100
AcDbPolyline
 90
4
 70
1
 10
36.45
 20
-0.75
 10
37.95
 20
-0.75
 10
37.95
 20
0.75
 10
36.45
 20
0.75
  0
TEXT
  5
5B
330
17
100
AcDbEntity
  8
NOTES
100
AcDbText
 10
37.2
 20
0.0
 30
0.0
 40
0.65
  1
D1_15
100
AcDbText
  0
LWPOLYLINE
  5
5C
330
17
100
AcDbEntity
  8
LED_TOP
100
AcDbPolyline
 90
4
 70
1
 10
38.05
 20
-0.75
 10
39.55
 20
-0.75
 10
39.55
 20
0.75
 10
38.05
 20
0.75
  0
TEXT
  5
5D
330
17
100
AcDbEntity
  8
NOTES
100
AcDbText
 10
38.8
 20
0.0
 30
0.0
 40
0.65
  1
D1_16
100
AcDbText
  0
LWPOLYLINE
  5
5E
330
17
100
AcDbEntity
  8
LED_TOP
100
AcDbPolyline
 90
4
 70
1
 10
39.650000000000006
 20
-0.75
 10
41.150000000000006
 20
-0.75
 10
41.150000000000006
 20
0.75
 10
39.650000000000006
 20
0.75
  0
TEXT
  5
5F
330
17
100
AcDbEntity
  8
NOTES
100
AcDbText
 10
40.400000000000006
 20
0.0
 30
0.0
 40
0.65
  1
D1_17
100
AcDbText
  0
LWPOLYLINE
  5
60
330
17
100
AcDbEntity
  8
LED_TOP
100
AcDbPolyline
 90
4
 70
1
 10
41.25
 20
-0.75
 10
42.75
 20
-0.75
 10
42.75
 20
0.75
 10
41.25
 20
0.75
  0
TEXT
  5
61
330
17
100
AcDbEntity
  8
NOTES
100
AcDbText
 10
42.0
 20
0.0
 30
0.0
 40
0.65
  1
D1_18
100
AcDbText
  0
LWPOLYLINE
  5
62
330
17
100
AcDbEntity
  8
LED_TOP
100
AcDbPolyline
 90
4
 70
1
 10
42.85
 20
-0.75
 10
44.35
 20
-0.75
 10
44.35
 20
0.75
 10
42.85
 20
0.75
  0
TEXT
  5
63
330
17
100
AcDbEntity
  8
NOTES
100
AcDbText
 10
43.6
 20
0.0
 30
0.0
 40
0.65
  1
D1_19
100
AcDbText
  0
LWPOLYLINE
  5
64
330
17
100
AcDbEntity
  8
LED_TOP
100
AcDbPolyline
 90
4
 70
1
 10
44.45
 20
-0.75
 10
45.95
 20
-0.75
 10
45.95
 20
0.75
 10
44.45
 20
0.75
  0
TEXT
  5
65
330
17
100
AcDbEntity
  8
NOTES
100
AcDbText
 10
45.2
 20
0.0
 30
0.0
 40
0.65
  1
D1_20
100
AcDbText
  0
LWPOLYLINE
  5
66
330
17
100
AcDbEntity
  8
LED_TOP
100
AcDbPolyline
 90
4
 70
1
 10
0.7500000000000009
 20
14.05
 10
0.750000000000001
 20
15.55
 10
-0.749999999999999
 20
15.55
 10
-0.7499999999999991
 20
14.05
  0
TEXT
  5
67
330
17
100
AcDbEntity
  8
NOTES
100
AcDbText
 10
9.062386313690414e-16
 20
14.8
 30
0.0
 40
0.65
  1
D2_01
100
AcDbText
  0
LWPOLYLINE
  5
68
330
17
100
AcDbEntity
  8
LED_TOP
100
AcDbPolyline
 90
4
 70
1
 10
0.750000000000001
 20
15.650000000000002
 10
0.750000000000001
 20
17.150000000000002
 10
-0.749999999999999
 20
17.150000000000002
 10
-0.749999999999999
 20
15.650000000000002
  0
TEXT
  5
69
330
17
100
AcDbEntity
  8
NOTES
100
AcDbText
 10
1.0042103753008297e-15
 20
16.400000000000002
 30
0.0
 40
0.65
  1
D2_02
100
AcDbText
  0
LWPOLYLINE
  5
6A
330
17
100
AcDbEntity
  8
LED_TOP
100
AcDbPolyline
 90
4
 70
1
 10
0.7500000000000011
 20
17.25
 10
0.7500000000000011
 20
18.75
 10
-0.7499999999999989
 20
18.75
 10
-0.7499999999999989
 20
17.25
  0
TEXT
  5
6B
330
17
100
AcDbEntity
  8
NOTES
100
AcDbText
 10
1.102182119232618e-15
 20
18.0
 30
0.0
 40
0.65
  1
D2_03
100
AcDbText
  0
LWPOLYLINE
  5
6C
330
17
100
AcDbEntity
  8
LED_TOP
100
AcDbPolyline
 90
4
 70
1
 10
0.7500000000000011
 20
18.85
 10
0.7500000000000012
 20
20.35
 10
-0.7499999999999988
 20
20.35
 10
-0.7499999999999989
 20
18.85
  0
TEXT
  5
6D
330
17
100
AcDbEntity
  8
NOTES
100
AcDbText
 10
1.2001538631644061e-15
 20
19.6
 30
0.0
 40
0.65
  1
D2_04
100
AcDbText
  0
LWPOLYLINE
  5
6E
330
17
100
AcDbEntity
  8
LED_TOP
100
AcDbPolyline
 90
4
 70
1
 10
0.7500000000000012
 20
20.450000000000003
 10
0.7500000000000013
 20
21.950000000000003
 10
-0.7499999999999987
 20
21.950000000000003
 10
-0.7499999999999988
 20
20.450000000000003
  0
TEXT
  5
6F
330
17
100
AcDbEntity
  8
NOTES
100
AcDbText
 10
1.2981256070961946e-15
 20
21.200000000000003
 30
0.0
 40
0.65
  1
D2_05
100
AcDbText
  0
LWPOLYLINE
  5
70
330
17
100
AcDbEntity
  8
LED_TOP
100
AcDbPolyline
 90
4
 70
1
 10
0.7500000000000013
 20
22.05
 10
0.7500000000000014
 20
23.55
 10
-0.7499999999999986
 20
23.55
 10
-0.7499999999999987
 20
22.05
  0
TEXT
  5
71
330
17
100
AcDbEntity
  8
NOTES
100
AcDbText
 10
1.3960973510279826e-15
 20
22.8
 30
0.0
 40
0.65
  1
D2_06
100
AcDbText
  0
LWPOLYLINE
  5
72
330
17
100
AcDbEntity
  8
LED_TOP
100
AcDbPolyline
 90
4
 70
1
 10
0.7500000000000014
 20
23.650000000000002
 10
0.7500000000000016
 20
25.150000000000002
 10
-0.7499999999999984
 20
25.150000000000002
 10
-0.7499999999999986
 20
23.650000000000002
  0
TEXT
  5
73
330
17
100
AcDbEntity
  8
NOTES
100
AcDbText
 10
1.494069094959771e-15
 20
24.400000000000002
 30
0.0
 40
0.65
  1
D2_07
100
AcDbText
  0
LWPOLYLINE
  5
74
330
17
100
AcDbEntity
  8
LED_TOP
100
AcDbPolyline
 90
4
 70
1
 10
0.7500000000000016
 20
25.25
 10
0.7500000000000017
 20
26.75
 10
-0.7499999999999983
 20
26.75
 10
-0.7499999999999984
 20
25.25
  0
TEXT
  5
75
330
17
100
AcDbEntity
  8
NOTES
100
AcDbText
 10
1.592040838891559e-15
 20
26.0
 30
0.0
 40
0.65
  1
D2_08
100
AcDbText
  0
LWPOLYLINE
  5
76
330
17
100
AcDbEntity
  8
LED_TOP
100
AcDbPolyline
 90
4
 70
1
 10
0.7500000000000017
 20
26.85
 10
0.7500000000000018
 20
28.35
 10
-0.7499999999999982
 20
28.35
 10
-0.7499999999999983
 20
26.85
  0
TEXT
  5
77
330
17
100
AcDbEntity
  8
NOTES
100
AcDbText
 10
1.6900125828233475e-15
 20
27.6
 30
0.0
 40
0.65
  1
D2_09
100
AcDbText
  0
LWPOLYLINE
  5
78
330
17
100
AcDbEntity
  8
LED_TOP
100
AcDbPolyline
 90
4
 70
1
 10
0.7500000000000018
 20
28.450000000000003
 10
0.7500000000000019
 20
29.950000000000003
 10
-0.7499999999999981
 20
29.950000000000003
 10
-0.7499999999999982
 20
28.450000000000003
  0
TEXT
  5
79
330
17
100
AcDbEntity
  8
NOTES
100
AcDbText
 10
1.7879843267551358e-15
 20
29.200000000000003
 30
0.0
 40
0.65
  1
D2_10
100
AcDbText
  0
LWPOLYLINE
  5
7A
330
17
100
AcDbEntity
  8
LED_TOP
100
AcDbPolyline
 90
4
 70
1
 10
0.7500000000000019
 20
30.05
 10
0.7500000000000019
 20
31.55
 10
-0.7499999999999981
 20
31.55
 10
-0.7499999999999981
 20
30.05
  0
TEXT
  5
7B
330
17
100
AcDbEntity
  8
NOTES
100
AcDbText
 10
1.885956070686924e-15
 20
30.8
 30
0.0
 40
0.65
  1
D2_11
100
AcDbText
  0
LWPOLYLINE
  5
7C
330
17
100
AcDbEntity
  8
LED_TOP
100
AcDbPolyline
 90
4
 70
1
 10
0.7500000000000019
 20
31.650000000000006
 10
0.750000000000002
 20
33.150000000000006
 10
-0.749999999999998
 20
33.150000000000006
 10
-0.7499999999999981
 20
31.650000000000006
  0
TEXT
  5
7D
330
17
100
AcDbEntity
  8
NOTES
100
AcDbText
 10
1.9839278146187126e-15
 20
32.400000000000006
 30
0.0
 40
0.65
  1
D2_12
100
AcDbText
  0
LWPOLYLINE
  5
7E
330
17
100
AcDbEntity
  8
LED_TOP
100
AcDbPolyline
 90
4
 70
1
 10
0.750000000000002
 20
33.25
 10
0.7500000000000021
 20
34.75
 10
-0.7499999999999979
 20
34.75
 10
-0.749999999999998
 20
33.25
  0
TEXT
  5
7F
330
17
100
AcDbEntity
  8
NOTES
100
AcDbText
 10
2.0818995585505003e-15
 20
34.0
 30
0.0
 40
0.65
  1
D2_13
100
AcDbText
  0
LWPOLYLINE
  5
80
330
17
100
AcDbEntity
  8
LED_TOP
100
AcDbPolyline
 90
4
 70
1
 10
0.7500000000000021
 20
34.85
 10
0.7500000000000022
 20
36.35
 10
-0.7499999999999978
 20
36.35
 10
-0.7499999999999979
 20
34.85
  0
TEXT
  5
81
330
17
100
AcDbEntity
  8
NOTES
100
AcDbText
 10
2.1798713024822887e-15
 20
35.6
 30
0.0
 40
0.65
  1
D2_14
100
AcDbText
  0
LWPOLYLINE
  5
82
330
17
100
AcDbEntity
  8
LED_TOP
100
AcDbPolyline
 90
4
 70
1
 10
0.7500000000000022
 20
36.45
 10
0.7500000000000023
 20
37.95
 10
-0.7499999999999977
 20
37.95
 10
-0.7499999999999978
 20
36.45
  0
TEXT
  5
83
330
17
100
AcDbEntity
  8
NOTES
100
AcDbText
 10
2.277843046414077e-15
 20
37.2
 30
0.0
 40
0.65
  1
D2_15
100
AcDbText
  0
LWPOLYLINE
  5
84
330
17
100
AcDbEntity
  8
LED_TOP
100
AcDbPolyline
 90
4
 70
1
 10
0.7500000000000023
 20
38.05
 10
0.7500000000000024
 20
39.55
 10
-0.7499999999999976
 20
39.55
 10
-0.7499999999999977
 20
38.05
  0
TEXT
  5
85
330
17
100
AcDbEntity
  8
NOTES
100
AcDbText
 10
2.375814790345865e-15
 20
38.8
 30
0.0
 40
0.65
  1
D2_16
100
AcDbText
  0
LWPOLYLINE
  5
86
330
17
100
AcDbEntity
  8
LED_TOP
100
AcDbPolyline
 90
4
 70
1
 10
0.7500000000000024
 20
39.650000000000006
 10
0.7500000000000026
 20
41.150000000000006
 10
-0.7499999999999974
 20
41.150000000000006
 10
-0.7499999999999976
 20
39.650000000000006
  0
TEXT
  5
87
330
17
100
AcDbEntity
  8
NOTES
100
AcDbText
 10
2.473786534277654e-15
 20
40.400000000000006
 30
0.0
 40
0.65
  1
D2_17
100
AcDbText
  0
LWPOLYLINE
  5
88
330
17
100
AcDbEntity
  8
LED_TOP
100
AcDbPolyline
 90
4
 70
1
 10
0.7500000000000026
 20
41.25
 10
0.7500000000000027
 20
42.75
 10
-0.7499999999999973
 20
42.75
 10
-0.7499999999999974
 20
41.25
  0
TEXT
  5
89
330
17
100
AcDbEntity
  8
NOTES
100
AcDbText
 10
2.5717582782094417e-15
 20
42.0
 30
0.0
 40
0.65
  1
D2_18
100
AcDbText
  0
LWPOLYLINE
  5
8A
330
17
100
AcDbEntity
  8
LED_TOP
100
AcDbPolyline
 90
4
 70
1
 10
0.7500000000000027
 20
42.85
 10
0.7500000000000027
 20
44.35
 10
-0.7499999999999973
 20
44.35
 10
-0.7499999999999973
 20
42.85
  0
TEXT
  5
8B
330
17
100
AcDbEntity
  8
NOTES
100
AcDbText
 10
2.66973002214123e-15
 20
43.6
 30
0.0
 40
0.65
  1
D2_19
100
AcDbText
  0
LWPOLYLINE
  5
8C
330
17
100
AcDbEntity
  8
LED_TOP
100
AcDbPolyline
 90
4
 70
1
 10
0.7500000000000028
 20
44.45
 10
0.7500000000000028
 20
45.95
 10
-0.7499999999999972
 20
45.95
 10
-0.7499999999999972
 20
44.45
  0
TEXT
  5
8D
330
17
100
AcDbEntity
  8
NOTES
100
AcDbText
 10
2.7677017660730185e-15
 20
45.2
 30
0.0
 40
0.65
  1
D2_20
100
AcDbText
  0
LWPOLYLINE
  5
8E
330
17
100
AcDbEntity
  8
LED_TOP
100
AcDbPolyline
 90
4
 70
1
 10
-14.05
 20
0.7500000000000017
 10
-15.55
 20
0.7500000000000019
 10
-15.55
 20
-0.7499999999999981
 10
-14.05
 20
-0.7499999999999983
  0
TEXT
  5
8F
330
17
100
AcDbEntity
  8
NOTES
100
AcDbText
 10
-14.8
 20
1.812477262738083e-15
 30
0.0
 40
0.65
  1
D3_01
100
AcDbText
  0
LWPOLYLINE
  5
90
330
17
100
AcDbEntity
  8
LED_TOP
100
AcDbPolyline
 90
4
 70
1
 10
-15.650000000000002
 20
0.7500000000000019
 10
-17.150000000000002
 20
0.7500000000000021
 10
-17.150000000000002
 20
-0.7499999999999979
 10
-15.650000000000002
 20
-0.7499999999999981
  0
TEXT
  5
91
330
17
100
AcDbEntity
  8
NOTES
100
AcDbText
 10
-16.400000000000002
 20
2.0084207506016593e-15
 30
0.0
 40
0.65
  1
D3_02
100
AcDbText
  0
LWPOLYLINE
  5
92
330
17
100
AcDbEntity
  8
LED_TOP
100
AcDbPolyline
 90
4
 70
1
 10
-17.25
 20
0.7500000000000021
 10
-18.75
 20
0.7500000000000023
 10
-18.75
 20
-0.7499999999999977
 10
-17.25
 20
-0.7499999999999979
  0
TEXT
  5
93
330
17
100
AcDbEntity
  8
NOTES
100
AcDbText
 10
-18.0
 20
2.204364238465236e-15
 30
0.0
 40
0.65
  1
D3_03
100
AcDbText
  0
LWPOLYLINE
  5
94
330
17
100
AcDbEntity
  8
LED_TOP
100
AcDbPolyline
 90
4
 70
1
 10
-18.85
 20
0.7500000000000023
 10
-20.35
 20
0.7500000000000024
 10
-20.35
 20
-0.7499999999999976
 10
-18.85
 20
-0.7499999999999977
  0
TEXT
  5
95
330
17
100
AcDbEntity
  8
NOTES
100
AcDbText
 10
-19.6
 20
2.4003077263288123e-15
 30
0.0
 40
0.65
  1
D3_04
100
AcDbText
  0
LWPOLYLINE
  5
96
330
17
100
AcDbEntity
  8
LED_TOP
100
AcDbPolyline
 90
4
 70
1
 10
-20.450000000000003
 20
0.7500000000000026
 10
-21.950000000000003
 20
0.7500000000000027
 10
-21.950000000000003
 20
-0.7499999999999973
 10
-20.450000000000003
 20
-0.7499999999999974
  0
TEXT
  5
97
330
17
100
AcDbEntity
  8
NOTES
100
AcDbText
 10
-21.200000000000003
 20
2.596251214192389e-15
 30
0.0
 40
0.65
  1
D3_05
100
AcDbText
  0
LWPOLYLINE
  5
98
330
17
100
AcDbEntity
  8
LED_TOP
100
AcDbPolyline
 90
4
 70
1
 10
-22.05
 20
0.7500000000000027
 10
-23.55
 20
0.7500000000000029
 10
-23.55
 20
-0.7499999999999971
 10
-22.05
 20
-0.7499999999999973
  0
TEXT
  5
99
330
17
100
AcDbEntity
  8
NOTES
100
AcDbText
 10
-22.8
 20
2.7921947020559652e-15
 30
0.0
 40
0.65
  1
D3_06
100
AcDbText
  0
LWPOLYLINE
  5
9A
330
17
100
AcDbEntity
  8
LED_TOP
100
AcDbPolyline
 90
4
 70
1
 10
-23.650000000000002
 20
0.7500000000000029
 10
-25.150000000000002
 20
0.7500000000000031
 10
-25.150000000000002
 20
-0.7499999999999969
 10
-23.650000000000002
 20
-0.7499999999999971
  0
TEXT
  5
9B
330
17
100
AcDbEntity
  8
NOTES
100
AcDbText
 10
-24.400000000000002
 20
2.988138189919542e-15
 30
0.0
 40
0.65
  1
D3_07
100
AcDbText
  0
LWPOLYLINE
  5
9C
330
17
100
AcDbEntity
  8
LED_TOP
100
AcDbPolyline
 90
4
 70
1
 10
-25.25
 20
0.7500000000000031
 10
-26.75
 20
0.7500000000000033
 10
-26.75
 20
-0.7499999999999967
 10
-25.25
 20
-0.7499999999999969
  0
TEXT
  5
9D
330
17
100
AcDbEntity
  8
NOTES
100
AcDbText
 10
-26.0
 20
3.184081677783118e-15
 30
0.0
 40
0.65
  1
D3_08
100
AcDbText
  0
LWPOLYLINE
  5
9E
330
17
100
AcDbEntity
  8
LED_TOP
100
AcDbPolyline
 90
4
 70
1
 10
-26.85
 20
0.7500000000000033
 10
-28.35
 20
0.7500000000000034
 10
-28.35
 20
-0.7499999999999966
 10
-26.85
 20
-0.7499999999999967
  0
TEXT
  5
9F
330
17
100
AcDbEntity
  8
NOTES
100
AcDbText
 10
-27.6
 20
3.380025165646695e-15
 30
0.0
 40
0.65
  1
D3_09
100
AcDbText
  0
LWPOLYLINE
  5
A0
330
17
100
AcDbEntity
  8
LED_TOP
100
AcDbPolyline
 90
4
 70
1
 10
-28.450000000000003
 20
0.7500000000000034
 10
-29.950000000000003
 20
0.7500000000000037
 10
-29.950000000000003
 20
-0.7499999999999963
 10
-28.450000000000003
 20
-0.7499999999999966
  0
TEXT
  5
A1
330
17
100
AcDbEntity
  8
NOTES
100
AcDbText
 10
-29.200000000000003
 20
3.5759686535102715e-15
 30
0.0
 40
0.65
  1
D3_10
100
AcDbText
  0
LWPOLYLINE
  5
A2
330
17
100
AcDbEntity
  8
LED_TOP
100
AcDbPolyline
 90
4
 70
1
 10
-30.05
 20
0.7500000000000037
 10
-31.55
 20
0.7500000000000039
 10
-31.55
 20
-0.7499999999999961
 10
-30.05
 20
-0.7499999999999963
  0
TEXT
  5
A3
330
17
100
AcDbEntity
  8
NOTES
100
AcDbText
 10
-30.8
 20
3.771912141373848e-15
 30
0.0
 40
0.65
  1
D3_11
100
AcDbText
  0
LWPOLYLINE
  5
A4
330
17
100
AcDbEntity
  8
LED_TOP
100
AcDbPolyline
 90
4
 70
1
 10
-31.650000000000006
 20
0.7500000000000039
 10
-33.150000000000006
 20
0.7500000000000041
 10
-33.150000000000006
 20
-0.7499999999999959
 10
-31.650000000000006
 20
-0.7499999999999961
  0
TEXT
  5
A5
330
17
100
AcDbEntity
  8
NOTES
100
AcDbText
 10
-32.400000000000006
 20
3.967855629237425e-15
 30
0.0
 40
0.65
  1
D3_12
100
AcDbText
  0
LWPOLYLINE
  5
A6
330
17
100
AcDbEntity
  8
LED_TOP
100
AcDbPolyline
 90
4
 70
1
 10
-33.25
 20
0.7500000000000041
 10
-34.75
 20
0.7500000000000042
 10
-34.75
 20
-0.7499999999999958
 10
-33.25
 20
-0.7499999999999959
  0
TEXT
  5
A7
330
17
100
AcDbEntity
  8
NOTES
100
AcDbText
 10
-34.0
 20
4.1637991171010006e-15
 30
0.0
 40
0.65
  1
D3_13
100
AcDbText
  0
LWPOLYLINE
  5
A8
330
17
100
AcDbEntity
  8
LED_TOP
100
AcDbPolyline
 90
4
 70
1
 10
-34.85
 20
0.7500000000000042
 10
-36.35
 20
0.7500000000000044
 10
-36.35
 20
-0.7499999999999956
 10
-34.85
 20
-0.7499999999999958
  0
TEXT
  5
A9
330
17
100
AcDbEntity
  8
NOTES
100
AcDbText
 10
-35.6
 20
4.3597426049645774e-15
 30
0.0
 40
0.65
  1
D3_14
100
AcDbText
  0
LWPOLYLINE
  5
AA
330
17
100
AcDbEntity
  8
LED_TOP
100
AcDbPolyline
 90
4
 70
1
 10
-36.45
 20
0.7500000000000044
 10
-37.95
 20
0.7500000000000047
 10
-37.95
 20
-0.7499999999999953
 10
-36.45
 20
-0.7499999999999956
  0
TEXT
  5
AB
330
17
100
AcDbEntity
  8
NOTES
100
AcDbText
 10
-37.2
 20
4.555686092828154e-15
 30
0.0
 40
0.65
  1
D3_15
100
AcDbText
  0
LWPOLYLINE
  5
AC
330
17
100
AcDbEntity
  8
LED_TOP
100
AcDbPolyline
 90
4
 70
1
 10
-38.05
 20
0.7500000000000047
 10
-39.55
 20
0.7500000000000049
 10
-39.55
 20
-0.7499999999999951
 10
-38.05
 20
-0.7499999999999953
  0
TEXT
  5
AD
330
17
100
AcDbEntity
  8
NOTES
100
AcDbText
 10
-38.8
 20
4.75162958069173e-15
 30
0.0
 40
0.65
  1
D3_16
100
AcDbText
  0
LWPOLYLINE
  5
AE
330
17
100
AcDbEntity
  8
LED_TOP
100
AcDbPolyline
 90
4
 70
1
 10
-39.650000000000006
 20
0.7500000000000049
 10
-41.150000000000006
 20
0.750000000000005
 10
-41.150000000000006
 20
-0.749999999999995
 10
-39.650000000000006
 20
-0.7499999999999951
  0
TEXT
  5
AF
330
17
100
AcDbEntity
  8
NOTES
100
AcDbText
 10
-40.400000000000006
 20
4.947573068555308e-15
 30
0.0
 40
0.65
  1
D3_17
100
AcDbText
  0
LWPOLYLINE
  5
B0
330
17
100
AcDbEntity
  8
LED_TOP
100
AcDbPolyline
 90
4
 70
1
 10
-41.25
 20
0.7500000000000051
 10
-42.75
 20
0.7500000000000052
 10
-42.75
 20
-0.7499999999999948
 10
-41.25
 20
-0.7499999999999949
  0
TEXT
  5
B1
330
17
100
AcDbEntity
  8
NOTES
100
AcDbText
 10
-42.0
 20
5.143516556418883e-15
 30
0.0
 40
0.65
  1
D3_18
100
AcDbText
  0
LWPOLYLINE
  5
B2
330
17
100
AcDbEntity
  8
LED_TOP
100
AcDbPolyline
 90
4
 70
1
 10
-42.85
 20
0.7500000000000052
 10
-44.35
 20
0.7500000000000054
 10
-44.35
 20
-0.7499999999999946
 10
-42.85
 20
-0.7499999999999948
  0
TEXT
  5
B3
330
17
100
AcDbEntity
  8
NOTES
100
AcDbText
 10
-43.6
 20
5.33946004428246e-15
 30
0.0
 40
0.65
  1
D3_19
100
AcDbText
  0
LWPOLYLINE
  5
B4
330
17
100
AcDbEntity
  8
LED_TOP
100
AcDbPolyline
 90
4
 70
1
 10
-44.45
 20
0.7500000000000054
 10
-45.95
 20
0.7500000000000057
 10
-45.95
 20
-0.7499999999999943
 10
-44.45
 20
-0.7499999999999946
  0
TEXT
  5
B5
330
17
100
AcDbEntity
  8
NOTES
100
AcDbText
 10
-45.2
 20
5.535403532146037e-15
 30
0.0
 40
0.65
  1
D3_20
100
AcDbText
  0
LWPOLYLINE
  5
B6
330
17
100
AcDbEntity
  8
LED_TOP
100
AcDbPolyline
 90
4
 70
1
 10
-0.7500000000000026
 20
-14.05
 10
-0.7500000000000029
 20
-15.55
 10
0.7499999999999971
 20
-15.55
 10
0.7499999999999974
 20
-14.05
  0
TEXT
  5
B7
330
17
100
AcDbEntity
  8
NOTES
100
AcDbText
 10
-2.718715894107124e-15
 20
-14.8
 30
0.0
 40
0.65
  1
D4_01
100
AcDbText
  0
LWPOLYLINE
  5
B8
330
17
100
AcDbEntity
  8
LED_TOP
100
AcDbPolyline
 90
4
 70
1
 10
-0.7500000000000029
 20
-15.650000000000002
 10
-0.7500000000000031
 20
-17.150000000000002
 10
0.7499999999999969
 20
-17.150000000000002
 10
0.7499999999999971
 20
-15.650000000000002
  0
TEXT
  5
B9
330
17
100
AcDbEntity
  8
NOTES
100
AcDbText
 10
-3.0126311259024892e-15
 20
-16.400000000000002
 30
0.0
 40
0.65
  1
D4_02
100
AcDbText
  0
LWPOLYLINE
  5
BA
330
17
100
AcDbEntity
  8
LED_TOP
100
AcDbPolyline
 90
4
 70
1
 10
-0.7500000000000032
 20
-17.25
 10
-0.7500000000000034
 20
-18.75
 10
0.7499999999999966
 20
-18.75
 10
0.7499999999999968
 20
-17.25
  0
TEXT
  5
BB
330
17
100
AcDbEntity
  8
NOTES
100
AcDbText
 10
-3.3065463576978533e-15
 20
-18.0
 30
0.0
 40
0.65
  1
D4_03
100
AcDbText
  0
LWPOLYLINE
  5
BC
330
17
100
AcDbEntity
  8
LED_TOP
100
AcDbPolyline
 90
4
 70
1
 10
-0.7500000000000034
 20
-18.85
 10
-0.7500000000000038
 20
-20.35
 10
0.7499999999999962
 20
-20.35
 10
0.7499999999999966
 20
-18.85
  0
TEXT
  5
BD
330
17
100
AcDbEntity
  8
NOTES
100
AcDbText
 10
-3.600461589493218e-15
 20
-19.6
 30
0.0
 40
0.65
  1
D4_04
100
AcDbText
  0
LWPOLYLINE
  5
BE
330
17
100
AcDbEntity
  8
LED_TOP
100
AcDbPolyline
 90
4
 70
1
 10
-0.7500000000000038
 20
-20.450000000000003
 10
-0.750000000000004
 20
-21.950000000000003
 10
0.749999999999996
 20
-21.950000000000003
 10
0.7499999999999962
 20
-20.450000000000003
  0
TEXT
  5
BF
330
17
100
AcDbEntity
  8
NOTES
100
AcDbText
 10
-3.8943768212885835e-15
 20
-21.200000000000003
 30
0.0
 40
0.65
  1
D4_05
100
AcDbText
  0
LWPOLYLINE
  5
C0
330
17
100
AcDbEntity
  8
LED_TOP
100
AcDbPolyline
 90
4
 70
1
 10
-0.750000000000004
 20
-22.05
 10
-0.7500000000000043
 20
-23.55
 10
0.7499999999999957
 20
-23.55
 10
0.749999999999996
 20
-22.05
  0
TEXT
  5
C1
330
17
100
AcDbEntity
  8
NOTES
100
AcDbText
 10
-4.188292053083948e-15
 20
-22.8
 30
0.0
 40
0.65
  1
D4_06
100
AcDbText
  0
LWPOLYLINE
  5
C2
330
17
100
AcDbEntity
  8
LED_TOP
100
AcDbPolyline
 90
4
 70
1
 10
-0.7500000000000043
 20
-23.650000000000002
 10
-0.7500000000000047
 20
-25.150000000000002
 10
0.7499999999999953
 20
-25.150000000000002
 10
0.7499999999999957
 20
-23.650000000000002
  0
TEXT
  5
C3
330
17
100
AcDbEntity
  8
NOTES
100
AcDbText
 10
-4.4822072848793126e-15
 20
-24.400000000000002
 30
0.0
 40
0.65
  1
D4_07
100
AcDbText
  0
LWPOLYLINE
  5
C4
330
17
100
AcDbEntity
  8
LED_TOP
100
AcDbPolyline
 90
4
 70
1
 10
-0.7500000000000047
 20
-25.25
 10
-0.7500000000000049
 20
-26.75
 10
0.7499999999999951
 20
-26.75
 10
0.7499999999999953
 20
-25.25
  0
TEXT
  5
C5
330
17
100
AcDbEntity
  8
NOTES
100
AcDbText
 10
-4.776122516674677e-15
 20
-26.0
 30
0.0
 40
0.65
  1
D4_08
100
AcDbText
  0
LWPOLYLINE
  5
C6
330
17
100
AcDbEntity
  8
LED_TOP
100
AcDbPolyline
 90
4
 70
1
 10
-0.7500000000000049
 20
-26.85
 10
-0.7500000000000052
 20
-28.35
 10
0.7499999999999948
 20
-28.35
 10
0.7499999999999951
 20
-26.85
  0
TEXT
  5
C7
330
17
100
AcDbEntity
  8
NOTES
100
AcDbText
 10
-5.070037748470042e-15
 20
-27.6
 30
0.0
 40
0.65
  1
D4_09
100
AcDbText
  0
LWPOLYLINE
  5
C8
330
17
100
AcDbEntity
  8
LED_TOP
100
AcDbPolyline
 90
4
 70
1
 10
-0.7500000000000052
 20
-28.450000000000003
 10
-0.7500000000000056
 20
-29.950000000000003
 10
0.7499999999999944
 20
-29.950000000000003
 10
0.7499999999999948
 20
-28.450000000000003
  0
TEXT
  5
C9
330
17
100
AcDbEntity
  8
NOTES
100
AcDbText
 10
-5.363952980265407e-15
 20
-29.200000000000003
 30
0.0
 40
0.65
  1
D4_10
100
AcDbText
  0
LWPOLYLINE
  5
CA
330
17
100
AcDbEntity
  8
LED_TOP
100
AcDbPolyline
 90
4
 70
1
 10
-0.7500000000000056
 20
-30.05
 10
-0.7500000000000058
 20
-31.55
 10
0.7499999999999942
 20
-31.55
 10
0.7499999999999944
 20
-30.05
  0
TEXT
  5
CB
330
17
100
AcDbEntity
  8
NOTES
100
AcDbText
 10
-5.6578682120607714e-15
 20
-30.8
 30
0.0
 40
0.65
  1
D4_11
100
AcDbText
  0
LWPOLYLINE
  5
CC
330
17
100
AcDbEntity
  8
LED_TOP
100
AcDbPolyline
 90
4
 70
1
 10
-0.7500000000000058
 20
-31.650000000000006
 10
-0.7500000000000061
 20
-33.150000000000006
 10
0.7499999999999939
 20
-33.150000000000006
 10
0.7499999999999942
 20
-31.650000000000006
  0
TEXT
  5
CD
330
17
100
AcDbEntity
  8
NOTES
100
AcDbText
 10
-5.9517834438561375e-15
 20
-32.400000000000006
 30
0.0
 40
0.65
  1
D4_12
100
AcDbText
  0
LWPOLYLINE
  5
CE
330
17
100
AcDbEntity
  8
LED_TOP
100
AcDbPolyline
 90
4
 70
1
 10
-0.7500000000000061
 20
-33.25
 10
-0.7500000000000063
 20
-34.75
 10
0.7499999999999937
 20
-34.75
 10
0.7499999999999939
 20
-33.25
  0
TEXT
  5
CF
330
17
100
AcDbEntity
  8
NOTES
100
AcDbText
 10
-6.245698675651501e-15
 20
-34.0
 30
0.0
 40
0.65
  1
D4_13
100
AcDbText
  0
LWPOLYLINE
  5
D0
330
17
100
AcDbEntity
  8
LED_TOP
100
AcDbPolyline
 90
4
 70
1
 10
-0.7500000000000064
 20
-34.85
 10
-0.7500000000000067
 20
-36.35
 10
0.7499999999999933
 20
-36.35
 10
0.7499999999999936
 20
-34.85
  0
TEXT
  5
D1
330
17
100
AcDbEntity
  8
NOTES
100
AcDbText
 10
-6.539613907446866e-15
 20
-35.6
 30
0.0
 40
0.65
  1
D4_14
100
AcDbText
  0
LWPOLYLINE
  5
D2
330
17
100
AcDbEntity
  8
LED_TOP
100
AcDbPolyline
 90
4
 70
1
 10
-0.7500000000000067
 20
-36.45
 10
-0.750000000000007
 20
-37.95
 10
0.749999999999993
 20
-37.95
 10
0.7499999999999933
 20
-36.45
  0
TEXT
  5
D3
330
17
100
AcDbEntity
  8
NOTES
100
AcDbText
 10
-6.833529139242231e-15
 20
-37.2
 30
0.0
 40
0.65
  1
D4_15
100
AcDbText
  0
LWPOLYLINE
  5
D4
330
17
100
AcDbEntity
  8
LED_TOP
100
AcDbPolyline
 90
4
 70
1
 10
-0.750000000000007
 20
-38.05
 10
-0.7500000000000072
 20
-39.55
 10
0.7499999999999928
 20
-39.55
 10
0.749999999999993
 20
-38.05
  0
TEXT
  5
D5
330
17
100
AcDbEntity
  8
NOTES
100
AcDbText
 10
-7.127444371037595e-15
 20
-38.8
 30
0.0
 40
0.65
  1
D4_16
100
AcDbText
  0
LWPOLYLINE
  5
D6
330
17
100
AcDbEntity
  8
LED_TOP
100
AcDbPolyline
 90
4
 70
1
 10
-0.7500000000000073
 20
-39.650000000000006
 10
-0.7500000000000075
 20
-41.150000000000006
 10
0.7499999999999925
 20
-41.150000000000006
 10
0.7499999999999927
 20
-39.650000000000006
  0
TEXT
  5
D7
330
17
100
AcDbEntity
  8
NOTES
100
AcDbText
 10
-7.421359602832962e-15
 20
-40.400000000000006
 30
0.0
 40
0.65
  1
D4_17
100
AcDbText
  0
LWPOLYLINE
  5
D8
330
17
100
AcDbEntity
  8
LED_TOP
100
AcDbPolyline
 90
4
 70
1
 10
-0.7500000000000075
 20
-41.25
 10
-0.7500000000000079
 20
-42.75
 10
0.7499999999999921
 20
-42.75
 10
0.7499999999999925
 20
-41.25
  0
TEXT
  5
D9
330
17
100
AcDbEntity
  8
NOTES
100
AcDbText
 10
-7.715274834628325e-15
 20
-42.0
 30
0.0
 40
0.65
  1
D4_18
100
AcDbText
  0
LWPOLYLINE
  5
DA
330
17
100
AcDbEntity
  8
LED_TOP
100
AcDbPolyline
 90
4
 70
1
 10
-0.7500000000000079
 20
-42.85
 10
-0.7500000000000081
 20
-44.35
 10
0.7499999999999919
 20
-44.35
 10
0.7499999999999921
 20
-42.85
  0
TEXT
  5
DB
330
17
100
AcDbEntity
  8
NOTES
100
AcDbText
 10
-8.009190066423689e-15
 20
-43.6
 30
0.0
 40
0.65
  1
D4_19
100
AcDbText
  0
LWPOLYLINE
  5
DC
330
17
100
AcDbEntity
  8
LED_TOP
100
AcDbPolyline
 90
4
 70
1
 10
-0.7500000000000082
 20
-44.45
 10
-0.7500000000000084
 20
-45.95
 10
0.7499999999999916
 20
-45.95
 10
0.7499999999999918
 20
-44.45
  0
TEXT
  5
DD
330
17
100
AcDbEntity
  8
NOTES
100
AcDbText
 10
-8.303105298219054e-15
 20
-45.2
 30
0.0
 40
0.65
  1
D4_20
100
AcDbText
  0
LWPOLYLINE
  5
DE
330
17
100
AcDbEntity
  8
TIP_INTERFACE
100
AcDbPolyline
 90
4
 70
1
 10
44.8
 20
-3.5
 10
47.2
 20
-3.5
 10
47.2
 20
3.5
 10
44.8
 20
3.5
  0
LWPOLYLINE
  5
DF
330
17
100
AcDbEntity
  8
TIP_INTERFACE
100
AcDbPolyline
 90
4
 70
1
 10
3.5000000000000027
 20
44.8
 10
3.500000000000003
 20
47.2
 10
-3.499999999999997
 20
47.2
 10
-3.4999999999999973
 20
44.8
  0
LWPOLYLINE
  5
E0
330
17
100
AcDbEntity
  8
TIP_INTERFACE
100
AcDbPolyline
 90
4
 70
1
 10
-44.8
 20
3.5000000000000053
 10
-47.2
 20
3.5000000000000058
 10
-47.2
 20
-3.4999999999999942
 10
-44.8
 20
-3.4999999999999947
  0
LWPOLYLINE
  5
E1
330
17
100
AcDbEntity
  8
TIP_INTERFACE
100
AcDbPolyline
 90
4
 70
1
 10
-3.5000000000000084
 20
-44.8
 10
-3.500000000000009
 20
-47.2
 10
3.499999999999991
 20
-47.2
 10
3.4999999999999916
 20
-44.8
  0
LWPOLYLINE
  5
E2
330
17
100
AcDbEntity
  8
COURTYARD
100
AcDbPolyline
 90
4
 70
1
 10
17.0
 20
-5.75
 10
37.0
 20
-5.75
 10
37.0
 20
5.75
 10
17.0
 20
5.75
  0
LWPOLYLINE
  5
E3
330
17
100
AcDbEntity
  8
COURTYARD
100
AcDbPolyline
 90
4
 70
1
 10
5.750000000000001
 20
17.0
 10
5.750000000000003
 20
37.0
 10
-5.749999999999997
 20
37.0
 10
-5.749999999999999
 20
17.0
  0
LWPOLYLINE
  5
E4
330
17
100
AcDbEntity
  8
COURTYARD
100
AcDbPolyline
 90
4
 70
1
 10
-17.0
 20
5.750000000000002
 10
-37.0
 20
5.750000000000004
 10
-37.0
 20
-5.749999999999996
 10
-17.0
 20
-5.749999999999998
  0
LWPOLYLINE
  5
E5
330
17
100
AcDbEntity
  8
COURTYARD
100
AcDbPolyline
 90
4
 70
1
 10
-5.7500000000000036
 20
-17.0
 10
-5.750000000000007
 20
-37.0
 10
5.749999999999993
 20
-37.0
 10
5.7499999999999964
 20
-17.0
  0
LWPOLYLINE
  5
E6
330
17
100
AcDbEntity
  8
PLACEMENT_ZONES
100
AcDbPolyline
 90
4
 70
1
 10
12.5
 20
0.09999999999999964
 10
24.5
 20
0.09999999999999964
 10
24.5
 20
9.1
 10
12.5
 20
9.1
  0
TEXT
  5
E7
330
17
100
AcDbEntity
  8
NOTES
100
AcDbText
 10
18.5
 20
4.6
 30
0.0
 40
0.8
  1
nRF52/BLE 12x9
100
AcDbText
  0
LWPOLYLINE
  5
E8
330
17
100
AcDbEntity
  8
PLACEMENT_ZONES
100
AcDbPolyline
 90
4
 70
1
 10
-0.09999999999999888
 20
12.5
 10
-0.09999999999999815
 20
24.5
 10
-9.099999999999998
 20
24.5
 10
-9.1
 20
12.5
  0
TEXT
  5
E9
330
17
100
AcDbEntity
  8
NOTES
100
AcDbText
 10
-4.599999999999999
 20
18.5
 30
0.0
 40
0.8
  1
POWER 12x9
100
AcDbText
  0
LWPOLYLINE
  5
EA
330
17
100
AcDbEntity
  8
PLACEMENT_ZONES
100
AcDbPolyline
 90
4
 70
1
 10
-12.5
 20
-0.09999999999999812
 10
-24.5
 20
-0.09999999999999665
 10
-24.5
 20
-9.099999999999996
 10
-12.500000000000002
 20
-9.099999999999998
  0
TEXT
  5
EB
330
17
100
AcDbEntity
  8
NOTES
100
AcDbText
 10
-18.5
 20
-4.599999999999997
 30
0.0
 40
0.8
  1
CHARGE/USB PADS 12x9
100
AcDbText
  0
LWPOLYLINE
  5
EC
330
17
100
AcDbEntity
  8
PLACEMENT_ZONES
100
AcDbPolyline
 90
4
 70
1
 10
0.09999999999999735
 20
-12.5
 10
0.09999999999999515
 20
-24.5
 10
9.099999999999994
 20
-24.5
 10
9.099999999999998
 20
-12.500000000000002
  0
TEXT
  5
ED
330
17
100
AcDbEntity
  8
NOTES
100
AcDbText
 10
4.599999999999996
 20
-18.5
 30
0.0
 40
0.8
  1
IMU / STORAGE 12x9
100
AcDbText
  0
LWPOLYLINE
  5
EE
330
17
100
AcDbEntity
  8
PLACEMENT_ZONES
100
AcDbPolyline
 90
4
 70
1
 10
12.1
 20
-4.0
 10
14.700000000000001
 20
-4.0
 10
14.700000000000001
 20
-2.0
 10
12.1
 20
-2.0
  0
TEXT
  5
EF
330
17
100
AcDbEntity
  8
NOTES
100
AcDbText
 10
13.4
 20
-3.0
 30
0.0
 40
0.75
  1
HALL
100
AcDbText
  0
CIRCLE
  5
F0
330
17
100
AcDbEntity
  8
BALANCE
100
AcDbCircle
 10
43.5
 20
5.4
 30
0.0
 40
1.2
  0
CIRCLE
  5
F1
330
17
100
AcDbEntity
  8
BALANCE
100
AcDbCircle
 10
-5.399999999999998
 20
43.5
 30
0.0
 40
1.2
  0
CIRCLE
  5
F2
330
17
100
AcDbEntity
  8
BALANCE
100
AcDbCircle
 10
-43.5
 20
-5.399999999999995
 30
0.0
 40
1.2
  0
CIRCLE
  5
F3
330
17
100
AcDbEntity
  8
BALANCE
100
AcDbCircle
 10
5.399999999999992
 20
-43.5
 30
0.0
 40
1.2
  0
TEXT
  5
F4
330
17
100
AcDbEntity
  8
NOTES
100
AcDbText
 10
-48.0
 20
-55.0
 30
0.0
 40
1.2
  1
Ticker Spinner v0.3 PCB mechanical template - mm - verify footprints before routing
100
AcDbText
  0
ENDSEC
  0
SECTION
  2
OBJECTS
  0
DICTIONARY
  5
A
330
0
100
AcDbDictionary
281
1
  3
ACAD_COLOR
350
B
  3
ACAD_GROUP
350
C
  3
ACAD_LAYOUT
350
D
  3
ACAD_MATERIAL
350
E
  3
ACAD_MLEADERSTYLE
350
F
  3
ACAD_MLINESTYLE
350
10
  3
ACAD_PLOTSETTINGS
350
11
  3
ACAD_PLOTSTYLENAME
350
12
  3
ACAD_SCALELIST
350
14
  3
ACAD_TABLESTYLE
350
15
  3
ACAD_VISUALSTYLE
350
16
  3
EZDXF_META
350
2D
  0
DICTIONARY
  5
B
330
A
100
AcDbDictionary
281
1
  0
DICTIONARY
  5
C
330
A
100
AcDbDictionary
281
1
  0
DICTIONARY
  5
D
330
A
100
AcDbDictionary
281
1
  3
Model
350
1A
  3
Layout1
350
1E
  0
DICTIONARY
  5
E
330
A
100
AcDbDictionary
281
1
  3
ByBlock
350
1F
  3
ByLayer
350
20
  3
Global
350
21
  0
DICTIONARY
  5
F
330
A
100
AcDbDictionary
281
1
  3
Standard
350
2C
  0
DICTIONARY
  5
10
330
A
100
AcDbDictionary
281
1
  3
Standard
350
22
  0
DICTIONARY
  5
11
330
A
100
AcDbDictionary
281
1
  0
ACDBDICTIONARYWDFLT
  5
12
330
A
100
AcDbDictionary
281
1
  3
Normal
350
13
100
AcDbDictionaryWithDefault
340
13
  0
ACDBPLACEHOLDER
  5
13
330
12
  0
DICTIONARY
  5
14
330
A
100
AcDbDictionary
281
1
  0
DICTIONARY
  5
15
330
A
100
AcDbDictionary
281
1
  0
DICTIONARY
  5
16
330
A
100
AcDbDictionary
281
1
  0
LAYOUT
  5
1A
330
D
100
AcDbPlotSettings
  1

  4
A3
  6

 40
7.5
 41
20.0
 42
7.5
 43
20.0
 44
420.0
 45
297.0
 46
0.0
 47
0.0
 48
0.0
 49
0.0
140
0.0
141
0.0
142
1.0
143
1.0
 70
1024
 72
1
 73
0
 74
5
  7

 75
16
 76
0
 77
2
 78
300
147
1.0
148
0.0
149
0.0
100
AcDbLayout
  1
Model
 70
1
 71
0
 10
0.0
 20
0.0
 11
420.0
 21
297.0
 12
0.0
 22
0.0
 32
0.0
 14
1e+20
 24
1e+20
 34
1e+20
 15
-1e+20
 25
-1e+20
 35
-1e+20
146
0.0
 13
0.0
 23
0.0
 33
0.0
 16
1.0
 26
0.0
 36
0.0
 17
0.0
 27
1.0
 37
0.0
 76
1
330
17
  0
LAYOUT
  5
1E
330
D
100
AcDbPlotSettings
  1

  4
A3
  6

 40
7.5
 41
20.0
 42
7.5
 43
20.0
 44
420.0
 45
297.0
 46
0.0
 47
0.0
 48
0.0
 49
0.0
140
0.0
141
0.0
142
1.0
143
1.0
 70
0
 72
1
 73
0
 74
5
  7

 75
16
 76
0
 77
2
 78
300
147
1.0
148
0.0
149
0.0
100
AcDbLayout
  1
Layout1
 70
1
 71
1
 10
0.0
 20
0.0
 11
420.0
 21
297.0
 12
0.0
 22
0.0
 32
0.0
 14
1e+20
 24
1e+20
 34
1e+20
 15
-1e+20
 25
-1e+20
 35
-1e+20
146
0.0
 13
0.0
 23
0.0
 33
0.0
 16
1.0
 26
0.0
 36
0.0
 17
0.0
 27
1.0
 37
0.0
 76
1
330
1B
  0
MATERIAL
  5
1F
102
{ACAD_REACTORS
330
E
102
}
330
E
100
AcDbMaterial
  1
ByBlock
  2

 70
0
 40
1.0
 71
1
 41
1.0
 91
-1023410177
 42
1.0
 72
1
  3

 73
1
 74
1
 75
1
 44
0.5
 73
0
 45
1.0
 46
1.0
 77
1
  4

 78
1
 79
1
170
1
 48
1.0
171
1
  6

172
1
173
1
174
1
140
1.0
141
1.0
175
1
  7

176
1
177
1
178
1
143
1.0
179
1
  8

270
1
271
1
272
1
145
1.0
146
1.0
273
1
  9

274
1
275
1
276
1
 42
1.0
 72
1
  3

 73
1
 74
1
 75
1
 94
63
  0
MATERIAL
  5
20
102
{ACAD_REACTORS
330
E
102
}
330
E
100
AcDbMaterial
  1
ByLayer
  2

 70
0
 40
1.0
 71
1
 41
1.0
 91
-1023410177
 42
1.0
 72
1
  3

 73
1
 74
1
 75
1
 44
0.5
 73
0
 45
1.0
 46
1.0
 77
1
  4

 78
1
 79
1
170
1
 48
1.0
171
1
  6

172
1
173
1
174
1
140
1.0
141
1.0
175
1
  7

176
1
177
1
178
1
143
1.0
179
1
  8

270
1
271
1
272
1
145
1.0
146
1.0
273
1
  9

274
1
275
1
276
1
 42
1.0
 72
1
  3

 73
1
 74
1
 75
1
 94
63
  0
MATERIAL
  5
21
102
{ACAD_REACTORS
330
E
102
}
330
E
100
AcDbMaterial
  1
Global
  2

 70
0
 40
1.0
 71
1
 41
1.0
 91
-1023410177
 42
1.0
 72
1
  3

 73
1
 74
1
 75
1
 44
0.5
 73
0
 45
1.0
 46
1.0
 77
1
  4

 78
1
 79
1
170
1
 48
1.0
171
1
  6

172
1
173
1
174
1
140
1.0
141
1.0
175
1
  7

176
1
177
1
178
1
143
1.0
179
1
  8

270
1
271
1
272
1
145
1.0
146
1.0
273
1
  9

274
1
275
1
276
1
 42
1.0
 72
1
  3

 73
1
 74
1
 75
1
 94
63
  0
MLINESTYLE
  5
22
102
{ACAD_REACTORS
330
10
102
}
330
10
100
AcDbMlineStyle
  2
Standard
 70
0
  3

 62
256
 51
90.0
 52
90.0
 71
2
 49
0.5
 62
256
  6
BYLAYER
 49
-0.5
 62
256
  6
BYLAYER
  0
MLEADERSTYLE
  5
2C
102
{ACAD_REACTORS
330
F
102
}
330
F
100
AcDbMLeaderStyle
179
2
170
2
171
1
172
0
 90
2
 40
0.0
 41
0.0
173
1
 91
-1056964608
 92
-2
290
1
 42
2.0
291
1
 43
8.0
  3
Standard
 44
4.0
300

342
29
174
1
175
1
176
0
178
1
 93
-1056964608
 45
4.0
292
0
297
0
 46
4.0
 94
-1056964608
 47
1.0
 49
1.0
140
1.0
294
1
141
0.0
177
0
142
1.0
295
0
296
0
143
3.75
271
0
272
9
273
9
  0
DICTIONARY
  5
2D
330
A
100
AcDbDictionary
280
1
281
1
  3
CREATED_BY_EZDXF
350
2E
  3
WRITTEN_BY_EZDXF
350
F7
  0
DICTIONARYVAR
  5
2E
330
2D
100
DictionaryVariables
280
0
  1
1.4.4 @ 2026-09-18T11:26:02.947865+00:00
  0
DICTIONARYVAR
  5
F7
330
2D
100
DictionaryVariables
280
0
  1
1.4.4 @ 2026-09-18T11:26:03.161552+00:00
  0
ENDSEC
  0
EOF
