  0
SECTION
  2
HEADER
  9
$ACADVER
  1
AC1024
  9
$ACADMAINTVER
 70
6
  9
$DWGCODEPAGE
  3
ANSI_1252
  9
$LASTSAVEDBY
  1
ezdxf
  9
$INSBASE
 10
0.0
 20
0.0
 30
0.0
  9
$EXTMIN
 10
1e+20
 20
1e+20
 30
1e+20
  9
$EXTMAX
 10
-1e+20
 20
-1e+20
 30
-1e+20
  9
$LIMMIN
 10
0.0
 20
0.0
  9
$LIMMAX
 10
420.0
 20
297.0
  9
$ORTHOMODE
 70
0
  9
$REGENMODE
 70
1
  9
$FILLMODE
 70
1
  9
$QTEXTMODE
 70
0
  9
$MIRRTEXT
 70
1
  9
$LTSCALE
 40
1.0
  9
$ATTMODE
 70
1
  9
$TEXTSIZE
 40
2.5
  9
$TRACEWID
 40
1.0
  9
$TEXTSTYLE
  7
Standard
  9
$CLAYER
  8
0
  9
$CELTYPE
  6
ByLayer
  9
$CECOLOR
 62
256
  9
$CELTSCALE
 40
1.0
  9
$DISPSILH
 70
0
  9
$DIMSCALE
 40
1.0
  9
$DIMASZ
 40
2.5
  9
$DIMEXO
 40
0.625
  9
$DIMDLI
 40
3.75
  9
$DIMRND
 40
0.0
  9
$DIMDLE
 40
0.0
  9
$DIMEXE
 40
1.25
  9
$DIMTP
 40
0.0
  9
$DIMTM
 40
0.0
  9
$DIMTXT
 40
2.5
  9
$DIMCEN
 40
2.5
  9
$DIMTSZ
 40
0.0
  9
$DIMTOL
 70
0
  9
$DIMLIM
 70
0
  9
$DIMTIH
 70
0
  9
$DIMTOH
 70
0
  9
$DIMSE1
 70
0
  9
$DIMSE2
 70
0
  9
$DIMTAD
 70
1
  9
$DIMZIN
 70
8
  9
$DIMBLK
  1

  9
$DIMASO
 70
1
  9
$DIMSHO
 70
1
  9
$DIMPOST
  1

  9
$DIMAPOST
  1

  9
$DIMALT
 70
0
  9
$DIMALTD
 70
3
  9
$DIMALTF
 40
0.03937007874
  9
$DIMLFAC
 40
1.0
  9
$DIMTOFL
 70
1
  9
$DIMTVP
 40
0.0
  9
$DIMTIX
 70
0
  9
$DIMSOXD
 70
0
  9
$DIMSAH
 70
0
  9
$DIMBLK1
  1

  9
$DIMBLK2
  1

  9
$DIMSTYLE
  2
ISO-25
  9
$DIMCLRD
 70
0
  9
$DIMCLRE
 70
0
  9
$DIMCLRT
 70
0
  9
$DIMTFAC
 40
1.0
  9
$DIMGAP
 40
0.625
  9
$DIMJUST
 70
0
  9
$DIMSD1
 70
0
  9
$DIMSD2
 70
0
  9
$DIMTOLJ
 70
0
  9
$DIMTZIN
 70
8
  9
$DIMALTZ
 70
0
  9
$DIMALTTZ
 70
0
  9
$DIMUPT
 70
0
  9
$DIMDEC
 70
2
  9
$DIMTDEC
 70
2
  9
$DIMALTU
 70
2
  9
$DIMALTTD
 70
3
  9
$DIMTXSTY
  7
Standard
  9
$DIMAUNIT
 70
0
  9
$DIMADEC
 70
0
  9
$DIMALTRND
 40
0.0
  9
$DIMAZIN
 70
0
  9
$DIMDSEP
 70
44
  9
$DIMATFIT
 70
3
  9
$DIMFRAC
 70
0
  9
$DIMLDRBLK
  1

  9
$DIMLUNIT
 70
2
  9
$DIMLWD
 70
-2
  9
$DIMLWE
 70
-2
  9
$DIMTMOVE
 70
0
  9
$DIMFXL
 40
1.0
  9
$DIMFXLON
 70
0
  9
$DIMJOGANG
 40
0.785398163397
  9
$DIMTFILL
 70
0
  9
$DIMTFILLCLR
 70
0
  9
$DIMARCSYM
 70
0
  9
$DIMLTYPE
  6

  9
$DIMLTEX1
  6

  9
$DIMLTEX2
  6

  9
$DIMTXTDIRECTION
 70
0
  9
$LUNITS
 70
2
  9
$LUPREC
 70
4
  9
$SKETCHINC
 40
1.0
  9
$FILLETRAD
 40
10.0
  9
$AUNITS
 70
0
  9
$AUPREC
 70
2
  9
$MENU
  1
.
  9
$ELEVATION
 40
0.0
  9
$PELEVATION
 40
0.0
  9
$THICKNESS
 40
0.0
  9
$LIMCHECK
 70
0
  9
$CHAMFERA
 40
0.0
  9
$CHAMFERB
 40
0.0
  9
$CHAMFERC
 40
0.0
  9
$CHAMFERD
 40
0.0
  9
$SKPOLY
 70
0
  9
$TDCREATE
 40
2461292.873738426
  9
$TDUCREATE
 40
2458532.153996898
  9
$TDUPDATE
 40
2461292.873738426
  9
$TDUUPDATE
 40
2458532.1544311
  9
$TDINDWG
 40
0.0
  9
$TDUSRTIMER
 40
0.0
  9
$USRTIMER
 70
1
  9
$ANGBASE
 50
0.0
  9
$ANGDIR
 70
0
  9
$PDMODE
 70
0
  9
$PDSIZE
 40
0.0
  9
$PLINEWID
 40
0.0
  9
$SPLFRAME
 70
0
  9
$SPLINETYPE
 70
6
  9
$SPLINESEGS
 70
8
  9
$HANDSEED
  5
AC
  9
$SURFTAB1
 70
6
  9
$SURFTAB2
 70
6
  9
$SURFTYPE
 70
6
  9
$SURFU
 70
6
  9
$SURFV
 70
6
  9
$UCSBASE
  2

  9
$UCSNAME
  2

  9
$UCSORG
 10
0.0
 20
0.0
 30
0.0
  9
$UCSXDIR
 10
1.0
 20
0.0
 30
0.0
  9
$UCSYDIR
 10
0.0
 20
1.0
 30
0.0
  9
$UCSORTHOREF
  2

  9
$UCSORTHOVIEW
 70
0
  9
$UCSORGTOP
 10
0.0
 20
0.0
 30
0.0
  9
$UCSORGBOTTOM
 10
0.0
 20
0.0
 30
0.0
  9
$UCSORGLEFT
 10
0.0
 20
0.0
 30
0.0
  9
$UCSORGRIGHT
 10
0.0
 20
0.0
 30
0.0
  9
$UCSORGFRONT
 10
0.0
 20
0.0
 30
0.0
  9
$UCSORGBACK
 10
0.0
 20
0.0
 30
0.0
  9
$PUCSBASE
  2

  9
$PUCSNAME
  2

  9
$PUCSORG
 10
0.0
 20
0.0
 30
0.0
  9
$PUCSXDIR
 10
1.0
 20
0.0
 30
0.0
  9
$PUCSYDIR
 10
0.0
 20
1.0
 30
0.0
  9
$PUCSORTHOREF
  2

  9
$PUCSORTHOVIEW
 70
0
  9
$PUCSORGTOP
 10
0.0
 20
0.0
 30
0.0
  9
$PUCSORGBOTTOM
 10
0.0
 20
0.0
 30
0.0
  9
$PUCSORGLEFT
 10
0.0
 20
0.0
 30
0.0
  9
$PUCSORGRIGHT
 10
0.0
 20
0.0
 30
0.0
  9
$PUCSORGFRONT
 10
0.0
 20
0.0
 30
0.0
  9
$PUCSORGBACK
 10
0.0
 20
0.0
 30
0.0
  9
$USERI1
 70
0
  9
$USERI2
 70
0
  9
$USERI3
 70
0
  9
$USERI4
 70
0
  9
$USERI5
 70
0
  9
$USERR1
 40
0.0
  9
$USERR2
 40
0.0
  9
$USERR3
 40
0.0
  9
$USERR4
 40
0.0
  9
$USERR5
 40
0.0
  9
$WORLDVIEW
 70
1
  9
$SHADEDGE
 70
3
  9
$SHADEDIF
 70
70
  9
$TILEMODE
 70
1
  9
$MAXACTVP
 70
64
  9
$PINSBASE
 10
0.0
 20
0.0
 30
0.0
  9
$PLIMCHECK
 70
0
  9
$PEXTMIN
 10
1e+20
 20
1e+20
 30
1e+20
  9
$PEXTMAX
 10
-1e+20
 20
-1e+20
 30
-1e+20
  9
$PLIMMIN
 10
0.0
 20
0.0
  9
$PLIMMAX
 10
420.0
 20
297.0
  9
$UNITMODE
 70
0
  9
$VISRETAIN
 70
1
  9
$PLINEGEN
 70
0
  9
$PSLTSCALE
 70
1
  9
$TREEDEPTH
 70
3020
  9
$CMLSTYLE
  2
Standard
  9
$CMLJUST
 70
0
  9
$CMLSCALE
 40
20.0
  9
$PROXYGRAPHICS
 70
1
  9
$MEASUREMENT
 70
1
  9
$CELWEIGHT
370
-1
  9
$ENDCAPS
280
0
  9
$JOINSTYLE
280
0
  9
$LWDISPLAY
290
0
  9
$INSUNITS
 70
4
  9
$HYPERLINKBASE
  1

  9
$STYLESHEET
  1

  9
$XEDIT
290
1
  9
$CEPSNTYPE
380
0
  9
$PSTYLEMODE
290
1
  9
$FINGERPRINTGUID
  2
{C5184B61-8E9F-4920-8BCB-72BEE0138B83}
  9
$VERSIONGUID
  2
{E110CB83-7812-4F40-A59B-C11EFD5A5A8B}
  9
$EXTNAMES
290
1
  9
$PSVPSCALE
 40
0.0
  9
$OLESTARTUP
290
0
  9
$SORTENTS
280
127
  9
$INDEXCTL
280
0
  9
$HIDETEXT
280
1
  9
$XCLIPFRAME
280
1
  9
$HALOGAP
280
0
  9
$OBSCOLOR
 70
257
  9
$OBSLTYPE
280
0
  9
$INTERSECTIONDISPLAY
280
0
  9
$INTERSECTIONCOLOR
 70
257
  9
$DIMASSOC
280
2
  9
$PROJECTNAME
  1

  9
$CAMERADISPLAY
290
0
  9
$LENSLENGTH
 40
50.0
  9
$CAMERAHEIGHT
 40
0.0
  9
$STEPSPERSEC
 40
24.0
  9
$STEPSIZE
 40
100.0
  9
$3DDWFPREC
 40
2.0
  9
$PSOLWIDTH
 40
0.005
  9
$PSOLHEIGHT
 40
0.08
  9
$LOFTANG1
 40
1.570796326795
  9
$LOFTANG2
 40
1.570796326795
  9
$LOFTMAG1
 40
0.0
  9
$LOFTMAG2
 40
0.0
  9
$LOFTPARAM
 70
7
  9
$LOFTNORMALS
280
1
  9
$LATITUDE
 40
37.795
  9
$LONGITUDE
 40
-122.394
  9
$NORTHDIRECTION
 40
0.0
  9
$TIMEZONE
 70
-8000
  9
$LIGHTGLYPHDISPLAY
280
1
  9
$TILEMODELIGHTSYNCH
280
1
  9
$CMATERIAL
347
20
  9
$SOLIDHIST
280
0
  9
$SHOWHIST
280
1
  9
$DWFFRAME
280
2
  9
$DGNFRAME
280
2
  9
$REALWORLDSCALE
290
1
  9
$INTERFERECOLOR
 62
256
  9
$CSHADOW
280
0
  9
$SHADOWPLANELOCATION
 40
0.0
  0
ENDSEC
  0
SECTION
  2
CLASSES
  0
CLASS
  1
ACDBDICTIONARYWDFLT
  2
AcDbDictionaryWithDefault
  3
ObjectDBX Classes
 90
0
 91
0
280
0
281
0
  0
CLASS
  1
SUN
  2
AcDbSun
  3
SCENEOE
 90
1153
 91
0
280
0
281
0
  0
CLASS
  1
VISUALSTYLE
  2
AcDbVisualStyle
  3
ObjectDBX Classes
 90
4095
 91
0
280
0
281
0
  0
CLASS
  1
MATERIAL
  2
AcDbMaterial
  3
ObjectDBX Classes
 90
1153
 91
0
280
0
281
0
  0
CLASS
  1
SCALE
  2
AcDbScale
  3
ObjectDBX Classes
 90
1153
 91
0
280
0
281
0
  0
CLASS
  1
TABLESTYLE
  2
AcDbTableStyle
  3
ObjectDBX Classes
 90
4095
 91
0
280
0
281
0
  0
CLASS
  1
MLEADERSTYLE
  2
AcDbMLeaderStyle
  3
ACDB_MLEADERSTYLE_CLASS
 90
4095
 91
0
280
0
281
0
  0
CLASS
  1
DICTIONARYVAR
  2
AcDbDictionaryVar
  3
ObjectDBX Classes
 90
0
 91
0
280
0
281
0
  0
CLASS
  1
CELLSTYLEMAP
  2
AcDbCellStyleMap
  3
ObjectDBX Classes
 90
1152
 91
0
280
0
281
0
  0
CLASS
  1
MENTALRAYRENDERSETTINGS
  2
AcDbMentalRayRenderSettings
  3
SCENEOE
 90
1024
 91
0
280
0
281
0
  0
CLASS
  1
ACDBDETAILVIEWSTYLE
  2
AcDbDetailViewStyle
  3
ObjectDBX Classes
 90
1025
 91
0
280
0
281
0
  0
CLASS
  1
ACDBSECTIONVIEWSTYLE
  2
AcDbSectionViewStyle
  3
ObjectDBX Classes
 90
1025
 91
0
280
0
281
0
  0
CLASS
  1
RASTERVARIABLES
  2
AcDbRasterVariables
  3
ISM
 90
0
 91
0
280
0
281
0
  0
CLASS
  1
LAYOUT
  2
AcDbLayout
  3
ObjectDBX Classes
 90
0
 91
0
280
0
281
0
  0
CLASS
  1
ACDBPLACEHOLDER
  2
AcDbPlaceHolder
  3
ObjectDBX Classes
 90
0
 91
0
280
0
281
0
  0
ENDSEC
  0
SECTION
  2
TABLES
  0
TABLE
  2
VPORT
  5
8
330
0
100
AcDbSymbolTable
 70
1
  0
VPORT
  5
23
330
8
100
AcDbSymbolTableRecord
100
AcDbViewportTableRecord
  2
*Active
 70
0
 10
0.0
 20
0.0
 11
1.0
 21
1.0
 12
0.0
 22
0.0
 13
0.0
 23
0.0
 14
0.5
 24
0.5
 15
0.5
 25
0.5
 16
0.0
 26
0.0
 36
1.0
 17
0.0
 27
0.0
 37
0.0
 40
1000.0
 41
1.34
 42
50.0
 43
0.0
 44
0.0
 50
0.0
 51
0.0
 71
0
 72
1000
 73
1
 74
3
 75
0
 76
0
 77
0
 78
0
281
0
 65
0
146
0.0
  0
ENDTAB
  0
TABLE
  2
LTYPE
  5
2
330
0
100
AcDbSymbolTable
 70
3
  0
LTYPE
  5
24
330
2
100
AcDbSymbolTableRecord
100
AcDbLinetypeTableRecord
  2
ByBlock
 70
0
  3

 72
65
 73
0
 40
0.0
  0
LTYPE
  5
25
330
2
100
AcDbSymbolTableRecord
100
AcDbLinetypeTableRecord
  2
ByLayer
 70
0
  3

 72
65
 73
0
 40
0.0
  0
LTYPE
  5
26
330
2
100
AcDbSymbolTableRecord
100
AcDbLinetypeTableRecord
  2
Continuous
 70
0
  3

 72
65
 73
0
 40
0.0
  0
ENDTAB
  0
TABLE
  2
LAYER
  5
1
330
0
100
AcDbSymbolTable
 70
11
  0
LAYER
  5
27
330
1
100
AcDbSymbolTableRecord
100
AcDbLayerTableRecord
  2
0
 70
0
 62
7
  6
Continuous
370
-3
390
13
347
21
  0
LAYER
  5
28
330
1
100
AcDbSymbolTableRecord
100
AcDbLayerTableRecord
  2
Defpoints
 70
0
 62
7
  6
Continuous
290
0
370
-3
390
13
347
21
  0
LAYER
  5
2F
330
1
100
AcDbSymbolTableRecord
100
AcDbLayerTableRecord
  2
EDGE.CUTS
 70
0
 62
7
  6
Continuous
370
-3
390
13
347
21
  0
LAYER
  5
30
330
1
100
AcDbSymbolTableRecord
100
AcDbLayerTableRecord
  2
NPTH
 70
0
 62
1
  6
Continuous
370
-3
390
13
347
21
  0
LAYER
  5
31
330
1
100
AcDbSymbolTableRecord
100
AcDbLayerTableRecord
  2
LED_TOP
 70
0
 62
3
  6
Continuous
370
-3
390
13
347
21
  0
LAYER
  5
32
330
1
100
AcDbSymbolTableRecord
100
AcDbLayerTableRecord
  2
LED_SIDE
 70
0
 62
4
  6
Continuous
370
-3
390
13
347
21
  0
LAYER
  5
33
330
1
100
AcDbSymbolTableRecord
100
AcDbLayerTableRecord
  2
COURTYARD
 70
0
 62
6
  6
Continuous
370
-3
390
13
347
21
  0
LAYER
  5
34
330
1
100
AcDbSymbolTableRecord
100
AcDbLayerTableRecord
  2
PLACEMENT_ZONES
 70
0
 62
2
  6
Continuous
370
-3
390
13
347
21
  0
LAYER
  5
35
330
1
100
AcDbSymbolTableRecord
100
AcDbLayerTableRecord
  2
TIP_INTERFACE
 70
0
 62
4
  6
Continuous
370
-3
390
13
347
21
  0
LAYER
  5
36
330
1
100
AcDbSymbolTableRecord
100
AcDbLayerTableRecord
  2
BALANCE
 70
0
 62
5
  6
Continuous
370
-3
390
13
347
21
  0
LAYER
  5
37
330
1
100
AcDbSymbolTableRecord
100
AcDbLayerTableRecord
  2
NOTES
 70
0
 62
7
  6
Continuous
370
-3
390
13
347
21
  0
ENDTAB
  0
TABLE
  2
STYLE
  5
5
330
0
100
AcDbSymbolTable
 70
1
  0
STYLE
  5
29
330
5
100
AcDbSymbolTableRecord
100
AcDbTextStyleTableRecord
  2
Standard
 70
0
 40
0.0
 41
1.0
 50
0.0
 71
0
 42
2.5
  3
txt
  4

  0
ENDTAB
  0
TABLE
  2
VIEW
  5
7
330
0
100
AcDbSymbolTable
 70
0
  0
ENDTAB
  0
TABLE
  2
UCS
  5
6
330
0
100
AcDbSymbolTable
 70
0
  0
ENDTAB
  0
TABLE
  2
APPID
  5
3
330
0
100
AcDbSymbolTable
 70
3
  0
APPID
  5
2A
330
3
100
AcDbSymbolTableRecord
100
AcDbRegAppTableRecord
  2
ACAD
 70
0
  0
APPID
  5
A9
330
3
100
AcDbSymbolTableRecord
100
AcDbRegAppTableRecord
  2
HATCHBACKGROUNDCOLOR
 70
0
  0
APPID
  5
AA
330
3
100
AcDbSymbolTableRecord
100
AcDbRegAppTableRecord
  2
EZDXF
 70
0
  0
ENDTAB
  0
TABLE
  2
DIMSTYLE
  5
4
330
0
100
AcDbSymbolTable
 70
1
100
AcDbDimStyleTable
  0
DIMSTYLE
105
2B
330
4
100
AcDbSymbolTableRecord
100
AcDbDimStyleTableRecord
  2
Standard
 70
0
 40
1.0
 41
2.5
 42
0.625
 43
3.75
 44
1.25
 45
0.0
 46
0.0
 47
0.0
 48
0.0
 49
2.5
140
2.5
141
2.5
142
0.0
143
0.03937007874
144
1.0
145
0.0
146
1.0
147
0.625
148
0.0
 69
0
 70
0
 71
0
 72
0
 73
0
 74
0
 75
0
 76
0
 77
1
 78
8
 79
3
170
0
171
3
172
1
173
0
174
0
175
0
176
0
177
0
178
0
179
2
271
2
272
2
273
2
274
3
275
0
276
0
277
2
278
44
279
0
280
0
281
0
282
0
283
0
284
8
285
0
286
0
288
0
289
3
290
0
371
-2
372
-2
  0
ENDTAB
  0
TABLE
  2
BLOCK_RECORD
  5
9
330
0
100
AcDbSymbolTable
 70
2
  0
BLOCK_RECORD
  5
17
330
9
100
AcDbSymbolTableRecord
100
AcDbBlockTableRecord
  2
*Model_Space
340
1A
 70
0
280
1
281
0
  0
BLOCK_RECORD
  5
1B
330
9
100
AcDbSymbolTableRecord
100
AcDbBlockTableRecord
  2
*Paper_Space
340
1E
 70
0
280
1
281
0
  0
ENDTAB
  0
ENDSEC
  0
SECTION
  2
BLOCKS
  0
BLOCK
  5
18
330
17
100
AcDbEntity
  8
0
100
AcDbBlockBegin
  2
*Model_Space
 70
0
 10
0.0
 20
0.0
 30
0.0
  3
*Model_Space
  1

  0
ENDBLK
  5
19
330
17
100
AcDbEntity
  8
0
100
AcDbBlockEnd
  0
BLOCK
  5
1C
330
1B
100
AcDbEntity
  8
0
100
AcDbBlockBegin
  2
*Paper_Space
 70
0
 10
0.0
 20
0.0
 30
0.0
  3
*Paper_Space
  1

  0
ENDBLK
  5
1D
330
1B
100
AcDbEntity
  8
0
100
AcDbBlockEnd
  0
ENDSEC
  0
SECTION
  2
ENTITIES
  0
LWPOLYLINE
  5
38
330
17
100
AcDbEntity
  8
EDGE.CUTS
100
AcDbPolyline
 90
1468
 70
1
 10
18.16927779900686
 20
-7.408291937332766
 10
17.968342169346148
 20
-7.437224848225715
 10
17.76669707212159
 20
-7.460708786677053
 10
17.564490245044528
 20
-7.4787265468961746
 10
17.361869837384443
 20
-7.491264927953846
 10
17.15898430142562
 20
-7.498314743454039
 10
16.95598228370178
 20
-7.499870828264437
 10
16.753012516088425
 20
-7.495932042300746
 10
16.550223706832618
 20
-7.486501271361985
 10
16.347764431600105
 20
-7.471585425016171
 10
16.14578302461955
 20
-7.451195431537942
 10
15.944427470003687
 20
-7.425346229901821
 10
15.743845293326967
 20
-7.394056758837005
 10
15.544183453539173
 20
-7.357349942951665
 10
15.345588235294171
 20
-7.315252675936967
 10
15.258119232606264
 20
-7.495985424450266
 10
15.168521740615393
 20
-7.675672492002127
 10
15.076808258064073
 20
-7.854288812462334
 10
14.982991578872923
 20
-8.031809469068788
 10
14.887084790356006
 20
-8.208209697903124
 10
14.789101271395092
 20
-8.383464891345348
 10
14.689054690573363
 20
-8.557550601506527
 10
14.586959004268666
 20
-8.730442543639201
 10
14.482828454706576
 20
-8.902116599525169
 10
14.376677567973676
 20
-9.072548820839845
 10
14.268521151991134
 20
-9.241715432493125
 10
14.15837429444906
 20
-9.409592835945885
 10
14.046252360701748
 20
-9.576157612502032
 10
13.932170991624254
 20
-9.741386526575344
 10
13.816146101430535
 20
-9.905256528930778
 10
13.698193875453379
 20
-10.067744759899883
 10
13.5783307678866
 20
-10.228828552569647
 10
13.456573499489728
 20
-10.388485435944487
 10
13.332939055255418
 20
-10.546693138080997
 10
13.20744468204013
 20
-10.703429589194759
 10
13.08010788615815
 20
-10.858672924739164
 10
12.95094643093955
 20
-11.012401488455373
 10
12.819978334252161
 20
-11.16459383539344
 10
12.68722186598812
 20
-11.315228734903814
 10
12.55269554551529
 20
-11.464285173598947
 10
12.416418139093754
 20
-11.61174235828472
 10
12.278408657257986
 20
-11.757579718861027
 10
12.138686352164925
 20
-11.901776911191243
 10
11.997270714908264
 20
-12.044313819940285
 10
11.854181472799528
 20
-12.1851705613806
 10
11.70943858661609
 20
-12.324327486165975
 10
11.563062247816676
 20
-12.461765182072595
 10
11.415072875724722
 20
-12.59746447670696
 10
11.26549111467983
 20
-12.731406440180512
 10
11.114337831157995
 20
-12.863572387750233
 10
10.961634110860668
 20
-12.993943882425222
 10
10.807401255773375
 20
-13.122502737538602
 10
10.651660781194137
 20
-13.249231019284505
 10
10.49443441273204
 20
-13.374111049219888
 10
10.33574408327663
 20
-13.497125406730579
 10
10.175611929938212
 20
-13.618256931461497
 10
10.014060290959797
 20
-13.737488725710467
 10
9.851111702600967
 20
-13.854804156785411
 10
9.68678889599402
 20
-13.970186859324643
 10
9.5211147939731
 20
-14.083620737579757
 10
9.354112507876392
 20
-14.195089967661016
 10
9.185805334322174
 20
-14.304578999744741
 10
9.016216751958988
 20
-14.412072560242477
 10
8.845370418190317
 20
-14.51755565393168
 10
8.673290165874507
 20
-14.621013566047486
 10
8.500000000000014
 20
-14.722431864335448
 10
8.325524094336792
 20
-14.821796401064804
 10
8.1498867880641
 20
-14.91909331500203
 10
7.973112582375141
 20
-15.014309033344531
 10
7.795226137059272
 20
-15.107430273613975
 10
7.616252267061899
 20
-15.198444045509213
 10
7.43621593902287
 20
-15.287337652718417
 10
7.255142267793689
 20
-15.374098694690153
 10
7.0730565129339364
 20
-15.458715068363308
 10
6.889984075187699
 20
-15.541174969855398
 10
6.705950492940097
 20
-15.621466896109228
 10
6.520981438654758
 20
-15.699579646497549
 10
6.335102715292573
 20
-15.77550232438551
 10
6.148340252712122
 20
-15.849224338650766
 10
5.9607201040526
 20
-15.92073540516088
 10
5.772268442099323
 20
-15.99002554820799
 10
5.583011555632771
 20
-16.057085101900373
 10
5.392975845761232
 20
-16.121904711510854
 10
5.202187822237923
 20
-16.18447533478177
 10
5.010674099762957
 20
-16.244788243186328
 10
4.818461394270518
 20
-16.30283502314627
 10
4.625576519202141
 20
-16.358607577205518
 10
4.432046381766167
 20
-16.412098125159787
 10
4.23789797918426
 20
-16.4632992051419
 10
4.043158394925373
 20
-16.512203674662704
 10
3.8478547949275366
 20
-16.55880471160745
 10
3.6520144238083536
 20
-16.60309581518747
 10
3.455664601064315
 20
-16.645070806847023
 10
3.258832717259796
 20
-16.6847238311252
 10
3.0615462302061593
 20
-16.72204935647274
 10
2.8638326611313123
 20
-16.757042176023713
 10
2.6657195908406526
 20
-16.789697408321818
 10
2.467234655869472
 20
-16.82001049800138
 10
2.2684055446277385
 20
-16.847977216422812
 10
2.069259993537642
 20
-16.873593662262483
 10
1.8698257831642906
 20
-16.89685626205698
 10
1.670130734340475
 20
-16.917761770701567
 10
1.4702027042855925
 20
-16.93630727190291
 10
1.2700695827196415
 20
-16.95249017858587
 10
1.0697592879726856
 20
-16.966308233254402
 10
0.8692997630901732
 20
-16.977759508306487
 10
0.6687189719350384
 20
-16.98684240630301
 10
0.4680448952866687
 20
-16.9935556601906
 10
0.2673055269376666
 20
-16.997898333478425
 10
0.06652886978879323
 20
-16.99986982036876
 10
-0.13425706805750787
 20
-16.999469845841563
 10
-0.33502427720408645
 20
-16.9966984656928
 10
-0.535744750866469
 20
-16.991556066526663
 10
-0.7363904887797253
 20
-16.984043365701666
 10
-0.9369335011044279
 20
-16.974161411230547
 10
-1.1373458123313052
 20
-16.961911581634084
 10
-1.3375994651836716
 20
-16.947295585748787
 10
-1.4004397716415111
 20
-17.140332723326626
 10
-1.4684816564866665
 20
-17.331598356691853
 10
-1.5416752680119155
 20
-17.520952352772664
 10
-1.6199669800354197
 20
-17.708255979081155
 10
-1.7032994311905494
 20
-17.89337200535754
 10
-1.7916115669523824
 20
-18.076164804113578
 10
-1.8848386843700409
 20
-18.25650045000167
 10
-1.9829124794720894
 20
-18.434246817936895
 10
-2.085761097310251
 20
-18.609273679900024
 10
-2.1933091846048187
 20
-18.781452800350685
 10
-2.305477944953129
 20
-18.950658030180627
 10
-2.4221851965607097
 20
-19.11676539913844
 10
-2.5433454324527496
 20
-19.27965320665781
 10
-2.668869883121822
 20
-19.439202111022926
 10
-2.783475762790735
 20
-19.60605071792642
 10
-2.898081642459667
 20
-19.772899324829893
 10
-3.012687522128599
 20
-19.939747931733365
 10
-3.127293401797531
 20
-20.10659653863684
 10
-3.2418992814664636
 20
-20.27344514554031
 10
-3.3565051611353973
 20
-20.44029375244379
 10
-3.4711110408043298
 20
-20.60714235934726
 10
-3.5857169204732617
 20
-20.773990966250736
 10
-3.700322800142196
 20
-20.94083957315421
 10
-3.814928679811128
 20
-21.107688180057686
 10
-3.92953455948006
 20
-21.274536786961157
 10
-4.044140439148992
 20
-21.441385393864632
 10
-4.158746318817924
 20
-21.608234000768103
 10
-4.273352198486858
 20
-21.77508260767158
 10
-4.3879580781557905
 20
-21.941931214575053
 10
-4.502563957824722
 20
-22.108779821478528
 10
-4.617169837493656
 20
-22.275628428382003
 10
-4.731775717162589
 20
-22.442477035285478
 10
-4.84638159683152
 20
-22.60932564218895
 10
-4.960987476500453
 20
-22.776174249092424
 10
-5.075593356169385
 20
-22.943022855995896
 10
-5.190199235838319
 20
-23.10987146289937
 10
-5.304805115507251
 20
-23.276720069802845
 10
-5.419410995176183
 20
-23.44356867670632
 10
-5.5340168748451175
 20
-23.610417283609795
 10
-5.648622754514049
 20
-23.777265890513267
 10
-5.7632286341829815
 20
-23.94411449741674
 10
-5.877834513851913
 20
-24.110963104320213
 10
-5.9924403935208455
 20
-24.277811711223688
 10
-6.10704627318978
 20
-24.444660318127163
 10
-6.221652152858712
 20
-24.611508925030638
 10
-6.336258032527644
 20
-24.77835753193411
 10
-6.450863912196578
 20
-24.945206138837587
 10
-6.56546979186551
 20
-25.11205474574106
 10
-6.680075671534442
 20
-25.278903352644534
 10
-6.794681551203374
 20
-25.445751959548005
 10
-6.909287430872307
 20
-25.61260056645148
 10
-7.02389331054124
 20
-25.779449173354955
 10
-7.138499190210172
 20
-25.94629778025843
 10
-7.253105069879105
 20
-26.1131463871619
 10
-7.367710949548039
 20
-26.27999499406538
 10
-7.482316829216971
 20
-26.44684360096885
 10
-7.596922708885903
 20
-26.613692207872326
 10
-7.711528588554835
 20
-26.780540814775797
 10
-7.826134468223768
 20
-26.947389421679272
 10
-7.940740347892701
 20
-27.114238028582747
 10
-8.055346227561634
 20
-27.281086635486222
 10
-8.169952107230566
 20
-27.447935242389693
 10
-8.284557986899499
 20
-27.61478384929317
 10
-8.399163866568431
 20
-27.781632456196643
 10
-8.513769746237363
 20
-27.948481063100118
 10
-8.628375625906296
 20
-28.11532967000359
 10
-8.742981505575228
 20
-28.282178276907064
 10
-8.857587385244162
 20
-28.44902688381054
 10
-8.972193264913093
 20
-28.615875490714014
 10
-9.086799144582026
 20
-28.782724097617486
 10
-9.20140502425096
 20
-28.94957270452096
 10
-9.16550568834668
 20
-28.74725770931827
 10
-9.163235445682028
 20
-28.541794901003776
 10
-9.194655640203758
 20
-28.338736064755633
 10
-9.258917270714662
 20
-28.143568028319553
 10
-9.354283931630098
 20
-27.961564403113698
 10
-9.478178732178922
 20
-27.79764308662557
 10
-9.627253926250884
 20
-27.656233376511157
 10
-9.797481371430974
 20
-27.541156287089795
 10
-9.984261372938343
 20
-27.455521302187936
 10
-10.182546971411103
 20
-27.401642354160586
 10
-10.386980316172183
 20
-27.380975299410792
 10
-10.592037439051028
 20
-27.394078579873508
 10
-10.792177516845566
 20
-27.440598133425002
 10
-10.981992589221917
 20
-27.519276960951817
 10
-11.15635368654294
 20
-27.62798909156861
 10
-11.310549419123596
 20
-27.763797028215
 10
-11.440413283109994
 20
-27.923031121400964
 10
-11.54243624306564
 20
-28.10138872635271
 10
-11.613861549184778
 20
-28.294050464245892
 10
-11.65275922708854
 20
-28.495810446045873
 10
-11.658078227424387
 20
-28.70121694019263
 10
-11.629674826140898
 20
-28.904719683166192
 10
-11.568316508037622
 20
-29.10081985247201
 10
-11.475661228653069
 20
-29.28421864964474
 10
-11.354212614852765
 20
-29.449960478427396
 10
-11.207252314636824
 20
-29.593566849326024
 10
-11.03875132413446
 20
-29.71115739232144
 10
-10.85326268780782
 20
-29.799554707868452
 10
-10.655798471199668
 20
-29.856370223016715
 10
-10.451694330529111
 20
-29.88006873274555
 10
-10.24646533858362
 20
-29.870009882549255
 10
-10.045656962618096
 20
-29.826465471377176
 10
-9.854695220968793
 20
-29.750612107387838
 10
-9.678740067281716
 20
-29.644499414965154
 10
-9.792208737480124
 20
-29.809692419063037
 10
-9.905677407678521
 20
-29.974885423160927
 10
-10.01914607787692
 20
-30.14007842725882
 10
-10.132614748075317
 20
-30.30527143135671
 10
-10.246083418273717
 20
-30.470464435454602
 10
-10.359552088472114
 20
-30.635657439552492
 10
-10.473020758670511
 20
-30.800850443650383
 10
-10.58648942886891
 20
-30.966043447748277
 10
-10.699958099067308
 20
-31.131236451846167
 10
-10.813426769265705
 20
-31.296429455944057
 10
-10.926895439464104
 20
-31.46162246004195
 10
-11.040364109662502
 20
-31.626815464139842
 10
-11.1538327798609
 20
-31.792008468237732
 10
-11.267301450059298
 20
-31.957201472335626
 10
-11.380770120257695
 20
-32.12239447643351
 10
-11.494238790456095
 20
-32.28758748053141
 10
-11.607707460654492
 20
-32.4527804846293
 10
-11.721176130852891
 20
-32.617973488727195
 10
-11.834644801051288
 20
-32.78316649282508
 10
-11.948113471249686
 20
-32.948359496922976
 10
-12.061582141448083
 20
-33.11355250102086
 10
-12.175050811646482
 20
-33.278745505118756
 10
-12.28851948184488
 20
-33.44393850921665
 10
-12.401988152043279
 20
-33.60913151331454
 10
-12.515456822241676
 20
-33.77432451741243
 10
-12.628925492440073
 20
-33.939517521510325
 10
-12.742394162638472
 20
-34.10471052560821
 10
-12.85586283283687
 20
-34.269903529706106
 10
-12.969331503035269
 20
-34.435096533804
 10
-13.082800173233666
 20
-34.60028953790189
 10
-13.196268843432064
 20
-34.76548254199978
 10
-13.309737513630463
 20
-34.930675546097675
 10
-13.42320618382886
 20
-35.09586855019556
 10
-13.536674854027257
 20
-35.261061554293455
 10
-13.650143524225657
 20
-35.42625455839135
 10
-13.763612194424054
 20
-35.591447562489236
 10
-13.877080864622453
 20
-35.75664056658713
 10
-13.99054953482085
 20
-35.921833570685024
 10
-14.104018205019248
 20
-36.08702657478291
 10
-14.217486875217647
 20
-36.252219578880805
 10
-14.330955545416044
 20
-36.4174125829787
 10
-14.444424215614442
 20
-36.582605587076586
 10
-14.55789288581284
 20
-36.74779859117448
 10
-14.671361556011238
 20
-36.91299159527237
 10
-14.784830226209635
 20
-37.07818459937026
 10
-14.898298896408035
 20
-37.243377603468154
 10
-15.011767566606432
 20
-37.40857060756604
 10
-15.125236236804831
 20
-37.573763611663935
 10
-15.238704907003228
 20
-37.73895661576183
 10
-15.352173577201626
 20
-37.904149619859716
 10
-15.465642247400025
 20
-38.06934262395761
 10
-15.579110917598422
 20
-38.234535628055504
 10
-15.69257958779682
 20
-38.39972863215339
 10
-15.806048257995219
 20
-38.564921636251285
 10
-15.919516928193616
 20
-38.73011464034918
 10
-16.032985598392013
 20
-38.895307644447065
 10
-16.14645426859041
 20
-39.06050064854496
 10
-16.25992293878881
 20
-39.22569365264285
 10
-16.37339160898721
 20
-39.39088665674074
 10
-16.486860279185606
 20
-39.556079660838634
 10
-16.590473579021687
 20
-39.72820449256723
 10
-16.700304100149104
 20
-39.896430323608115
 10
-16.816205295345526
 20
-40.06053268968661
 10
-16.93802251726841
 20
-40.220292628480756
 10
-17.06559322480149
 20
-40.37549697178347
 10
-17.19874719993388
 20
-40.5259386299336
 10
-17.337306774882542
 20
-40.67141686813631
 10
-17.481087069154984
 20
-40.811737574304175
 10
-17.629896236235904
 20
-40.94671351806157
 10
-17.783535719568622
 20
-41.0761646005668
 10
-17.94180051748973
 20
-41.19991809481851
 10
-18.104479456763503
 20
-41.317808876125945
 10
-18.271355474351004
 20
-41.42967964243535
 10
-18.442205907038034
 20
-41.53538112421859
 10
-18.61680278853537
 20
-41.63477228364398
 10
-18.794913153654925
 20
-41.72772050276354
 10
-18.976299349155966
 20
-41.814101760465526
 10
-19.1607193508466
 20
-41.893800797956224
 10
-19.34792708651746
 20
-41.96671127255013
 10
-19.53767276427662
 20
-42.032735899563335
 10
-19.729703205847777
 20
-42.09178658212082
 10
-19.92376218438681
 20
-42.143784528704366
 10
-20.119590766366116
 20
-42.18866035828435
 10
-20.316927657070455
 20
-42.2263541928951
 10
-20.51550954924333
 20
-42.256815737530225
 10
-20.71507147441874
 20
-42.280004347251435
 10
-20.915347156469444
 20
-42.29588908142118
 10
-21.116069366900078
 20
-42.3044487449869
 10
-21.316970281411006
 20
-42.30567191676159
 10
-21.517781837257157
 20
-42.29955696466316
 10
-21.718236090925014
 20
-42.28611204789213
 10
-21.918065575650527
 20
-42.26535510604478
 10
-22.117003658300874
 20
-42.23731383517626
 10
-22.314784895143934
 20
-42.202025650845705
 10
-22.511145386030716
 20
-42.159537638192475
 10
-22.705823126518183
 20
-42.10990648911036
 10
-22.89855835746265
 20
-42.05319842660334
 10
-23.089093911617248
 20
-41.98948911642406
 10
-23.27717555677101
 20
-41.91886356611277
 10
-23.462552334971747
 20
-41.84141601157144
 10
-23.644976897380072
 20
-41.75724979132454
 10
-23.824205834307744
 20
-41.66647720863409
 10
-24.000000000000018
 20
-41.56921938165305
 10
-24.17212483172861
 20
-41.465606081816965
 10
-24.340350662769502
 20
-41.355775560689544
 10
-24.504453028847994
 20
-41.23987436549313
 10
-24.664212967642136
 20
-41.11805714357024
 10
-24.819417310944853
 20
-40.99048643603716
 10
-24.969858969094986
 20
-40.85733246090477
 10
-25.115337207297692
 20
-40.71877288595611
 10
-25.255657913465555
 20
-40.57499259168367
 10
-25.390633857222955
 20
-40.42618342460275
 10
-25.52008493972818
 20
-40.27254394127003
 10
-25.643838433979887
 20
-40.11427914334892
 10
-25.76172921528733
 20
-39.95160020407515
 10
-25.873599981596733
 20
-39.78472418648765
 10
-25.979301463379976
 20
-39.61387375380062
 10
-26.078692622805367
 20
-39.43927687230328
 10
-26.171640841924923
 20
-39.26116650718373
 10
-26.258022099626906
 20
-39.07978031168269
 10
-26.337721137117605
 20
-38.89536030999205
 10
-26.41063161171151
 20
-38.7081525743212
 10
-26.476656238724722
 20
-38.518406896562034
 10
-26.535706921282205
 20
-38.32637645499088
 10
-26.587704867865746
 20
-38.132317476451846
 10
-26.632580697445736
 20
-37.93648889447253
 10
-26.67027453205648
 20
-37.7391520037682
 10
-26.70073607669161
 20
-37.54057011159532
 10
-26.723924686412815
 20
-37.34100818641991
 10
-26.739809420582567
 20
-37.14073250436921
 10
-26.748369084148287
 20
-36.94001029393858
 10
-26.749592255922973
 20
-36.739109379427646
 10
-26.743477303824545
 20
-36.538297823581495
 10
-26.73003238705352
 20
-36.33784356991364
 10
-26.709275445206163
 20
-36.138014085188125
 10
-26.681234174337646
 20
-35.93907600253778
 10
-26.645945990007085
 20
-35.74129476569472
 10
-26.60345797735386
 20
-35.544934274807936
 10
-26.55382682827174
 20
-35.35025653432047
 10
-26.49711876576472
 20
-35.157521303376
 10
-26.433409455585448
 20
-34.9669857492214
 10
-26.362783905274153
 20
-34.77890410406764
 10
-26.285336350732823
 20
-34.59352732586691
 10
-26.201170130485924
 20
-34.41110276345858
 10
-26.110397547795472
 20
-34.231873826530915
 10
-26.01313972081443
 20
-34.056079660838634
 10
-25.92696978798714
 20
-33.875545484714465
 10
-25.84079985515985
 20
-33.695011308590296
 10
-25.754629922332562
 20
-33.514477132466126
 10
-25.668459989505273
 20
-33.33394295634196
 10
-25.582290056677984
 20
-33.15340878021779
 10
-25.49612012385069
 20
-32.97287460409362
 10
-25.409950191023402
 20
-32.79234042796946
 10
-25.323780258196113
 20
-32.61180625184529
 10
-25.23761032536882
 20
-32.43127207572112
 10
-25.15144039254153
 20
-32.25073789959695
 10
-25.06527045971424
 20
-32.07020372347278
 10
-24.979100526886953
 20
-31.889669547348614
 10
-24.892930594059663
 20
-31.70913537122445
 10
-24.806760661232374
 20
-31.52860119510028
 10
-24.720590728405085
 20
-31.348067018976113
 10
-24.634420795577793
 20
-31.167532842851944
 10
-24.548250862750503
 20
-30.986998666727775
 10
-24.462080929923214
 20
-30.806464490603606
 10
-24.375910997095925
 20
-30.62593031447944
 10
-24.289741064268636
 20
-30.445396138355274
 10
-24.203571131441343
 20
-30.2648619622311
 10
-24.117401198614054
 20
-30.084327786106936
 10
-24.031231265786765
 20
-29.90379360998277
 10
-23.945061332959476
 20
-29.7232594338586
 10
-23.858891400132187
 20
-29.542725257734432
 10
-23.772721467304894
 20
-29.362191081610263
 10
-23.686551534477605
 20
-29.1816569054861
 10
-23.600381601650316
 20
-29.001122729361928
 10
-23.514211668823027
 20
-28.820588553237762
 10
-23.428041735995738
 20
-28.640054377113596
 10
-23.341871803168445
 20
-28.459520200989424
 10
-23.255701870341156
 20
-28.278986024865258
 10
-23.169531937513867
 20
-28.09845184874109
 10
-23.083362004686578
 20
-27.917917672616923
 10
-22.99719207185929
 20
-27.737383496492754
 10
-22.911022139031996
 20
-27.556849320368585
 10
-22.824852206204707
 20
-27.37631514424442
 10
-22.738682273377417
 20
-27.19578096812025
 10
-22.65251234055013
 20
-27.015246791996084
 10
-22.56634240772284
 20
-26.834712615871915
 10
-22.48017247489555
 20
-26.65417843974775
 10
-22.39400254206826
 20
-26.47364426362358
 10
-22.30783260924097
 20
-26.29311008749941
 10
-22.22166267641368
 20
-26.112575911375245
 10
-22.13549274358639
 20
-25.932041735251072
 10
-22.049322810759097
 20
-25.751507559126907
 10
-21.963152877931808
 20
-25.570973383002737
 10
-21.87698294510452
 20
-25.390439206878572
 10
-21.79081301227723
 20
-25.209905030754403
 10
-21.70464307944994
 20
-25.029370854630237
 10
-21.618473146622648
 20
-24.848836678506068
 10
-21.532303213795362
 20
-24.668302502381902
 10
-21.44613328096807
 20
-24.487768326257733
 10
-21.35996334814078
 20
-24.307234150133564
 10
-21.27379341531349
 20
-24.126699974009398
 10
-21.187623482486202
 20
-23.94616579788523
 10
-21.10145354965891
 20
-23.76563162176106
 10
-21.01528361683162
 20
-23.585097445636894
 10
-20.92911368400433
 20
-23.404563269512725
 10
-20.842943751177042
 20
-23.22402909338856
 10
-20.756773818349753
 20
-23.04349491726439
 10
-20.670603885522464
 20
-22.862960741140224
 10
-20.58443395269517
 20
-22.682426565016055
 10
-20.498264019867882
 20
-22.501892388891886
 10
-20.412094087040593
 20
-22.32135821276772
 10
-20.325924154213304
 20
-22.14082403664355
 10
-20.23975422138601
 20
-21.96028986051938
 10
-20.153584288558722
 20
-21.779755684395216
 10
-20.067414355731433
 20
-21.599221508271047
 10
-19.981244422904144
 20
-21.418687332146877
 10
-19.895074490076855
 20
-21.23815315602271
 10
-19.808904557249566
 20
-21.057618979898542
 10
-19.722734624422273
 20
-20.877084803774373
 10
-19.636564691594984
 20
-20.696550627650208
 10
-19.550394758767695
 20
-20.51601645152604
 10
-19.464224825940406
 20
-20.335482275401873
 10
-19.378054893113116
 20
-20.154948099277703
 10
-19.291884960285824
 20
-19.974413923153534
 10
-19.205715027458535
 20
-19.79387974702937
 10
-19.119545094631246
 20
-19.6133455709052
 10
-19.033375161803956
 20
-19.432811394781034
 10
-18.947205228976667
 20
-19.252277218656864
 10
-18.861035296149375
 20
-19.0717430425327
 10
-18.774865363322085
 20
-18.89120886640853
 10
-18.688695430494796
 20
-18.71067469028436
 10
-18.602525497667507
 20
-18.53014051416019
 10
-18.516355564840218
 20
-18.349606338036025
 10
-18.430185632012925
 20
-18.169072161911856
 10
-18.344015699185636
 20
-17.98853798578769
 10
-18.257845766358347
 20
-17.80800380966352
 10
-18.171675833531058
 20
-17.627469633539352
 10
-18.08550590070377
 20
-17.446935457415186
 10
-17.999335967876476
 20
-17.266401281291017
 10
-17.913166035049187
 20
-17.085867105166848
 10
-17.826996102221898
 20
-16.905332929042682
 10
-17.74082616939461
 20
-16.724798752918513
 10
-17.65465623656732
 20
-16.544264576794347
 10
-17.568486303740027
 20
-16.36373040067018
 10
-17.482316370912738
 20
-16.18319622454601
 10
-17.39614643808545
 20
-16.002662048421843
 10
-17.30997650525816
 20
-15.822127872297674
 10
-17.22380657243087
 20
-15.641593696173507
 10
-17.137636639603578
 20
-15.46105952004934
 10
-17.05146670677629
 20
-15.280525343925172
 10
-16.965296773949
 20
-15.099991167801003
 10
-16.87912684112171
 20
-14.919456991676835
 10
-16.79295690829442
 20
-14.738922815552668
 10
-16.706786975467132
 20
-14.5583886394285
 10
-16.62061704263984
 20
-14.377854463304331
 10
-16.53444710981255
 20
-14.197320287180164
 10
-16.44827717698526
 20
-14.016786111055996
 10
-16.362107244157972
 20
-13.836251934931829
 10
-16.275937311330683
 20
-13.65571775880766
 10
-16.18976737850339
 20
-13.475183582683492
 10
-16.1035974456761
 20
-13.294649406559325
 10
-16.017427512848812
 20
-13.114115230435157
 10
-15.931257580021523
 20
-12.93358105431099
 10
-15.845087647194232
 20
-12.75304687818682
 10
-15.758917714366943
 20
-12.572512702062653
 10
-15.672747781539654
 20
-12.391978525938486
 10
-15.586577848712363
 20
-12.211444349814318
 10
-15.500407915885074
 20
-12.030910173690149
 10
-15.424996736893412
 20
-11.842428358432084
 10
-15.344511875560901
 20
-11.656056612461363
 10
-15.259012300091424
 20
-11.471931483284415
 10
-15.168560652779654
 20
-11.290187872396782
 10
-15.073223204115397
 20
-11.110958936445918
 10
-14.973069804229723
 20
-10.934375989672374
 10
-14.868173831718419
 20
-10.760568407700827
 10
-14.758612139880274
 20
-10.58966353275148
 10
-14.644465000409593
 20
-10.42178658034124
 10
-14.525816044584166
 20
-10.25706054754307
 10
-14.402752201991806
 20
-10.095606122870684
 10
-14.275363636840332
 20
-9.937541597854672
 10
-14.14374368189769
 20
-9.782982780374773
 10
-14.007988770110558
 20
-9.632042909811833
 10
-14.120773420275018
 20
-9.465926157183699
 10
-14.231588239511023
 20
-9.298488919228301
 10
-14.340417769284407
 20
-9.129754553239206
 10
-14.447246828006511
 20
-8.959746597457755
 10
-14.552060513151973
 20
-8.788488767789552
 10
-14.654844203337644
 20
-8.616004954496082
 10
-14.755583560362208
 20
-8.442319218862114
 10
-14.854264531206388
 20
-8.267455789839087
 10
-14.950873349993293
 20
-8.091439060665312
 10
-15.04539653990877
 20
-7.914293585463026
 10
-15.13782091508137
 20
-7.736044075813232
 10
-15.228133582421796
 20
-7.556715397308381
 10
-15.316321943421437
 20
-7.3763325660837005
 10
-15.402373695909894
 20
-7.194920745327427
 10
-15.486276835771054
 20
-7.012505241770647
 10
-15.56801965861772
 20
-6.82911150215694
 10
-15.647590761424285
 20
-6.644765109692694
 10
-15.724979044117514
 20
-6.459491780478169
 10
-15.800173711124929
 20
-6.273317359920244
 10
-15.873164272880825
 20
-6.086267819126903
 10
-15.943940547289516
 20
-5.898369251284399
 10
-16.01249266114575
 20
-5.709647868017213
 10
-16.078811051511995
 20
-5.520129995731602
 10
-16.14288646705247
 20
-5.3298420719430535
 10
-16.204709969323677
 20
-5.138810641588368
 10
-16.264272934021324
 20
-4.947062353322566
 10
-16.32156705218339
 20
-4.754623955801517
 10
-16.376584331349214
 20
-4.5615222939504925
 10
-16.429317096674456
 20
-4.367784305219343
 10
-16.479757992001698
 20
-4.173437015824745
 10
-16.527899980886634
 20
-3.9785075369801186
 10
-16.573736347579654
 20
-3.783023061113565
 10
-16.617260697962667
 20
-3.5870108580746347
 10
-16.65846696044108
 20
-3.3904982713301766
 10
-16.697349386790783
 20
-3.1935127141499664
 10
-16.733902552960007
 20
-2.996081665782585
 10
-16.768121359825987
 20
-2.798232667622102
 10
-16.80000103390627
 20
-2.599993319366079
 10
-16.829537128024622
 20
-2.4013912751654463
 10
-16.856725521931395
 20
-2.2024542397667854
 10
-16.881562422878304
 20
-2.003209964647545
 10
-16.9040443661475
 20
-1.8036862441447465
 10
-16.924168215534905
 20
-1.6039109115777075
 10
-16.94193116378771
 20
-1.4039118353653253
 10
-16.957330732995967
 20
-1.203716915138467
 10
-16.970364774938272
 20
-1.0033540778480048
 10
-16.98103147138144
 20
-0.8028512738690394
 10
-16.98932933433412
 20
-0.6022364731018562
 10
-16.995257206254404
 20
-0.40153766107015854
 10
-16.998814260211283
 20
-0.20078283501711958
 10
-17.0
 20
1.9836933031227817e-13
 10
-16.99881426021128
 20
0.2007828350175163
 10
-16.995257206254397
 20
0.4015376610705551
 10
-16.989329334334105
 20
0.6022364731022527
 10
-16.98103147138142
 20
0.8028512738694357
 10
-16.97036477493825
 20
1.003354077848401
 10
-16.95733073299594
 20
1.203716915138863
 10
-16.941931163787675
 20
1.4039118353657205
 10
-16.92416821553487
 20
1.6039109115781025
 10
-16.904044366147456
 20
1.8036862441451411
 10
-16.881562422878257
 20
2.003209964647939
 10
-16.856725521931345
 20
2.2024542397671785
 10
-16.829537128024565
 20
2.4013912751658393
 10
-16.80000103390621
 20
2.599993319366471
 10
-16.76812135982592
 20
2.7982326676224933
 10
-16.733902552959936
 20
2.9960816657829756
 10
-16.69734938679071
 20
3.1935127141503554
 10
-16.658466960441
 20
3.3904982713305656
 10
-16.617260697962582
 20
3.587010858075023
 10
-16.573736347579565
 20
3.7830230611139517
 10
-16.52789998088654
 20
3.978507536980504
 10
-16.479757992001602
 20
4.1734370158251295
 10
-16.429317096674357
 20
4.367784305219725
 10
-16.37658433134911
 20
4.561522293950867
 10
-16.32156705218328
 20
4.754623955801891
 10
-16.26427293402121
 20
4.947062353322939
 10
-16.20470996932356
 20
5.138810641588739
 10
-16.142886467052346
 20
5.32984207194343
 10
-16.078811051511867
 20
5.52012999573197
 10
-16.012492661145615
 20
5.709647868017587
 10
-15.94394054728938
 20
5.898369251284771
 10
-15.873164272880683
 20
6.086267819127273
 10
-15.800173711124787
 20
6.273317359920606
 10
-15.724979044117363
 20
6.459491780478535
 10
-15.647590761424132
 20
6.6447651096930525
 10
-15.56801965861756
 20
6.8291115021573034
 10
-15.486276835770896
 20
7.012505241771002
 10
-15.402373695909727
 20
7.194920745327786
 10
-15.31632194342127
 20
7.376332566084051
 10
-15.228133582421618
 20
7.556715397308737
 10
-15.137820915081189
 20
7.736044075813585
 10
-15.045396539908586
 20
7.914293585463378
 10
-14.950873349993106
 20
8.091439060665655
 10
-14.854264531206196
 20
8.267455789839435
 10
-14.755583560362012
 20
8.442319218862451
 10
-14.654844203337444
 20
8.616004954496423
 10
-14.55206051315177
 20
8.788488767789888
 10
-14.447246828006302
 20
8.959746597458093
 10
-14.340417769284194
 20
9.12975455323954
 10
-14.231588239510806
 20
9.298488919228634
 10
-14.120773420274803
 20
9.465926157184022
 10
-14.007988770110337
 20
9.632042909812158
 10
-14.14374368189778
 20
9.782982780374894
 10
-14.27536363684041
 20
9.937541597854786
 10
-14.402752201991873
 20
10.095606122870791
 10
-14.525816044584225
 20
10.257060547543169
 10
-14.644465000409642
 20
10.421786580341333
 10
-14.758612139880313
 20
10.589663532751562
 10
-14.86817383171845
 20
10.7605684077009
 10
-14.973069804229748
 20
10.934375989672438
 10
-15.073223204115413
 20
11.110958936445972
 10
-15.168560652779664
 20
11.290187872396825
 10
-15.259012300091428
 20
11.47193148328445
 10
-15.344511875560901
 20
11.656056612461386
 10
-15.424996736893405
 20
11.842428358432095
 10
-15.500407915885035
 20
12.030910173690161
 10
-15.587600108215039
 20
12.213586080358237
 10
-15.674792300545022
 20
12.396261987026325
 10
-15.761984492875001
 20
12.578937893694407
 10
-15.849176685204982
 20
12.761613800362491
 10
-15.936368877534962
 20
12.944289707030576
 10
-16.023561069864947
 20
13.126965613698664
 10
-16.110753262194926
 20
13.309641520366744
 10
-16.197945454524906
 20
13.492317427034832
 10
-16.285137646854885
 20
13.674993333702915
 10
-16.372329839184868
 20
13.857669240371003
 10
-16.459522031514847
 20
14.040345147039083
 10
-16.54671422384483
 20
14.223021053707171
 10
-16.63390641617481
 20
14.405696960375257
 10
-16.721098608504793
 20
14.588372867043342
 10
-16.808290800834772
 20
14.771048773711426
 10
-16.895482993164755
 20
14.95372468037951
 10
-16.982675185494735
 20
15.136400587047595
 10
-17.069867377824718
 20
15.31907649371568
 10
-17.157059570154697
 20
15.501752400383765
 10
-17.244251762484677
 20
15.68442830705185
 10
-17.33144395481466
 20
15.867104213719934
 10
-17.41863614714464
 20
16.049780120388018
 10
-17.505828339474622
 20
16.232456027056102
 10
-17.5930205318046
 20
16.415131933724187
 10
-17.680212724134584
 20
16.597807840392274
 10
-17.767404916464564
 20
16.780483747060362
 10
-17.854597108794547
 20
16.963159653728447
 10
-17.941789301124526
 20
17.145835560396527
 10
-18.02898149345451
 20
17.328511467064615
 10
-18.11617368578449
 20
17.5111873737327
 10
-18.203365878114468
 20
17.693863280400784
 10
-18.29055807044445
 20
17.876539187068868
 10
-18.37775026277443
 20
18.059215093736952
 10
-18.464942455104413
 20
18.241891000405037
 10
-18.552134647434393
 20
18.42456690707312
 10
-18.639326839764372
 20
18.60724281374121
 10
-18.726519032094355
 20
18.789918720409293
 10
-18.813711224424335
 20
18.972594627077378
 10
-18.900903416754318
 20
19.155270533745462
 10
-18.988095609084297
 20
19.337946440413546
 10
-19.07528780141428
 20
19.52062234708163
 10
-19.16247999374426
 20
19.703298253749715
 10
-19.24967218607424
 20
19.8859741604178
 10
-19.336864378404222
 20
20.068650067085887
 10
-19.4240565707342
 20
20.25132597375397
 10
-19.511248763064184
 20
20.434001880422056
 10
-19.598440955394164
 20
20.61667778709014
 10
-19.685633147724147
 20
20.799353693758224
 10
-19.772825340054126
 20
20.98202960042631
 10
-19.86001753238411
 20
21.164705507094396
 10
-19.94720972471409
 20
21.34738141376248
 10
-20.03440191704407
 20
21.530057320430565
 10
-20.12159410937405
 20
21.71273322709865
 10
-20.20878630170403
 20
21.895409133766734
 10
-20.295978494034014
 20
22.07808504043482
 10
-20.383170686363993
 20
22.260760947102906
 10
-20.470362878693976
 20
22.44343685377099
 10
-20.31310262123387
 20
22.311189619297796
 10
-20.13630173103294
 20
22.206492127320303
 10
-19.94473752311828
 20
22.13217339584399
 10
-19.743586230302476
 20
22.09024158213709
 10
-19.538283136835656
 20
22.0818297205611
 10
-19.33437571226078
 20
22.107165106989186
 10
-19.137373713923978
 20
22.16556315707244
 10
-18.952600308501513
 20
22.255445904309077
 10
-18.78504823537018
 20
22.374384638082446
 10
-18.639244898412993
 20
22.519165529550786
 10
-18.51913003159778
 20
22.685876472119602
 10
-18.42794924391202
 20
22.87001278999097
 10
-18.368166320163095
 20
23.066598958452154
 10
-18.341396647353143
 20
23.27032304691463
 10
-18.348363565506318
 20
23.47568025193473
 10
-18.388878822387312
 20
23.677121641827885
 10
-18.461847660241727
 20
23.86920409366666
 10
-18.565298397110244
 20
24.046737371233377
 10
-18.696435703403402
 20
24.2049243697522
 10
-18.851716134157353
 20
24.33949073786506
 10
-19.02694387602278
 20
24.44680037435202
 10
-19.2173841218194
 20
24.523953678773424
 10
-19.417891009176266
 20
24.568865901215435
 10
-19.6230466662436
 20
24.580323474060066
 10
-19.82730760733919
 20
24.558016803645973
 10
-20.025154522790643
 20
24.502548635760554
 10
-20.211241415520654
 20
24.41541776892044
 10
-20.380540054574038
 20
24.298978555521813
 10
-20.528475842325633
 20
24.156377285174965
 10
-20.65105142411795
 20
23.99146716920116
 10
-20.7449547002879
 20
23.808704223485215
 10
-20.807648322002876
 20
23.613026863020394
 10
-20.837438252650337
 20
23.409722461606556
 10
-20.833519542191965
 20
23.204284482375446
 10
-20.9198465451692
 20
23.38514773534981
 10
-21.006173548146236
 20
23.566010988324198
 10
-21.092500551123273
 20
23.746874241298585
 10
-21.178827554100312
 20
23.92773749427297
 10
-21.26515455707735
 20
24.10860074724736
 10
-21.351481560054385
 20
24.289464000221745
 10
-21.437808563031425
 20
24.470327253196135
 10
-21.52413556600846
 20
24.65119050617052
 10
-21.610462568985497
 20
24.83205375914491
 10
-21.696789571962533
 20
25.012917012119292
 10
-21.783116574939573
 20
25.193780265093682
 10
-21.86944357791661
 20
25.37464351806807
 10
-21.95577058089365
 20
25.555506771042456
 10
-22.042097583870685
 20
25.736370024016843
 10
-22.12842458684772
 20
25.91723327699123
 10
-22.21475158982476
 20
26.09809652996562
 10
-22.301078592801797
 20
26.278959782940003
 10
-22.387405595778834
 20
26.45982303591439
 10
-22.47373259875587
 20
26.640686288888777
 10
-22.56005960173291
 20
26.821549541863167
 10
-22.646386604709946
 20
27.002412794837554
 10
-22.732713607686986
 20
27.18327604781194
 10
-22.819040610664022
 20
27.364139300786327
 10
-22.905367613641058
 20
27.545002553760714
 10
-22.991694616618094
 20
27.7258658067351
 10
-23.078021619595134
 20
27.906729059709487
 10
-23.16434862257217
 20
28.087592312683874
 10
-23.250675625549206
 20
28.26845556565826
 10
-23.337002628526246
 20
28.449318818632648
 10
-23.423329631503282
 20
28.630182071607035
 10
-23.50965663448032
 20
28.81104532458142
 10
-23.59598363745736
 20
28.99190857755581
 10
-23.682310640434395
 20
29.1727718305302
 10
-23.76863764341143
 20
29.353635083504585
 10
-23.85496464638847
 20
29.534498336478972
 10
-23.941291649365507
 20
29.71536158945336
 10
-24.027618652342543
 20
29.896224842427745
 10
-24.113945655319583
 20
30.077088095402132
 10
-24.20027265829662
 20
30.25795134837652
 10
-24.286599661273655
 20
30.438814601350906
 10
-24.372926664250695
 20
30.619677854325293
 10
-24.45925366722773
 20
30.80054110729968
 10
-24.545580670204767
 20
30.98140436027407
 10
-24.631907673181807
 20
31.162267613248456
 10
-24.718234676158843
 20
31.343130866222843
 10
-24.80456167913588
 20
31.52399411919723
 10
-24.89088868211292
 20
31.704857372171617
 10
-24.977215685089956
 20
31.885720625146003
 10
-25.063542688066992
 20
32.06658387812039
 10
-25.14986969104403
 20
32.24744713109478
 10
-25.236196694021068
 20
32.428310384069164
 10
-25.322523696998104
 20
32.609173637043554
 10
-25.408850699975144
 20
32.79003689001794
 10
-25.49517770295218
 20
32.97090014299233
 10
-25.581504705929216
 20
33.15176339596671
 10
-25.667831708906256
 20
33.3326266489411
 10
-25.754158711883292
 20
33.513489901915484
 10
-25.84048571486033
 20
33.694353154889875
 10
-25.926812717837368
 20
33.87521640786426
 10
-26.013139720814404
 20
34.05607966083865
 10
-26.110397547795444
 20
34.23187382653093
 10
-26.201170130485895
 20
34.4111027634586
 10
-26.285336350732795
 20
34.59352732586692
 10
-26.362783905274124
 20
34.77890410406766
 10
-26.43340945558542
 20
34.96698574922142
 10
-26.497118765764693
 20
35.157521303376015
 10
-26.55382682827171
 20
35.350256534320486
 10
-26.603457977353834
 20
35.54493427480796
 10
-26.645945990007057
 20
35.74129476569473
 10
-26.681234174337618
 20
35.939076002537796
 10
-26.709275445206135
 20
36.13801408518814
 10
-26.73003238705349
 20
36.33784356991365
 10
-26.743477303824516
 20
36.53829782358151
 10
-26.749592255922945
 20
36.73910937942766
 10
-26.748369084148255
 20
36.94001029393859
 10
-26.73980942058254
 20
37.140732504369225
 10
-26.723924686412786
 20
37.34100818641993
 10
-26.70073607669158
 20
37.540570111595336
 10
-26.670274532056453
 20
37.73915200376821
 10
-26.632580697445704
 20
37.936488894472554
 10
-26.587704867865718
 20
38.13231747645186
 10
-26.535706921282177
 20
38.32637645499089
 10
-26.476656238724694
 20
38.51840689656205
 10
-26.41063161171148
 20
38.70815257432121
 10
-26.337721137117576
 20
38.89536030999207
 10
-26.258022099626878
 20
39.079780311682704
 10
-26.171640841924894
 20
39.261166507183745
 10
-26.078692622805338
 20
39.439276872303296
 10
-25.979301463379944
 20
39.61387375380063
 10
-25.873599981596705
 20
39.784724186487665
 10
-25.7617292152873
 20
39.95160020407516
 10
-25.64383843397986
 20
40.11427914334894
 10
-25.520084939728147
 20
40.272543941270044
 10
-25.390633857222927
 20
40.42618342460276
 10
-25.255657913465527
 20
40.57499259168368
 10
-25.115337207297664
 20
40.71877288595613
 10
-24.969858969094954
 20
40.857332460904786
 10
-24.819417310944825
 20
40.99048643603718
 10
-24.664212967642108
 20
41.118057143570255
 10
-24.504453028847966
 20
41.239874365493144
 10
-24.34035066276947
 20
41.355775560689565
 10
-24.17212483172858
 20
41.46560608181698
 10
-23.99999999999999
 20
41.56921938165306
 10
-23.824205834307712
 20
41.666477208634106
 10
-23.64497689738004
 20
41.757249791324554
 10
-23.46255233497172
 20
41.841416011571454
 10
-23.277175556770977
 20
41.91886356611278
 10
-23.08909391161722
 20
41.989489116424075
 10
-22.898558357462623
 20
42.05319842660335
 10
-22.705823126518155
 20
42.10990648911037
 10
-22.511145386030684
 20
42.15953763819249
 10
-22.314784895143905
 20
42.20202565084572
 10
-22.117003658300845
 20
42.23731383517628
 10
-21.9180655756505
 20
42.265355106044794
 10
-21.718236090924986
 20
42.286112047892146
 10
-21.51778183725713
 20
42.299556964663175
 10
-21.316970281410978
 20
42.305671916761604
 10
-21.116069366900046
 20
42.304448744986914
 10
-20.915347156469412
 20
42.295889081421194
 10
-20.71507147441871
 20
42.28000434725145
 10
-20.515509549243298
 20
42.25681573753024
 10
-20.316927657070423
 20
42.226354192895116
 10
-20.119590766366088
 20
42.188660358284366
 10
-19.92376218438678
 20
42.14378452870438
 10
-19.729703205847745
 20
42.09178658212083
 10
-19.53767276427659
 20
42.03273589956335
 10
-19.34792708651743
 20
41.96671127255014
 10
-19.16071935084657
 20
41.89380079795623
 10
-18.976299349155934
 20
41.81410176046554
 10
-18.794913153654893
 20
41.72772050276355
 10
-18.616802788535338
 20
41.634772283644
 10
-18.44220590703801
 20
41.5353811242186
 10
-18.271355474350976
 20
41.42967964243537
 10
-18.104479456763475
 20
41.31780887612596
 10
-17.941800517489703
 20
41.199918094818514
 10
-17.783535719568594
 20
41.076164600566806
 10
-17.629896236235876
 20
40.946713518061586
 10
-17.481087069154956
 20
40.81173757430419
 10
-17.337306774882514
 20
40.671416868136326
 10
-17.198747199933848
 20
40.52593862993361
 10
-17.06559322480146
 20
40.375496971783484
 10
-16.938022517268383
 20
40.22029262848076
 10
-16.816205295345497
 20
40.060532689686625
 10
-16.700304100149076
 20
39.89643032360813
 10
-16.59047357902166
 20
39.728204492567244
 10
-16.486860279185578
 20
39.55607966083865
 10
-16.373598062824403
 20
39.39118722190573
 10
-16.260335846463228
 20
39.226294782972815
 10
-16.14707363010205
 20
39.061402344039905
 10
-16.033811413740867
 20
38.89650990510698
 10
-15.92054919737969
 20
38.73161746617407
 10
-15.80728698101851
 20
38.566725027241155
 10
-15.694024764657332
 20
38.40183258830824
 10
-15.580762548296155
 20
38.23694014937532
 10
-15.467500331934975
 20
38.072047710442405
 10
-15.354238115573796
 20
37.90715527150949
 10
-15.240975899212616
 20
37.74226283257657
 10
-15.12771368285144
 20
37.57737039364366
 10
-15.01445146649026
 20
37.412477954710745
 10
-14.901189250129082
 20
37.24758551577783
 10
-14.787927033767906
 20
37.08269307684492
 10
-14.674664817406725
 20
36.917800637911995
 10
-14.561402601045547
 20
36.752908198979085
 10
-14.448140384684367
 20
36.58801576004617
 10
-14.33487816832319
 20
36.42312332111325
 10
-14.221615951962011
 20
36.258230882180335
 10
-14.108353735600831
 20
36.09333844324742
 10
-13.995091519239654
 20
35.9284460043145
 10
-13.881829302878476
 20
35.76355356538159
 10
-13.768567086517296
 20
35.598661126448675
 10
-13.655304870156117
 20
35.43376868751576
 10
-13.542042653794939
 20
35.26887624858284
 10
-13.428780437433762
 20
35.10398380964993
 10
-13.315518221072582
 20
34.93909137071701
 10
-13.202256004711405
 20
34.7741989317841
 10
-13.088993788350226
 20
34.60930649285118
 10
-12.975731571989046
 20
34.444414053918265
 10
-12.862469355627868
 20
34.27952161498535
 10
-12.749207139266689
 20
34.11462917605243
 10
-12.63594492290551
 20
33.949736737119515
 10
-12.522682706544332
 20
33.784844298186606
 10
-12.409420490183152
 20
33.61995185925369
 10
-12.296158273821975
 20
33.45505942032077
 10
-12.182896057460795
 20
33.290166981387856
 10
-12.069633841099618
 20
33.125274542454946
 10
-11.95637162473844
 20
32.96038210352202
 10
-11.843109408377261
 20
32.79548966458911
 10
-11.729847192016083
 20
32.630597225656196
 10
-11.616584975654902
 20
32.46570478672328
 10
-11.503322759293725
 20
32.30081234779036
 10
-11.390060542932545
 20
32.135919908857446
 10
-11.276798326571367
 20
31.971027469924532
 10
-11.163536110210186
 20
31.806135030991616
 10
-11.05027389384901
 20
31.641242592058703
 10
-10.937011677487831
 20
31.476350153125786
 10
-10.823749461126653
 20
31.31145771419287
 10
-10.710487244765474
 20
31.146565275259952
 10
-10.597225028404296
 20
30.98167283632704
 10
-10.483962812043117
 20
30.816780397394126
 10
-10.370700595681939
 20
30.65188795846121
 10
-10.25743837932076
 20
30.486995519528293
 10
-10.144176162959582
 20
30.32210308059538
 10
-10.030913946598403
 20
30.157210641662463
 10
-9.917651730237223
 20
29.992318202729546
 10
-9.804389513876046
 20
29.827425763796633
 10
-9.691127297514868
 20
29.662533324863716
 10
-9.577865081153687
 20
29.4976408859308
 10
-9.46460286479251
 20
29.332748446997886
 10
-9.35134064843133
 20
29.16785600806497
 10
-9.238078432070152
 20
29.002963569132053
 10
-9.124816215708973
 20
28.83807113019914
 10
-9.011553999347795
 20
28.673178691266223
 10
-8.898291782986616
 20
28.508286252333306
 10
-8.785029566625438
 20
28.343393813400393
 10
-8.67176735026426
 20
28.178501374467476
 10
-8.55850513390308
 20
28.01360893553456
 10
-8.445242917541902
 20
27.848716496601646
 10
-8.331980701180724
 20
27.68382405766873
 10
-8.218718484819545
 20
27.518931618735813
 10
-8.105456268458365
 20
27.354039179802896
 10
-7.9921940520971875
 20
27.189146740869983
 10
-7.87893183573601
 20
27.024254301937066
 10
-7.765669619374831
 20
26.859361863004153
 10
-7.652407403013652
 20
26.694469424071237
 10
-7.5391451866524735
 20
26.52957698513832
 10
-7.425882970291294
 20
26.364684546205403
 10
-7.3126207539301165
 20
26.19979210727249
 10
-7.199358537568938
 20
26.034899668339573
 10
-7.0860963212077595
 20
25.87000722940666
 10
-6.97283410484658
 20
25.705114790473743
 10
-6.859571888485402
 20
25.540222351540827
 10
-6.746309672124222
 20
25.37532991260791
 10
-6.6330474557630446
 20
25.210437473674997
 10
-6.519785239401866
 20
25.04554503474208
 10
-6.4065230230406875
 20
24.880652595809167
 10
-6.293260806679509
 20
24.71576015687625
 10
-6.17999859031833
 20
24.550867717943333
 10
-6.066736373957152
 20
24.38597527901042
 10
-5.953474157595973
 20
24.221082840077504
 10
-5.840211941234794
 20
24.056190401144587
 10
-5.726949724873616
 20
23.891297962211674
 10
-5.613687508512437
 20
23.726405523278757
 10
-5.500425292151258
 20
23.56151308434584
 10
-5.387163075790079
 20
23.396620645412924
 10
-5.273900859428902
 20
23.23172820648001
 10
-5.160638643067722
 20
23.066835767547094
 10
-5.047376426706544
 20
22.901943328614177
 10
-4.934114210345365
 20
22.737050889681264
 10
-4.820851993984187
 20
22.572158450748347
 10
-4.707589777623008
 20
22.40726601181543
 10
-4.59432756126183
 20
22.242373572882517
 10
-4.48106534490065
 20
22.0774811339496
 10
-4.367803128539473
 20
21.912588695016687
 10
-4.254540912178294
 20
21.74769625608377
 10
-4.141278695817115
 20
21.582803817150854
 10
-4.028016479455936
 20
21.417911378217937
 10
-3.914754263094758
 20
21.253018939285024
 10
-3.8014920467335798
 20
21.088126500352107
 10
-3.688229830372401
 20
20.92323406141919
 10
-3.5749676140112223
 20
20.758341622486277
 10
-3.461705397650044
 20
20.59344918355336
 10
-3.348443181288865
 20
20.428556744620444
 10
-3.2351809649276864
 20
20.26366430568753
 10
-3.121918748566508
 20
20.098771866754614
 10
-3.0086565322053294
 20
19.933879427821697
 10
-2.8953943158441504
 20
19.768986988888784
 10
-2.782132099482972
 20
19.604094549955867
 10
-2.6688698831217934
 20
19.43920211102295
 10
-2.5433454324527256
 20
19.2796532066578
 10
-2.4221851965606715
 20
19.116765399138412
 10
-2.3054779449530782
 20
18.950658030180577
 10
-2.1933091846047548
 20
18.781452800350607
 10
-2.0857610973101766
 20
18.60927367989993
 10
-1.982912479472004
 20
18.43424681793677
 10
-1.8848386843699485
 20
18.256500450001525
 10
-1.791611566952282
 20
18.076164804113407
 10
-1.703299431190442
 20
17.893372005357342
 10
-1.6199669800353087
 20
17.70825597908093
 10
-1.5416752680118009
 20
17.520952352772415
 10
-1.4684816564865493
 20
17.331598356691575
 10
-1.4004397716413948
 20
17.140332723326324
 10
-1.3375994651835201
 20
16.947295585748673
 10
-1.137345812330879
 20
16.961911581634112
 10
-0.9369335011040166
 20
16.97416141123057
 10
-0.7363904887793101
 20
16.984043365701684
 10
-0.5357447508660687
 20
16.991556066526677
 10
-0.3350242772036785
 20
16.996698465692806
 10
-0.13425706805710358
 20
16.999469845841567
 10
0.06652886978918619
 20
16.99986982036876
 10
0.2673055269380633
 20
16.997898333478417
 10
0.468044895287054
 20
16.993555660190594
 10
0.6687189719354234
 20
16.98684240630299
 10
0.8692997630905581
 20
16.97775950830647
 10
1.0697592879730589
 20
16.96630823325438
 10
1.2700695827200148
 20
16.95249017858584
 10
1.470202704285954
 20
16.936307271902876
 10
1.670130734340836
 20
16.91776177070153
 10
1.869825783164655
 20
16.896856262056936
 10
2.069259993537991
 20
16.87359366226244
 10
2.2684055446280906
 20
16.847977216422763
 10
2.4672346558698086
 20
16.82001049800133
 10
2.6657195908409923
 20
16.789697408321764
 10
2.863832661131651
 20
16.757042176023656
 10
3.061546230206486
 20
16.72204935647268
 10
3.2588327172601224
 20
16.684723831125137
 10
3.4556646010646297
 20
16.645070806846956
 10
3.652014423808671
 20
16.6030958151874
 10
3.847854794927853
 20
16.55880471160738
 10
4.043158394925678
 20
16.51220367466263
 10
4.2378979791845675
 20
16.463299205141823
 10
4.43204638176646
 20
16.41209812515971
 10
4.625576519202436
 20
16.358607577205433
 10
4.818461394270812
 20
16.302835023146184
 10
5.010674099763238
 20
16.24478824318624
 10
5.202187822238203
 20
16.184475334781677
 10
5.392975845761497
 20
16.121904711510766
 10
5.583011555633038
 20
16.05708510190028
 10
5.772268442099589
 20
15.990025548207894
 10
5.960720104052855
 20
15.920735405160784
 10
6.148340252712378
 20
15.849224338650666
 10
6.335102715292815
 20
15.775502324385414
 10
6.520981438655003
 20
15.699579646497448
 10
6.705950492940327
 20
15.621466896109128
 10
6.88998407518793
 20
15.541174969855295
 10
7.07305651293417
 20
15.458715068363203
 10
7.255142267793908
 20
15.374098694690048
 10
7.436215939023088
 20
15.28733765271831
 10
7.616252267062106
 20
15.198444045509111
 10
7.795226137059481
 20
15.107430273613867
 10
7.973112582375348
 20
15.014309033344421
 10
8.149886788064293
 20
14.919093315001923
 10
8.325524094336986
 20
14.821796401064693
 10
8.500000000000194
 20
14.722431864335345
 10
8.673290165874688
 20
14.621013566047376
 10
8.845370418190496
 20
14.51755565393157
 10
9.016216751959158
 20
14.41207256024237
 10
9.185805334322346
 20
14.304578999744631
 10
9.354112507876549
 20
14.195089967660913
 10
9.521114793973258
 20
14.08362073757965
 10
9.68678889599418
 20
13.970186859324533
 10
9.851111702601115
 20
13.854804156785304
 10
10.014060290959943
 20
13.73748872571036
 10
10.175611929938349
 20
13.618256931461396
 10
10.335744083276765
 20
13.497125406730477
 10
10.494434412732177
 20
13.374111049219781
 10
10.65166078119426
 20
13.249231019284405
 10
10.807401255773499
 20
13.122502737538499
 10
10.961634110860782
 20
12.993943882425127
 10
11.114337831158108
 20
12.863572387750134
 10
11.265491114679943
 20
12.731406440180411
 10
11.415072875724826
 20
12.597464476706866
 10
11.563062247816779
 20
12.461765182072497
 10
11.709438586616182
 20
12.324327486165886
 10
11.854181472799624
 20
12.185170561380508
 10
11.997270714908357
 20
12.044313819940193
 10
12.138686352165008
 20
11.901776911191158
 10
12.278408657258069
 20
11.75757971886094
 10
12.416418139093828
 20
11.611742358284642
 10
12.552695545515363
 20
11.464285173598865
 10
12.687221865988194
 20
11.315228734903728
 10
12.819978334252225
 20
11.164593835393367
 10
12.950946430939617
 20
11.012401488455295
 10
13.080107886158215
 20
10.858672924739084
 10
13.207444682040187
 20
10.70342958919469
 10
13.332939055255475
 20
10.546693138080926
 10
13.456573499489778
 20
10.388485435944425
 10
13.57833076788665
 20
10.228828552569585
 10
13.698193875453418
 20
10.067744759899826
 10
13.816146101430578
 20
9.905256528930723
 10
13.932170991624297
 20
9.741386526575283
 10
14.04625236070178
 20
9.576157612501984
 10
14.158374294449093
 20
9.409592835945833
 10
14.26852115199117
 20
9.241715432493072
 10
14.376677567973703
 20
9.072548820839803
 10
14.482828454706603
 20
8.902116599525126
 10
14.586959004268685
 20
8.73044254363917
 10
14.689054690573382
 20
8.557550601506493
 10
14.789101271395106
 20
8.383464891345325
 10
14.887084790356019
 20
8.208209697903099
 10
14.982991578872939
 20
8.03180946906876
 10
15.07680825806408
 20
7.854288812462318
 10
15.168521740615402
 20
7.675672492002109
 10
15.258119232606267
 20
7.49598542445026
 10
15.345588235294176
 20
7.315252675936831
 10
15.544183453539175
 20
7.357349942951666
 10
15.743845293326968
 20
7.394056758837005
 10
15.944427470003687
 20
7.425346229901821
 10
16.145783024619547
 20
7.45119543153794
 10
16.3477644316001
 20
7.471585425016171
 10
16.550223706832615
 20
7.486501271361984
 10
16.75301251608842
 20
7.495932042300746
 10
16.955982283701772
 20
7.499870828264437
 10
17.158984301425612
 20
7.4983147434540385
 10
17.361869837384436
 20
7.491264927953847
 10
17.564490245044517
 20
7.4787265468961746
 10
17.76669707212158
 20
7.4607087866770545
 10
17.968342169346137
 20
7.437224848225716
 10
18.16927779900685
 20
7.408291937332768
 10
18.37107587100577
 20
7.392464637568175
 10
18.572873943004687
 20
7.376637337803554
 10
18.774672015003603
 20
7.360810038038933
 10
18.97647008700252
 20
7.344982738274312
 10
19.178268159001437
 20
7.329155438509691
 10
19.380066231000356
 20
7.31332813874507
 10
19.581864302999268
 20
7.29750083898045
 10
19.783662374998183
 20
7.281673539215829
 10
19.985460446997102
 20
7.265846239451208
 10
20.187258518996018
 20
7.250018939686587
 10
20.389056590994937
 20
7.234191639921966
 10
20.590854662993852
 20
7.218364340157345
 10
20.79265273499277
 20
7.202537040392724
 10
20.99445080699169
 20
7.186709740628103
 10
21.196248878990602
 20
7.170882440863482
 10
21.398046950989517
 20
7.155055141098861
 10
21.599845022988433
 20
7.1392278413342405
 10
21.80164309498735
 20
7.1234005415696195
 10
22.00344116698627
 20
7.107573241804999
 10
22.205239238985182
 20
7.091745942040378
 10
22.4070373109841
 20
7.075918642275757
 10
22.608835382983017
 20
7.060091342511136
 10
22.810633454981932
 20
7.044264042746515
 10
23.01243152698085
 20
7.028436742981894
 10
23.214229598979767
 20
7.012609443217273
 10
23.416027670978686
 20
6.996782143452652
 10
23.617825742977598
 20
6.980954843688031
 10
23.819623814976516
 20
6.96512754392341
 10
24.021421886975435
 20
6.949300244158789
 10
24.223219958974347
 20
6.933472944394169
 10
24.425018030973266
 20
6.917645644629548
 10
24.62681610297218
 20
6.901818344864926
 10
24.8286141749711
 20
6.8859910451003055
 10
25.030412246970016
 20
6.870163745335685
 10
25.23221031896893
 20
6.8543364455710645
 10
25.43400839096785
 20
6.8385091458064435
 10
25.635806462966762
 20
6.822681846041823
 10
25.83760453496568
 20
6.806854546277202
 10
26.0394026069646
 20
6.791027246512581
 10
26.241200678963516
 20
6.77519994674796
 10
26.44299875096243
 20
6.759372646983339
 10
26.644796822961347
 20
6.743545347218718
 10
26.846594894960266
 20
6.727718047454097
 10
27.04839296695918
 20
6.711890747689476
 10
27.250191038958096
 20
6.696063447924855
 10
27.451989110957015
 20
6.680236148160234
 10
27.65378718295593
 20
6.664408848395613
 10
27.855585254954846
 20
6.648581548630992
 10
28.057383326953765
 20
6.632754248866371
 10
28.25918139895268
 20
6.61692694910175
 10
28.460979470951596
 20
6.6010996493371294
 10
28.66277754295051
 20
6.5852723495725085
 10
28.86457561494943
 20
6.569445049807888
 10
29.066373686948346
 20
6.553617750043267
 10
29.26817175894726
 20
6.537790450278646
 10
29.46996983094618
 20
6.521963150514025
 10
29.671767902945096
 20
6.506135850749405
 10
29.478608309580917
 20
6.436068090020107
 10
29.29953717671536
 20
6.3353027736831935
 10
29.139393163322442
 20
6.206562668911448
 10
29.00250350101754
 20
6.053326446182353
 10
28.892567068466136
 20
5.879734682552557
 10
28.812554444440053
 20
5.690477979636406
 10
28.76462764017517
 20
5.490670219438791
 10
28.75008167993275
 20
5.285710382780832
 10
28.76930960830874
 20
5.081136664105632
 10
28.82179186982426
 20
4.882476824609955
 10
28.906110347770078
 20
4.695098827291347
 10
29.019986682963125
 20
4.524065789882686
 10
29.1603438370087
 20
4.373999174972978
 10
29.323389236575068
 20
4.24895391403729
 10
29.504717252049254
 20
4.152308839633956
 10
29.699428241510894
 20
4.086675386387152
 10
29.902260943351713
 20
4.05382702773431
 10
30.107734640175888
 20
4.05465135511931
 10
30.310297252588207
 20
4.089126094493646
 10
30.504475361245955
 20
4.15631970818075
 10
30.685022103447263
 20
4.254416565840542
 10
30.847058947960438
 20
4.380766004392702
 10
30.98620751721407
 20
4.531953951256527
 10
31.098707894896886
 20
4.703895175584653
 10
31.18152022219221
 20
4.89194367478144
 10
31.232406837427746
 20
5.091018213565539
 10
31.249992739655408
 20
5.295739623401127
 10
31.23380274238216
 20
5.500576152346831
 10
31.184274313525595
 20
5.699992937842012
 10
31.10274575464733
 20
5.888601563544723
 10
30.991420038871745
 20
6.061305659064446
 10
30.853305284621143
 20
6.213438608357251
 10
30.69213347361923
 20
6.340889645781808
 10
30.512259609473695
 20
6.44021493259028
 10
30.71205528264914
 20
6.424544683713793
 10
30.91185095582458
 20
6.408874434837288
 10
31.111646629000017
 20
6.393204185960783
 10
31.311442302175454
 20
6.377533937084278
 10
31.511237975350895
 20
6.361863688207773
 10
31.71103364852633
 20
6.346193439331268
 10
31.91082932170177
 20
6.330523190454763
 10
32.110624994877206
 20
6.314852941578258
 10
32.31042066805265
 20
6.299182692701753
 10
32.51021634122809
 20
6.2835124438252485
 10
32.710012014403524
 20
6.267842194948743
 10
32.90980768757896
 20
6.252171946072238
 10
33.1096033607544
 20
6.236501697195734
 10
33.309399033929836
 20
6.220831448319228
 10
33.50919470710527
 20
6.205161199442723
 10
33.70899038028072
 20
6.189490950566219
 10
33.908786053456154
 20
6.1738207016897135
 10
34.10858172663159
 20
6.158150452813208
 10
34.30837739980703
 20
6.142480203936704
 10
34.508173072982466
 20
6.126809955060199
 10
34.7079687461579
 20
6.111139706183693
 10
34.90776441933335
 20
6.095469457307189
 10
35.107560092508784
 20
6.079799208430684
 10
35.30735576568422
 20
6.0641289595541785
 10
35.50715143885966
 20
6.048458710677674
 10
35.706947112035095
 20
6.032788461801169
 10
35.90674278521053
 20
6.017118212924664
 10
36.10653845838598
 20
6.001447964048159
 10
36.306334131561414
 20
5.985777715171654
 10
36.50612980473685
 20
5.970107466295149
 10
36.70592547791229
 20
5.954437217418644
 10
36.905721151087725
 20
5.938766968542139
 10
37.10551682426316
 20
5.923096719665634
 10
37.30531249743861
 20
5.9074264707891295
 10
37.505108170614044
 20
5.891756221912624
 10
37.70490384378948
 20
5.876085973036119
 10
37.90469951696492
 20
5.860415724159614
 10
38.104495190140355
 20
5.844745475283109
 10
38.30429086331579
 20
5.829075226406604
 10
38.504086536491236
 20
5.813404977530099
 10
38.70388220966667
 20
5.7977347286535945
 10
38.90367788284211
 20
5.782064479777089
 10
39.10347355601755
 20
5.766394230900584
 10
39.303269229192985
 20
5.75072398202408
 10
39.50306490236842
 20
5.735053733147574
 10
39.702860575543866
 20
5.719383484271069
 10
39.9026562487193
 20
5.703713235394565
 10
40.10245192189474
 20
5.6880429865180595
 10
40.30224759507018
 20
5.672372737641554
 10
40.502043268245615
 20
5.65670248876505
 10
40.70183894142105
 20
5.641032239888545
 10
40.901634614596496
 20
5.625361991012039
 10
41.10143028777193
 20
5.609691742135535
 10
41.30122596094737
 20
5.59402149325903
 10
41.50102163412281
 20
5.5783512443825245
 10
41.700817307298244
 20
5.56268099550602
 10
41.90061298047368
 20
5.547010746629515
 10
42.100408653649126
 20
5.53134049775301
 10
42.30020432682456
 20
5.515670248876505
 10
42.5
 20
5.5
 10
42.70087112681713
 20
5.496330666036316
 10
42.90147423063499
 20
5.485327560149534
 10
43.10154164607831
 20
5.467005363819703
 10
43.30080642254253
 20
5.441388524413107
 10
43.4990026803869
 20
5.408511222562064
 10
43.695865965698566
 20
5.3684173265576
 10
43.891133603154245
 20
5.321160333815839
 10
44.08454504650881
 20
5.266803299496233
 10
44.27584222624295
 20
5.205418752366851
 10
44.46476989390623
 20
5.137088598029014
 10
44.651075962695856
 20
5.061904009630377
 10
44.83451184381698
 20
4.979965306212306
 10
45.01483277817551
 20
4.891381818853854
 10
45.19179816296097
 20
4.796271744790943
 10
45.36517187268362
 20
4.694761989705405
 10
45.53472257423745
 20
4.586987998394329
 10
45.70022403556874
 20
4.47309357404561
 10
45.86145542753817
 20
4.353230686360899
 10
46.018201618573904
 20
4.227559268781927
 10
46.17025346172232
 20
4.096247005090801
 10
46.31740807371349
 20
3.9594691056689775
 10
46.45946910566897
 20
3.817408073713487
 10
46.5962470050908
 20
3.670253461722317
 10
46.727559268781924
 20
3.5182016185739027
 10
46.853230686360895
 20
3.3614554275381714
 10
46.973093574045606
 20
3.2002240355687412
 10
47.08698799839433
 20
3.034722574237453
 10
47.194761989705405
 20
2.8651718726836175
 10
47.29627174479094
 20
2.6917981629609704
 10
47.39138181885385
 20
2.514832778175512
 10
47.47996530621231
 20
2.334511843816984
 10
47.561904009630375
 20
2.151075962695859
 10
47.63708859802902
 20
1.9647698939062306
 10
47.70541875236685
 20
1.7758422262429556
 10
47.76680329949623
 20
1.5845450465088073
 10
47.82116033381584
 20
1.391133603154246
 10
47.8684173265576
 20
1.1958659656985646
 10
47.90851122256206
 20
0.9990026803869019
 10
47.94138852441311
 20
0.8008064225425284
 10
47.9670053638197
 20
0.6015416460783098
 10
47.985327560149535
 20
0.4014742306349924
 10
47.996330666036314
 20
0.2008711268171249
 10
48.0
 20
1.5580231968531944e-15
 10
47.996330666036314
 20
-0.20087112681712177
 10
47.985327560149535
 20
-0.4014742306349917
 10
47.9670053638197
 20
-0.6015416460783081
 10
47.94138852441311
 20
-0.8008064225425254
 10
47.90851122256206
 20
-0.9990026803868988
 10
47.8684173265576
 20
-1.1958659656985626
 10
47.82116033381584
 20
-1.3911336031542432
 10
47.76680329949623
 20
-1.5845450465088042
 10
47.70541875236685
 20
-1.7758422262429516
 10
47.63708859802902
 20
-1.96476989390623
 10
47.561904009630375
 20
-2.1510759626958573
 10
47.47996530621231
 20
-2.334511843816982
 10
47.39138181885386
 20
-2.5148327781755095
 10
47.29627174479094
 20
-2.691798162960969
 10
47.194761989705405
 20
-2.865171872683616
 10
47.08698799839433
 20
-3.0347225742374504
 10
46.973093574045606
 20
-3.2002240355687395
 10
46.853230686360895
 20
-3.361455427538171
 10
46.72755926878193
 20
-3.518201618573901
 10
46.5962470050908
 20
-3.6702534617223144
 10
46.45946910566898
 20
-3.817408073713485
 10
46.31740807371349
 20
-3.959469105668976
 10
46.17025346172232
 20
-4.096247005090801
 10
46.018201618573904
 20
-4.227559268781924
 10
45.861455427538175
 20
-4.353230686360896
 10
45.700224035568745
 20
-4.473093574045608
 10
45.534722574237456
 20
-4.586987998394328
 10
45.36517187268362
 20
-4.6947619897054045
 10
45.19179816296097
 20
-4.79627174479094
 10
45.01483277817552
 20
-4.891381818853852
 10
44.83451184381698
 20
-4.979965306212305
 10
44.651075962695856
 20
-5.061904009630377
 10
44.46476989390624
 20
-5.137088598029013
 10
44.27584222624296
 20
-5.2054187523668505
 10
44.08454504650881
 20
-5.266803299496232
 10
43.891133603154245
 20
-5.321160333815838
 10
43.695865965698566
 20
-5.368417326557599
 10
43.4990026803869
 20
-5.408511222562064
 10
43.30080642254253
 20
-5.441388524413106
 10
43.10154164607831
 20
-5.467005363819702
 10
42.901474230634996
 20
-5.485327560149534
 10
42.70087112681713
 20
-5.496330666036316
 10
42.5
 20
-5.5
 10
42.30056785081153
 20
-5.5156417371912525
 10
42.101135701623065
 20
-5.531283474382505
 10
41.9017035524346
 20
-5.546925211573757
 10
41.70227140324613
 20
-5.562566948765009
 10
41.50283925405766
 20
-5.578208685956262
 10
41.30340710486919
 20
-5.593850423147514
 10
41.10397495568073
 20
-5.609492160338767
 10
40.90454280649226
 20
-5.625133897530019
 10
40.705110657303784
 20
-5.640775634721272
 10
40.50567850811532
 20
-5.656417371912524
 10
40.30624635892685
 20
-5.672059109103777
 10
40.10681420973838
 20
-5.687700846295029
 10
39.907382060549914
 20
-5.703342583486282
 10
39.707949911361446
 20
-5.718984320677533
 10
39.50851776217298
 20
-5.734626057868786
 10
39.30908561298451
 20
-5.750267795060038
 10
39.10965346379604
 20
-5.765909532251291
 10
38.91022131460757
 20
-5.781551269442543
 10
38.7107891654191
 20
-5.797193006633796
 10
38.51135701623063
 20
-5.812834743825048
 10
38.311924867042165
 20
-5.828476481016301
 10
38.1124927178537
 20
-5.844118218207553
 10
37.91306056866523
 20
-5.859759955398806
 10
37.71362841947676
 20
-5.875401692590058
 10
37.514196270288295
 20
-5.89104342978131
 10
37.31476412109982
 20
-5.906685166972563
 10
37.11533197191136
 20
-5.922326904163815
 10
36.915899822722885
 20
-5.937968641355067
 10
36.716467673534424
 20
-5.95361037854632
 10
36.51703552434596
 20
-5.969252115737572
 10
36.31760337515748
 20
-5.984893852928825
 10
36.118171225969014
 20
-6.000535590120077
 10
35.91873907678055
 20
-6.01617732731133
 10
35.71930692759208
 20
-6.031819064502582
 10
35.51987477840361
 20
-6.047460801693834
 10
35.32044262921514
 20
-6.063102538885087
 10
35.121010480026676
 20
-6.078744276076339
 10
34.9215783308382
 20
-6.0943860132675916
 10
34.72214618164974
 20
-6.110027750458844
 10
34.522714032461266
 20
-6.125669487650097
 10
34.3232818832728
 20
-6.141311224841349
 10
34.12384973408433
 20
-6.156952962032602
 10
33.92441758489586
 20
-6.172594699223854
 10
33.724985435707396
 20
-6.188236436415107
 10
33.52555328651893
 20
-6.203878173606359
 10
33.32612113733046
 20
-6.219519910797611
 10
33.126688988141986
 20
-6.235161647988864
 10
32.927256838953525
 20
-6.250803385180116
 10
32.72782468976505
 20
-6.266445122371368
 10
32.52839254057658
 20
-6.282086859562621
 10
32.328960391388115
 20
-6.297728596753873
 10
32.12952824219965
 20
-6.313370333945126
 10
31.93009609301118
 20
-6.329012071136378
 10
31.730663943822712
 20
-6.344653808327631
 10
31.531231794634245
 20
-6.360295545518882
 10
31.331799645445777
 20
-6.375937282710135
 10
31.132367496257306
 20
-6.391579019901387
 10
30.932935347068838
 20
-6.40722075709264
 10
30.73350319788037
 20
-6.422862494283892
 10
30.534071048691903
 20
-6.438504231475145
 10
30.33463889950343
 20
-6.454145968666397
 10
30.135206750314964
 20
-6.46978770585765
 10
29.935774601126496
 20
-6.485429443048902
 10
29.73634245193803
 20
-6.501071180240155
 10
29.53691030274956
 20
-6.516712917431407
 10
29.33747815356109
 20
-6.53235465462266
 10
29.138046004372622
 20
-6.547996391813912
 10
28.938613855184155
 20
-6.563638129005164
 10
28.739181705995687
 20
-6.5792798661964165
 10
28.539749556807216
 20
-6.594921603387669
 10
28.340317407618752
 20
-6.6105633405789215
 10
28.14088525843028
 20
-6.626205077770174
 10
27.941453109241813
 20
-6.6418468149614265
 10
27.742020960053345
 20
-6.657488552152679
 10
27.542588810864878
 20
-6.6731302893439315
 10
27.34315666167641
 20
-6.688772026535184
 10
27.14372451248794
 20
-6.704413763726436
 10
26.94429236329947
 20
-6.720055500917688
 10
26.744860214111004
 20
-6.735697238108941
 10
26.545428064922532
 20
-6.751338975300193
 10
26.345995915734065
 20
-6.766980712491446
 10
26.1465637665456
 20
-6.782622449682698
 10
25.94713161735713
 20
-6.798264186873951
 10
25.747699468168662
 20
-6.813905924065203
 10
25.54826731898019
 20
-6.829547661256456
 10
25.348835169791723
 20
-6.845189398447708
 10
25.149403020603255
 20
-6.860831135638961
 10
24.949970871414788
 20
-6.876472872830213
 10
24.75053872222632
 20
-6.892114610021465
 10
24.551106573037853
 20
-6.907756347212717
 10
24.35167442384938
 20
-6.92339808440397
 10
24.152242274660914
 20
-6.939039821595222
 10
23.952810125472446
 20
-6.954681558786475
 10
23.75337797628398
 20
-6.970323295977727
 10
23.55394582709551
 20
-6.98596503316898
 10
23.35451367790704
 20
-7.001606770360232
 10
23.155081528718572
 20
-7.017248507551485
 10
22.955649379530104
 20
-7.032890244742737
 10
22.756217230341637
 20
-7.048531981933989
 10
22.556785081153166
 20
-7.064173719125241
 10
22.357352931964698
 20
-7.079815456316494
 10
22.15792078277623
 20
-7.095457193507746
 10
21.958488633587763
 20
-7.111098930698999
 10
21.759056484399295
 20
-7.126740667890251
 10
21.559624335210827
 20
-7.142382405081504
 10
21.360192186022356
 20
-7.158024142272756
 10
21.16076003683389
 20
-7.173665879464009
 10
20.96132788764542
 20
-7.189307616655261
 10
20.761895738456953
 20
-7.204949353846514
 10
20.562463589268486
 20
-7.2205910910377655
 10
20.363031440080015
 20
-7.236232828229018
 10
20.163599290891547
 20
-7.2518745654202705
 10
19.96416714170308
 20
-7.267516302611523
 10
19.76473499251461
 20
-7.2831580398027755
 10
19.565302843326144
 20
-7.298799776994028
 10
19.365870694137673
 20
-7.3144415141852805
 10
19.166438544949205
 20
-7.330083251376533
 10
18.967006395760738
 20
-7.3457249885677856
 10
18.76757424657227
 20
-7.361366725759038
 10
18.568142097383802
 20
-7.37700846295029
 10
18.36870994819533
 20
-7.392650200141542
 10
18.169277799006863
 20
-7.408291937332795
  0
CIRCLE
  5
39
330
17
100
AcDbEntity
  8
NPTH
100
AcDbCircle
 10
0.0
 20
0.0
 30
0.0
 40
11.6
  0
CIRCLE
  5
3A
330
17
100
AcDbEntity
  8
NPTH
100
AcDbCircle
 10
30.0
 20
5.3
 30
0.0
 40
1.25
  0
CIRCLE
  5
3B
330
17
100
AcDbEntity
  8
NPTH
100
AcDbCircle
 10
-19.58993464005752
 20
23.33076211353316
 30
0.0
 40
1.25
  0
CIRCLE
  5
3C
330
17
100
AcDbEntity
  8
NPTH
100
AcDbCircle
 10
-10.410065359942491
 20
-28.630762113533155
 30
0.0
 40
1.25
  0
LWPOLYLINE
  5
3D
330
17
100
AcDbEntity
  8
LED_TOP
100
AcDbPolyline
 90
4
 70
1
 10
13.8
 20
-1.0
 10
15.8
 20
-1.0
 10
15.8
 20
1.0
 10
13.8
 20
1.0
  0
TEXT
  5
3E
330
17
100
AcDbEntity
  8
NOTES
100
AcDbText
 10
14.8
 20
0.0
 30
0.0
 40
0.65
  1
D1_01
100
AcDbText
  0
LWPOLYLINE
  5
3F
330
17
100
AcDbEntity
  8
LED_TOP
100
AcDbPolyline
 90
4
 70
1
 10
16.0
 20
-1.0
 10
18.0
 20
-1.0
 10
18.0
 20
1.0
 10
16.0
 20
1.0
  0
TEXT
  5
40
330
17
100
AcDbEntity
  8
NOTES
100
AcDbText
 10
17.0
 20
0.0
 30
0.0
 40
0.65
  1
D1_02
100
AcDbText
  0
LWPOLYLINE
  5
41
330
17
100
AcDbEntity
  8
LED_TOP
100
AcDbPolyline
 90
4
 70
1
 10
18.200000000000003
 20
-1.0
 10
20.200000000000003
 20
-1.0
 10
20.200000000000003
 20
1.0
 10
18.200000000000003
 20
1.0
  0
TEXT
  5
42
330
17
100
AcDbEntity
  8
NOTES
100
AcDbText
 10
19.200000000000003
 20
0.0
 30
0.0
 40
0.65
  1
D1_03
100
AcDbText
  0
LWPOLYLINE
  5
43
330
17
100
AcDbEntity
  8
LED_TOP
100
AcDbPolyline
 90
4
 70
1
 10
20.400000000000002
 20
-1.0
 10
22.400000000000002
 20
-1.0
 10
22.400000000000002
 20
1.0
 10
20.400000000000002
 20
1.0
  0
TEXT
  5
44
330
17
100
AcDbEntity
  8
NOTES
100
AcDbText
 10
21.400000000000002
 20
0.0
 30
0.0
 40
0.65
  1
D1_04
100
AcDbText
  0
LWPOLYLINE
  5
45
330
17
100
AcDbEntity
  8
LED_TOP
100
AcDbPolyline
 90
4
 70
1
 10
22.6
 20
-1.0
 10
24.6
 20
-1.0
 10
24.6
 20
1.0
 10
22.6
 20
1.0
  0
TEXT
  5
46
330
17
100
AcDbEntity
  8
NOTES
100
AcDbText
 10
23.6
 20
0.0
 30
0.0
 40
0.65
  1
D1_05
100
AcDbText
  0
LWPOLYLINE
  5
47
330
17
100
AcDbEntity
  8
LED_TOP
100
AcDbPolyline
 90
4
 70
1
 10
24.8
 20
-1.0
 10
26.8
 20
-1.0
 10
26.8
 20
1.0
 10
24.8
 20
1.0
  0
TEXT
  5
48
330
17
100
AcDbEntity
  8
NOTES
100
AcDbText
 10
25.8
 20
0.0
 30
0.0
 40
0.65
  1
D1_06
100
AcDbText
  0
LWPOLYLINE
  5
49
330
17
100
AcDbEntity
  8
LED_TOP
100
AcDbPolyline
 90
4
 70
1
 10
27.0
 20
-1.0
 10
29.0
 20
-1.0
 10
29.0
 20
1.0
 10
27.0
 20
1.0
  0
TEXT
  5
4A
330
17
100
AcDbEntity
  8
NOTES
100
AcDbText
 10
28.0
 20
0.0
 30
0.0
 40
0.65
  1
D1_07
100
AcDbText
  0
LWPOLYLINE
  5
4B
330
17
100
AcDbEntity
  8
LED_TOP
100
AcDbPolyline
 90
4
 70
1
 10
29.200000000000003
 20
-1.0
 10
31.200000000000003
 20
-1.0
 10
31.200000000000003
 20
1.0
 10
29.200000000000003
 20
1.0
  0
TEXT
  5
4C
330
17
100
AcDbEntity
  8
NOTES
100
AcDbText
 10
30.200000000000003
 20
0.0
 30
0.0
 40
0.65
  1
D1_08
100
AcDbText
  0
LWPOLYLINE
  5
4D
330
17
100
AcDbEntity
  8
LED_TOP
100
AcDbPolyline
 90
4
 70
1
 10
31.400000000000006
 20
-1.0
 10
33.400000000000006
 20
-1.0
 10
33.400000000000006
 20
1.0
 10
31.400000000000006
 20
1.0
  0
TEXT
  5
4E
330
17
100
AcDbEntity
  8
NOTES
100
AcDbText
 10
32.400000000000006
 20
0.0
 30
0.0
 40
0.65
  1
D1_09
100
AcDbText
  0
LWPOLYLINE
  5
4F
330
17
100
AcDbEntity
  8
LED_TOP
100
AcDbPolyline
 90
4
 70
1
 10
33.6
 20
-1.0
 10
35.6
 20
-1.0
 10
35.6
 20
1.0
 10
33.6
 20
1.0
  0
TEXT
  5
50
330
17
100
AcDbEntity
  8
NOTES
100
AcDbText
 10
34.6
 20
0.0
 30
0.0
 40
0.65
  1
D1_10
100
AcDbText
  0
LWPOLYLINE
  5
51
330
17
100
AcDbEntity
  8
LED_TOP
100
AcDbPolyline
 90
4
 70
1
 10
35.8
 20
-1.0
 10
37.8
 20
-1.0
 10
37.8
 20
1.0
 10
35.8
 20
1.0
  0
TEXT
  5
52
330
17
100
AcDbEntity
  8
NOTES
100
AcDbText
 10
36.8
 20
0.0
 30
0.0
 40
0.65
  1
D1_11
100
AcDbText
  0
LWPOLYLINE
  5
53
330
17
100
AcDbEntity
  8
LED_TOP
100
AcDbPolyline
 90
4
 70
1
 10
38.0
 20
-1.0
 10
40.0
 20
-1.0
 10
40.0
 20
1.0
 10
38.0
 20
1.0
  0
TEXT
  5
54
330
17
100
AcDbEntity
  8
NOTES
100
AcDbText
 10
39.0
 20
0.0
 30
0.0
 40
0.65
  1
D1_12
100
AcDbText
  0
LWPOLYLINE
  5
55
330
17
100
AcDbEntity
  8
LED_TOP
100
AcDbPolyline
 90
4
 70
1
 10
40.2
 20
-1.0
 10
42.2
 20
-1.0
 10
42.2
 20
1.0
 10
40.2
 20
1.0
  0
TEXT
  5
56
330
17
100
AcDbEntity
  8
NOTES
100
AcDbText
 10
41.2
 20
0.0
 30
0.0
 40
0.65
  1
D1_13
100
AcDbText
  0
LWPOLYLINE
  5
57
330
17
100
AcDbEntity
  8
LED_TOP
100
AcDbPolyline
 90
4
 70
1
 10
42.400000000000006
 20
-1.0
 10
44.400000000000006
 20
-1.0
 10
44.400000000000006
 20
1.0
 10
42.400000000000006
 20
1.0
  0
TEXT
  5
58
330
17
100
AcDbEntity
  8
NOTES
100
AcDbText
 10
43.400000000000006
 20
0.0
 30
0.0
 40
0.65
  1
D1_14
100
AcDbText
  0
LWPOLYLINE
  5
59
330
17
100
AcDbEntity
  8
LED_TOP
100
AcDbPolyline
 90
4
 70
1
 10
44.60000000000001
 20
-1.0
 10
46.60000000000001
 20
-1.0
 10
46.60000000000001
 20
1.0
 10
44.60000000000001
 20
1.0
  0
TEXT
  5
5A
330
17
100
AcDbEntity
  8
NOTES
100
AcDbText
 10
45.60000000000001
 20
0.0
 30
0.0
 40
0.65
  1
D1_15
100
AcDbText
  0
LWPOLYLINE
  5
5B
330
17
100
AcDbEntity
  8
LED_TOP
100
AcDbPolyline
 90
4
 70
1
 10
-6.033974596215559
 20
12.451150572225254
 10
-7.033974596215559
 20
14.183201379794133
 10
-8.766025403784436
 20
13.183201379794133
 10
-7.766025403784436
 20
11.451150572225254
  0
TEXT
  5
5C
330
17
100
AcDbEntity
  8
NOTES
100
AcDbText
 10
-7.399999999999998
 20
12.817175976009693
 30
0.0
 40
0.65
  1
D2_01
100
AcDbText
  0
LWPOLYLINE
  5
5D
330
17
100
AcDbEntity
  8
LED_TOP
100
AcDbPolyline
 90
4
 70
1
 10
-7.133974596215559
 20
14.35640646055102
 10
-8.133974596215557
 20
16.088457268119896
 10
-9.866025403784436
 20
15.088457268119896
 10
-8.866025403784436
 20
13.35640646055102
  0
TEXT
  5
5E
330
17
100
AcDbEntity
  8
NOTES
100
AcDbText
 10
-8.499999999999996
 20
14.722431864335459
 30
0.0
 40
0.65
  1
D2_02
100
AcDbText
  0
LWPOLYLINE
  5
5F
330
17
100
AcDbEntity
  8
LED_TOP
100
AcDbPolyline
 90
4
 70
1
 10
-8.233974596215559
 20
16.261662348876786
 10
-9.233974596215559
 20
17.993713156445665
 10
-10.966025403784437
 20
16.993713156445665
 10
-9.966025403784437
 20
15.261662348876786
  0
TEXT
  5
60
330
17
100
AcDbEntity
  8
NOTES
100
AcDbText
 10
-9.599999999999998
 20
16.627687752661224
 30
0.0
 40
0.65
  1
D2_03
100
AcDbText
  0
LWPOLYLINE
  5
61
330
17
100
AcDbEntity
  8
LED_TOP
100
AcDbPolyline
 90
4
 70
1
 10
-9.333974596215558
 20
18.16691823720255
 10
-10.333974596215558
 20
19.89896904477143
 10
-12.066025403784437
 20
18.89896904477143
 10
-11.066025403784437
 20
17.16691823720255
  0
TEXT
  5
62
330
17
100
AcDbEntity
  8
NOTES
100
AcDbText
 10
-10.699999999999998
 20
18.53294364098699
 30
0.0
 40
0.65
  1
D2_04
100
AcDbText
  0
LWPOLYLINE
  5
63
330
17
100
AcDbEntity
  8
LED_TOP
100
AcDbPolyline
 90
4
 70
1
 10
-10.433974596215558
 20
20.072174125528317
 10
-11.433974596215558
 20
21.804224933097192
 10
-13.166025403784436
 20
20.804224933097192
 10
-12.166025403784436
 20
19.072174125528317
  0
TEXT
  5
64
330
17
100
AcDbEntity
  8
NOTES
100
AcDbText
 10
-11.799999999999997
 20
20.438199529312755
 30
0.0
 40
0.65
  1
D2_05
100
AcDbText
  0
LWPOLYLINE
  5
65
330
17
100
AcDbEntity
  8
LED_TOP
100
AcDbPolyline
 90
4
 70
1
 10
-11.533974596215558
 20
21.97743001385408
 10
-12.533974596215556
 20
23.709480821422957
 10
-14.266025403784434
 20
22.709480821422957
 10
-13.266025403784436
 20
20.97743001385408
  0
TEXT
  5
66
330
17
100
AcDbEntity
  8
NOTES
100
AcDbText
 10
-12.899999999999997
 20
22.34345541763852
 30
0.0
 40
0.65
  1
D2_06
100
AcDbText
  0
LWPOLYLINE
  5
67
330
17
100
AcDbEntity
  8
LED_TOP
100
AcDbPolyline
 90
4
 70
1
 10
-12.633974596215555
 20
23.882685902179844
 10
-13.633974596215555
 20
25.614736709748723
 10
-15.366025403784434
 20
24.614736709748723
 10
-14.366025403784434
 20
22.882685902179844
  0
TEXT
  5
68
330
17
100
AcDbEntity
  8
NOTES
100
AcDbText
 10
-13.999999999999995
 20
24.248711305964285
 30
0.0
 40
0.65
  1
D2_07
100
AcDbText
  0
LWPOLYLINE
  5
69
330
17
100
AcDbEntity
  8
LED_TOP
100
AcDbPolyline
 90
4
 70
1
 10
-13.733974596215557
 20
25.787941790505613
 10
-14.733974596215557
 20
27.51999259807449
 10
-16.466025403784435
 20
26.51999259807449
 10
-15.466025403784435
 20
24.787941790505613
  0
TEXT
  5
6A
330
17
100
AcDbEntity
  8
NOTES
100
AcDbText
 10
-15.099999999999996
 20
26.15396719429005
 30
0.0
 40
0.65
  1
D2_08
100
AcDbText
  0
LWPOLYLINE
  5
6B
330
17
100
AcDbEntity
  8
LED_TOP
100
AcDbPolyline
 90
4
 70
1
 10
-14.833974596215558
 20
27.693197678831382
 10
-15.833974596215556
 20
29.425248486400257
 10
-17.566025403784433
 20
28.425248486400257
 10
-16.566025403784437
 20
26.693197678831382
  0
TEXT
  5
6C
330
17
100
AcDbEntity
  8
NOTES
100
AcDbText
 10
-16.199999999999996
 20
28.05922308261582
 30
0.0
 40
0.65
  1
D2_09
100
AcDbText
  0
LWPOLYLINE
  5
6D
330
17
100
AcDbEntity
  8
LED_TOP
100
AcDbPolyline
 90
4
 70
1
 10
-15.933974596215554
 20
29.59845356715714
 10
-16.933974596215556
 20
31.33050437472602
 10
-18.66602540378443
 20
30.33050437472602
 10
-17.66602540378443
 20
28.59845356715714
  0
TEXT
  5
6E
330
17
100
AcDbEntity
  8
NOTES
100
AcDbText
 10
-17.299999999999994
 20
29.96447897094158
 30
0.0
 40
0.65
  1
D2_10
100
AcDbText
  0
LWPOLYLINE
  5
6F
330
17
100
AcDbEntity
  8
LED_TOP
100
AcDbPolyline
 90
4
 70
1
 10
-17.033974596215554
 20
31.503709455482902
 10
-18.033974596215554
 20
33.23576026305178
 10
-19.76602540378443
 20
32.23576026305178
 10
-18.76602540378443
 20
30.503709455482902
  0
TEXT
  5
70
330
17
100
AcDbEntity
  8
NOTES
100
AcDbText
 10
-18.39999999999999
 20
31.869734859267343
 30
0.0
 40
0.65
  1
D2_11
100
AcDbText
  0
LWPOLYLINE
  5
71
330
17
100
AcDbEntity
  8
LED_TOP
100
AcDbPolyline
 90
4
 70
1
 10
-18.133974596215555
 20
33.408965343808674
 10
-19.133974596215555
 20
35.14101615137755
 10
-20.86602540378443
 20
34.14101615137755
 10
-19.86602540378443
 20
32.408965343808674
  0
TEXT
  5
72
330
17
100
AcDbEntity
  8
NOTES
100
AcDbText
 10
-19.499999999999993
 20
33.77499074759311
 30
0.0
 40
0.65
  1
D2_12
100
AcDbText
  0
LWPOLYLINE
  5
73
330
17
100
AcDbEntity
  8
LED_TOP
100
AcDbPolyline
 90
4
 70
1
 10
-19.233974596215557
 20
35.314221232134436
 10
-20.233974596215557
 20
37.04627203970332
 10
-21.966025403784432
 20
36.04627203970332
 10
-20.966025403784432
 20
34.314221232134436
  0
TEXT
  5
74
330
17
100
AcDbEntity
  8
NOTES
100
AcDbText
 10
-20.599999999999994
 20
35.68024663591888
 30
0.0
 40
0.65
  1
D2_13
100
AcDbText
  0
LWPOLYLINE
  5
75
330
17
100
AcDbEntity
  8
LED_TOP
100
AcDbPolyline
 90
4
 70
1
 10
-20.33397459621556
 20
37.219477120460205
 10
-21.33397459621556
 20
38.95152792802909
 10
-23.066025403784433
 20
37.95152792802909
 10
-22.066025403784433
 20
36.219477120460205
  0
TEXT
  5
76
330
17
100
AcDbEntity
  8
NOTES
100
AcDbText
 10
-21.699999999999996
 20
37.585502524244646
 30
0.0
 40
0.65
  1
D2_14
100
AcDbText
  0
LWPOLYLINE
  5
77
330
17
100
AcDbEntity
  8
LED_TOP
100
AcDbPolyline
 90
4
 70
1
 10
-21.43397459621556
 20
39.124733008785974
 10
-22.43397459621556
 20
40.85678381635485
 10
-24.166025403784435
 20
39.85678381635485
 10
-23.166025403784435
 20
38.124733008785974
  0
TEXT
  5
78
330
17
100
AcDbEntity
  8
NOTES
100
AcDbText
 10
-22.799999999999997
 20
39.490758412570415
 30
0.0
 40
0.65
  1
D2_15
100
AcDbText
  0
LWPOLYLINE
  5
79
330
17
100
AcDbEntity
  8
LED_TOP
100
AcDbPolyline
 90
4
 70
1
 10
-7.766025403784445
 20
-11.45115057222525
 10
-8.766025403784447
 20
-13.183201379794127
 10
-7.033974596215569
 20
-14.183201379794127
 10
-6.033974596215568
 20
-12.45115057222525
  0
TEXT
  5
7A
330
17
100
AcDbEntity
  8
NOTES
100
AcDbText
 10
-7.400000000000007
 20
-12.817175976009688
 30
0.0
 40
0.65
  1
D3_01
100
AcDbText
  0
LWPOLYLINE
  5
7B
330
17
100
AcDbEntity
  8
LED_TOP
100
AcDbPolyline
 90
4
 70
1
 10
-8.866025403784445
 20
-13.356406460551014
 10
-9.866025403784445
 20
-15.08845726811989
 10
-8.13397459621557
 20
-16.088457268119893
 10
-7.133974596215569
 20
-14.356406460551014
  0
TEXT
  5
7C
330
17
100
AcDbEntity
  8
NOTES
100
AcDbText
 10
-8.500000000000007
 20
-14.722431864335451
 30
0.0
 40
0.65
  1
D3_02
100
AcDbText
  0
LWPOLYLINE
  5
7D
330
17
100
AcDbEntity
  8
LED_TOP
100
AcDbPolyline
 90
4
 70
1
 10
-9.96602540378445
 20
-15.261662348876781
 10
-10.96602540378445
 20
-16.993713156445658
 10
-9.233974596215571
 20
-17.993713156445658
 10
-8.233974596215571
 20
-16.261662348876783
  0
TEXT
  5
7E
330
17
100
AcDbEntity
  8
NOTES
100
AcDbText
 10
-9.60000000000001
 20
-16.62768775266122
 30
0.0
 40
0.65
  1
D3_03
100
AcDbText
  0
LWPOLYLINE
  5
7F
330
17
100
AcDbEntity
  8
LED_TOP
100
AcDbPolyline
 90
4
 70
1
 10
-11.066025403784447
 20
-17.166918237202545
 10
-12.066025403784451
 20
-18.898969044771423
 10
-10.333974596215572
 20
-19.898969044771423
 10
-9.333974596215572
 20
-18.166918237202545
  0
TEXT
  5
80
330
17
100
AcDbEntity
  8
NOTES
100
AcDbText
 10
-10.70000000000001
 20
-18.532943640986982
 30
0.0
 40
0.65
  1
D3_04
100
AcDbText
  0
LWPOLYLINE
  5
81
330
17
100
AcDbEntity
  8
LED_TOP
100
AcDbPolyline
 90
4
 70
1
 10
-12.166025403784449
 20
-19.07217412552831
 10
-13.166025403784449
 20
-20.804224933097185
 10
-11.433974596215574
 20
-21.804224933097185
 10
-10.433974596215574
 20
-20.07217412552831
  0
TEXT
  5
82
330
17
100
AcDbEntity
  8
NOTES
100
AcDbText
 10
-11.800000000000011
 20
-20.438199529312747
 30
0.0
 40
0.65
  1
D3_05
100
AcDbText
  0
LWPOLYLINE
  5
83
330
17
100
AcDbEntity
  8
LED_TOP
100
AcDbPolyline
 90
4
 70
1
 10
-13.26602540378445
 20
-20.97743001385407
 10
-14.26602540378445
 20
-22.70948082142295
 10
-12.533974596215575
 20
-23.70948082142295
 10
-11.533974596215572
 20
-21.97743001385407
  0
TEXT
  5
84
330
17
100
AcDbEntity
  8
NOTES
100
AcDbText
 10
-12.900000000000011
 20
-22.34345541763851
 30
0.0
 40
0.65
  1
D3_06
100
AcDbText
  0
LWPOLYLINE
  5
85
330
17
100
AcDbEntity
  8
LED_TOP
100
AcDbPolyline
 90
4
 70
1
 10
-14.366025403784452
 20
-22.882685902179837
 10
-15.366025403784452
 20
-24.614736709748712
 10
-13.633974596215573
 20
-25.614736709748712
 10
-12.633974596215573
 20
-23.882685902179837
  0
TEXT
  5
86
330
17
100
AcDbEntity
  8
NOTES
100
AcDbText
 10
-14.000000000000012
 20
-24.248711305964274
 30
0.0
 40
0.65
  1
D3_07
100
AcDbText
  0
LWPOLYLINE
  5
87
330
17
100
AcDbEntity
  8
LED_TOP
100
AcDbPolyline
 90
4
 70
1
 10
-15.466025403784453
 20
-24.787941790505602
 10
-16.466025403784453
 20
-26.51999259807448
 10
-14.733974596215578
 20
-27.51999259807448
 10
-13.733974596215575
 20
-25.787941790505602
  0
TEXT
  5
88
330
17
100
AcDbEntity
  8
NOTES
100
AcDbText
 10
-15.100000000000016
 20
-26.15396719429004
 30
0.0
 40
0.65
  1
D3_08
100
AcDbText
  0
LWPOLYLINE
  5
89
330
17
100
AcDbEntity
  8
LED_TOP
100
AcDbPolyline
 90
4
 70
1
 10
-16.566025403784455
 20
-26.69319767883137
 10
-17.566025403784455
 20
-28.425248486400246
 10
-15.83397459621558
 20
-29.425248486400246
 10
-14.83397459621558
 20
-27.69319767883137
  0
TEXT
  5
8A
330
17
100
AcDbEntity
  8
NOTES
100
AcDbText
 10
-16.200000000000017
 20
-28.05922308261581
 30
0.0
 40
0.65
  1
D3_09
100
AcDbText
  0
LWPOLYLINE
  5
8B
330
17
100
AcDbEntity
  8
LED_TOP
100
AcDbPolyline
 90
4
 70
1
 10
-17.666025403784452
 20
-28.59845356715713
 10
-18.666025403784452
 20
-30.330504374726008
 10
-16.933974596215577
 20
-31.330504374726008
 10
-15.933974596215577
 20
-29.59845356715713
  0
TEXT
  5
8C
330
17
100
AcDbEntity
  8
NOTES
100
AcDbText
 10
-17.300000000000015
 20
-29.96447897094157
 30
0.0
 40
0.65
  1
D3_10
100
AcDbText
  0
LWPOLYLINE
  5
8D
330
17
100
AcDbEntity
  8
LED_TOP
100
AcDbPolyline
 90
4
 70
1
 10
-18.76602540378445
 20
-30.50370945548289
 10
-19.766025403784454
 20
-32.235760263051766
 10
-18.03397459621558
 20
-33.235760263051766
 10
-17.033974596215575
 20
-31.50370945548289
  0
TEXT
  5
8E
330
17
100
AcDbEntity
  8
NOTES
100
AcDbText
 10
-18.400000000000016
 20
-31.86973485926733
 30
0.0
 40
0.65
  1
D3_11
100
AcDbText
  0
LWPOLYLINE
  5
8F
330
17
100
AcDbEntity
  8
LED_TOP
100
AcDbPolyline
 90
4
 70
1
 10
-19.866025403784455
 20
-32.40896534380866
 10
-20.866025403784455
 20
-34.141016151377535
 10
-19.13397459621558
 20
-35.141016151377535
 10
-18.13397459621558
 20
-33.40896534380866
  0
TEXT
  5
90
330
17
100
AcDbEntity
  8
NOTES
100
AcDbText
 10
-19.500000000000018
 20
-33.774990747593094
 30
0.0
 40
0.65
  1
D3_12
100
AcDbText
  0
LWPOLYLINE
  5
91
330
17
100
AcDbEntity
  8
LED_TOP
100
AcDbPolyline
 90
4
 70
1
 10
-20.966025403784457
 20
-34.31422123213442
 10
-21.966025403784457
 20
-36.046272039703304
 10
-20.23397459621558
 20
-37.046272039703304
 10
-19.23397459621558
 20
-35.31422123213442
  0
TEXT
  5
92
330
17
100
AcDbEntity
  8
NOTES
100
AcDbText
 10
-20.60000000000002
 20
-35.68024663591886
 30
0.0
 40
0.65
  1
D3_13
100
AcDbText
  0
LWPOLYLINE
  5
93
330
17
100
AcDbEntity
  8
LED_TOP
100
AcDbPolyline
 90
4
 70
1
 10
-22.066025403784458
 20
-36.21947712046019
 10
-23.06602540378446
 20
-37.951527928029066
 10
-21.333974596215587
 20
-38.951527928029066
 10
-20.333974596215583
 20
-37.21947712046019
  0
TEXT
  5
94
330
17
100
AcDbEntity
  8
NOTES
100
AcDbText
 10
-21.70000000000002
 20
-37.58550252424463
 30
0.0
 40
0.65
  1
D3_14
100
AcDbText
  0
LWPOLYLINE
  5
95
330
17
100
AcDbEntity
  8
LED_TOP
100
AcDbPolyline
 90
4
 70
1
 10
-23.166025403784463
 20
-38.12473300878596
 10
-24.166025403784463
 20
-39.856783816354834
 10
-22.433974596215588
 20
-40.856783816354834
 10
-21.433974596215588
 20
-39.12473300878596
  0
TEXT
  5
96
330
17
100
AcDbEntity
  8
NOTES
100
AcDbText
 10
-22.800000000000026
 20
-39.4907584125704
 30
0.0
 40
0.65
  1
D3_15
100
AcDbText
  0
LWPOLYLINE
  5
97
330
17
100
AcDbEntity
  8
TIP_INTERFACE
100
AcDbPolyline
 90
4
 70
1
 10
44.8
 20
-3.5
 10
47.2
 20
-3.5
 10
47.2
 20
3.5
 10
44.8
 20
3.5
  0
LWPOLYLINE
  5
98
330
17
100
AcDbEntity
  8
TIP_INTERFACE
100
AcDbPolyline
 90
4
 70
1
 10
-19.368911086754455
 20
40.54793808954285
 10
-20.568911086754458
 20
42.62639905862551
 10
-26.63108891324553
 20
39.12639905862551
 10
-25.431088913245528
 20
37.04793808954285
  0
LWPOLYLINE
  5
99
330
17
100
AcDbEntity
  8
TIP_INTERFACE
100
AcDbPolyline
 90
4
 70
1
 10
-25.431088913245553
 20
-37.04793808954284
 10
-26.631088913245556
 20
-39.126399058625495
 10
-20.56891108675449
 20
-42.626399058625495
 10
-19.368911086754487
 20
-40.54793808954284
  0
LWPOLYLINE
  5
9A
330
17
100
AcDbEntity
  8
COURTYARD
100
AcDbPolyline
 90
4
 70
1
 10
17.0
 20
-5.75
 10
37.0
 20
-5.75
 10
37.0
 20
5.75
 10
17.0
 20
5.75
  0
LWPOLYLINE
  5
9B
330
17
100
AcDbEntity
  8
COURTYARD
100
AcDbPolyline
 90
4
 70
1
 10
-3.520353928239474
 20
17.59743186433546
 10
-13.52035392823947
 20
34.91793994002423
 10
-23.479646071760516
 20
29.167939940024233
 10
-13.47964607176052
 20
11.847431864335459
  0
LWPOLYLINE
  5
9C
330
17
100
AcDbEntity
  8
COURTYARD
100
AcDbPolyline
 90
4
 70
1
 10
-13.479646071760527
 20
-11.847431864335448
 10
-23.479646071760538
 20
-29.167939940024215
 10
-13.520353928239498
 20
-34.91793994002422
 10
-3.5203539282394862
 20
-17.597431864335455
  0
LWPOLYLINE
  5
9D
330
17
100
AcDbEntity
  8
PLACEMENT_ZONES
100
AcDbPolyline
 90
4
 70
1
 10
12.5
 20
0.09999999999999964
 10
24.5
 20
0.09999999999999964
 10
24.5
 20
9.1
 10
12.5
 20
9.1
  0
TEXT
  5
9E
330
17
100
AcDbEntity
  8
NOTES
100
AcDbText
 10
18.5
 20
4.6
 30
0.0
 40
0.8
  1
nRF52/BLE 12x9
100
AcDbText
  0
LWPOLYLINE
  5
9F
330
17
100
AcDbEntity
  8
PLACEMENT_ZONES
100
AcDbPolyline
 90
4
 70
1
 10
-6.336602540378442
 20
10.775317547305486
 10
-12.33660254037844
 20
21.167622392718748
 10
-20.130831174438388
 20
16.66762239271875
 10
-14.130831174438391
 20
6.2753175473054865
  0
TEXT
  5
A0
330
17
100
AcDbEntity
  8
NOTES
100
AcDbText
 10
-13.233716857408414
 20
13.721469970012118
 30
0.0
 40
0.8
  1
POWER 12x9
100
AcDbText
  0
LWPOLYLINE
  5
A1
330
17
100
AcDbEntity
  8
PLACEMENT_ZONES
100
AcDbPolyline
 90
4
 70
1
 10
-6.163397459621562
 20
-10.87531754730548
 10
-12.163397459621567
 20
-21.267622392718742
 10
-4.369168825561622
 20
-25.767622392718746
 10
1.6308311744383834
 20
-15.375317547305484
  0
TEXT
  5
A2
330
17
100
AcDbEntity
  8
NOTES
100
AcDbText
 10
-5.266283142591593
 20
-18.32146997001211
 30
0.0
 40
0.8
  1
CHARGE/USB PADS 12x9
100
AcDbText
  0
LWPOLYLINE
  5
A3
330
17
100
AcDbEntity
  8
PLACEMENT_ZONES
100
AcDbPolyline
 90
4
 70
1
 10
12.1
 20
-4.0
 10
14.700000000000001
 20
-4.0
 10
14.700000000000001
 20
-2.0
 10
12.1
 20
-2.0
  0
TEXT
  5
A4
330
17
100
AcDbEntity
  8
NOTES
100
AcDbText
 10
13.4
 20
-3.0
 30
0.0
 40
0.75
  1
HALL
100
AcDbText
  0
CIRCLE
  5
A5
330
17
100
AcDbEntity
  8
BALANCE
100
AcDbCircle
 10
43.5
 20
5.4
 30
0.0
 40
1.2
  0
CIRCLE
  5
A6
330
17
100
AcDbEntity
  8
BALANCE
100
AcDbCircle
 10
-26.42653718043596
 20
34.97210506462308
 30
0.0
 40
1.2
  0
CIRCLE
  5
A7
330
17
100
AcDbEntity
  8
BALANCE
100
AcDbCircle
 10
-17.07346281956405
 20
-40.37210506462307
 30
0.0
 40
1.2
  0
TEXT
  5
A8
330
17
100
AcDbEntity
  8
NOTES
100
AcDbText
 10
-48.0
 20
-55.0
 30
0.0
 40
1.2
  1
Ticker Spinner v0.2 PCB mechanical template - mm - verify footprints before routing
100
AcDbText
  0
ENDSEC
  0
SECTION
  2
OBJECTS
  0
DICTIONARY
  5
A
330
0
100
AcDbDictionary
281
1
  3
ACAD_COLOR
350
B
  3
ACAD_GROUP
350
C
  3
ACAD_LAYOUT
350
D
  3
ACAD_MATERIAL
350
E
  3
ACAD_MLEADERSTYLE
350
F
  3
ACAD_MLINESTYLE
350
10
  3
ACAD_PLOTSETTINGS
350
11
  3
ACAD_PLOTSTYLENAME
350
12
  3
ACAD_SCALELIST
350
14
  3
ACAD_TABLESTYLE
350
15
  3
ACAD_VISUALSTYLE
350
16
  3
EZDXF_META
350
2D
  0
DICTIONARY
  5
B
330
A
100
AcDbDictionary
281
1
  0
DICTIONARY
  5
C
330
A
100
AcDbDictionary
281
1
  0
DICTIONARY
  5
D
330
A
100
AcDbDictionary
281
1
  3
Model
350
1A
  3
Layout1
350
1E
  0
DICTIONARY
  5
E
330
A
100
AcDbDictionary
281
1
  3
ByBlock
350
1F
  3
ByLayer
350
20
  3
Global
350
21
  0
DICTIONARY
  5
F
330
A
100
AcDbDictionary
281
1
  3
Standard
350
2C
  0
DICTIONARY
  5
10
330
A
100
AcDbDictionary
281
1
  3
Standard
350
22
  0
DICTIONARY
  5
11
330
A
100
AcDbDictionary
281
1
  0
ACDBDICTIONARYWDFLT
  5
12
330
A
100
AcDbDictionary
281
1
  3
Normal
350
13
100
AcDbDictionaryWithDefault
340
13
  0
ACDBPLACEHOLDER
  5
13
330
12
  0
DICTIONARY
  5
14
330
A
100
AcDbDictionary
281
1
  0
DICTIONARY
  5
15
330
A
100
AcDbDictionary
281
1
  0
DICTIONARY
  5
16
330
A
100
AcDbDictionary
281
1
  0
LAYOUT
  5
1A
330
D
100
AcDbPlotSettings
  1

  4
A3
  6

 40
7.5
 41
20.0
 42
7.5
 43
20.0
 44
420.0
 45
297.0
 46
0.0
 47
0.0
 48
0.0
 49
0.0
140
0.0
141
0.0
142
1.0
143
1.0
 70
1024
 72
1
 73
0
 74
5
  7

 75
16
 76
0
 77
2
 78
300
147
1.0
148
0.0
149
0.0
100
AcDbLayout
  1
Model
 70
1
 71
0
 10
0.0
 20
0.0
 11
420.0
 21
297.0
 12
0.0
 22
0.0
 32
0.0
 14
1e+20
 24
1e+20
 34
1e+20
 15
-1e+20
 25
-1e+20
 35
-1e+20
146
0.0
 13
0.0
 23
0.0
 33
0.0
 16
1.0
 26
0.0
 36
0.0
 17
0.0
 27
1.0
 37
0.0
 76
1
330
17
  0
LAYOUT
  5
1E
330
D
100
AcDbPlotSettings
  1

  4
A3
  6

 40
7.5
 41
20.0
 42
7.5
 43
20.0
 44
420.0
 45
297.0
 46
0.0
 47
0.0
 48
0.0
 49
0.0
140
0.0
141
0.0
142
1.0
143
1.0
 70
0
 72
1
 73
0
 74
5
  7

 75
16
 76
0
 77
2
 78
300
147
1.0
148
0.0
149
0.0
100
AcDbLayout
  1
Layout1
 70
1
 71
1
 10
0.0
 20
0.0
 11
420.0
 21
297.0
 12
0.0
 22
0.0
 32
0.0
 14
1e+20
 24
1e+20
 34
1e+20
 15
-1e+20
 25
-1e+20
 35
-1e+20
146
0.0
 13
0.0
 23
0.0
 33
0.0
 16
1.0
 26
0.0
 36
0.0
 17
0.0
 27
1.0
 37
0.0
 76
1
330
1B
  0
MATERIAL
  5
1F
102
{ACAD_REACTORS
330
E
102
}
330
E
100
AcDbMaterial
  1
ByBlock
  2

 70
0
 40
1.0
 71
1
 41
1.0
 91
-1023410177
 42
1.0
 72
1
  3

 73
1
 74
1
 75
1
 44
0.5
 73
0
 45
1.0
 46
1.0
 77
1
  4

 78
1
 79
1
170
1
 48
1.0
171
1
  6

172
1
173
1
174
1
140
1.0
141
1.0
175
1
  7

176
1
177
1
178
1
143
1.0
179
1
  8

270
1
271
1
272
1
145
1.0
146
1.0
273
1
  9

274
1
275
1
276
1
 42
1.0
 72
1
  3

 73
1
 74
1
 75
1
 94
63
  0
MATERIAL
  5
20
102
{ACAD_REACTORS
330
E
102
}
330
E
100
AcDbMaterial
  1
ByLayer
  2

 70
0
 40
1.0
 71
1
 41
1.0
 91
-1023410177
 42
1.0
 72
1
  3

 73
1
 74
1
 75
1
 44
0.5
 73
0
 45
1.0
 46
1.0
 77
1
  4

 78
1
 79
1
170
1
 48
1.0
171
1
  6

172
1
173
1
174
1
140
1.0
141
1.0
175
1
  7

176
1
177
1
178
1
143
1.0
179
1
  8

270
1
271
1
272
1
145
1.0
146
1.0
273
1
  9

274
1
275
1
276
1
 42
1.0
 72
1
  3

 73
1
 74
1
 75
1
 94
63
  0
MATERIAL
  5
21
102
{ACAD_REACTORS
330
E
102
}
330
E
100
AcDbMaterial
  1
Global
  2

 70
0
 40
1.0
 71
1
 41
1.0
 91
-1023410177
 42
1.0
 72
1
  3

 73
1
 74
1
 75
1
 44
0.5
 73
0
 45
1.0
 46
1.0
 77
1
  4

 78
1
 79
1
170
1
 48
1.0
171
1
  6

172
1
173
1
174
1
140
1.0
141
1.0
175
1
  7

176
1
177
1
178
1
143
1.0
179
1
  8

270
1
271
1
272
1
145
1.0
146
1.0
273
1
  9

274
1
275
1
276
1
 42
1.0
 72
1
  3

 73
1
 74
1
 75
1
 94
63
  0
MLINESTYLE
  5
22
102
{ACAD_REACTORS
330
10
102
}
330
10
100
AcDbMlineStyle
  2
Standard
 70
0
  3

 62
256
 51
90.0
 52
90.0
 71
2
 49
0.5
 62
256
  6
BYLAYER
 49
-0.5
 62
256
  6
BYLAYER
  0
MLEADERSTYLE
  5
2C
102
{ACAD_REACTORS
330
F
102
}
330
F
100
AcDbMLeaderStyle
179
2
170
2
171
1
172
0
 90
2
 40
0.0
 41
0.0
173
1
 91
-1056964608
 92
-2
290
1
 42
2.0
291
1
 43
8.0
  3
Standard
 44
4.0
300

342
29
174
1
175
1
176
0
178
1
 93
-1056964608
 45
4.0
292
0
297
0
 46
4.0
 94
-1056964608
 47
1.0
 49
1.0
140
1.0
294
1
141
0.0
177
0
142
1.0
295
0
296
0
143
3.75
271
0
272
9
273
9
  0
DICTIONARY
  5
2D
330
A
100
AcDbDictionary
280
1
281
1
  3
CREATED_BY_EZDXF
350
2E
  3
WRITTEN_BY_EZDXF
350
AB
  0
DICTIONARYVAR
  5
2E
330
2D
100
DictionaryVariables
280
0
  1
1.4.4 @ 2026-09-08T17:58:11.635594+00:00
  0
DICTIONARYVAR
  5
AB
330
2D
100
DictionaryVariables
280
0
  1
1.4.4 @ 2026-09-08T17:58:11.791577+00:00
  0
ENDSEC
  0
EOF
